<svg xmlns="http://www.w3.org/2000/svg" viewBox="0 0 1024 1024">
<path d="M 455 495 L 448 506 L 448 516 L 445 516 L 444 521 L 446 521 L 446 525 L 451 527 L 450 529 L 458 537 L 458 540 L 457 534 L 448 521 L 451 517 L 456 515 L 486 517 L 489 521 L 480 540 L 493 548 L 480 540 L 493 521 L 493 518 L 490 516 L 490 501 L 487 500 L 488 498 L 477 494 Z" fill="#21bbf3"/>
<path d="M 499 477 L 496 480 L 498 479 L 500 482 L 502 499 L 503 479 L 526 486 L 526 497 L 519 500 L 517 498 L 521 542 L 521 499 L 548 509 L 547 515 L 550 518 L 544 517 L 544 515 L 541 516 L 541 514 L 538 516 L 540 517 L 540 522 L 540 518 L 544 518 L 543 531 L 543 520 L 545 518 L 566 525 L 566 558 L 567 553 L 568 560 L 567 522 L 563 523 L 557 521 L 557 519 L 551 519 L 546 506 L 543 507 L 538 505 L 538 503 L 535 504 L 530 502 L 530 500 L 528 501 L 527 483 L 523 484 L 523 482 L 519 483 L 519 481 L 515 482 Z" fill="#21bbf3"/>
<path d="M 428 567 L 428 571 L 511 570 L 511 564 L 507 558 L 502 556 L 470 556 L 456 553 L 433 556 Z" fill="#104ebc"/>
<path d="M 529 523 L 529 533 L 537 541 L 539 556 L 538 533 L 535 524 Z" fill="#104ebc"/>
<path d="M 509 507 L 510 520 L 515 520 L 517 524 L 517 509 Z" fill="#104ebc"/>
<path d="M 545 545 L 544 572 L 564 573 L 564 551 L 562 549 L 546 548 Z" fill="#051c46"/>
<path d="M 498 525 L 489 538 L 489 541 L 494 544 L 498 544 Z" fill="#051c46"/>
<path d="M 528 506 L 523 510 L 523 566 L 519 567 L 521 572 L 527 572 L 528 569 L 527 523 L 538 512 L 537 509 Z" fill="#051c46"/>
<path d="M 507 485 L 504 488 L 504 548 L 507 550 L 507 505 L 522 493 L 521 488 Z" fill="#051c46"/>
<path d="M 428 556 L 428 566 L 428 562 L 433 555 L 446 552 L 470 555 L 502 555 L 507 557 L 511 563 L 511 556 L 494 550 L 480 542 L 478 536 L 480 537 L 481 535 L 479 535 L 480 529 L 478 527 L 455 526 L 460 535 L 459 541 L 444 550 Z" fill="#0b74df"/>
<path d="M 545 521 L 544 571 L 544 540 L 546 540 L 546 536 L 551 535 L 545 533 L 546 525 L 552 524 L 552 527 L 548 527 L 564 532 L 563 537 L 553 536 L 563 539 L 561 542 L 564 544 L 564 550 L 564 527 Z" fill="#062d75"/>
<path d="M 490 488 L 490 499 L 493 504 L 496 522 L 484 540 L 515 554 L 516 574 L 506 576 L 514 576 L 520 572 L 517 566 L 517 555 L 503 548 L 503 513 L 503 548 L 499 547 L 499 534 L 498 545 L 488 541 L 490 533 L 498 524 L 497 491 L 496 510 L 490 495 L 492 492 L 490 492 Z" fill="#062d75"/>
<path d="M 431 566 L 431 570 L 481 568 L 469 566 Z" fill="#0746b4"/>
<path d="M 529 534 L 529 570 L 539 569 L 538 546 Z" fill="#0746b4"/>
<path d="M 509 519 L 509 552 L 512 551 L 517 554 L 517 525 L 515 521 L 510 521 Z" fill="#0746b4"/>
<path d="M 449 520 L 458 535 L 455 525 L 479 527 L 481 529 L 479 538 L 488 521 L 486 518 L 456 516 Z" fill="#248bda"/>
</svg>