<svg xmlns="http://www.w3.org/2000/svg" viewBox="0 0 1024 1024">
<path d="M 945 374 L 957 398 L 965 421 L 977 476 L 978 538 L 972 582 L 956 632 L 921 701 L 903 724 L 860 771 L 894 738 L 927 695 L 956 640 L 966 615 L 976 578 L 982 521 L 979 473 L 964 416 Z" fill="#f61321"/>
<path d="M 339 201 L 310 213 L 269 234 L 225 263 L 201 282 L 161 323 L 128 367 L 127 365 L 131 358 L 116 383 L 99 421 L 90 452 L 85 484 L 85 534 L 91 568 L 103 606 L 122 644 L 110 621 L 102 598 L 103 595 L 129 649 L 144 672 L 170 704 L 195 729 L 232 758 L 258 775 L 297 796 L 339 814 L 380 827 L 424 837 L 469 843 L 566 841 L 586 838 L 594 834 L 610 832 L 663 818 L 702 803 L 757 775 L 787 755 L 814 733 L 855 689 L 885 644 L 896 622 L 908 589 L 918 531 L 916 477 L 900 412 L 891 390 L 874 359 L 842 316 L 794 270 L 750 239 L 722 223 L 685 206 L 620 185 L 573 176 L 525 172 L 488 172 L 416 180 L 377 189 Z" fill="#f61321"/>
<path d="M 940 364 L 924 336 L 903 306 L 910 311 L 921 325 L 892 287 L 862 257 L 891 288 L 890 290 L 845 244 L 810 216 L 752 181 L 705 160 L 674 149 L 622 135 L 540 124 L 461 125 L 411 131 L 373 139 L 306 159 L 267 176 L 222 200 L 165 241 L 134 270 L 104 303 L 74 348 L 53 389 L 34 445 L 29 489 L 29 533 L 37 583 L 46 614 L 70 667 L 91 700 L 113 725 L 88 690 L 71 661 L 51 618 L 42 591 L 34 555 L 32 535 L 32 488 L 37 442 L 46 414 L 63 375 L 79 345 L 103 308 L 129 277 L 151 255 L 176 234 L 186 230 L 191 222 L 208 211 L 210 212 L 209 215 L 204 217 L 203 221 L 199 224 L 200 226 L 193 229 L 195 231 L 192 234 L 197 232 L 198 235 L 190 237 L 186 241 L 183 240 L 185 241 L 184 247 L 179 248 L 166 261 L 166 268 L 164 269 L 176 274 L 168 278 L 162 286 L 160 283 L 161 288 L 153 295 L 148 294 L 156 302 L 158 294 L 161 297 L 165 294 L 167 298 L 173 293 L 169 290 L 174 284 L 176 287 L 178 286 L 178 281 L 181 279 L 177 277 L 178 274 L 182 276 L 182 273 L 189 278 L 190 275 L 210 261 L 213 256 L 217 256 L 230 246 L 229 244 L 237 237 L 245 236 L 250 232 L 253 233 L 240 242 L 256 232 L 253 233 L 254 230 L 261 229 L 300 207 L 363 183 L 399 174 L 449 166 L 535 164 L 597 171 L 657 186 L 632 166 L 637 165 L 691 182 L 732 200 L 767 220 L 799 242 L 840 277 L 876 316 L 903 356 L 917 385 L 906 363 L 905 355 L 909 357 L 908 359 L 915 373 L 921 377 L 920 382 L 922 381 L 923 383 L 924 381 L 924 385 L 932 389 L 936 387 L 937 389 L 941 388 L 942 385 L 936 382 L 939 380 L 936 378 L 938 377 L 932 356 L 929 354 L 930 349 Z" fill="#f61321"/>
<path d="M 415 121 L 397 123 L 340 139 L 333 139 L 336 136 L 362 128 L 362 126 L 352 128 L 306 145 L 268 165 L 273 165 L 295 155 L 347 137 L 404 122 Z" fill="#f61321"/>
<path d="M 847 774 L 842 779 L 839 778 L 837 781 L 833 781 L 832 784 L 827 785 L 827 789 L 820 790 L 816 797 L 803 800 L 801 804 L 791 807 L 787 812 L 771 817 L 773 819 L 751 833 L 746 838 L 749 839 L 747 841 L 739 843 L 730 849 L 770 832 L 803 813 L 828 796 L 846 778 Z" fill="#241a38"/>
<path d="M 224 787 L 231 788 L 233 792 L 235 791 L 240 794 L 245 789 L 241 787 L 242 784 L 252 785 L 255 783 L 230 768 L 231 773 L 234 775 L 234 780 L 224 782 Z" fill="#241a38"/>
<path d="M 105 750 L 160 797 L 175 805 L 192 819 L 198 820 L 252 852 L 299 873 L 353 892 L 403 902 L 354 892 L 305 875 L 257 854 L 201 822 L 165 796 L 150 788 L 135 773 L 129 771 L 125 765 L 121 764 Z" fill="#241a38"/>
<path d="M 68 689 L 100 738 L 115 751 L 93 725 Z" fill="#241a38"/>
<path d="M 888 656 L 877 674 L 848 710 L 818 740 L 793 760 L 761 781 L 718 803 L 658 826 L 605 838 L 559 844 L 465 845 L 432 842 L 431 840 L 415 840 L 389 835 L 349 824 L 294 804 L 280 796 L 276 797 L 285 804 L 295 805 L 308 820 L 305 823 L 304 821 L 293 819 L 255 795 L 248 796 L 249 801 L 246 803 L 245 799 L 245 815 L 238 823 L 236 822 L 252 832 L 297 853 L 369 876 L 374 876 L 359 865 L 357 867 L 355 864 L 341 862 L 340 860 L 344 859 L 337 854 L 333 854 L 330 851 L 335 850 L 329 847 L 352 846 L 352 848 L 343 849 L 357 851 L 359 849 L 354 848 L 354 845 L 363 847 L 366 845 L 380 848 L 375 849 L 404 853 L 538 851 L 583 846 L 635 844 L 674 832 L 689 831 L 692 827 L 695 828 L 702 824 L 711 823 L 720 817 L 726 817 L 731 814 L 763 812 L 757 804 L 761 804 L 763 799 L 766 800 L 766 798 L 771 797 L 770 794 L 772 792 L 778 791 L 780 787 L 784 786 L 832 738 L 868 694 L 876 677 L 885 665 Z" fill="#241a38"/>
<path d="M 218 647 L 216 647 L 214 659 L 203 670 L 215 669 L 224 665 L 222 653 Z" fill="#241a38"/>
<path d="M 307 625 L 313 632 L 321 632 L 322 630 L 329 632 L 332 629 L 335 635 L 340 634 L 347 638 L 352 633 L 358 638 L 365 636 L 371 630 L 378 630 L 379 628 L 382 631 L 377 634 L 383 631 L 398 632 L 399 629 L 402 629 L 404 634 L 411 632 L 416 634 L 415 631 L 417 629 L 422 636 L 426 633 L 434 633 L 436 630 L 440 632 L 444 630 L 447 634 L 456 635 L 454 633 L 458 629 L 462 630 L 462 633 L 458 634 L 462 635 L 478 633 L 484 630 L 490 633 L 491 636 L 514 634 L 518 637 L 519 643 L 522 640 L 531 642 L 529 637 L 531 634 L 535 638 L 537 646 L 539 644 L 552 643 L 555 638 L 566 635 L 581 637 L 605 636 L 609 637 L 614 645 L 622 645 L 627 652 L 618 654 L 627 654 L 629 662 L 634 659 L 635 652 L 641 647 L 656 645 L 665 641 L 672 642 L 677 648 L 684 648 L 686 643 L 703 640 L 713 649 L 717 641 L 722 637 L 728 636 L 738 625 Z" fill="#241a38"/>
<path d="M 246 624 L 247 627 L 252 627 L 257 632 L 266 630 L 272 633 L 276 639 L 283 641 L 292 655 L 287 658 L 291 662 L 296 658 L 299 659 L 298 662 L 316 659 L 323 660 L 329 666 L 343 661 L 337 660 L 333 655 L 316 655 L 314 653 L 316 651 L 311 647 L 297 645 L 293 639 L 285 634 L 284 629 L 287 625 Z" fill="#241a38"/>
<path d="M 211 608 L 240 610 L 744 609 L 744 611 L 405 611 L 775 611 L 786 608 Z" fill="#241a38"/>
<path d="M 264 582 L 264 598 L 283 598 L 282 581 Z" fill="#241a38"/>
<path d="M 236 582 L 236 599 L 255 598 L 255 582 Z" fill="#241a38"/>
<path d="M 550 571 L 552 597 L 590 597 L 590 570 Z" fill="#241a38"/>
<path d="M 498 571 L 499 597 L 537 596 L 536 570 Z" fill="#241a38"/>
<path d="M 449 571 L 448 565 L 444 568 L 381 568 L 387 570 Z" fill="#241a38"/>
<path d="M 264 557 L 264 574 L 283 574 L 283 556 Z" fill="#241a38"/>
<path d="M 235 557 L 236 575 L 255 574 L 254 556 Z" fill="#241a38"/>
<path d="M 669 541 L 676 543 L 741 545 L 689 540 Z" fill="#241a38"/>
<path d="M 552 534 L 552 562 L 590 561 L 590 534 Z" fill="#241a38"/>
<path d="M 498 534 L 499 562 L 537 561 L 537 534 Z" fill="#241a38"/>
<path d="M 254 502 L 251 503 L 240 522 L 221 545 L 206 560 L 203 567 L 194 569 L 200 569 L 205 572 L 204 568 L 220 549 L 235 535 L 249 517 L 259 509 Z" fill="#241a38"/>
<path d="M 360 488 L 426 495 L 434 498 L 439 494 L 409 494 L 411 492 L 400 493 L 400 491 L 404 491 Z" fill="#241a38"/>
<path d="M 194 488 L 170 498 L 167 503 L 153 501 L 161 516 L 157 532 L 179 531 L 178 511 L 190 499 Z" fill="#241a38"/>
<path d="M 535 464 L 531 464 L 457 539 Z" fill="#241a38"/>
<path d="M 88 449 L 81 492 L 81 535 L 86 568 L 102 620 L 116 653 L 132 681 L 131 684 L 144 704 L 143 707 L 146 711 L 143 713 L 145 712 L 146 714 L 143 717 L 129 715 L 131 712 L 126 709 L 123 710 L 119 704 L 118 706 L 113 702 L 114 700 L 107 696 L 91 675 L 85 674 L 85 668 L 77 662 L 74 653 L 68 648 L 60 631 L 87 684 L 114 723 L 132 742 L 156 749 L 155 746 L 165 743 L 184 749 L 187 741 L 194 740 L 169 713 L 137 674 L 113 634 L 93 585 L 84 547 L 82 528 L 83 479 Z" fill="#241a38"/>
<path d="M 599 428 L 609 431 L 746 445 L 781 451 L 789 449 L 789 446 L 757 446 Z" fill="#241a38"/>
<path d="M 988 415 L 986 434 L 994 488 L 994 551 L 992 550 L 985 595 L 975 629 L 956 672 L 930 716 L 905 747 L 868 786 L 857 794 L 859 796 L 852 799 L 853 801 L 847 809 L 797 840 L 705 880 L 685 898 L 644 911 L 596 919 L 565 919 L 538 923 L 475 923 L 469 921 L 469 917 L 466 914 L 437 907 L 406 903 L 434 907 L 446 912 L 442 916 L 473 923 L 545 923 L 572 919 L 598 919 L 646 911 L 688 898 L 703 889 L 711 879 L 747 862 L 786 848 L 791 849 L 795 846 L 801 846 L 806 841 L 831 829 L 844 819 L 876 786 L 911 757 L 933 734 L 948 712 L 959 688 L 974 667 L 995 618 L 1000 597 L 995 617 L 990 624 L 990 629 L 980 655 L 960 685 L 959 682 L 973 660 L 984 629 L 991 616 L 1001 569 L 1004 540 L 1004 501 L 1001 470 L 996 445 L 993 441 L 993 433 L 991 428 L 988 427 L 989 425 L 991 426 Z" fill="#241a38"/>
<path d="M 964 360 L 964 367 L 980 392 L 975 376 L 968 363 Z" fill="#241a38"/>
<path d="M 883 458 L 879 445 L 870 431 L 871 424 L 869 416 L 866 414 L 866 408 L 862 404 L 861 397 L 858 395 L 858 391 L 854 387 L 855 385 L 849 373 L 846 372 L 845 366 L 837 356 L 822 357 L 812 367 L 805 356 L 806 347 L 800 357 L 785 362 L 785 370 L 781 373 L 781 379 L 774 387 L 778 391 L 777 398 L 775 399 L 783 401 L 785 407 L 789 406 L 791 409 L 791 419 L 787 421 L 788 431 L 791 429 L 794 431 L 791 438 L 802 429 L 823 425 L 830 430 L 840 430 L 845 436 L 857 434 L 866 442 L 870 442 L 879 453 L 884 483 L 876 491 L 877 500 L 883 503 L 880 506 L 876 530 L 879 538 L 876 564 L 870 571 L 862 570 L 854 573 L 855 575 L 862 576 L 865 581 L 868 605 L 862 609 L 861 614 L 857 618 L 852 618 L 843 610 L 837 608 L 827 608 L 824 616 L 819 620 L 808 617 L 807 623 L 810 635 L 801 648 L 811 645 L 817 650 L 829 651 L 831 653 L 829 658 L 799 685 L 797 694 L 789 699 L 782 699 L 771 683 L 769 688 L 773 692 L 764 696 L 762 706 L 757 712 L 750 712 L 743 716 L 739 715 L 721 722 L 719 714 L 722 705 L 731 695 L 730 693 L 724 694 L 719 700 L 716 699 L 716 714 L 695 727 L 686 738 L 678 740 L 661 738 L 663 745 L 658 757 L 668 762 L 668 766 L 665 769 L 640 770 L 637 766 L 637 759 L 644 752 L 640 752 L 629 758 L 620 757 L 616 762 L 617 769 L 614 772 L 606 772 L 603 776 L 589 777 L 579 781 L 577 784 L 569 779 L 558 779 L 549 775 L 543 780 L 526 779 L 519 783 L 513 782 L 509 790 L 511 792 L 518 784 L 526 783 L 539 786 L 541 788 L 540 793 L 527 793 L 512 802 L 471 802 L 471 798 L 479 790 L 490 787 L 485 784 L 452 787 L 451 784 L 448 785 L 444 781 L 437 781 L 433 777 L 432 771 L 427 767 L 414 763 L 407 764 L 404 759 L 399 758 L 395 759 L 403 763 L 402 771 L 400 773 L 389 772 L 382 758 L 373 757 L 371 760 L 368 757 L 355 754 L 352 751 L 352 736 L 344 731 L 339 734 L 336 733 L 322 720 L 307 722 L 303 717 L 295 714 L 271 694 L 252 682 L 246 682 L 235 687 L 223 686 L 214 681 L 205 683 L 196 678 L 192 671 L 186 671 L 173 665 L 191 689 L 215 713 L 218 713 L 229 725 L 263 749 L 290 764 L 292 763 L 295 767 L 299 767 L 299 769 L 305 772 L 307 771 L 311 775 L 316 775 L 320 779 L 326 779 L 328 782 L 336 783 L 338 786 L 346 787 L 358 793 L 362 792 L 361 794 L 375 796 L 377 799 L 390 800 L 390 802 L 397 804 L 408 804 L 411 807 L 427 808 L 428 810 L 441 809 L 441 811 L 435 811 L 465 812 L 466 814 L 532 815 L 522 814 L 574 811 L 646 795 L 702 774 L 746 750 L 803 708 L 837 669 L 852 645 L 853 640 L 856 638 L 858 630 L 860 630 L 862 622 L 866 618 L 864 617 L 870 609 L 871 600 L 873 601 L 874 593 L 876 592 L 875 588 L 877 589 L 878 581 L 880 580 L 879 576 L 881 577 L 882 565 L 884 564 L 883 559 L 886 556 L 887 548 L 885 546 L 888 543 L 889 504 L 887 502 L 888 493 Z" fill="#241a38"/>
<path d="M 324 317 L 337 323 L 353 323 L 355 320 L 353 317 L 337 313 L 332 318 Z" fill="#241a38"/>
<path d="M 677 262 L 677 265 L 685 271 L 689 271 L 690 275 L 702 274 L 713 282 L 715 281 L 716 287 L 722 292 L 726 291 L 727 293 L 738 294 L 747 298 L 756 305 L 775 314 L 777 318 L 795 327 L 805 328 L 815 334 L 810 326 L 785 306 L 765 304 L 762 300 L 763 293 L 761 289 L 744 278 L 739 270 L 726 260 L 719 257 L 716 259 L 715 265 L 708 263 L 693 271 L 690 269 L 687 259 Z" fill="#241a38"/>
<path d="M 775 287 L 727 253 L 699 238 L 694 238 L 694 236 L 689 235 L 685 231 L 680 231 L 675 227 L 666 226 L 662 222 L 613 207 L 601 206 L 600 204 L 594 205 L 595 203 L 577 200 L 569 201 L 570 199 L 555 197 L 481 195 L 486 196 L 432 200 L 356 219 L 294 247 L 243 280 L 212 306 L 189 330 L 157 374 L 131 429 L 132 432 L 129 435 L 126 446 L 127 450 L 125 449 L 123 471 L 121 469 L 119 484 L 121 545 L 123 543 L 123 556 L 125 566 L 127 564 L 126 570 L 128 570 L 129 581 L 131 580 L 130 584 L 132 584 L 137 603 L 140 605 L 141 612 L 144 614 L 143 616 L 146 622 L 148 622 L 147 624 L 150 630 L 152 630 L 152 634 L 155 635 L 154 637 L 158 642 L 163 638 L 173 648 L 184 650 L 187 660 L 194 658 L 198 654 L 198 647 L 189 629 L 189 625 L 175 620 L 186 618 L 176 615 L 177 612 L 185 609 L 175 605 L 169 595 L 164 597 L 165 602 L 159 598 L 160 596 L 153 589 L 150 579 L 137 555 L 135 542 L 142 539 L 132 522 L 130 499 L 132 498 L 140 507 L 137 509 L 140 511 L 148 501 L 145 492 L 146 487 L 139 477 L 139 473 L 149 468 L 154 470 L 159 479 L 163 480 L 162 485 L 164 488 L 169 490 L 193 479 L 204 467 L 204 463 L 213 459 L 195 441 L 194 432 L 185 423 L 181 425 L 180 430 L 174 427 L 173 423 L 165 427 L 145 426 L 144 424 L 151 419 L 161 417 L 173 411 L 180 413 L 192 404 L 211 402 L 211 392 L 196 393 L 179 406 L 174 406 L 167 411 L 154 413 L 150 410 L 159 402 L 162 393 L 179 372 L 207 352 L 208 348 L 204 344 L 208 339 L 222 338 L 247 321 L 263 314 L 290 312 L 285 303 L 276 302 L 268 294 L 270 292 L 278 291 L 293 282 L 300 282 L 300 287 L 308 289 L 331 274 L 348 278 L 373 268 L 387 266 L 391 263 L 413 262 L 414 258 L 406 257 L 402 251 L 404 246 L 413 243 L 439 242 L 456 247 L 460 244 L 490 236 L 508 239 L 519 236 L 524 242 L 521 250 L 509 260 L 504 262 L 481 261 L 473 267 L 477 268 L 477 272 L 467 272 L 451 283 L 440 294 L 428 294 L 429 301 L 422 313 L 412 317 L 404 314 L 398 316 L 391 315 L 390 321 L 385 316 L 375 329 L 363 328 L 361 334 L 366 337 L 372 337 L 376 332 L 380 337 L 399 336 L 399 334 L 395 335 L 393 332 L 395 330 L 399 331 L 398 325 L 400 323 L 413 327 L 415 324 L 422 323 L 425 318 L 429 317 L 443 304 L 446 293 L 449 290 L 456 289 L 460 284 L 487 291 L 496 291 L 500 298 L 495 303 L 509 302 L 515 297 L 523 296 L 526 293 L 532 298 L 543 285 L 555 284 L 556 280 L 550 276 L 549 270 L 555 263 L 557 252 L 563 247 L 577 243 L 587 247 L 593 246 L 599 251 L 610 248 L 619 254 L 639 252 L 649 247 L 662 249 L 667 254 L 681 244 L 694 248 L 709 248 L 728 256 Z" fill="#241a38"/>
<path d="M 145 678 L 166 707 L 194 735 L 226 761 L 248 775 L 296 800 L 342 818 L 362 823 L 336 815 L 281 790 L 228 757 L 196 732 Z" fill="#c9e190"/>
<path d="M 208 620 L 407 622 L 738 621 Z" fill="#c9e190"/>
<path d="M 38 618 L 53 655 L 69 685 L 101 731 L 152 781 L 210 825 L 272 858 L 346 885 L 400 898 L 483 908 L 574 905 L 641 894 L 711 873 L 750 857 L 797 833 L 827 814 L 853 794 L 909 738 L 928 714 L 943 690 L 969 636 L 932 700 L 914 722 L 881 755 L 843 788 L 775 832 L 705 862 L 638 882 L 548 895 L 483 896 L 405 887 L 363 878 L 300 857 L 264 841 L 228 821 L 196 797 L 200 793 L 190 782 L 164 763 L 160 762 L 159 767 L 153 764 L 103 719 L 69 674 Z" fill="#c9e190"/>
<path d="M 180 614 L 243 616 L 784 615 L 780 613 L 189 612 Z" fill="#c9e190"/>
<path d="M 797 604 L 788 602 L 697 602 L 694 600 L 697 596 L 749 571 L 656 573 L 658 575 L 689 578 L 695 584 L 695 590 L 682 595 L 649 596 L 653 597 L 648 599 L 637 599 L 633 593 L 635 563 L 608 541 L 606 542 L 624 564 L 625 577 L 627 578 L 624 579 L 624 584 L 617 585 L 617 590 L 602 591 L 600 573 L 601 537 L 599 532 L 542 484 L 469 552 L 452 565 L 451 601 L 449 603 L 345 601 L 347 597 L 389 573 L 385 573 L 383 577 L 328 579 L 321 574 L 318 590 L 311 593 L 308 590 L 308 567 L 265 523 L 261 522 L 208 576 L 207 602 L 204 604 L 216 606 L 793 606 Z" fill="#c9e190"/>
<path d="M 180 559 L 183 567 L 186 567 L 246 498 L 252 494 L 324 564 L 330 561 L 430 565 L 434 563 L 431 560 L 336 558 L 252 475 L 330 555 L 326 554 L 250 480 Z" fill="#c9e190"/>
<path d="M 356 484 L 407 488 L 409 478 L 406 475 L 387 478 L 379 464 L 384 472 L 380 478 Z" fill="#c9e190"/>
<path d="M 403 540 L 408 547 L 415 550 L 523 445 L 647 554 L 658 548 L 781 553 L 785 550 L 776 548 L 670 545 L 661 541 L 662 538 L 689 537 L 662 533 L 654 528 L 635 510 L 635 504 L 611 478 L 601 472 L 614 489 L 614 492 L 603 485 L 522 416 L 484 451 L 405 532 L 520 419 L 523 419 L 653 531 L 659 539 L 654 540 L 530 431 L 521 426 Z" fill="#c9e190"/>
<path d="M 712 364 L 707 360 L 694 356 L 698 365 L 691 369 L 683 380 L 677 380 L 667 386 L 650 382 L 632 399 L 630 407 L 625 414 L 621 414 L 624 411 L 622 410 L 611 421 L 599 417 L 592 417 L 582 422 L 580 420 L 575 421 L 585 423 L 597 419 L 607 422 L 609 425 L 621 415 L 628 414 L 632 410 L 633 402 L 648 388 L 669 389 L 674 385 L 682 384 L 685 387 L 680 397 L 682 406 L 673 413 L 669 423 L 657 429 L 661 432 L 676 434 L 678 432 L 675 427 L 676 423 L 688 408 L 686 395 L 689 385 L 697 374 L 707 372 Z" fill="#c9e190"/>
<path d="M 250 362 L 254 366 L 263 364 L 271 366 L 276 361 L 280 361 L 287 366 L 297 365 L 299 367 L 300 380 L 309 388 L 310 404 L 303 414 L 303 421 L 312 432 L 306 440 L 306 453 L 287 470 L 283 478 L 299 461 L 303 480 L 306 477 L 301 465 L 303 459 L 308 454 L 309 443 L 314 439 L 315 428 L 310 422 L 310 417 L 314 411 L 315 397 L 323 399 L 328 405 L 334 405 L 342 412 L 349 411 L 357 421 L 355 427 L 357 439 L 364 444 L 365 450 L 372 454 L 379 452 L 387 459 L 394 459 L 399 465 L 405 467 L 403 468 L 404 470 L 411 472 L 417 478 L 412 470 L 401 464 L 397 459 L 387 458 L 380 450 L 371 450 L 358 437 L 360 432 L 359 420 L 349 408 L 342 408 L 336 403 L 330 403 L 324 396 L 315 392 L 314 383 L 307 377 L 304 371 L 306 363 L 311 356 L 325 357 L 330 355 L 334 349 L 327 353 L 310 352 L 304 357 L 299 358 L 279 355 L 270 361 Z" fill="#c9e190"/>
<path d="M 349 216 L 323 228 L 380 207 L 452 193 L 511 190 L 565 194 L 609 202 L 664 219 L 718 244 L 763 273 L 803 307 L 835 344 L 856 378 L 875 423 L 887 462 L 892 501 L 890 543 L 877 595 L 867 620 L 845 660 L 827 685 L 803 710 L 767 738 L 729 762 L 704 775 L 664 791 L 615 805 L 565 814 L 528 817 L 479 817 L 427 812 L 402 807 L 335 787 L 273 757 L 243 738 L 217 717 L 190 690 L 170 665 L 149 632 L 128 584 L 120 551 L 116 521 L 116 491 L 119 464 L 128 428 L 140 398 L 160 361 L 181 332 L 166 350 L 146 381 L 121 436 L 112 479 L 111 522 L 118 572 L 137 624 L 165 671 L 187 698 L 208 719 L 244 748 L 284 772 L 321 789 L 358 802 L 404 814 L 432 819 L 494 824 L 575 819 L 624 809 L 662 798 L 704 781 L 744 760 L 810 713 L 826 697 L 843 675 L 870 627 L 889 576 L 898 519 L 894 458 L 883 416 L 860 366 L 844 342 L 823 317 L 782 279 L 752 257 L 725 241 L 691 224 L 660 212 L 599 196 L 536 188 L 469 189 L 402 200 Z" fill="#c9e190"/>
<path d="M 175 300 L 148 335 L 175 304 L 203 278 L 262 236 L 310 211 L 342 198 L 381 186 L 422 177 L 498 170 L 563 173 L 624 184 L 687 205 L 733 227 L 773 252 L 815 286 L 851 324 L 878 362 L 898 402 L 911 442 L 920 490 L 920 535 L 913 578 L 903 611 L 879 658 L 848 701 L 804 745 L 753 781 L 725 795 L 765 775 L 794 756 L 840 715 L 875 671 L 902 623 L 915 588 L 922 555 L 925 528 L 924 487 L 918 450 L 902 395 L 875 343 L 878 342 L 911 379 L 908 370 L 882 327 L 839 278 L 791 238 L 757 216 L 722 198 L 715 196 L 723 201 L 734 213 L 732 218 L 659 188 L 617 177 L 579 170 L 540 166 L 498 165 L 440 169 L 409 174 L 345 191 L 286 216 L 250 237 L 219 259 Z" fill="#c9e190"/>
<path d="M 1004 457 L 1002 455 L 994 411 L 984 384 L 966 347 L 940 304 L 922 281 L 878 233 L 805 180 L 773 162 L 735 145 L 697 131 L 636 114 L 566 103 L 506 100 L 447 103 L 376 116 L 347 124 L 306 139 L 255 162 L 211 186 L 189 201 L 145 236 L 126 254 L 98 286 L 78 313 L 60 343 L 34 399 L 29 421 L 19 447 L 14 484 L 14 524 L 17 535 L 17 561 L 24 593 L 27 596 L 29 610 L 33 618 L 30 610 L 31 602 L 34 607 L 27 589 L 25 589 L 26 585 L 23 579 L 17 532 L 16 496 L 23 444 L 40 389 L 62 342 L 82 310 L 109 277 L 111 278 L 106 284 L 109 286 L 105 291 L 102 290 L 102 296 L 97 300 L 95 299 L 93 301 L 95 303 L 94 306 L 89 308 L 91 310 L 88 316 L 89 319 L 115 284 L 112 286 L 111 284 L 114 281 L 116 282 L 123 274 L 125 275 L 124 278 L 168 236 L 220 199 L 271 172 L 306 157 L 381 135 L 422 127 L 499 121 L 545 122 L 590 127 L 639 137 L 692 153 L 742 174 L 786 198 L 822 221 L 860 252 L 891 283 L 916 314 L 935 343 L 959 391 L 970 421 L 980 463 L 984 494 L 983 558 L 983 555 L 987 554 L 991 514 L 990 482 L 978 419 L 968 391 L 953 359 L 919 303 L 902 282 L 868 247 L 821 209 L 755 170 L 689 143 L 612 123 L 541 115 L 477 115 L 430 120 L 385 129 L 307 153 L 269 169 L 236 186 L 179 224 L 133 264 L 128 271 L 125 271 L 125 268 L 122 268 L 123 266 L 112 278 L 110 276 L 129 255 L 130 257 L 124 264 L 130 264 L 128 262 L 135 253 L 132 252 L 135 249 L 138 251 L 166 225 L 163 224 L 201 194 L 231 177 L 232 179 L 230 180 L 291 149 L 353 125 L 379 118 L 453 105 L 477 103 L 548 104 L 621 113 L 684 129 L 755 155 L 809 184 L 876 233 L 918 279 L 949 320 L 975 368 L 991 407 L 1003 464 L 1006 504 L 1007 478 Z" fill="#c9e190"/>
<path d="M 616 747 L 595 747 L 591 753 L 578 757 L 571 761 L 570 764 L 581 765 L 585 762 L 590 763 L 609 748 Z" fill="#5c1a2b"/>
<path d="M 382 720 L 385 726 L 393 725 L 395 727 L 394 733 L 400 738 L 400 741 L 409 737 L 408 733 L 405 733 L 393 720 Z" fill="#5c1a2b"/>
<path d="M 265 647 L 262 644 L 246 647 L 245 652 L 249 654 L 263 650 Z" fill="#5c1a2b"/>
<path d="M 278 624 L 287 624 L 286 634 L 293 638 L 297 644 L 311 646 L 317 651 L 316 654 L 333 654 L 337 659 L 343 659 L 344 661 L 342 662 L 349 661 L 358 676 L 369 684 L 386 679 L 390 681 L 385 677 L 384 673 L 380 679 L 376 678 L 377 675 L 372 671 L 375 665 L 391 660 L 394 662 L 393 668 L 403 667 L 408 660 L 405 657 L 407 654 L 416 660 L 419 656 L 426 655 L 430 657 L 432 662 L 438 662 L 439 664 L 473 664 L 477 662 L 481 665 L 492 666 L 495 671 L 494 673 L 500 675 L 508 667 L 542 665 L 553 675 L 550 671 L 550 668 L 553 666 L 556 670 L 561 671 L 560 676 L 572 679 L 577 673 L 584 672 L 598 680 L 590 686 L 595 696 L 602 695 L 603 691 L 620 677 L 614 680 L 611 671 L 618 674 L 623 665 L 629 667 L 632 671 L 628 676 L 622 676 L 628 676 L 633 671 L 628 665 L 634 660 L 629 663 L 627 655 L 618 655 L 618 653 L 626 651 L 621 645 L 614 646 L 611 640 L 605 637 L 581 638 L 566 636 L 555 639 L 552 644 L 539 645 L 537 647 L 531 635 L 531 643 L 522 641 L 519 644 L 517 637 L 514 635 L 491 637 L 490 634 L 484 631 L 478 634 L 462 636 L 457 634 L 461 633 L 461 630 L 455 633 L 456 636 L 447 635 L 444 631 L 441 633 L 436 631 L 434 634 L 426 634 L 422 637 L 417 630 L 416 635 L 413 633 L 404 635 L 402 630 L 399 630 L 398 633 L 383 632 L 379 634 L 381 631 L 379 629 L 378 631 L 371 631 L 365 637 L 358 639 L 352 634 L 347 639 L 340 635 L 335 636 L 332 630 L 329 633 L 325 631 L 313 633 L 306 625 L 309 624 L 304 624 L 306 626 L 304 631 L 299 629 L 299 624 Z" fill="#5c1a2b"/>
<path d="M 192 624 L 188 622 L 199 647 L 198 656 L 187 661 L 184 658 L 184 651 L 173 649 L 162 639 L 159 643 L 157 642 L 166 655 L 169 652 L 182 655 L 185 661 L 190 661 L 199 656 L 203 650 L 198 645 Z" fill="#5c1a2b"/>
<path d="M 243 618 L 588 618 Z" fill="#5c1a2b"/>
<path d="M 831 607 L 821 608 L 822 614 L 820 616 L 815 616 L 808 611 L 805 616 L 806 630 L 804 638 L 798 640 L 793 637 L 781 647 L 778 655 L 772 661 L 757 670 L 755 675 L 763 673 L 767 678 L 762 693 L 756 698 L 732 705 L 730 703 L 738 692 L 733 690 L 716 691 L 690 703 L 688 711 L 683 715 L 674 718 L 664 725 L 656 725 L 651 730 L 651 733 L 658 740 L 659 747 L 653 755 L 654 761 L 644 767 L 640 765 L 640 760 L 647 755 L 646 748 L 648 744 L 645 742 L 632 746 L 633 751 L 631 753 L 618 756 L 610 766 L 594 773 L 573 777 L 568 775 L 563 769 L 558 772 L 551 770 L 539 777 L 533 778 L 513 777 L 508 781 L 507 786 L 498 793 L 492 792 L 496 786 L 482 778 L 471 765 L 446 767 L 433 755 L 421 754 L 413 757 L 400 754 L 377 742 L 358 745 L 356 736 L 347 730 L 340 720 L 325 715 L 317 706 L 331 705 L 338 715 L 359 724 L 365 720 L 377 718 L 378 709 L 364 712 L 355 711 L 342 699 L 334 700 L 316 682 L 292 686 L 264 681 L 236 663 L 235 654 L 233 653 L 235 647 L 229 647 L 227 642 L 229 624 L 211 624 L 214 639 L 213 656 L 199 670 L 205 672 L 225 668 L 225 676 L 234 676 L 239 680 L 235 684 L 221 684 L 214 680 L 206 681 L 201 679 L 191 669 L 186 669 L 174 663 L 172 665 L 174 663 L 186 670 L 192 670 L 196 677 L 205 682 L 214 680 L 223 685 L 235 686 L 246 681 L 252 681 L 271 693 L 295 713 L 303 716 L 307 721 L 322 719 L 336 732 L 339 733 L 344 730 L 354 737 L 353 751 L 355 753 L 368 756 L 371 759 L 373 756 L 382 757 L 389 771 L 400 772 L 402 763 L 394 758 L 404 758 L 407 763 L 414 762 L 427 766 L 433 771 L 434 777 L 437 780 L 444 780 L 448 784 L 451 783 L 452 786 L 485 783 L 491 787 L 479 791 L 471 801 L 512 801 L 527 792 L 540 792 L 540 788 L 537 786 L 520 784 L 511 793 L 508 790 L 513 781 L 519 782 L 526 778 L 543 779 L 552 774 L 558 778 L 569 778 L 577 783 L 579 780 L 589 776 L 603 775 L 606 771 L 614 771 L 616 769 L 615 762 L 620 756 L 629 757 L 640 751 L 645 752 L 638 759 L 640 769 L 665 768 L 667 762 L 661 761 L 657 757 L 662 745 L 660 738 L 678 739 L 686 737 L 695 726 L 715 714 L 715 699 L 719 699 L 724 693 L 730 692 L 732 695 L 723 705 L 720 714 L 721 721 L 739 714 L 743 715 L 750 711 L 757 711 L 761 706 L 763 696 L 768 692 L 772 692 L 768 688 L 768 684 L 771 682 L 774 684 L 775 690 L 777 689 L 780 692 L 782 698 L 793 696 L 796 694 L 798 685 L 828 658 L 832 652 L 820 652 L 811 646 L 804 649 L 800 648 L 809 635 L 806 618 L 811 616 L 814 619 L 819 619 L 823 616 L 825 609 Z" fill="#5c1a2b"/>
<path d="M 325 569 L 400 571 L 387 571 L 380 568 L 387 566 L 434 566 L 343 568 L 328 565 L 330 569 L 328 570 L 325 567 Z" fill="#5c1a2b"/>
<path d="M 976 504 L 973 546 L 960 599 L 945 631 L 943 640 L 934 648 L 926 663 L 922 667 L 918 668 L 917 666 L 917 670 L 913 670 L 911 667 L 901 666 L 900 661 L 909 642 L 907 639 L 910 636 L 915 610 L 919 604 L 923 589 L 928 538 L 928 516 L 927 546 L 922 576 L 903 628 L 885 659 L 888 658 L 887 663 L 861 705 L 833 738 L 817 753 L 820 758 L 818 760 L 823 761 L 823 764 L 827 762 L 829 765 L 832 765 L 832 761 L 842 763 L 841 765 L 834 764 L 841 768 L 828 784 L 839 777 L 842 778 L 845 773 L 848 774 L 847 778 L 831 794 L 879 748 L 909 714 L 935 672 L 958 621 L 970 580 L 975 547 Z" fill="#5c1a2b"/>
<path d="M 254 501 L 260 509 L 254 501 L 251 501 L 232 528 L 205 558 L 203 564 L 191 570 L 200 570 L 193 569 L 202 567 L 205 560 L 220 545 L 239 522 L 250 503 Z" fill="#5c1a2b"/>
<path d="M 537 464 L 526 460 L 518 472 L 509 475 L 509 481 L 500 493 L 489 500 L 449 546 L 486 512 L 472 526 L 465 530 L 531 463 L 536 465 L 519 481 Z" fill="#5c1a2b"/>
<path d="M 852 435 L 859 436 L 874 452 L 874 472 L 876 478 L 863 485 L 858 491 L 866 503 L 862 510 L 865 515 L 863 522 L 856 524 L 849 518 L 850 516 L 846 516 L 842 503 L 819 515 L 806 515 L 802 511 L 792 511 L 783 516 L 783 519 L 801 520 L 811 529 L 830 529 L 855 541 L 861 540 L 858 537 L 862 530 L 866 530 L 876 537 L 877 542 L 873 554 L 873 566 L 870 569 L 852 570 L 848 566 L 841 566 L 829 553 L 824 555 L 821 562 L 822 565 L 830 566 L 836 572 L 829 580 L 845 581 L 848 585 L 862 590 L 866 595 L 866 602 L 858 610 L 857 616 L 852 617 L 850 615 L 857 617 L 861 609 L 867 605 L 867 595 L 864 590 L 862 577 L 855 576 L 853 573 L 862 569 L 870 570 L 875 564 L 875 553 L 878 544 L 875 530 L 879 506 L 882 504 L 876 500 L 875 491 L 882 485 L 883 479 L 877 451 L 861 437 Z" fill="#5c1a2b"/>
<path d="M 212 392 L 211 403 L 192 405 L 180 414 L 173 412 L 161 418 L 151 420 L 145 425 L 165 426 L 173 422 L 174 426 L 180 429 L 180 425 L 185 422 L 195 432 L 196 441 L 214 460 L 205 463 L 205 467 L 193 480 L 169 491 L 163 488 L 161 485 L 162 480 L 158 479 L 154 471 L 150 469 L 142 471 L 140 477 L 147 487 L 146 492 L 149 501 L 140 512 L 136 509 L 139 507 L 131 499 L 133 522 L 143 539 L 136 542 L 138 555 L 151 579 L 154 589 L 161 596 L 160 598 L 165 601 L 163 597 L 169 594 L 175 604 L 186 609 L 182 611 L 189 610 L 186 607 L 182 607 L 174 596 L 176 580 L 173 573 L 170 571 L 162 576 L 158 575 L 155 569 L 155 555 L 148 555 L 144 552 L 143 548 L 149 544 L 142 532 L 141 524 L 152 507 L 159 516 L 156 530 L 158 533 L 156 530 L 160 516 L 152 501 L 167 502 L 170 497 L 176 496 L 192 487 L 195 488 L 191 499 L 179 511 L 180 531 L 169 531 L 182 534 L 186 525 L 190 528 L 195 528 L 206 511 L 213 511 L 216 508 L 215 506 L 213 508 L 204 507 L 200 502 L 202 500 L 206 503 L 214 501 L 221 473 L 225 468 L 232 465 L 233 457 L 245 452 L 246 447 L 242 433 L 240 431 L 233 431 L 231 435 L 228 433 L 223 437 L 219 445 L 219 453 L 213 455 L 197 440 L 195 432 L 183 419 L 183 415 L 187 410 L 214 408 L 213 398 L 215 395 Z" fill="#5c1a2b"/>
<path d="M 261 379 L 255 377 L 250 381 L 241 382 L 220 395 L 231 395 L 251 388 Z" fill="#5c1a2b"/>
<path d="M 367 414 L 369 416 L 374 413 L 379 415 L 383 413 L 387 415 L 408 414 L 410 409 L 408 405 L 413 403 L 415 405 L 413 409 L 415 415 L 418 412 L 423 415 L 424 412 L 430 411 L 446 416 L 450 415 L 452 410 L 466 415 L 468 412 L 476 411 L 477 408 L 482 409 L 507 401 L 516 401 L 542 395 L 537 392 L 529 392 L 528 394 L 505 396 L 495 395 L 490 392 L 472 393 L 467 390 L 457 393 L 454 390 L 444 388 L 439 381 L 421 379 L 415 372 L 405 370 L 405 375 L 410 379 L 410 383 L 414 387 L 411 397 L 405 402 L 389 408 L 373 403 L 368 409 Z" fill="#5c1a2b"/>
<path d="M 456 379 L 461 384 L 471 386 L 478 379 L 490 377 L 497 372 L 505 372 L 515 376 L 528 368 L 543 368 L 550 377 L 564 378 L 568 387 L 570 381 L 563 378 L 561 374 L 558 375 L 556 369 L 559 368 L 561 370 L 563 364 L 567 365 L 567 368 L 571 370 L 576 367 L 582 368 L 580 361 L 582 355 L 576 351 L 567 352 L 563 355 L 554 351 L 536 356 L 527 349 L 521 350 L 511 339 L 512 335 L 506 332 L 507 342 L 503 344 L 496 354 L 495 352 L 484 353 L 477 373 L 473 372 Z" fill="#5c1a2b"/>
<path d="M 162 311 L 141 336 L 119 370 L 103 401 L 90 435 L 80 487 L 79 524 L 77 526 L 80 545 L 79 578 L 76 581 L 77 583 L 79 582 L 77 589 L 71 588 L 71 586 L 69 587 L 70 589 L 63 591 L 58 587 L 53 579 L 53 572 L 48 559 L 45 556 L 43 536 L 40 531 L 38 459 L 40 443 L 52 407 L 42 432 L 36 464 L 34 495 L 36 554 L 42 583 L 45 586 L 45 594 L 51 611 L 53 610 L 56 620 L 54 620 L 55 622 L 57 621 L 56 624 L 59 630 L 61 630 L 60 632 L 62 631 L 68 644 L 67 648 L 68 646 L 75 653 L 78 662 L 82 663 L 86 668 L 86 674 L 87 672 L 91 674 L 100 687 L 103 687 L 102 684 L 104 682 L 105 686 L 114 684 L 113 687 L 119 686 L 122 688 L 121 690 L 126 687 L 120 687 L 120 685 L 131 683 L 115 653 L 101 620 L 84 563 L 80 535 L 81 479 L 86 451 L 88 448 L 89 451 L 91 435 L 94 433 L 95 422 L 97 419 L 98 421 L 99 417 L 98 419 L 97 416 L 101 406 L 108 397 L 106 395 L 137 344 Z" fill="#5c1a2b"/>
<path d="M 842 361 L 835 349 L 834 353 L 822 356 L 816 361 L 809 359 L 807 353 L 812 343 L 827 342 L 834 346 L 821 335 L 801 311 L 802 309 L 793 302 L 805 315 L 804 317 L 786 303 L 767 303 L 764 300 L 764 287 L 749 277 L 740 267 L 748 269 L 713 250 L 694 249 L 682 245 L 667 255 L 662 250 L 651 248 L 639 253 L 619 255 L 610 249 L 599 252 L 593 247 L 587 248 L 577 244 L 563 248 L 558 252 L 556 263 L 550 270 L 551 276 L 557 280 L 556 284 L 548 287 L 543 286 L 532 299 L 526 294 L 523 297 L 515 298 L 509 303 L 495 304 L 499 298 L 496 292 L 487 292 L 460 285 L 456 290 L 447 293 L 444 304 L 429 318 L 425 319 L 422 324 L 415 325 L 413 328 L 400 324 L 400 331 L 394 332 L 395 334 L 399 333 L 401 335 L 399 337 L 380 338 L 376 333 L 372 338 L 366 338 L 360 334 L 363 327 L 375 328 L 385 315 L 390 320 L 389 316 L 391 314 L 398 315 L 404 313 L 412 316 L 422 312 L 428 301 L 426 297 L 428 293 L 440 293 L 451 282 L 467 271 L 477 271 L 476 268 L 472 267 L 481 260 L 504 261 L 509 259 L 520 250 L 523 242 L 520 238 L 507 240 L 490 237 L 460 245 L 456 248 L 439 243 L 413 244 L 403 248 L 406 256 L 413 256 L 415 258 L 413 263 L 391 264 L 387 267 L 373 269 L 348 279 L 331 275 L 308 290 L 300 288 L 300 283 L 293 283 L 278 292 L 270 293 L 276 301 L 285 302 L 291 312 L 263 315 L 247 322 L 222 339 L 208 340 L 205 344 L 209 348 L 208 352 L 180 372 L 165 390 L 160 402 L 151 410 L 154 412 L 167 410 L 174 405 L 179 405 L 191 394 L 195 393 L 191 393 L 184 400 L 180 401 L 177 406 L 170 402 L 172 397 L 176 397 L 173 391 L 180 379 L 186 373 L 208 366 L 214 359 L 220 358 L 222 356 L 218 350 L 223 347 L 222 345 L 226 341 L 237 339 L 249 332 L 255 332 L 264 326 L 284 320 L 294 321 L 305 328 L 311 327 L 309 326 L 310 323 L 316 325 L 328 324 L 331 326 L 358 325 L 360 327 L 359 331 L 350 341 L 350 361 L 357 368 L 362 368 L 386 384 L 385 374 L 376 362 L 376 352 L 392 345 L 415 347 L 427 336 L 429 328 L 433 329 L 432 333 L 434 334 L 444 332 L 445 324 L 450 318 L 455 319 L 458 316 L 471 313 L 471 307 L 464 299 L 460 303 L 454 299 L 454 295 L 457 292 L 468 290 L 485 294 L 488 297 L 487 305 L 490 306 L 505 305 L 518 297 L 528 295 L 530 297 L 529 303 L 531 303 L 541 289 L 554 286 L 558 280 L 551 275 L 550 270 L 556 263 L 558 253 L 561 250 L 567 249 L 585 251 L 587 253 L 571 271 L 571 275 L 576 277 L 585 268 L 592 268 L 601 262 L 605 263 L 606 261 L 614 260 L 621 262 L 618 267 L 621 270 L 622 278 L 609 284 L 604 282 L 598 274 L 590 273 L 587 275 L 588 284 L 586 286 L 589 288 L 593 300 L 579 312 L 574 312 L 566 305 L 558 307 L 556 309 L 558 316 L 570 318 L 591 315 L 611 324 L 610 317 L 604 314 L 604 307 L 609 302 L 625 299 L 641 302 L 642 305 L 647 306 L 654 313 L 660 312 L 659 307 L 663 303 L 660 292 L 650 288 L 647 284 L 640 284 L 635 278 L 637 274 L 645 273 L 648 276 L 657 275 L 666 287 L 677 282 L 683 289 L 686 283 L 688 287 L 700 293 L 700 314 L 727 315 L 732 318 L 741 318 L 748 323 L 749 321 L 753 322 L 754 319 L 764 320 L 774 324 L 783 336 L 805 333 L 810 336 L 810 340 L 803 347 L 799 355 L 785 359 L 777 358 L 778 366 L 769 373 L 768 379 L 752 380 L 745 388 L 740 388 L 736 394 L 739 395 L 741 401 L 751 404 L 751 411 L 747 417 L 748 423 L 771 432 L 778 440 L 782 440 L 780 444 L 777 442 L 773 444 L 757 444 L 701 439 L 757 445 L 789 445 L 790 449 L 787 452 L 746 446 L 667 439 L 787 452 L 796 435 L 800 431 L 805 430 L 800 431 L 791 439 L 790 435 L 793 431 L 788 432 L 786 429 L 786 421 L 790 419 L 789 407 L 786 409 L 783 402 L 778 402 L 774 399 L 776 398 L 777 391 L 773 385 L 780 379 L 780 373 L 784 370 L 784 362 L 793 357 L 800 356 L 806 346 L 808 347 L 806 356 L 812 366 L 822 356 L 831 354 L 837 355 Z" fill="#5c1a2b"/>
<path d="M 849 216 L 859 226 L 863 227 L 864 231 L 867 231 L 877 248 L 890 261 L 932 315 L 971 383 L 981 411 L 987 444 L 985 428 L 986 416 L 988 414 L 992 426 L 988 425 L 992 428 L 993 432 L 989 411 L 981 389 L 979 393 L 963 367 L 964 362 L 967 361 L 973 371 L 950 326 L 931 298 L 891 252 L 863 225 Z" fill="#5c1a2b"/>
<path d="M 653 725 L 648 730 L 649 739 L 637 731 L 624 735 L 619 739 L 613 738 L 608 742 L 601 741 L 599 736 L 605 729 L 583 738 L 569 750 L 565 748 L 549 750 L 536 774 L 552 751 L 562 750 L 564 753 L 569 754 L 577 746 L 582 745 L 582 740 L 597 736 L 599 740 L 604 742 L 612 742 L 640 734 L 652 743 L 651 749 L 656 744 L 648 733 L 648 730 Z" fill="#e22121"/>
<path d="M 347 724 L 362 737 L 371 733 L 384 737 L 398 748 L 419 750 L 414 748 L 405 749 L 403 747 L 404 744 L 416 738 L 402 745 L 397 745 L 397 741 L 391 742 L 388 738 L 373 732 L 361 735 L 348 725 L 352 723 L 361 726 L 367 722 L 361 726 L 353 723 Z" fill="#e22121"/>
<path d="M 250 659 L 251 661 L 256 658 L 270 663 L 275 669 L 276 677 L 292 682 L 296 680 L 295 675 L 304 676 L 310 673 L 320 682 L 310 671 L 294 674 L 293 681 L 281 678 L 271 663 L 260 660 L 257 657 L 260 653 L 268 652 L 268 647 L 267 652 L 259 653 Z" fill="#e22121"/>
<path d="M 704 646 L 698 644 L 702 644 L 705 651 L 689 663 L 675 661 L 666 671 L 658 675 L 646 689 L 632 699 L 626 696 L 621 699 L 615 707 L 616 711 L 611 718 L 611 721 L 616 724 L 616 729 L 625 727 L 633 722 L 644 723 L 647 716 L 648 723 L 644 728 L 650 723 L 649 715 L 652 704 L 657 698 L 662 697 L 665 699 L 677 687 L 690 688 L 691 685 L 684 686 L 677 681 L 673 681 L 673 679 L 668 686 L 664 686 L 660 691 L 647 698 L 646 712 L 644 712 L 646 720 L 644 722 L 622 725 L 636 709 L 633 706 L 627 706 L 628 703 L 645 691 L 653 682 L 661 679 L 674 666 L 690 663 L 697 658 L 703 658 L 707 652 Z" fill="#e22121"/>
<path d="M 723 642 L 719 642 L 714 655 L 707 658 L 707 663 L 710 657 L 714 657 L 715 654 L 717 656 L 717 660 L 709 665 L 701 676 L 704 677 L 704 682 L 701 683 L 700 679 L 690 695 L 692 697 L 700 694 L 712 684 L 712 676 L 724 662 L 725 644 Z" fill="#e22121"/>
<path d="M 260 636 L 270 645 L 270 648 L 278 653 L 277 657 L 272 658 L 283 672 L 314 667 L 327 678 L 325 680 L 329 681 L 328 677 L 336 674 L 342 679 L 340 682 L 338 679 L 337 681 L 333 680 L 333 685 L 336 687 L 342 684 L 350 685 L 367 699 L 372 699 L 373 691 L 378 689 L 390 699 L 389 705 L 401 715 L 414 715 L 421 720 L 422 729 L 431 740 L 429 742 L 418 742 L 419 746 L 435 750 L 448 750 L 458 760 L 472 757 L 486 771 L 493 770 L 484 753 L 470 748 L 461 750 L 458 746 L 448 741 L 455 737 L 483 741 L 495 738 L 509 750 L 522 756 L 529 764 L 527 766 L 522 761 L 519 761 L 515 766 L 509 766 L 508 768 L 515 769 L 523 766 L 527 769 L 532 769 L 534 765 L 532 754 L 546 737 L 554 736 L 558 740 L 566 737 L 575 737 L 577 731 L 598 723 L 596 724 L 596 720 L 592 718 L 594 715 L 607 709 L 608 704 L 621 690 L 626 687 L 633 690 L 640 687 L 647 678 L 647 674 L 642 673 L 643 661 L 647 656 L 662 655 L 672 651 L 680 657 L 686 658 L 694 654 L 698 648 L 690 646 L 692 647 L 688 647 L 682 653 L 676 652 L 676 650 L 680 650 L 676 650 L 671 644 L 666 643 L 657 647 L 640 650 L 637 653 L 643 649 L 658 647 L 667 643 L 670 645 L 670 648 L 667 650 L 646 655 L 642 659 L 638 670 L 634 666 L 636 655 L 636 660 L 632 665 L 635 673 L 629 677 L 631 682 L 629 684 L 626 679 L 619 679 L 605 692 L 602 698 L 591 701 L 583 708 L 577 707 L 572 703 L 574 700 L 573 696 L 569 696 L 566 699 L 563 697 L 547 697 L 545 695 L 547 692 L 543 690 L 538 693 L 533 692 L 529 694 L 523 692 L 515 695 L 504 695 L 502 692 L 495 694 L 493 692 L 487 695 L 484 692 L 459 692 L 457 689 L 453 689 L 451 693 L 446 693 L 442 690 L 435 692 L 434 690 L 438 687 L 436 683 L 432 683 L 430 689 L 426 692 L 422 692 L 416 687 L 409 689 L 398 689 L 396 687 L 398 689 L 396 690 L 394 686 L 391 687 L 387 682 L 377 683 L 373 687 L 368 687 L 362 680 L 359 681 L 355 678 L 356 674 L 355 678 L 362 681 L 372 689 L 368 693 L 351 685 L 343 673 L 322 673 L 319 670 L 322 667 L 314 661 L 305 662 L 300 667 L 288 668 L 281 661 L 283 650 L 280 645 L 276 644 L 272 640 L 273 638 L 269 636 Z" fill="#e22121"/>
<path d="M 729 641 L 735 645 L 747 632 L 763 631 L 762 628 L 752 625 L 753 623 L 761 623 L 740 623 L 739 630 L 737 630 L 735 635 L 733 634 L 734 636 Z" fill="#e22121"/>
<path d="M 197 623 L 200 641 L 209 650 L 208 626 L 201 626 Z" fill="#e22121"/>
<path d="M 102 595 L 114 625 L 115 633 L 118 634 L 116 635 L 122 641 L 122 645 L 127 650 L 126 652 L 132 662 L 129 656 L 130 653 L 143 671 L 124 642 Z" fill="#e22121"/>
<path d="M 386 595 L 428 596 L 433 595 L 433 592 L 418 592 L 413 590 L 414 586 L 402 585 L 397 589 L 398 591 L 389 592 L 390 594 Z" fill="#e22121"/>
<path d="M 836 588 L 834 586 L 830 589 L 826 585 L 816 582 L 809 585 L 800 584 L 794 595 L 790 595 L 787 592 L 746 592 L 741 596 L 778 597 L 780 599 L 793 599 L 792 601 L 800 599 L 801 605 L 796 607 L 810 607 L 816 611 L 819 607 L 809 607 L 807 604 L 811 600 L 818 601 L 818 598 L 817 601 L 813 598 L 811 599 L 809 594 L 816 589 L 834 591 Z" fill="#e22121"/>
<path d="M 756 554 L 760 555 L 766 567 L 758 574 L 755 574 L 765 581 L 775 580 L 774 571 L 772 570 L 764 575 L 760 573 L 766 569 L 767 565 L 760 555 L 771 554 Z" fill="#e22121"/>
<path d="M 831 548 L 844 561 L 854 564 L 859 561 L 859 553 L 856 548 L 845 545 Z" fill="#e22121"/>
<path d="M 828 545 L 818 538 L 806 536 L 800 529 L 793 536 L 781 538 L 784 543 L 783 546 L 787 544 L 788 540 L 795 539 L 798 548 L 812 552 L 817 557 L 817 560 L 810 564 L 800 559 L 794 560 L 788 555 L 777 555 L 785 555 L 790 560 L 789 566 L 782 570 L 780 574 L 788 574 L 793 565 L 798 561 L 809 565 L 818 563 L 817 556 L 813 552 L 801 548 L 798 545 L 800 542 L 814 544 L 822 548 L 826 548 Z" fill="#e22121"/>
<path d="M 273 518 L 288 541 L 312 563 L 325 571 L 322 569 L 324 566 L 319 561 L 323 565 L 321 568 L 305 556 L 292 541 L 295 538 L 281 524 L 289 532 L 287 533 Z" fill="#e22121"/>
<path d="M 303 512 L 308 524 L 314 528 L 334 555 L 337 553 L 373 553 L 373 555 L 393 553 L 386 549 L 388 545 L 383 539 L 374 539 L 362 530 L 355 529 L 352 524 L 345 524 L 345 520 L 334 518 L 330 513 L 326 513 L 319 508 L 312 508 Z" fill="#e22121"/>
<path d="M 781 480 L 770 484 L 762 495 L 762 501 L 767 506 L 763 505 L 764 507 L 761 508 L 760 514 L 765 514 L 772 509 L 770 506 L 768 508 L 767 505 L 783 487 L 781 486 L 783 483 Z" fill="#e22121"/>
<path d="M 793 470 L 787 469 L 782 464 L 775 470 L 777 473 L 774 476 L 769 472 L 772 476 L 771 478 L 788 477 Z" fill="#e22121"/>
<path d="M 863 457 L 842 456 L 825 460 L 816 472 L 818 485 L 825 483 L 824 474 L 829 467 L 842 469 L 845 467 L 857 468 L 860 466 Z" fill="#e22121"/>
<path d="M 375 454 L 377 460 L 381 461 L 388 471 L 399 469 L 394 461 L 383 460 L 381 455 Z" fill="#e22121"/>
<path d="M 584 453 L 589 464 L 606 482 L 608 487 L 610 488 L 593 467 L 593 462 L 603 467 L 636 501 L 639 506 L 638 510 L 655 526 L 664 531 L 676 533 L 669 524 L 683 523 L 709 528 L 709 531 L 719 531 L 725 536 L 723 538 L 691 539 L 769 539 L 734 507 L 734 500 L 744 494 L 743 490 L 732 494 L 705 492 L 702 497 L 696 495 L 689 485 L 687 486 L 680 479 L 671 476 L 672 471 L 666 476 L 661 472 L 658 473 L 657 470 L 654 471 L 654 469 L 648 469 L 644 466 L 631 466 L 628 472 L 625 473 L 634 492 L 632 495 L 593 455 Z" fill="#e22121"/>
<path d="M 503 470 L 521 454 L 530 455 L 542 466 L 536 467 L 544 472 L 545 481 L 551 488 L 625 551 L 651 569 L 647 565 L 647 556 L 553 473 L 556 478 L 549 475 L 529 452 L 530 455 L 522 453 Z" fill="#e22121"/>
<path d="M 381 471 L 371 455 L 365 452 L 362 444 L 356 440 L 361 444 L 363 450 L 371 455 L 372 460 L 376 462 L 379 469 L 377 473 L 366 477 L 359 477 L 352 470 L 350 472 L 341 466 L 338 469 L 336 468 L 337 466 L 332 468 L 316 468 L 307 464 L 309 455 L 304 462 L 304 468 L 309 476 L 315 477 L 313 480 L 307 480 L 329 481 L 352 485 L 351 483 L 355 480 L 377 475 Z" fill="#e22121"/>
<path d="M 801 436 L 789 458 L 792 461 L 804 451 L 805 442 Z" fill="#e22121"/>
<path d="M 859 438 L 856 437 L 860 440 L 859 443 L 849 443 L 845 440 L 850 438 L 844 439 L 839 433 L 831 434 L 821 428 L 808 431 L 818 428 L 830 434 L 839 433 L 845 440 L 829 442 L 819 451 L 805 457 L 800 466 L 810 473 L 810 480 L 802 496 L 796 498 L 785 493 L 779 498 L 776 513 L 782 522 L 784 522 L 779 519 L 778 504 L 787 497 L 797 499 L 803 496 L 812 481 L 813 474 L 804 465 L 806 462 L 818 456 L 832 443 L 842 442 L 862 446 Z" fill="#e22121"/>
<path d="M 350 426 L 345 429 L 337 427 L 333 430 L 333 437 L 325 456 L 330 463 L 334 460 L 334 463 L 337 460 L 340 461 L 343 457 L 352 457 L 356 454 L 357 450 L 352 440 L 352 429 Z" fill="#e22121"/>
<path d="M 253 421 L 260 424 L 278 419 L 289 425 L 293 420 L 289 419 L 289 416 L 287 417 L 286 415 L 271 414 L 254 419 Z" fill="#e22121"/>
<path d="M 402 398 L 398 394 L 391 396 L 379 395 L 378 398 L 382 403 L 386 404 Z" fill="#e22121"/>
<path d="M 682 388 L 678 386 L 668 391 L 663 390 L 668 391 L 679 388 L 680 392 L 677 405 L 669 410 L 662 404 L 659 411 L 661 415 L 658 418 L 656 416 L 651 417 L 649 415 L 651 413 L 631 416 L 633 411 L 617 422 L 624 425 L 622 427 L 618 425 L 608 427 L 652 431 L 642 427 L 656 425 L 666 420 L 671 411 L 679 405 L 678 397 Z" fill="#e22121"/>
<path d="M 564 386 L 559 381 L 552 382 L 554 380 L 547 380 L 545 373 L 545 378 L 549 381 L 545 382 L 542 379 L 542 372 L 544 371 L 529 370 L 522 373 L 519 377 L 513 378 L 515 380 L 509 379 L 507 375 L 501 375 L 505 374 L 497 374 L 490 379 L 485 378 L 485 380 L 477 382 L 473 389 L 494 389 L 498 393 L 509 393 L 498 393 L 495 389 L 484 387 L 495 386 L 502 382 L 505 383 L 503 391 L 512 391 L 513 393 L 528 389 L 551 392 L 556 389 L 562 389 Z" fill="#e22121"/>
<path d="M 279 364 L 273 367 L 279 365 L 290 369 L 293 372 L 296 383 L 304 391 L 305 404 L 300 410 L 296 421 L 307 433 L 301 452 L 297 456 L 294 456 L 294 453 L 286 455 L 286 460 L 282 466 L 281 461 L 278 461 L 272 468 L 269 469 L 267 467 L 293 441 L 295 433 L 290 429 L 275 425 L 272 428 L 279 427 L 282 429 L 284 437 L 275 443 L 260 445 L 246 435 L 248 426 L 234 426 L 228 428 L 221 435 L 216 436 L 204 431 L 199 432 L 191 426 L 188 420 L 192 416 L 206 424 L 214 424 L 217 419 L 215 415 L 220 409 L 218 402 L 221 400 L 252 410 L 286 409 L 290 404 L 288 391 L 274 376 L 273 371 L 262 376 L 267 375 L 271 371 L 274 372 L 274 377 L 277 380 L 276 387 L 280 391 L 282 398 L 280 405 L 271 408 L 270 406 L 259 406 L 258 403 L 254 403 L 251 399 L 242 402 L 218 399 L 219 409 L 212 423 L 194 415 L 187 416 L 191 426 L 207 437 L 208 446 L 213 451 L 215 450 L 218 438 L 226 430 L 233 427 L 245 428 L 246 436 L 250 441 L 257 445 L 265 446 L 268 453 L 264 459 L 241 474 L 241 481 L 249 471 L 252 471 L 247 478 L 250 476 L 262 488 L 249 474 L 257 469 L 267 468 L 267 472 L 274 475 L 271 476 L 280 477 L 285 469 L 304 452 L 304 440 L 309 433 L 300 422 L 300 414 L 307 404 L 306 390 L 297 380 L 295 369 L 289 369 Z" fill="#e22121"/>
<path d="M 650 363 L 644 357 L 639 356 L 628 365 L 614 369 L 592 360 L 585 353 L 590 360 L 613 370 L 630 369 L 633 361 L 636 359 L 640 364 L 643 361 L 645 365 L 636 381 L 631 381 L 614 396 L 606 398 L 601 394 L 602 397 L 592 404 L 522 409 L 507 424 L 501 424 L 494 416 L 492 418 L 494 428 L 485 438 L 482 438 L 478 446 L 469 454 L 470 456 L 465 455 L 467 456 L 454 459 L 439 454 L 425 456 L 415 461 L 404 463 L 410 466 L 412 463 L 427 456 L 443 457 L 452 461 L 473 457 L 472 460 L 468 460 L 461 466 L 447 468 L 437 464 L 417 472 L 419 477 L 425 478 L 432 488 L 438 490 L 427 492 L 440 492 L 438 491 L 444 489 L 449 484 L 447 486 L 444 485 L 436 477 L 430 476 L 429 473 L 432 469 L 438 466 L 445 469 L 454 469 L 465 466 L 465 468 L 522 414 L 527 418 L 527 415 L 573 422 L 566 421 L 566 417 L 577 419 L 588 418 L 592 415 L 599 415 L 605 418 L 614 417 L 620 408 L 614 412 L 609 411 L 609 408 L 606 411 L 593 413 L 596 413 L 596 415 L 576 414 L 573 412 L 579 409 L 611 406 L 613 401 L 618 400 L 621 396 L 623 397 L 628 389 L 643 375 L 648 373 L 651 369 Z" fill="#e22121"/>
<path d="M 455 345 L 449 340 L 445 343 L 433 342 L 424 347 L 419 354 L 399 353 L 393 358 L 393 361 L 398 362 L 402 360 L 412 367 L 424 363 L 433 369 L 434 376 L 436 376 L 454 353 Z" fill="#e22121"/>
<path d="M 893 337 L 895 345 L 898 346 L 897 348 L 905 356 L 907 365 L 910 366 L 909 369 L 911 369 L 910 371 L 912 371 L 912 375 L 915 377 L 914 380 L 918 384 L 917 387 L 919 387 L 922 400 L 924 400 L 931 426 L 931 437 L 922 429 L 918 429 L 912 419 L 915 433 L 916 431 L 918 436 L 919 451 L 921 453 L 921 446 L 926 458 L 934 465 L 936 470 L 938 459 L 935 439 L 926 406 L 929 406 L 933 417 L 937 420 L 936 427 L 939 427 L 946 436 L 945 440 L 948 440 L 952 446 L 955 445 L 958 441 L 954 436 L 956 435 L 953 425 L 955 416 L 949 390 L 951 389 L 954 395 L 954 391 L 950 388 L 945 377 L 946 374 L 943 368 L 940 367 L 941 365 L 938 364 L 940 363 L 936 360 L 937 358 L 934 357 L 930 350 L 939 377 L 937 378 L 940 380 L 937 382 L 939 381 L 943 386 L 938 390 L 936 389 L 937 387 L 932 390 L 926 388 L 923 385 L 923 380 L 921 382 L 920 377 L 914 373 L 907 359 L 908 357 L 904 355 Z" fill="#e22121"/>
<path d="M 425 454 L 419 454 L 408 440 L 386 432 L 378 432 L 375 425 L 370 425 L 364 421 L 362 411 L 374 395 L 365 376 L 350 371 L 335 378 L 329 367 L 331 361 L 341 350 L 337 352 L 340 347 L 341 334 L 331 338 L 322 346 L 312 343 L 296 354 L 278 351 L 269 356 L 254 358 L 246 350 L 239 351 L 237 349 L 238 345 L 248 345 L 255 348 L 268 340 L 277 338 L 288 338 L 293 342 L 299 342 L 312 335 L 318 336 L 325 332 L 349 330 L 350 333 L 343 339 L 342 348 L 344 339 L 353 331 L 351 329 L 323 331 L 317 335 L 309 335 L 300 341 L 293 340 L 290 334 L 268 337 L 254 345 L 236 345 L 226 355 L 234 365 L 225 367 L 215 373 L 202 372 L 194 376 L 187 385 L 188 390 L 197 391 L 202 388 L 212 389 L 215 393 L 219 393 L 229 389 L 230 386 L 232 387 L 234 382 L 240 378 L 249 379 L 248 377 L 251 373 L 236 375 L 220 382 L 211 382 L 200 378 L 203 373 L 216 374 L 227 369 L 236 368 L 237 364 L 234 360 L 238 360 L 242 364 L 256 369 L 250 365 L 245 365 L 233 356 L 234 353 L 244 352 L 250 357 L 258 359 L 271 357 L 278 352 L 297 355 L 312 347 L 325 349 L 335 343 L 338 348 L 333 356 L 327 359 L 313 358 L 310 362 L 309 374 L 317 383 L 319 393 L 325 395 L 330 401 L 334 401 L 330 401 L 327 395 L 321 393 L 319 383 L 311 373 L 311 367 L 318 361 L 328 359 L 336 354 L 328 367 L 333 382 L 337 382 L 345 373 L 349 372 L 359 373 L 365 379 L 363 385 L 353 388 L 357 392 L 365 391 L 367 394 L 368 404 L 362 411 L 361 417 L 376 436 L 383 436 L 387 441 L 398 444 L 414 455 Z" fill="#e22121"/>
<path d="M 617 324 L 626 325 L 629 320 L 633 324 L 646 327 L 655 333 L 648 328 L 647 324 L 635 322 L 626 316 L 622 316 L 622 324 Z" fill="#e22121"/>
<path d="M 406 282 L 397 282 L 388 286 L 375 285 L 368 292 L 361 295 L 341 295 L 337 302 L 345 309 L 352 309 L 356 305 L 370 301 L 377 292 L 391 292 L 397 287 L 404 286 Z" fill="#e22121"/>
<path d="M 485 310 L 508 326 L 514 335 L 514 341 L 520 347 L 528 347 L 535 353 L 545 349 L 549 351 L 549 349 L 554 348 L 561 352 L 567 349 L 577 349 L 567 349 L 566 346 L 569 342 L 577 346 L 591 348 L 597 356 L 607 361 L 624 361 L 633 351 L 638 349 L 646 352 L 649 357 L 657 361 L 668 362 L 686 359 L 686 366 L 678 377 L 669 381 L 654 381 L 666 384 L 682 376 L 690 365 L 688 358 L 660 360 L 653 357 L 649 352 L 639 349 L 626 352 L 622 348 L 620 350 L 626 354 L 626 357 L 623 360 L 612 360 L 599 349 L 573 341 L 570 335 L 562 328 L 554 330 L 550 325 L 553 323 L 564 323 L 572 331 L 591 335 L 611 334 L 616 330 L 620 330 L 627 339 L 633 338 L 639 342 L 651 342 L 665 349 L 669 349 L 673 342 L 680 346 L 701 343 L 700 352 L 718 361 L 728 360 L 736 356 L 750 358 L 752 361 L 748 365 L 736 365 L 731 369 L 714 370 L 696 379 L 689 393 L 691 407 L 679 423 L 679 426 L 689 433 L 678 435 L 733 437 L 715 419 L 714 392 L 716 389 L 721 389 L 725 385 L 741 378 L 741 373 L 744 371 L 736 378 L 716 386 L 712 391 L 710 405 L 703 422 L 682 422 L 694 406 L 690 391 L 700 378 L 707 377 L 713 373 L 723 374 L 737 367 L 751 367 L 754 369 L 765 367 L 766 364 L 756 357 L 765 348 L 743 349 L 744 352 L 741 354 L 733 353 L 721 358 L 705 355 L 701 349 L 710 343 L 704 340 L 690 345 L 682 344 L 680 341 L 683 339 L 698 339 L 699 336 L 687 327 L 672 324 L 668 320 L 668 316 L 666 314 L 663 315 L 666 308 L 672 308 L 682 318 L 713 336 L 745 343 L 769 340 L 780 346 L 796 340 L 803 340 L 804 343 L 800 348 L 805 340 L 801 338 L 784 345 L 779 345 L 768 336 L 741 339 L 720 329 L 706 331 L 689 320 L 684 308 L 671 304 L 664 309 L 663 314 L 658 319 L 662 318 L 659 324 L 659 331 L 657 327 L 659 331 L 657 334 L 660 330 L 668 339 L 666 347 L 649 337 L 642 339 L 634 335 L 629 336 L 621 328 L 604 329 L 600 332 L 588 333 L 573 330 L 564 321 L 552 321 L 548 318 L 541 321 L 538 319 L 539 313 L 529 313 L 534 310 L 539 294 L 544 290 L 553 289 L 555 291 L 548 294 L 544 307 L 553 319 L 565 319 L 553 319 L 546 305 L 552 296 L 565 297 L 567 295 L 567 290 L 570 286 L 567 279 L 564 279 L 557 288 L 543 290 L 537 296 L 535 303 L 527 310 L 520 307 L 526 299 L 517 300 L 503 309 L 499 307 Z" fill="#e22121"/>
<path d="M 483 254 L 463 259 L 453 267 L 424 279 L 411 292 L 401 296 L 393 296 L 408 285 L 394 295 L 381 298 L 370 306 L 355 311 L 369 311 L 382 305 L 388 309 L 406 309 L 406 312 L 403 311 L 406 312 L 409 309 L 416 308 L 417 304 L 414 308 L 410 304 L 389 305 L 388 309 L 382 302 L 386 299 L 412 293 L 425 279 L 451 269 L 463 260 L 475 258 L 474 262 Z" fill="#e22121"/>
<path d="M 260 230 L 258 229 L 245 237 L 234 240 L 230 247 L 217 257 L 213 257 L 210 262 L 190 276 L 189 279 L 182 274 L 181 276 L 178 275 L 182 279 L 178 284 L 175 281 L 174 286 L 171 287 L 170 290 L 174 293 L 167 299 L 165 295 L 168 291 L 161 298 L 158 295 L 156 303 L 147 294 L 153 294 L 160 288 L 161 290 L 159 291 L 162 292 L 162 295 L 165 289 L 161 289 L 158 285 L 159 283 L 162 285 L 168 277 L 173 276 L 177 272 L 175 270 L 174 274 L 164 270 L 165 261 L 170 260 L 169 256 L 176 252 L 179 247 L 183 247 L 183 239 L 187 241 L 190 236 L 194 237 L 195 234 L 197 235 L 197 233 L 191 234 L 194 231 L 192 229 L 199 226 L 198 224 L 209 212 L 191 223 L 186 231 L 176 235 L 151 256 L 112 298 L 114 296 L 118 297 L 115 303 L 116 309 L 108 318 L 107 323 L 110 326 L 102 332 L 101 343 L 95 349 L 97 350 L 95 353 L 99 357 L 102 356 L 105 359 L 104 362 L 117 353 L 123 352 L 129 342 L 132 342 L 165 303 L 189 279 L 196 274 L 197 276 L 192 281 L 208 265 L 219 258 L 221 254 L 223 255 L 230 248 L 241 242 L 241 240 L 244 240 L 245 237 L 247 238 L 247 236 L 252 235 L 253 232 L 255 233 L 255 231 Z" fill="#e22121"/>
<path d="M 426 113 L 415 113 L 388 121 L 385 119 L 387 120 L 384 122 L 365 124 L 365 127 L 363 125 L 362 129 L 334 139 L 374 128 L 370 127 L 374 125 L 383 126 L 379 125 L 411 115 Z" fill="#e22121"/>
<path d="M 427 111 L 437 112 L 450 108 L 469 107 L 519 108 L 524 106 L 544 106 L 482 105 L 432 110 L 434 112 Z" fill="#e22121"/>
<path d="M 318 706 L 325 714 L 340 719 L 344 726 L 357 736 L 358 744 L 377 741 L 400 753 L 413 756 L 421 753 L 433 754 L 446 766 L 471 764 L 482 777 L 497 786 L 493 792 L 498 792 L 505 787 L 507 781 L 513 776 L 533 777 L 512 775 L 506 780 L 505 785 L 500 787 L 484 777 L 481 771 L 472 763 L 453 764 L 447 762 L 440 755 L 427 754 L 424 751 L 415 754 L 399 752 L 377 738 L 371 737 L 362 741 L 345 726 L 345 723 L 353 721 L 360 725 L 366 721 L 359 725 L 338 716 L 331 706 Z" fill="#a2142d"/>
<path d="M 699 698 L 690 701 L 686 695 L 680 694 L 674 696 L 667 703 L 660 704 L 656 723 L 650 730 L 658 745 L 650 754 L 647 750 L 650 744 L 643 739 L 630 741 L 626 744 L 630 751 L 618 755 L 608 765 L 581 775 L 570 773 L 567 770 L 570 766 L 591 765 L 598 761 L 608 750 L 619 747 L 617 744 L 607 745 L 595 741 L 589 743 L 586 749 L 580 750 L 570 757 L 563 757 L 561 761 L 548 763 L 540 774 L 535 776 L 539 776 L 551 769 L 558 771 L 563 768 L 568 774 L 573 776 L 594 772 L 610 765 L 618 755 L 631 752 L 630 747 L 632 745 L 645 741 L 649 745 L 647 748 L 648 755 L 641 760 L 641 765 L 644 766 L 653 761 L 652 755 L 658 747 L 658 742 L 650 733 L 650 730 L 656 724 L 664 724 L 674 717 L 687 711 L 689 703 Z" fill="#a2142d"/>
<path d="M 290 697 L 291 700 L 302 705 L 315 706 L 312 695 L 307 691 L 298 692 Z" fill="#a2142d"/>
<path d="M 743 670 L 727 671 L 725 674 L 740 679 Z" fill="#a2142d"/>
<path d="M 704 663 L 698 661 L 689 667 L 675 671 L 650 693 L 658 690 L 673 677 L 686 680 L 694 672 L 698 671 Z" fill="#a2142d"/>
<path d="M 373 668 L 373 671 L 378 675 L 378 679 L 384 672 L 391 681 L 386 680 L 398 687 L 406 686 L 416 680 L 424 682 L 434 677 L 449 678 L 451 681 L 453 679 L 459 681 L 464 677 L 472 680 L 475 678 L 489 684 L 505 679 L 507 680 L 505 684 L 514 684 L 519 680 L 525 683 L 530 680 L 534 683 L 536 680 L 545 685 L 548 683 L 551 687 L 554 684 L 551 680 L 554 678 L 559 680 L 557 685 L 562 690 L 568 690 L 576 695 L 584 696 L 586 699 L 602 696 L 608 687 L 602 696 L 595 697 L 589 686 L 597 680 L 584 673 L 577 674 L 572 680 L 560 677 L 560 671 L 556 671 L 553 667 L 551 668 L 551 671 L 554 673 L 553 676 L 542 666 L 508 668 L 500 676 L 497 676 L 493 673 L 492 667 L 481 666 L 477 663 L 473 665 L 439 665 L 438 663 L 432 663 L 429 657 L 426 656 L 422 657 L 429 658 L 427 663 L 422 663 L 418 659 L 420 657 L 416 661 L 407 655 L 406 657 L 409 660 L 403 668 L 393 669 L 393 662 L 391 661 Z" fill="#a2142d"/>
<path d="M 230 624 L 228 642 L 229 646 L 234 645 L 236 647 L 234 653 L 236 654 L 236 661 L 240 666 L 269 682 L 297 685 L 316 681 L 334 699 L 342 698 L 355 710 L 364 711 L 378 708 L 379 717 L 372 719 L 378 719 L 385 727 L 392 726 L 394 728 L 394 735 L 393 726 L 385 727 L 381 723 L 381 720 L 384 718 L 393 719 L 410 735 L 403 742 L 400 742 L 398 737 L 399 743 L 412 737 L 420 737 L 414 729 L 404 729 L 395 718 L 385 712 L 382 704 L 378 704 L 370 709 L 359 710 L 354 706 L 356 699 L 346 691 L 334 695 L 328 687 L 314 679 L 295 684 L 273 680 L 269 665 L 257 663 L 255 666 L 249 666 L 240 661 L 243 657 L 264 651 L 266 646 L 260 642 L 250 645 L 236 639 L 231 633 L 232 625 Z" fill="#a2142d"/>
<path d="M 209 623 L 213 641 L 210 660 L 196 670 L 175 663 L 193 669 L 201 678 L 206 680 L 214 679 L 221 683 L 235 683 L 238 680 L 236 678 L 223 675 L 225 669 L 201 673 L 198 670 L 212 656 L 213 639 L 211 636 L 211 623 Z" fill="#a2142d"/>
<path d="M 820 608 L 816 614 L 808 608 L 804 609 L 804 630 L 802 633 L 797 630 L 797 619 L 795 618 L 776 637 L 764 637 L 747 644 L 741 653 L 747 662 L 752 662 L 749 681 L 745 686 L 738 689 L 715 690 L 701 697 L 716 690 L 724 691 L 727 689 L 739 692 L 732 701 L 732 704 L 756 697 L 761 693 L 766 678 L 763 674 L 755 676 L 756 670 L 772 660 L 777 655 L 780 647 L 793 636 L 798 639 L 803 638 L 805 630 L 804 616 L 808 610 L 815 615 L 820 615 Z" fill="#a2142d"/>
<path d="M 703 560 L 716 562 L 762 562 L 751 559 L 741 561 L 728 558 L 709 558 Z" fill="#a2142d"/>
<path d="M 791 580 L 793 581 L 799 579 L 823 579 L 828 582 L 840 581 L 850 590 L 861 592 L 865 599 L 856 609 L 856 615 L 852 616 L 856 616 L 857 610 L 865 602 L 865 595 L 862 591 L 854 589 L 842 581 L 828 580 L 835 572 L 830 567 L 822 566 L 820 562 L 823 555 L 829 552 L 843 565 L 829 552 L 825 552 L 816 568 L 801 568 Z" fill="#a2142d"/>
<path d="M 652 554 L 657 559 L 652 559 L 688 560 L 665 557 L 656 553 L 682 552 L 657 552 Z" fill="#a2142d"/>
<path d="M 795 520 L 803 523 L 809 531 L 826 532 L 830 539 L 844 537 L 853 542 L 864 541 L 864 534 L 873 536 L 875 543 L 872 551 L 872 565 L 869 568 L 864 568 L 872 566 L 872 554 L 876 539 L 868 532 L 862 531 L 859 537 L 862 540 L 855 542 L 830 530 L 811 530 L 801 521 Z" fill="#a2142d"/>
<path d="M 152 508 L 142 524 L 143 532 L 150 544 L 144 549 L 146 553 L 154 553 L 156 555 L 158 574 L 162 575 L 170 570 L 174 573 L 177 580 L 175 596 L 183 606 L 181 605 L 182 601 L 176 596 L 177 579 L 171 568 L 165 569 L 162 566 L 168 562 L 169 556 L 163 548 L 156 551 L 149 549 L 151 543 L 146 537 L 144 526 L 152 518 L 153 513 L 157 515 L 158 520 L 156 529 L 158 516 Z" fill="#a2142d"/>
<path d="M 253 500 L 247 504 L 232 525 L 213 541 L 211 547 L 203 556 L 202 562 L 198 566 L 188 568 L 188 570 L 202 564 L 202 561 L 211 549 L 231 528 L 247 504 Z" fill="#a2142d"/>
<path d="M 538 464 L 534 468 L 538 464 L 528 457 L 523 457 L 497 477 L 492 486 L 488 487 L 476 498 L 471 507 L 457 517 L 456 523 L 445 530 L 438 537 L 438 540 L 449 548 L 448 545 L 453 538 L 483 508 L 488 500 L 499 493 L 508 481 L 507 477 L 509 474 L 518 471 L 526 459 Z" fill="#a2142d"/>
<path d="M 848 449 L 846 447 L 837 447 L 832 449 L 827 455 L 838 455 Z" fill="#a2142d"/>
<path d="M 968 441 L 968 514 L 965 518 L 966 533 L 962 537 L 964 545 L 960 549 L 959 557 L 952 554 L 952 557 L 950 555 L 942 557 L 940 553 L 939 555 L 937 554 L 938 547 L 936 541 L 938 536 L 935 532 L 937 520 L 934 517 L 933 504 L 929 496 L 929 475 L 926 469 L 929 538 L 924 589 L 920 604 L 916 610 L 911 636 L 908 639 L 910 642 L 901 661 L 901 665 L 911 666 L 913 669 L 908 670 L 914 673 L 912 670 L 922 666 L 933 648 L 942 640 L 944 631 L 959 599 L 969 563 L 974 532 L 975 504 L 977 504 L 977 523 L 975 477 Z" fill="#a2142d"/>
<path d="M 861 439 L 870 453 L 868 472 L 861 481 L 855 483 L 841 474 L 834 478 L 835 481 L 832 486 L 836 496 L 833 502 L 819 509 L 808 508 L 801 502 L 789 505 L 784 504 L 781 508 L 783 511 L 781 519 L 793 521 L 784 521 L 782 519 L 783 515 L 792 510 L 802 510 L 806 514 L 819 514 L 841 503 L 845 508 L 846 515 L 850 515 L 850 518 L 856 523 L 862 522 L 864 515 L 861 510 L 865 503 L 857 491 L 863 484 L 875 478 L 873 472 L 873 452 Z" fill="#a2142d"/>
<path d="M 269 376 L 264 378 L 256 376 L 262 379 L 256 386 L 231 396 L 220 396 L 220 393 L 218 395 L 215 394 L 214 409 L 198 409 L 185 413 L 184 419 L 196 432 L 198 440 L 209 452 L 217 454 L 219 451 L 218 445 L 222 437 L 228 432 L 231 434 L 233 430 L 240 430 L 243 433 L 247 449 L 243 455 L 233 458 L 233 465 L 222 473 L 215 501 L 207 504 L 203 501 L 201 502 L 204 506 L 213 507 L 215 505 L 217 508 L 213 512 L 205 509 L 209 511 L 199 521 L 197 527 L 190 529 L 186 526 L 185 532 L 182 535 L 177 534 L 179 536 L 185 535 L 190 539 L 226 498 L 230 492 L 229 489 L 234 488 L 238 484 L 237 473 L 240 470 L 239 465 L 241 463 L 244 465 L 247 460 L 255 458 L 259 453 L 258 448 L 246 443 L 243 430 L 240 429 L 228 431 L 221 437 L 218 451 L 215 454 L 209 452 L 196 432 L 185 420 L 185 414 L 192 411 L 208 414 L 211 417 L 216 409 L 214 399 L 217 396 L 233 397 L 264 389 L 269 384 Z" fill="#a2142d"/>
<path d="M 785 358 L 772 356 L 777 364 L 772 370 L 759 377 L 745 373 L 747 378 L 744 381 L 739 382 L 724 392 L 721 402 L 724 415 L 738 429 L 748 429 L 752 439 L 750 441 L 709 439 L 757 443 L 781 442 L 771 433 L 757 429 L 747 423 L 746 417 L 750 411 L 750 404 L 741 402 L 738 395 L 735 394 L 740 387 L 745 387 L 752 379 L 768 378 L 768 373 L 777 366 L 776 358 Z" fill="#a2142d"/>
<path d="M 394 313 L 389 312 L 385 307 L 382 307 L 375 313 L 372 319 L 360 313 L 352 313 L 359 314 L 368 324 L 375 322 L 384 307 L 389 312 Z" fill="#a2142d"/>
<path d="M 624 375 L 618 379 L 617 374 L 602 370 L 587 362 L 584 354 L 576 350 L 567 351 L 563 354 L 557 350 L 551 352 L 544 351 L 539 354 L 554 350 L 563 354 L 567 351 L 576 350 L 583 355 L 581 360 L 583 364 L 582 369 L 576 368 L 571 371 L 565 365 L 562 366 L 561 371 L 557 369 L 557 373 L 561 373 L 565 378 L 563 380 L 550 378 L 545 370 L 538 369 L 543 369 L 547 374 L 547 378 L 560 380 L 565 385 L 565 389 L 562 391 L 542 394 L 529 390 L 526 393 L 507 394 L 537 391 L 543 395 L 516 402 L 507 402 L 482 410 L 477 409 L 466 416 L 452 411 L 451 415 L 446 417 L 430 412 L 424 413 L 423 416 L 418 413 L 415 416 L 412 409 L 414 405 L 410 404 L 409 407 L 411 409 L 408 415 L 387 416 L 383 414 L 379 416 L 374 414 L 369 417 L 366 411 L 373 402 L 389 407 L 401 403 L 410 397 L 413 387 L 403 373 L 405 369 L 415 371 L 421 378 L 439 380 L 444 387 L 454 389 L 457 392 L 467 389 L 472 392 L 490 391 L 495 394 L 503 394 L 482 390 L 478 392 L 472 391 L 470 389 L 474 384 L 483 378 L 471 387 L 461 385 L 455 379 L 458 376 L 464 376 L 473 371 L 477 372 L 483 353 L 485 351 L 495 351 L 496 353 L 502 344 L 506 342 L 506 331 L 510 332 L 513 337 L 506 326 L 493 316 L 485 312 L 475 312 L 473 310 L 477 306 L 495 307 L 486 305 L 487 297 L 485 295 L 465 291 L 457 293 L 455 299 L 460 302 L 464 298 L 472 307 L 472 313 L 458 317 L 455 320 L 450 319 L 446 324 L 447 328 L 444 333 L 434 335 L 431 333 L 432 329 L 429 329 L 428 336 L 415 348 L 392 346 L 377 352 L 377 362 L 386 374 L 385 384 L 379 382 L 375 377 L 362 369 L 357 369 L 349 361 L 349 341 L 358 331 L 358 326 L 331 327 L 328 325 L 316 326 L 310 324 L 312 327 L 305 329 L 294 322 L 284 321 L 264 327 L 255 333 L 249 333 L 237 340 L 226 342 L 223 345 L 224 347 L 219 350 L 223 356 L 220 359 L 214 360 L 208 367 L 186 374 L 181 379 L 174 391 L 177 397 L 172 398 L 171 402 L 177 405 L 180 400 L 184 399 L 191 392 L 196 392 L 190 392 L 182 400 L 179 400 L 177 405 L 175 404 L 180 396 L 179 391 L 191 374 L 203 369 L 211 370 L 220 363 L 229 362 L 225 359 L 223 353 L 228 343 L 251 340 L 262 333 L 282 328 L 285 325 L 299 328 L 301 335 L 310 330 L 317 331 L 323 327 L 354 327 L 356 331 L 348 339 L 346 346 L 336 360 L 339 364 L 337 372 L 354 368 L 366 374 L 375 386 L 384 392 L 393 391 L 398 387 L 396 376 L 401 374 L 407 380 L 406 384 L 411 391 L 403 401 L 389 406 L 373 401 L 365 411 L 366 419 L 384 426 L 390 418 L 401 416 L 402 421 L 397 423 L 400 427 L 408 428 L 421 424 L 426 433 L 424 436 L 428 435 L 437 438 L 435 441 L 437 443 L 436 446 L 429 451 L 431 453 L 441 452 L 452 455 L 459 453 L 462 455 L 470 452 L 462 452 L 458 447 L 471 444 L 469 440 L 475 436 L 474 432 L 484 426 L 487 427 L 490 423 L 490 416 L 504 407 L 511 408 L 518 405 L 563 399 L 568 393 L 575 397 L 588 391 L 591 387 L 603 387 L 607 381 L 610 383 L 610 386 L 605 388 L 610 391 L 624 380 Z" fill="#a2142d"/>
<path d="M 189 282 L 154 318 L 134 344 L 113 377 L 99 405 L 95 419 L 92 421 L 90 429 L 82 441 L 81 455 L 77 461 L 78 463 L 73 468 L 73 477 L 69 476 L 71 478 L 67 482 L 63 479 L 59 481 L 57 478 L 50 477 L 53 476 L 51 474 L 53 464 L 49 458 L 49 445 L 56 423 L 55 418 L 63 401 L 65 384 L 74 360 L 51 407 L 53 407 L 41 443 L 39 503 L 41 531 L 44 536 L 46 556 L 54 572 L 54 579 L 63 590 L 78 587 L 76 580 L 79 570 L 79 545 L 76 526 L 78 524 L 79 487 L 85 450 L 98 410 L 114 377 L 135 343 L 155 318 L 156 320 L 154 322 Z" fill="#a2142d"/>
<path d="M 557 258 L 557 262 L 558 255 L 563 252 L 569 256 L 571 255 L 574 259 L 565 274 L 573 280 L 573 287 L 570 291 L 571 295 L 565 300 L 555 300 L 551 305 L 551 310 L 557 318 L 577 321 L 591 320 L 601 324 L 612 325 L 617 322 L 614 315 L 621 307 L 630 312 L 632 311 L 634 314 L 645 316 L 653 324 L 653 328 L 656 331 L 655 320 L 661 314 L 661 309 L 666 304 L 665 292 L 672 288 L 676 291 L 678 301 L 686 299 L 690 301 L 693 309 L 692 316 L 700 324 L 721 323 L 740 331 L 750 332 L 768 328 L 776 334 L 780 341 L 787 341 L 794 337 L 805 335 L 808 338 L 806 343 L 801 348 L 799 354 L 793 355 L 799 354 L 802 347 L 809 340 L 809 336 L 805 334 L 783 337 L 774 325 L 764 321 L 754 320 L 753 323 L 749 322 L 748 324 L 741 319 L 732 319 L 727 316 L 700 315 L 698 313 L 698 292 L 688 288 L 686 284 L 683 290 L 677 283 L 666 288 L 661 284 L 657 276 L 653 277 L 645 274 L 637 275 L 637 280 L 640 283 L 647 283 L 650 287 L 660 291 L 664 299 L 664 303 L 660 307 L 661 312 L 658 314 L 654 314 L 647 307 L 642 306 L 641 303 L 625 300 L 609 303 L 605 307 L 605 314 L 609 315 L 613 322 L 611 325 L 591 316 L 570 319 L 558 317 L 555 312 L 558 306 L 566 304 L 574 311 L 579 311 L 592 300 L 589 290 L 585 286 L 587 284 L 586 275 L 590 272 L 598 273 L 604 281 L 609 283 L 620 279 L 621 276 L 620 270 L 617 267 L 620 262 L 612 261 L 605 264 L 601 263 L 592 269 L 585 269 L 575 278 L 569 273 L 586 253 L 573 250 L 561 251 Z" fill="#a2142d"/>
<path d="M 518 246 L 480 247 L 466 252 L 420 275 L 413 288 L 410 287 L 410 282 L 416 275 L 417 267 L 408 273 L 389 273 L 372 276 L 366 285 L 359 288 L 350 288 L 342 283 L 326 283 L 316 293 L 293 302 L 292 308 L 294 311 L 300 311 L 306 320 L 315 321 L 324 314 L 317 320 L 307 320 L 301 311 L 295 311 L 293 306 L 319 298 L 327 289 L 343 285 L 350 289 L 363 288 L 368 285 L 372 277 L 410 275 L 411 281 L 408 289 L 412 289 L 425 275 L 449 266 L 460 257 L 481 250 L 495 249 L 506 251 L 513 249 L 510 256 L 504 260 L 501 260 L 507 259 L 518 249 Z" fill="#a2142d"/>
<path d="M 487 111 L 539 111 L 606 120 L 614 119 L 613 121 L 647 127 L 692 141 L 690 140 L 691 138 L 699 142 L 694 142 L 708 146 L 770 173 L 779 180 L 812 197 L 821 205 L 846 220 L 851 225 L 850 227 L 853 226 L 907 284 L 931 316 L 943 336 L 931 315 L 889 261 L 876 248 L 866 231 L 864 232 L 863 228 L 859 227 L 849 217 L 855 218 L 862 224 L 800 181 L 764 165 L 759 160 L 698 137 L 661 127 L 649 126 L 646 123 L 637 123 L 621 117 L 601 116 L 582 112 L 543 112 L 540 110 L 493 109 L 496 110 Z" fill="#a2142d"/>
<path d="M 626 683 L 624 680 L 618 681 L 602 700 L 593 703 L 595 707 L 581 716 L 577 722 L 570 726 L 555 727 L 547 724 L 536 729 L 529 737 L 517 735 L 510 729 L 494 725 L 462 725 L 450 719 L 432 722 L 413 702 L 405 704 L 400 698 L 400 693 L 387 684 L 380 684 L 377 687 L 382 688 L 392 698 L 392 705 L 400 712 L 412 712 L 423 719 L 423 728 L 434 741 L 441 740 L 444 737 L 441 732 L 448 727 L 453 728 L 459 736 L 464 734 L 471 739 L 496 737 L 502 740 L 509 748 L 518 753 L 524 753 L 527 759 L 529 759 L 531 751 L 546 732 L 571 734 L 574 729 L 585 724 L 588 715 L 596 711 L 600 704 L 605 706 L 611 699 L 612 694 Z" fill="#c96248"/>
<path d="M 320 668 L 324 673 L 343 672 L 349 679 L 349 682 L 355 687 L 368 692 L 371 689 L 362 682 L 357 681 L 354 678 L 353 672 L 343 666 L 332 670 Z" fill="#c96248"/>
<path d="M 881 663 L 841 715 L 817 738 L 775 770 L 757 780 L 754 779 L 804 744 L 839 710 L 855 691 L 838 711 L 801 746 L 748 782 L 680 814 L 627 830 L 593 837 L 630 831 L 673 819 L 714 803 L 761 779 L 793 758 L 820 736 L 844 712 Z" fill="#c96248"/>
<path d="M 669 645 L 639 652 L 635 666 L 639 668 L 641 659 L 646 654 L 667 649 Z" fill="#c96248"/>
<path d="M 808 605 L 839 607 L 856 604 L 851 602 L 811 601 Z" fill="#c96248"/>
<path d="M 485 556 L 479 556 L 479 560 L 474 563 L 474 567 L 470 570 L 478 574 L 479 581 L 483 576 L 482 574 L 486 572 L 487 559 Z" fill="#c96248"/>
<path d="M 816 560 L 812 553 L 798 549 L 795 546 L 795 540 L 788 541 L 785 547 L 771 548 L 690 545 L 785 548 L 786 550 L 781 554 L 753 552 L 788 554 L 794 559 L 800 558 L 810 563 Z" fill="#c96248"/>
<path d="M 191 605 L 215 606 L 205 606 L 203 604 L 206 602 L 207 576 L 261 521 L 265 522 L 309 567 L 309 590 L 311 592 L 317 590 L 321 573 L 328 578 L 384 577 L 369 586 L 394 572 L 323 572 L 292 546 L 283 533 L 260 510 L 207 568 L 206 601 L 204 603 L 192 602 Z" fill="#c96248"/>
<path d="M 527 516 L 535 522 L 544 520 L 545 522 L 543 523 L 560 521 L 564 517 L 544 505 L 538 505 L 536 511 Z" fill="#c96248"/>
<path d="M 991 484 L 992 514 L 989 551 L 987 555 L 984 555 L 983 559 L 983 494 L 983 537 L 979 572 L 970 609 L 954 650 L 931 692 L 907 725 L 879 755 L 839 790 L 881 754 L 922 712 L 945 678 L 970 633 L 982 598 L 982 590 L 984 590 L 983 585 L 985 584 L 984 581 L 989 563 L 992 522 Z" fill="#c96248"/>
<path d="M 346 601 L 449 602 L 451 565 L 469 551 L 494 526 L 500 523 L 541 483 L 600 532 L 602 537 L 602 590 L 617 589 L 616 585 L 624 583 L 623 579 L 626 578 L 624 577 L 623 564 L 605 542 L 606 540 L 636 563 L 634 593 L 637 598 L 652 597 L 649 597 L 649 595 L 682 594 L 694 590 L 694 584 L 689 579 L 658 576 L 655 574 L 656 572 L 750 571 L 737 578 L 764 564 L 660 563 L 662 567 L 666 568 L 665 570 L 651 570 L 625 552 L 551 489 L 544 481 L 543 472 L 535 468 L 518 482 L 451 548 L 450 600 L 448 602 L 348 601 L 347 599 L 352 595 Z" fill="#c96248"/>
<path d="M 593 463 L 596 470 L 610 486 L 609 488 L 614 491 L 600 473 L 601 471 L 611 477 L 636 504 L 636 510 L 660 531 L 687 535 L 689 538 L 724 536 L 719 532 L 709 532 L 709 529 L 683 524 L 670 524 L 676 530 L 676 534 L 664 532 L 655 527 L 637 510 L 638 506 L 615 479 L 603 468 Z" fill="#c96248"/>
<path d="M 498 437 L 474 460 L 470 458 L 459 462 L 452 462 L 443 458 L 427 457 L 409 467 L 396 458 L 405 464 L 406 468 L 412 469 L 417 479 L 411 473 L 402 469 L 404 467 L 399 466 L 394 460 L 387 460 L 379 453 L 372 455 L 369 452 L 382 472 L 377 476 L 358 480 L 352 484 L 403 490 L 437 490 L 432 489 L 425 479 L 419 478 L 416 472 L 432 464 L 441 463 L 450 467 L 461 465 L 468 459 L 472 459 L 473 461 L 444 490 L 439 491 L 441 493 Z" fill="#c96248"/>
<path d="M 682 385 L 677 385 L 670 389 L 680 385 L 683 391 L 679 397 L 680 405 L 672 411 L 668 419 L 659 425 L 644 428 L 655 432 L 668 433 L 661 433 L 656 429 L 669 422 L 672 413 L 681 406 L 679 397 L 684 390 Z" fill="#c96248"/>
<path d="M 335 344 L 325 350 L 312 348 L 297 356 L 278 353 L 271 358 L 254 360 L 244 353 L 234 354 L 235 357 L 245 364 L 250 364 L 256 368 L 261 366 L 272 367 L 276 363 L 289 368 L 295 368 L 298 380 L 307 390 L 308 404 L 301 414 L 301 422 L 310 433 L 305 440 L 305 452 L 286 469 L 281 476 L 282 479 L 293 477 L 300 478 L 303 481 L 299 462 L 283 479 L 282 475 L 305 453 L 305 440 L 311 432 L 302 421 L 302 414 L 309 404 L 308 388 L 299 380 L 297 366 L 287 367 L 280 362 L 276 362 L 271 367 L 263 365 L 254 367 L 249 362 L 264 359 L 270 360 L 279 354 L 299 357 L 304 356 L 310 351 L 327 352 L 334 348 L 334 352 L 328 357 L 311 357 L 305 370 L 308 377 L 315 383 L 316 392 L 323 395 L 318 393 L 316 383 L 308 374 L 308 366 L 313 357 L 327 358 L 333 355 L 337 348 Z" fill="#c96248"/>
<path d="M 665 330 L 673 340 L 696 337 L 694 333 Z" fill="#c96248"/>
<path d="M 883 328 L 901 355 L 912 378 L 911 380 L 882 347 L 876 343 L 903 395 L 915 437 L 912 425 L 913 420 L 918 428 L 922 428 L 931 436 L 928 418 L 913 378 L 901 355 Z" fill="#c96248"/>
<path d="M 551 325 L 554 329 L 562 327 L 571 335 L 573 340 L 599 348 L 612 359 L 623 359 L 625 357 L 625 354 L 619 350 L 622 347 L 626 351 L 636 348 L 649 351 L 653 356 L 660 359 L 688 357 L 691 365 L 683 376 L 666 385 L 655 382 L 667 385 L 677 379 L 683 379 L 687 372 L 697 365 L 693 357 L 694 355 L 709 360 L 713 364 L 712 368 L 705 374 L 697 375 L 689 387 L 687 395 L 689 408 L 678 421 L 676 427 L 679 432 L 675 435 L 688 433 L 680 428 L 678 423 L 690 407 L 688 393 L 697 377 L 705 375 L 714 369 L 731 368 L 736 364 L 745 365 L 751 361 L 750 359 L 736 357 L 728 361 L 714 361 L 699 352 L 701 344 L 680 347 L 673 343 L 669 350 L 665 350 L 651 343 L 639 343 L 633 339 L 627 340 L 620 331 L 616 331 L 611 335 L 591 336 L 572 332 L 564 324 Z" fill="#c96248"/>
<path d="M 916 322 L 937 355 L 963 406 L 973 436 L 979 468 L 969 421 L 952 377 L 922 325 L 930 337 L 929 339 Z" fill="#c96248"/>
<path d="M 177 230 L 144 258 L 126 277 L 123 275 L 116 283 L 112 280 L 106 286 L 105 284 L 109 278 L 75 322 L 61 346 L 63 347 L 61 350 L 60 348 L 58 357 L 55 358 L 53 362 L 55 363 L 53 366 L 52 364 L 53 367 L 50 368 L 49 376 L 47 376 L 41 389 L 24 444 L 18 482 L 17 500 L 20 552 L 26 584 L 37 616 L 80 689 L 104 719 L 133 746 L 104 718 L 89 699 L 65 660 L 44 615 L 33 575 L 28 545 L 27 497 L 29 467 L 33 442 L 45 405 L 60 371 L 80 335 L 103 302 L 135 267 Z" fill="#c96248"/>
<path d="M 388 203 L 354 213 L 302 236 L 273 252 L 222 289 L 193 316 L 165 349 L 141 388 L 121 435 L 137 396 L 156 364 L 161 361 L 141 399 L 154 373 L 169 350 L 192 322 L 217 297 L 261 263 L 284 250 L 263 262 L 261 261 L 284 246 L 290 244 L 287 248 L 310 235 L 336 224 L 325 229 L 322 228 L 339 219 Z" fill="#c96248"/>
<path d="M 639 168 L 645 175 L 657 183 L 660 188 L 669 191 L 661 186 L 663 182 L 667 182 L 679 190 L 677 194 L 671 192 L 732 217 L 733 213 L 719 200 L 718 196 L 745 209 L 687 182 Z" fill="#c96248"/>
<path d="M 811 187 L 755 156 L 694 133 L 639 118 L 596 110 L 548 105 L 477 104 L 414 112 L 353 126 L 291 150 L 243 175 L 238 175 L 240 176 L 232 181 L 229 180 L 231 178 L 201 195 L 164 223 L 146 240 L 161 226 L 164 228 L 138 252 L 135 251 L 136 249 L 111 276 L 122 266 L 122 269 L 125 269 L 122 273 L 126 269 L 128 270 L 133 263 L 169 231 L 224 192 L 269 168 L 317 149 L 284 161 L 238 184 L 236 183 L 240 178 L 280 156 L 310 142 L 351 127 L 380 119 L 439 108 L 482 104 L 521 104 L 578 108 L 620 114 L 687 131 L 754 156 Z" fill="#c96248"/>
<path d="M 653 726 L 649 733 L 657 744 L 651 750 L 649 749 L 651 743 L 640 735 L 612 743 L 604 743 L 599 741 L 597 737 L 582 741 L 583 745 L 577 747 L 569 755 L 564 754 L 562 751 L 552 752 L 542 765 L 540 772 L 533 776 L 539 774 L 548 762 L 561 760 L 563 756 L 570 756 L 576 751 L 586 748 L 589 742 L 595 740 L 607 744 L 617 743 L 620 747 L 617 750 L 608 751 L 598 762 L 591 766 L 570 767 L 568 769 L 570 772 L 581 774 L 608 764 L 619 754 L 611 758 L 608 763 L 602 765 L 600 763 L 606 753 L 610 750 L 617 750 L 622 746 L 625 746 L 628 752 L 629 749 L 625 744 L 630 740 L 639 738 L 647 740 L 651 744 L 648 748 L 650 753 L 657 745 L 649 733 Z" fill="#c71926"/>
<path d="M 346 723 L 346 726 L 362 740 L 372 736 L 382 739 L 399 751 L 415 753 L 424 750 L 427 753 L 433 753 L 427 753 L 424 750 L 417 752 L 412 750 L 404 751 L 398 749 L 384 738 L 371 734 L 362 738 L 346 725 L 348 723 Z" fill="#c71926"/>
<path d="M 325 685 L 334 694 L 346 690 L 357 699 L 355 706 L 359 709 L 370 708 L 378 703 L 382 703 L 386 712 L 395 717 L 404 728 L 414 728 L 421 736 L 417 738 L 422 737 L 414 726 L 407 728 L 395 716 L 391 715 L 386 710 L 383 701 L 380 700 L 371 707 L 361 709 L 358 706 L 358 698 L 348 689 L 335 692 Z" fill="#c71926"/>
<path d="M 392 685 L 398 688 L 416 686 L 422 691 L 426 691 L 432 682 L 436 682 L 439 687 L 435 691 L 442 689 L 446 692 L 451 692 L 453 688 L 457 688 L 459 691 L 484 691 L 487 694 L 493 691 L 495 693 L 502 691 L 504 694 L 515 694 L 523 691 L 529 693 L 533 691 L 538 692 L 543 689 L 548 692 L 547 696 L 563 696 L 566 698 L 569 695 L 573 695 L 575 697 L 573 703 L 583 707 L 591 700 L 597 698 L 586 700 L 584 697 L 571 694 L 570 692 L 574 688 L 571 688 L 570 692 L 562 691 L 556 685 L 558 680 L 554 679 L 552 680 L 555 684 L 551 688 L 548 684 L 545 686 L 536 681 L 534 684 L 530 681 L 527 684 L 519 681 L 514 685 L 505 685 L 503 683 L 505 680 L 489 685 L 481 680 L 475 679 L 472 681 L 465 678 L 459 682 L 456 680 L 451 682 L 449 679 L 434 678 L 424 683 L 416 681 L 401 688 Z" fill="#c71926"/>
<path d="M 241 661 L 249 665 L 255 665 L 257 662 L 269 664 L 272 667 L 273 679 L 295 683 L 314 678 L 321 683 L 310 674 L 304 677 L 295 676 L 297 680 L 292 683 L 276 678 L 274 669 L 270 664 L 256 659 L 251 662 L 249 661 L 252 656 L 263 652 L 243 658 Z" fill="#c71926"/>
<path d="M 714 652 L 710 655 L 703 644 L 708 651 L 703 659 L 697 659 L 690 664 L 674 667 L 661 680 L 653 683 L 645 692 L 627 705 L 633 705 L 637 709 L 623 725 L 628 722 L 645 720 L 643 712 L 646 698 L 660 690 L 673 678 L 677 678 L 671 679 L 658 691 L 650 694 L 649 692 L 656 685 L 662 683 L 672 672 L 689 666 L 698 660 L 703 661 L 705 665 L 686 681 L 706 664 L 706 658 L 713 655 Z" fill="#c71926"/>
<path d="M 774 637 L 764 636 L 742 643 L 738 649 L 738 654 L 743 661 L 742 668 L 726 670 L 721 675 L 734 678 L 743 683 L 737 687 L 727 687 L 722 690 L 716 689 L 738 688 L 745 685 L 748 681 L 751 662 L 747 663 L 740 651 L 748 642 L 764 636 Z" fill="#c71926"/>
<path d="M 648 556 L 648 565 L 652 569 L 665 568 L 662 568 L 658 563 L 662 561 L 748 563 L 704 562 L 702 560 L 709 557 L 728 557 L 741 560 L 751 558 L 762 561 L 762 563 L 764 562 L 759 558 L 759 555 L 653 553 L 687 558 L 688 561 L 654 561 L 649 559 Z" fill="#c71926"/>
<path d="M 153 514 L 153 518 L 145 526 L 147 537 L 152 543 L 150 549 L 156 550 L 163 547 L 170 556 L 169 562 L 163 566 L 165 568 L 171 567 L 174 571 L 170 549 L 165 545 L 154 549 L 148 537 L 146 527 L 155 521 L 156 526 L 157 517 Z" fill="#c71926"/>
<path d="M 550 485 L 572 504 L 566 499 L 567 497 L 563 493 L 560 482 Z" fill="#c71926"/>
<path d="M 535 461 L 530 456 L 524 454 L 517 458 L 498 474 L 454 518 L 450 525 L 440 531 L 435 540 L 449 549 L 439 542 L 437 537 L 455 523 L 456 517 L 471 506 L 475 498 L 484 489 L 492 485 L 500 473 L 504 472 L 523 456 L 528 456 Z" fill="#c71926"/>
<path d="M 862 441 L 862 447 L 842 443 L 832 444 L 818 457 L 808 461 L 805 465 L 813 472 L 813 481 L 803 497 L 797 500 L 787 498 L 779 504 L 780 519 L 783 521 L 780 519 L 782 513 L 780 508 L 784 503 L 789 504 L 801 501 L 808 507 L 819 508 L 833 501 L 835 495 L 831 485 L 834 481 L 833 478 L 841 473 L 855 482 L 861 480 L 867 472 L 866 468 L 869 453 Z" fill="#c71926"/>
<path d="M 350 429 L 345 432 L 338 431 L 340 434 L 338 438 L 344 439 L 349 443 L 351 441 Z" fill="#c71926"/>
<path d="M 193 428 L 206 448 L 215 453 L 220 437 L 228 430 L 234 428 L 244 430 L 247 443 L 253 446 L 250 448 L 251 452 L 254 451 L 253 446 L 260 449 L 260 453 L 255 459 L 247 461 L 244 466 L 240 465 L 241 470 L 238 473 L 239 484 L 234 489 L 230 489 L 230 494 L 219 506 L 241 480 L 240 474 L 251 465 L 260 462 L 267 452 L 265 447 L 257 446 L 250 442 L 245 436 L 245 429 L 233 428 L 226 431 L 219 438 L 216 450 L 213 452 L 207 446 L 206 437 L 199 434 Z" fill="#c71926"/>
<path d="M 950 390 L 956 416 L 954 424 L 956 433 L 954 435 L 959 441 L 952 447 L 948 441 L 944 440 L 945 436 L 940 432 L 939 428 L 935 427 L 936 420 L 932 417 L 927 406 L 934 429 L 939 467 L 936 471 L 933 465 L 925 458 L 921 447 L 925 476 L 926 468 L 930 475 L 930 496 L 934 504 L 934 514 L 938 520 L 936 532 L 939 536 L 937 541 L 939 547 L 938 554 L 940 552 L 942 556 L 948 556 L 949 554 L 952 556 L 951 554 L 954 553 L 959 556 L 959 549 L 963 545 L 961 537 L 965 533 L 964 518 L 967 514 L 968 440 L 970 447 L 961 413 Z" fill="#c71926"/>
<path d="M 273 372 L 266 376 L 270 376 L 270 384 L 264 390 L 233 398 L 217 397 L 215 399 L 217 409 L 211 418 L 208 415 L 192 412 L 186 414 L 186 420 L 190 425 L 186 416 L 194 414 L 212 422 L 214 414 L 218 409 L 216 404 L 218 398 L 232 401 L 242 401 L 251 398 L 254 402 L 258 402 L 259 405 L 270 405 L 271 407 L 280 404 L 281 398 L 279 391 L 275 387 L 276 380 L 273 377 Z" fill="#c71926"/>
<path d="M 777 356 L 764 355 L 775 363 L 775 366 L 765 373 L 757 376 L 745 371 L 742 373 L 741 379 L 725 386 L 721 390 L 716 390 L 716 419 L 726 430 L 734 435 L 733 438 L 723 439 L 751 439 L 748 430 L 738 430 L 723 415 L 720 407 L 723 392 L 739 381 L 746 378 L 745 372 L 754 376 L 766 373 L 776 365 L 770 357 L 772 355 Z" fill="#c71926"/>
<path d="M 643 362 L 640 365 L 636 360 L 630 370 L 613 371 L 590 361 L 581 352 L 585 354 L 587 361 L 602 369 L 617 373 L 618 378 L 624 374 L 625 380 L 610 392 L 604 388 L 609 386 L 607 382 L 603 388 L 591 388 L 588 392 L 575 398 L 568 394 L 563 400 L 518 406 L 511 409 L 504 408 L 491 416 L 491 423 L 487 428 L 484 427 L 480 431 L 475 432 L 476 436 L 470 440 L 473 443 L 463 448 L 459 447 L 462 451 L 469 450 L 470 453 L 481 438 L 485 437 L 493 428 L 491 418 L 494 415 L 501 423 L 507 423 L 522 408 L 529 409 L 585 402 L 589 404 L 598 400 L 601 397 L 601 393 L 606 397 L 614 395 L 631 380 L 636 380 L 642 371 Z" fill="#c71926"/>
<path d="M 184 384 L 185 386 L 194 375 L 202 371 L 215 372 L 225 366 L 234 364 L 225 355 L 236 344 L 254 344 L 268 336 L 290 333 L 293 339 L 300 340 L 309 334 L 317 334 L 323 330 L 351 328 L 354 330 L 353 333 L 345 339 L 342 350 L 332 361 L 330 367 L 335 377 L 350 370 L 360 372 L 366 376 L 375 395 L 363 411 L 365 421 L 375 424 L 378 431 L 386 431 L 408 439 L 419 453 L 427 452 L 433 454 L 428 451 L 435 446 L 436 443 L 434 441 L 437 441 L 436 438 L 426 437 L 421 425 L 408 429 L 400 428 L 396 423 L 401 421 L 401 417 L 393 419 L 394 422 L 392 424 L 388 423 L 390 419 L 384 427 L 365 419 L 364 411 L 373 400 L 389 405 L 403 400 L 410 391 L 405 384 L 406 380 L 401 375 L 397 376 L 399 387 L 393 392 L 384 393 L 379 391 L 368 377 L 354 369 L 345 370 L 340 373 L 336 372 L 338 364 L 335 360 L 345 346 L 347 339 L 355 331 L 354 328 L 323 328 L 317 332 L 310 331 L 301 336 L 299 329 L 285 326 L 282 329 L 262 334 L 251 341 L 228 344 L 227 350 L 224 353 L 223 351 L 229 363 L 220 364 L 211 371 L 203 370 L 195 373 Z" fill="#c71926"/>
<path d="M 499 328 L 475 317 L 465 317 L 459 323 L 459 329 L 455 327 L 452 329 L 452 334 L 429 340 L 416 351 L 394 351 L 381 361 L 385 369 L 391 366 L 400 367 L 404 364 L 413 369 L 424 366 L 421 375 L 442 379 L 451 373 L 468 371 L 473 366 L 472 358 L 478 352 L 482 343 L 485 340 L 499 337 Z" fill="#c71926"/>
<path d="M 615 315 L 618 322 L 613 325 L 622 323 L 621 316 L 626 315 L 635 321 L 647 323 L 651 330 L 658 333 L 657 330 L 656 332 L 652 328 L 652 324 L 645 317 L 634 315 L 634 311 L 630 313 L 621 308 Z" fill="#c71926"/>
<path d="M 666 292 L 667 304 L 663 310 L 670 303 L 684 307 L 690 320 L 706 330 L 720 328 L 741 338 L 768 335 L 779 344 L 784 344 L 801 337 L 806 339 L 804 344 L 807 339 L 805 336 L 801 336 L 787 342 L 780 342 L 775 334 L 768 329 L 750 333 L 740 332 L 721 324 L 700 325 L 691 316 L 692 309 L 689 301 L 678 302 L 675 291 L 672 289 Z" fill="#c71926"/>
<path d="M 359 290 L 350 290 L 343 286 L 327 290 L 319 299 L 294 306 L 294 309 L 301 310 L 303 314 L 302 308 L 305 305 L 325 298 L 331 291 L 340 287 L 349 290 Z" fill="#c71926"/>
<path d="M 196 275 L 166 303 L 132 343 L 130 342 L 123 353 L 117 354 L 104 363 L 104 359 L 102 357 L 99 358 L 94 353 L 96 352 L 94 349 L 100 343 L 101 332 L 109 326 L 106 323 L 107 318 L 115 309 L 114 303 L 117 297 L 114 297 L 104 309 L 78 350 L 83 346 L 81 352 L 75 359 L 76 353 L 69 366 L 73 360 L 74 363 L 66 384 L 64 401 L 56 418 L 57 423 L 50 445 L 50 458 L 54 464 L 52 472 L 54 476 L 51 477 L 57 477 L 59 480 L 63 478 L 66 481 L 72 477 L 72 468 L 77 463 L 76 461 L 80 455 L 81 441 L 88 431 L 91 421 L 94 419 L 95 412 L 112 377 L 133 344 L 153 318 Z" fill="#c71926"/>
<path d="M 563 253 L 558 258 L 558 261 L 559 257 L 562 257 L 565 261 L 563 271 L 559 275 L 554 274 L 553 270 L 556 266 L 552 271 L 554 275 L 560 278 L 557 286 L 553 287 L 559 286 L 564 278 L 570 281 L 571 286 L 565 298 L 552 297 L 549 300 L 547 307 L 553 318 L 556 318 L 550 310 L 552 301 L 568 297 L 572 287 L 572 280 L 564 274 L 573 259 L 571 256 L 569 257 Z" fill="#c71926"/>
<path d="M 513 250 L 506 252 L 495 250 L 481 251 L 460 258 L 449 267 L 425 276 L 414 289 L 408 290 L 408 286 L 394 296 L 413 290 L 424 278 L 453 266 L 463 258 L 483 253 L 484 255 L 475 262 L 483 256 L 504 259 Z" fill="#c71926"/>
<path d="M 369 128 L 426 118 L 419 119 L 417 117 L 443 112 L 458 111 L 465 113 L 461 114 L 483 112 L 547 113 L 486 111 L 495 110 L 493 108 L 540 109 L 557 112 L 582 111 L 601 115 L 621 116 L 637 122 L 646 122 L 649 125 L 685 132 L 758 159 L 687 132 L 620 115 L 586 110 L 528 107 L 519 109 L 478 107 L 475 109 L 450 109 L 437 113 L 411 116 Z" fill="#c71926"/>
<path d="M 251 815 L 254 820 L 256 819 L 262 824 L 276 828 L 270 816 L 265 817 L 268 813 L 262 813 L 261 816 L 259 814 Z" fill="#551f4b"/>
<path d="M 103 684 L 103 689 L 108 696 L 111 696 L 115 700 L 114 702 L 119 706 L 119 703 L 123 709 L 126 708 L 132 712 L 129 714 L 137 714 L 137 716 L 145 714 L 146 716 L 145 713 L 142 713 L 146 709 L 145 711 L 142 707 L 142 702 L 138 699 L 130 684 L 114 688 L 112 687 L 114 685 L 105 687 Z" fill="#551f4b"/>
<path d="M 115 725 L 152 762 L 156 764 L 154 761 L 157 759 L 164 762 L 190 781 L 201 793 L 197 797 L 241 828 L 279 847 L 321 864 L 363 877 L 405 886 L 483 895 L 548 894 L 591 889 L 638 881 L 705 861 L 775 831 L 838 790 L 780 828 L 731 850 L 729 849 L 737 843 L 747 840 L 745 838 L 758 827 L 761 827 L 764 822 L 772 819 L 770 818 L 771 816 L 787 811 L 791 806 L 801 803 L 803 799 L 816 796 L 817 792 L 826 787 L 832 776 L 840 768 L 833 764 L 844 762 L 832 762 L 823 765 L 821 763 L 823 762 L 817 760 L 819 758 L 816 755 L 784 787 L 780 788 L 778 792 L 769 795 L 773 796 L 771 798 L 763 800 L 761 805 L 758 804 L 757 806 L 759 805 L 762 808 L 763 813 L 731 815 L 726 818 L 720 818 L 711 824 L 702 825 L 695 829 L 692 828 L 689 832 L 674 833 L 635 845 L 583 847 L 538 852 L 462 852 L 457 854 L 404 854 L 375 850 L 375 847 L 379 848 L 366 846 L 363 848 L 354 846 L 360 850 L 349 852 L 342 849 L 352 847 L 330 847 L 336 850 L 331 851 L 333 853 L 337 853 L 345 859 L 341 861 L 355 863 L 357 866 L 359 864 L 375 876 L 369 877 L 297 854 L 235 822 L 242 819 L 244 815 L 244 804 L 248 801 L 247 796 L 255 794 L 262 797 L 293 818 L 304 820 L 305 822 L 306 818 L 295 806 L 285 805 L 275 797 L 280 795 L 294 803 L 323 814 L 389 834 L 415 839 L 451 842 L 414 837 L 351 822 L 303 804 L 268 787 L 226 762 L 201 742 L 165 707 L 145 682 L 195 740 L 188 741 L 184 750 L 177 749 L 174 746 L 170 747 L 166 744 L 155 747 L 153 750 L 132 743 Z" fill="#551f4b"/>
<path d="M 29 613 L 33 623 L 34 620 L 39 630 L 38 635 L 34 628 L 59 685 L 71 704 L 64 694 L 64 690 L 67 691 L 85 720 L 83 721 L 75 711 L 97 741 L 150 787 L 219 832 L 278 863 L 354 891 L 466 913 L 470 917 L 469 920 L 475 922 L 538 922 L 554 919 L 596 918 L 624 914 L 673 902 L 685 897 L 705 879 L 795 840 L 847 808 L 852 801 L 851 799 L 854 796 L 858 796 L 856 794 L 868 785 L 904 747 L 935 707 L 966 649 L 981 603 L 962 655 L 944 690 L 924 721 L 880 770 L 853 795 L 827 815 L 797 834 L 750 858 L 711 874 L 668 888 L 632 897 L 595 903 L 523 909 L 455 907 L 400 899 L 364 891 L 321 878 L 279 862 L 220 832 L 164 792 L 106 738 L 68 685 L 52 655 L 30 601 L 33 619 Z" fill="#551f4b"/>
<path d="M 972 366 L 990 411 L 1002 470 L 1005 501 L 1005 540 L 1000 581 L 992 616 L 985 629 L 974 660 L 957 687 L 950 703 L 956 694 L 958 686 L 979 655 L 989 629 L 989 624 L 997 608 L 1007 559 L 1008 498 L 1006 507 L 1002 466 L 992 417 L 984 392 Z" fill="#551f4b"/>
<path d="M 120 764 L 152 793 L 183 815 L 185 814 L 189 820 L 207 827 L 263 858 L 221 836 L 198 821 L 192 820 L 175 806 L 172 806 L 150 791 Z" fill="#030615"/>
<path d="M 944 719 L 934 734 L 911 758 L 876 787 L 844 820 L 831 830 L 806 842 L 801 847 L 767 855 L 726 872 L 711 880 L 703 890 L 689 898 L 708 889 L 733 870 L 748 865 L 747 863 L 759 861 L 759 864 L 769 859 L 781 857 L 805 847 L 845 821 L 873 791 L 900 769 L 933 736 Z" fill="#030615"/>
<path d="M 777 859 L 769 860 L 759 865 L 759 862 L 747 864 L 749 865 L 733 871 L 712 887 L 733 875 L 740 874 L 748 867 L 765 864 Z" fill="#01020b"/>
</svg>