<svg xmlns="http://www.w3.org/2000/svg" viewBox="0 0 1024 1024">
<path d="M 884 811 L 730 813 L 724 811 L 702 811 L 698 813 L 608 812 L 545 817 L 323 811 L 90 811 L 315 812 L 338 814 L 342 819 L 444 825 L 469 824 L 495 827 L 476 829 L 391 829 L 536 831 L 617 829 L 558 829 L 551 827 L 605 822 L 630 822 L 633 820 L 672 819 L 664 816 L 692 812 Z" fill="#0319b1"/>
<path d="M 837 711 L 832 707 L 812 702 L 805 698 L 806 701 L 811 703 L 806 704 L 794 700 L 815 708 L 822 708 L 825 710 L 826 715 L 761 759 L 786 742 L 792 742 L 786 749 L 780 750 L 773 758 L 816 727 L 826 722 Z" fill="#0319b1"/>
<path d="M 913 679 L 911 678 L 896 686 L 892 691 L 903 690 L 913 682 Z" fill="#0319b1"/>
<path d="M 106 670 L 118 678 L 135 685 L 130 687 L 151 695 L 153 700 L 150 705 L 153 705 L 151 703 L 157 697 L 162 698 L 178 693 L 161 697 Z" fill="#0319b1"/>
<path d="M 967 794 L 771 794 L 768 791 L 773 784 L 784 777 L 781 775 L 783 772 L 788 774 L 786 776 L 798 768 L 792 772 L 789 771 L 797 763 L 801 765 L 800 767 L 859 727 L 826 749 L 821 749 L 823 745 L 832 741 L 849 728 L 816 750 L 819 752 L 809 759 L 808 755 L 756 791 L 749 794 L 733 794 L 729 791 L 730 785 L 771 759 L 759 767 L 753 768 L 746 775 L 725 788 L 723 786 L 725 783 L 759 760 L 727 782 L 719 780 L 710 751 L 702 737 L 684 687 L 680 682 L 680 674 L 688 669 L 701 668 L 707 672 L 730 677 L 792 699 L 783 694 L 790 693 L 801 697 L 700 662 L 688 662 L 680 667 L 675 667 L 670 671 L 670 674 L 673 676 L 683 699 L 683 704 L 709 767 L 710 775 L 718 788 L 715 794 L 683 794 L 676 789 L 675 778 L 671 772 L 671 766 L 667 759 L 657 721 L 653 715 L 645 683 L 641 681 L 638 684 L 629 685 L 580 706 L 573 707 L 549 719 L 540 720 L 538 723 L 541 726 L 553 727 L 577 739 L 598 745 L 649 766 L 662 768 L 669 782 L 669 789 L 667 791 L 661 791 L 647 783 L 569 755 L 554 747 L 528 738 L 523 734 L 512 733 L 426 769 L 383 783 L 368 791 L 358 794 L 308 795 L 305 791 L 312 785 L 321 784 L 349 772 L 397 757 L 403 753 L 457 734 L 471 726 L 478 726 L 483 722 L 441 706 L 438 703 L 430 702 L 401 689 L 383 684 L 358 672 L 350 671 L 344 667 L 273 689 L 267 689 L 254 695 L 254 710 L 250 720 L 249 737 L 245 746 L 241 787 L 233 794 L 209 794 L 206 791 L 216 739 L 225 710 L 224 705 L 163 723 L 211 708 L 217 710 L 197 717 L 208 713 L 215 713 L 217 715 L 214 729 L 210 733 L 192 728 L 189 722 L 195 718 L 191 718 L 188 721 L 189 726 L 187 727 L 208 736 L 210 739 L 209 753 L 201 788 L 196 793 L 133 794 L 118 792 L 112 794 L 42 794 L 34 790 L 41 794 L 113 794 L 118 792 L 132 794 L 194 794 L 202 788 L 211 743 L 208 735 L 213 731 L 219 719 L 216 744 L 212 750 L 210 774 L 205 786 L 208 794 L 234 794 L 238 792 L 242 786 L 242 774 L 245 775 L 247 791 L 254 795 L 273 795 L 280 791 L 291 790 L 299 794 L 302 789 L 305 794 L 304 796 L 287 797 L 307 798 L 679 797 L 643 796 L 657 792 L 671 792 L 670 777 L 674 780 L 674 791 L 682 795 L 716 795 L 720 786 L 731 795 L 751 795 L 764 787 L 767 788 L 766 792 L 771 795 Z" fill="#0319b1"/>
<path d="M 914 643 L 913 649 L 921 661 L 925 660 L 926 658 L 922 654 L 922 650 Z" fill="#0319b1"/>
<path d="M 258 671 L 262 667 L 268 671 L 259 673 L 265 673 L 300 663 L 304 660 L 310 660 L 300 660 L 298 655 L 302 653 L 307 653 L 314 657 L 272 640 L 264 639 Z" fill="#0319b1"/>
<path d="M 186 620 L 178 618 L 131 634 L 135 636 L 132 637 L 139 636 Z" fill="#0319b1"/>
<path d="M 243 627 L 235 626 L 211 614 L 198 612 L 208 613 L 217 618 L 219 622 L 215 623 L 212 620 L 203 618 L 190 619 L 208 619 L 224 627 L 231 628 L 237 633 L 237 639 L 232 656 L 231 671 L 224 680 L 180 692 L 189 690 L 188 695 L 233 681 L 238 655 L 241 650 Z" fill="#0319b1"/>
<path d="M 644 657 L 640 653 L 640 647 L 637 644 L 599 631 L 594 627 L 588 627 L 582 623 L 562 618 L 542 609 L 528 607 L 470 627 L 451 631 L 430 640 L 379 654 L 375 657 L 370 657 L 369 660 L 491 705 L 502 713 L 512 713 L 640 663 L 644 660 Z" fill="#0319b1"/>
<path d="M 865 598 L 860 596 L 797 622 L 766 632 L 763 635 L 731 645 L 718 651 L 717 654 L 844 695 L 828 690 L 821 685 L 829 684 L 835 688 L 840 688 L 821 682 L 813 676 L 804 678 L 766 666 L 750 658 L 742 658 L 737 654 L 737 650 L 741 646 L 751 645 L 756 641 L 762 641 L 771 636 L 780 636 L 786 645 L 805 664 L 786 639 L 786 633 L 791 628 L 831 614 L 836 610 L 863 601 Z" fill="#0319b1"/>
<path d="M 630 625 L 627 622 L 630 618 L 625 599 L 622 595 L 621 585 L 616 577 L 604 582 L 594 583 L 590 586 L 580 587 L 563 595 L 552 596 L 553 600 L 561 601 L 567 605 Z" fill="#0319b1"/>
<path d="M 502 597 L 393 555 L 379 554 L 273 586 L 268 595 L 267 622 L 274 623 L 290 632 L 299 630 L 293 627 L 289 630 L 284 627 L 289 626 L 276 621 L 269 615 L 271 595 L 281 587 L 287 587 L 299 582 L 303 582 L 308 586 L 313 601 L 330 631 L 335 636 L 335 641 L 333 643 L 324 640 L 326 641 L 324 643 L 317 640 L 322 639 L 302 631 L 314 637 L 309 638 L 296 633 L 329 646 L 342 648 L 416 627 L 420 624 L 485 605 L 492 601 L 499 601 Z" fill="#0319b1"/>
<path d="M 638 570 L 652 615 L 653 629 L 659 636 L 670 638 L 675 645 L 697 641 L 703 637 L 725 631 L 728 628 L 736 627 L 854 579 L 838 582 L 836 580 L 838 578 L 847 577 L 830 576 L 827 573 L 821 573 L 814 569 L 811 569 L 813 570 L 811 573 L 793 569 L 789 566 L 791 564 L 803 567 L 758 555 L 754 547 L 700 547 L 687 551 L 683 554 L 700 548 L 711 549 L 710 552 L 702 552 L 712 553 L 723 565 L 741 596 L 750 606 L 751 612 L 745 618 L 740 618 L 686 640 L 678 640 L 665 631 L 658 623 L 644 574 L 650 569 L 687 557 L 677 560 L 676 558 L 681 555 L 677 555 Z" fill="#0319b1"/>
<path d="M 634 555 L 638 556 L 668 545 L 632 544 Z" fill="#0319b1"/>
<path d="M 566 544 L 572 547 L 601 547 L 605 550 L 602 556 L 606 563 L 610 564 L 613 561 L 610 563 L 607 561 L 609 554 L 603 547 L 604 545 L 610 548 L 613 557 L 612 550 L 608 544 Z" fill="#0319b1"/>
<path d="M 528 545 L 565 557 L 557 554 L 553 545 Z" fill="#0319b1"/>
<path d="M 410 545 L 428 547 L 427 550 L 422 551 L 410 549 L 423 552 L 464 569 L 500 579 L 503 582 L 511 583 L 527 591 L 592 570 L 583 569 L 581 567 L 582 564 L 594 565 L 596 568 L 593 564 L 581 563 L 580 568 L 574 573 L 568 573 L 533 586 L 513 582 L 505 576 L 505 550 L 502 551 L 500 547 L 504 545 L 506 548 L 506 544 L 498 545 L 501 569 L 498 576 L 434 555 L 430 551 L 436 545 L 434 544 Z" fill="#0319b1"/>
<path d="M 275 571 L 290 569 L 356 549 L 352 548 L 346 551 L 340 549 L 345 546 L 360 545 L 360 548 L 362 546 L 334 545 L 335 551 L 331 554 L 281 567 L 278 564 L 278 559 L 276 560 L 276 549 L 280 544 L 283 546 L 279 550 L 279 556 L 281 548 L 285 545 L 321 544 L 279 543 L 276 549 Z" fill="#0319b1"/>
<path d="M 176 543 L 177 545 L 253 545 L 256 553 L 253 568 L 249 578 L 246 580 L 213 587 L 207 591 L 199 591 L 167 578 L 156 576 L 159 580 L 200 596 L 212 593 L 204 595 L 201 593 L 216 587 L 220 589 L 214 592 L 240 583 L 247 583 L 250 587 L 245 595 L 238 600 L 223 600 L 221 603 L 241 610 L 245 614 L 248 613 L 260 550 L 259 552 L 255 544 L 259 542 L 261 546 L 261 542 L 183 542 L 185 543 L 182 545 L 178 542 Z" fill="#0319b1"/>
<path d="M 718 534 L 758 535 L 781 534 L 771 534 L 771 532 L 787 532 L 752 533 L 746 529 L 747 527 L 743 527 L 746 523 Z" fill="#0319b1"/>
<path d="M 281 513 L 280 533 L 345 534 L 331 529 L 331 533 L 314 533 L 312 524 L 315 523 L 308 519 L 305 522 L 311 524 L 312 529 L 310 531 L 290 531 L 283 527 L 283 521 L 288 516 L 285 516 L 283 512 L 291 513 L 283 510 Z" fill="#0319b1"/>
<path d="M 270 506 L 267 510 L 262 503 L 264 505 L 263 524 L 255 531 L 184 531 L 210 533 L 193 534 L 268 534 L 266 524 Z" fill="#0319b1"/>
<path d="M 759 504 L 747 508 L 744 501 L 741 500 L 744 502 L 744 507 L 737 510 L 738 512 L 733 513 L 730 511 L 708 521 L 703 520 L 689 507 L 689 504 L 688 508 L 682 504 L 702 525 L 711 525 L 726 517 L 722 517 L 723 514 L 726 513 L 729 516 Z" fill="#0319b1"/>
<path d="M 614 501 L 619 506 L 625 534 L 689 534 L 675 533 L 688 528 L 694 531 L 693 534 L 695 533 L 693 529 L 686 528 L 662 515 L 649 511 L 647 514 L 642 513 L 675 525 L 678 530 L 675 532 L 660 532 L 635 529 L 626 520 L 623 512 L 626 508 L 631 507 L 627 503 L 628 500 L 628 506 L 621 511 L 619 505 Z" fill="#0319b1"/>
<path d="M 300 504 L 338 520 L 346 521 L 372 534 L 501 533 L 500 531 L 560 533 L 539 534 L 608 533 L 604 528 L 603 514 L 600 509 L 600 505 L 605 501 L 598 508 L 592 504 L 583 507 L 590 504 L 598 514 L 599 529 L 594 532 L 508 531 L 506 529 L 509 525 L 517 522 L 535 520 L 554 513 L 578 508 L 570 507 L 568 500 L 557 500 L 569 501 L 569 504 L 562 509 L 532 515 L 505 524 L 497 524 L 488 529 L 463 533 L 454 532 L 451 526 L 456 522 L 463 522 L 465 520 L 454 519 L 434 511 L 419 509 L 414 504 L 414 501 L 420 500 L 414 500 L 411 507 L 395 504 L 409 507 L 415 511 L 442 516 L 446 519 L 447 523 L 442 527 L 435 526 L 403 531 L 380 531 L 376 529 L 377 532 L 373 534 L 359 526 L 361 524 L 368 527 L 340 515 L 338 515 L 341 517 L 337 518 L 332 515 L 336 514 L 326 511 L 326 514 L 320 512 L 320 510 L 324 510 L 320 509 L 316 502 L 321 500 L 315 502 L 314 508 Z" fill="#0319b1"/>
<path d="M 463 415 L 470 413 L 472 420 L 484 420 L 487 416 L 560 416 L 492 415 L 484 412 L 479 407 L 479 398 L 479 411 L 471 414 L 471 408 L 468 404 L 468 391 L 469 410 Z" fill="#0319b1"/>
<path d="M 522 391 L 522 395 L 532 404 L 536 405 L 550 404 L 558 394 L 555 386 L 548 381 L 535 381 L 527 385 Z" fill="#0319b1"/>
<path d="M 602 339 L 620 373 L 629 406 L 628 423 L 625 437 L 622 441 L 616 439 L 614 419 L 616 440 L 622 441 L 627 433 L 629 416 L 632 417 L 633 422 L 636 421 L 636 395 L 632 394 L 630 406 L 621 372 Z" fill="#0319b1"/>
<path d="M 752 269 L 691 270 L 689 272 Z" fill="#0319b1"/>
<path d="M 853 231 L 850 231 L 855 234 L 847 283 L 842 297 L 833 304 L 838 303 L 844 297 L 846 291 L 850 295 L 839 308 L 835 308 L 830 312 L 841 307 L 850 298 L 851 292 L 855 287 L 856 252 L 859 243 L 858 245 L 855 244 L 856 234 Z" fill="#0319b1"/>
<path d="M 905 199 L 841 197 L 843 194 L 854 193 L 855 188 L 845 187 L 840 182 L 823 178 L 802 177 L 791 180 L 781 189 L 783 196 L 778 198 L 699 199 L 784 198 L 790 202 L 790 207 L 785 211 L 761 211 L 784 211 L 789 214 L 787 216 L 741 219 L 738 225 L 723 225 L 719 218 L 715 225 L 709 225 L 702 215 L 692 215 L 687 220 L 679 216 L 674 220 L 669 216 L 661 216 L 658 220 L 643 221 L 634 230 L 625 231 L 618 229 L 611 234 L 603 229 L 599 233 L 592 228 L 584 232 L 580 228 L 558 227 L 554 223 L 544 223 L 542 225 L 543 229 L 554 229 L 556 232 L 551 234 L 537 230 L 478 229 L 470 232 L 469 229 L 462 228 L 456 233 L 454 228 L 448 227 L 445 228 L 443 233 L 438 231 L 420 233 L 417 237 L 409 233 L 377 234 L 374 230 L 369 237 L 366 237 L 361 227 L 361 221 L 348 222 L 345 218 L 338 221 L 334 216 L 331 216 L 326 221 L 309 221 L 305 219 L 300 226 L 296 225 L 294 219 L 225 217 L 222 215 L 222 212 L 265 211 L 222 211 L 216 206 L 216 202 L 222 198 L 301 199 L 218 198 L 216 195 L 222 192 L 221 187 L 215 186 L 215 191 L 213 192 L 210 181 L 190 179 L 181 182 L 175 188 L 168 188 L 166 191 L 167 198 L 164 196 L 151 198 L 162 197 L 171 199 L 173 206 L 170 210 L 142 211 L 177 211 L 183 214 L 177 209 L 177 189 L 183 181 L 205 181 L 210 188 L 209 212 L 205 215 L 185 215 L 205 215 L 210 212 L 213 206 L 216 212 L 208 218 L 193 221 L 191 228 L 187 227 L 188 221 L 186 219 L 174 216 L 143 218 L 141 222 L 154 233 L 154 252 L 151 254 L 151 257 L 154 258 L 153 262 L 157 266 L 156 281 L 162 291 L 161 297 L 163 298 L 165 295 L 168 300 L 165 303 L 178 311 L 173 306 L 174 304 L 193 307 L 216 305 L 226 286 L 228 288 L 228 295 L 232 296 L 242 287 L 248 286 L 249 282 L 253 280 L 298 284 L 335 292 L 372 296 L 405 305 L 410 309 L 419 310 L 423 314 L 428 314 L 439 323 L 442 323 L 444 328 L 450 327 L 451 329 L 447 332 L 447 338 L 442 329 L 429 320 L 422 328 L 429 322 L 442 332 L 444 338 L 423 364 L 426 362 L 428 367 L 419 376 L 419 383 L 415 386 L 415 401 L 411 404 L 410 422 L 407 426 L 408 433 L 415 431 L 423 420 L 428 422 L 431 418 L 444 417 L 444 413 L 439 408 L 440 377 L 446 370 L 454 370 L 462 365 L 484 366 L 487 368 L 484 369 L 558 369 L 570 382 L 569 410 L 562 415 L 566 415 L 569 412 L 571 404 L 570 381 L 564 373 L 567 371 L 574 378 L 574 386 L 578 390 L 573 397 L 576 412 L 594 414 L 603 423 L 607 424 L 605 408 L 601 404 L 601 395 L 591 379 L 593 375 L 600 383 L 613 417 L 608 400 L 592 370 L 591 375 L 587 373 L 587 367 L 591 368 L 573 348 L 573 341 L 571 343 L 569 337 L 571 334 L 574 337 L 576 331 L 584 324 L 594 327 L 601 337 L 605 334 L 605 329 L 610 323 L 610 315 L 608 313 L 600 313 L 599 309 L 594 312 L 596 314 L 595 317 L 591 317 L 589 314 L 585 317 L 592 323 L 591 325 L 582 321 L 581 318 L 573 322 L 577 322 L 577 326 L 572 326 L 571 323 L 566 326 L 569 329 L 564 333 L 564 342 L 553 352 L 537 351 L 533 359 L 533 366 L 530 368 L 526 366 L 530 361 L 532 351 L 524 350 L 498 351 L 497 364 L 499 367 L 494 368 L 495 362 L 490 351 L 464 352 L 455 342 L 455 332 L 461 330 L 462 333 L 466 329 L 554 328 L 558 332 L 558 337 L 550 345 L 481 345 L 550 345 L 557 339 L 558 331 L 564 327 L 465 327 L 454 330 L 452 327 L 445 325 L 419 309 L 414 309 L 395 301 L 384 300 L 376 296 L 339 291 L 329 287 L 309 286 L 303 283 L 235 277 L 233 274 L 234 268 L 242 266 L 237 262 L 239 254 L 273 254 L 278 256 L 398 256 L 407 254 L 424 261 L 449 266 L 455 270 L 462 271 L 464 274 L 530 274 L 559 270 L 566 266 L 577 265 L 611 254 L 667 254 L 672 256 L 770 255 L 776 260 L 775 267 L 778 273 L 777 277 L 773 279 L 760 279 L 754 282 L 720 283 L 714 286 L 660 292 L 654 295 L 620 301 L 602 308 L 607 308 L 612 304 L 618 304 L 623 301 L 657 296 L 663 293 L 719 285 L 742 284 L 743 288 L 747 290 L 750 283 L 759 282 L 767 291 L 776 292 L 780 296 L 773 298 L 769 294 L 738 295 L 735 297 L 768 295 L 798 311 L 796 307 L 792 307 L 787 301 L 781 302 L 780 298 L 789 298 L 792 303 L 803 306 L 831 305 L 797 305 L 792 301 L 778 259 L 778 233 L 782 230 L 848 230 L 840 230 L 833 224 L 837 220 L 840 221 L 840 224 L 851 224 L 852 218 L 841 217 L 837 213 L 840 211 L 863 211 L 839 211 L 835 206 L 835 202 L 838 199 Z" fill="#0319b1"/>
<path d="M 393 789 L 394 791 L 634 790 L 632 787 L 574 765 L 610 781 L 626 785 L 631 789 L 627 791 L 401 791 L 398 789 L 473 760 L 417 782 Z" fill="#30b8fc"/>
<path d="M 565 749 L 617 770 L 649 780 L 663 788 L 665 787 L 662 775 L 658 770 L 647 769 L 597 748 L 577 742 L 644 769 L 657 771 L 661 775 L 663 782 L 661 785 L 657 782 L 656 777 L 652 780 L 647 780 Z" fill="#30b8fc"/>
<path d="M 665 736 L 678 777 L 679 787 L 684 791 L 713 790 L 694 739 L 706 772 L 706 780 L 698 770 L 686 740 L 680 744 L 676 738 L 676 748 L 679 750 L 679 761 L 683 768 L 684 782 L 690 786 L 686 790 L 681 788 Z" fill="#30b8fc"/>
<path d="M 705 732 L 723 779 L 784 740 L 733 771 L 733 767 L 744 761 L 761 745 L 730 741 L 721 742 L 719 744 L 719 753 L 724 767 L 721 768 Z" fill="#30b8fc"/>
<path d="M 477 729 L 398 760 L 314 788 L 311 791 L 359 790 L 473 745 L 432 762 L 369 784 L 367 783 L 368 781 L 401 765 L 382 769 L 363 778 L 356 778 L 357 775 L 377 769 Z" fill="#30b8fc"/>
<path d="M 251 788 L 254 791 L 282 788 L 427 736 L 318 775 L 297 780 L 296 778 L 300 775 L 328 765 L 332 761 L 340 760 L 342 756 L 351 754 L 339 752 L 338 750 L 341 749 L 334 750 L 329 748 L 328 745 L 320 745 L 318 742 L 303 742 L 298 737 L 290 739 L 287 735 L 275 734 L 270 729 L 269 735 L 264 742 L 263 754 L 258 765 L 258 776 L 256 779 L 255 765 L 262 714 Z" fill="#30b8fc"/>
<path d="M 251 702 L 237 771 L 235 774 L 234 756 L 237 726 L 234 719 L 233 728 L 229 732 L 222 760 L 219 763 L 218 753 L 222 731 L 214 775 L 209 788 L 211 791 L 234 790 L 237 787 L 239 762 Z" fill="#30b8fc"/>
<path d="M 732 788 L 736 791 L 752 789 L 860 717 L 867 716 L 949 744 L 957 750 L 958 755 L 956 757 L 949 757 L 880 732 L 862 729 L 774 787 L 773 791 L 977 789 L 984 792 L 982 784 L 963 752 L 965 762 L 961 760 L 958 751 L 951 744 L 945 742 L 949 738 L 943 729 L 946 724 L 948 726 L 942 716 L 943 722 L 937 718 L 944 724 L 942 730 L 935 730 L 867 707 L 881 711 L 886 715 L 894 717 L 896 720 L 906 721 L 908 724 L 900 726 L 892 722 L 862 715 L 808 749 L 807 747 L 813 742 L 806 743 L 805 741 L 842 715 L 842 710 L 836 705 L 819 700 L 835 705 L 841 710 L 841 714 L 778 759 Z" fill="#30b8fc"/>
<path d="M 15 805 L 39 808 L 89 807 L 94 809 L 157 809 L 163 807 L 245 807 L 268 809 L 276 807 L 290 809 L 417 808 L 520 811 L 578 811 L 597 808 L 798 809 L 821 807 L 826 809 L 866 809 L 871 807 L 889 807 L 895 809 L 993 806 L 987 796 L 984 801 L 731 801 L 966 801 L 984 803 L 979 806 L 451 809 L 330 807 L 93 808 L 29 806 L 28 803 L 44 801 L 292 801 L 26 801 L 26 794 L 36 784 L 47 767 L 51 769 L 51 772 L 42 787 L 44 790 L 195 790 L 198 787 L 197 783 L 205 754 L 206 738 L 204 738 L 206 743 L 199 765 L 198 750 L 201 744 L 195 740 L 186 738 L 183 735 L 172 735 L 166 738 L 155 737 L 178 728 L 202 737 L 182 728 L 168 730 L 49 766 L 47 762 L 50 755 L 59 749 L 163 720 L 222 701 L 227 703 L 228 711 L 223 729 L 228 711 L 228 703 L 224 700 L 155 721 L 147 721 L 149 718 L 169 713 L 174 708 L 183 707 L 173 707 L 169 710 L 155 712 L 157 708 L 169 706 L 201 694 L 147 711 L 69 731 L 67 729 L 68 724 L 77 716 L 91 690 L 78 714 L 63 732 L 62 727 L 65 723 L 44 758 L 51 748 L 54 751 L 40 771 L 39 768 L 43 760 L 35 776 Z" fill="#30b8fc"/>
<path d="M 935 717 L 931 713 L 898 704 L 885 698 L 886 695 L 902 695 L 905 698 L 909 698 L 911 702 L 929 709 L 930 705 L 925 697 L 918 690 L 914 689 L 919 678 L 921 680 L 917 673 L 916 675 L 910 674 L 888 687 L 884 696 L 871 695 L 861 691 L 871 695 L 880 695 L 888 701 Z" fill="#30b8fc"/>
<path d="M 92 688 L 99 685 L 103 689 L 122 695 L 135 703 L 145 703 L 149 700 L 147 697 L 149 700 L 146 702 L 135 702 L 114 690 L 106 689 L 106 686 L 116 685 L 119 688 L 145 696 L 104 679 L 100 672 L 98 681 Z" fill="#30b8fc"/>
<path d="M 118 643 L 116 651 L 104 668 L 109 666 L 113 671 L 161 693 L 171 691 L 162 693 L 116 672 L 112 665 L 116 661 L 119 647 L 123 645 Z" fill="#30b8fc"/>
<path d="M 519 389 L 519 398 L 534 408 L 552 407 L 561 396 L 557 383 L 550 378 L 530 379 Z" fill="#30b8fc"/>
<path d="M 455 379 L 458 377 L 474 378 L 481 392 L 481 402 L 480 386 L 477 380 L 469 377 L 468 374 L 494 374 L 494 376 L 484 379 L 487 385 L 489 401 L 492 404 L 511 405 L 518 403 L 514 391 L 526 377 L 525 374 L 537 372 L 553 373 L 561 376 L 566 384 L 567 398 L 562 410 L 557 409 L 551 412 L 489 410 L 482 404 L 482 406 L 490 411 L 530 411 L 537 413 L 563 412 L 566 408 L 567 383 L 556 372 L 471 372 Z" fill="#30b8fc"/>
<path d="M 500 355 L 500 361 L 504 363 L 523 362 L 527 359 L 525 354 Z" fill="#30b8fc"/>
<path d="M 585 329 L 579 333 L 576 339 L 576 346 L 594 367 L 611 398 L 618 421 L 618 434 L 621 438 L 626 415 L 622 388 L 613 365 L 599 339 L 593 331 Z" fill="#30b8fc"/>
<path d="M 430 326 L 424 330 L 423 334 L 415 342 L 397 377 L 413 349 L 415 352 L 406 371 L 406 376 L 422 353 L 434 343 L 408 380 L 407 387 L 403 390 L 397 405 L 398 424 L 395 433 L 393 432 L 390 420 L 390 403 L 389 419 L 394 436 L 397 435 L 399 411 L 408 384 L 417 367 L 440 339 L 440 334 Z" fill="#30b8fc"/>
<path d="M 267 277 L 303 280 L 382 294 L 420 306 L 456 326 L 480 323 L 563 324 L 597 306 L 639 293 L 720 280 L 759 277 L 675 285 L 632 294 L 630 293 L 632 290 L 661 284 L 671 279 L 748 273 L 567 284 L 565 300 L 556 307 L 555 315 L 549 314 L 542 318 L 538 316 L 535 318 L 516 317 L 511 319 L 484 319 L 480 315 L 469 314 L 469 310 L 471 309 L 472 312 L 470 303 L 461 290 L 452 283 L 280 273 L 313 274 L 334 278 L 358 279 L 359 281 L 354 283 L 383 291 L 377 293 L 343 285 Z" fill="#30b8fc"/>
<path d="M 195 239 L 193 240 L 193 290 L 195 293 L 197 247 Z" fill="#30b8fc"/>
<path d="M 842 239 L 813 239 L 814 297 L 829 295 L 834 288 L 843 248 Z" fill="#30b8fc"/>
<path d="M 28 804 L 35 806 L 581 808 L 608 806 L 979 805 L 983 803 L 529 801 L 575 801 L 582 803 L 576 806 L 495 808 L 416 807 L 387 803 L 395 801 L 432 801 L 44 802 Z" fill="#48defe"/>
<path d="M 399 789 L 627 790 L 630 788 L 514 744 L 504 750 L 495 751 L 477 760 Z" fill="#48defe"/>
<path d="M 841 746 L 863 734 L 881 737 L 889 741 L 897 741 L 884 735 L 862 730 Z" fill="#48defe"/>
<path d="M 156 737 L 183 734 L 186 737 L 195 739 L 202 744 L 199 750 L 200 763 L 205 739 L 198 738 L 181 729 Z" fill="#48defe"/>
<path d="M 946 725 L 944 730 L 950 738 L 946 742 L 951 743 L 959 751 L 962 760 L 965 761 L 956 740 Z" fill="#48defe"/>
<path d="M 532 720 L 533 728 L 566 738 L 577 745 L 573 748 L 566 748 L 563 745 L 545 740 L 647 779 L 652 779 L 656 776 L 658 782 L 662 783 L 660 775 L 655 771 L 644 770 L 555 733 L 538 729 L 533 724 L 533 720 L 537 718 Z" fill="#48defe"/>
<path d="M 656 759 L 646 724 L 649 736 L 647 740 L 633 714 L 629 717 L 616 715 L 606 719 L 596 718 L 593 723 L 588 724 L 593 725 L 593 730 L 601 730 L 603 734 L 600 736 L 590 731 L 576 728 Z" fill="#48defe"/>
<path d="M 528 711 L 509 718 L 502 718 L 498 714 L 497 718 L 486 719 L 487 724 L 484 728 L 356 777 L 366 776 L 382 768 L 398 764 L 402 765 L 396 770 L 380 776 L 369 783 L 432 761 L 511 729 L 519 729 L 533 735 L 520 728 L 521 726 L 529 726 L 527 719 L 522 721 L 514 719 L 517 715 Z" fill="#48defe"/>
<path d="M 669 704 L 665 713 L 668 726 L 667 731 L 660 719 L 683 789 L 686 789 L 689 786 L 683 782 L 682 768 L 678 761 L 678 750 L 675 748 L 676 737 L 680 743 L 687 740 L 699 770 L 705 779 L 706 777 L 685 717 L 685 723 L 682 724 L 674 708 Z" fill="#48defe"/>
<path d="M 692 699 L 721 767 L 723 767 L 722 760 L 718 753 L 718 744 L 721 741 L 743 741 L 762 745 L 744 762 L 733 768 L 733 770 L 815 719 L 802 727 L 800 724 L 808 717 L 807 715 L 771 704 L 758 703 L 755 705 L 750 704 L 748 706 L 728 707 L 726 709 L 718 708 L 707 711 L 707 729 L 700 719 Z" fill="#48defe"/>
<path d="M 89 713 L 117 706 L 95 698 L 94 703 L 99 705 L 92 707 Z" fill="#48defe"/>
<path d="M 256 778 L 263 742 L 270 728 L 273 732 L 278 732 L 281 735 L 287 734 L 290 738 L 298 736 L 303 741 L 318 741 L 320 744 L 328 744 L 329 747 L 334 749 L 341 748 L 339 751 L 352 754 L 297 779 L 318 774 L 435 732 L 420 735 L 419 733 L 426 728 L 418 720 L 409 717 L 398 717 L 392 710 L 383 710 L 382 712 L 374 709 L 365 710 L 363 707 L 357 708 L 353 703 L 344 706 L 340 701 L 333 702 L 327 697 L 321 698 L 316 695 L 306 695 L 303 699 L 291 699 L 285 703 L 274 704 L 266 713 L 265 702 L 271 698 L 274 698 L 268 699 L 264 704 Z" fill="#48defe"/>
<path d="M 106 687 L 114 689 L 135 701 L 143 702 L 148 700 L 146 697 L 119 689 L 116 686 Z" fill="#48defe"/>
<path d="M 799 685 L 836 699 L 837 701 L 833 702 L 799 692 L 836 704 L 843 710 L 842 716 L 800 746 L 812 740 L 814 742 L 808 748 L 812 747 L 862 714 L 892 721 L 900 725 L 907 724 L 906 722 L 896 721 L 894 718 L 886 716 L 881 712 Z" fill="#48defe"/>
<path d="M 886 696 L 889 700 L 931 712 L 943 721 L 919 679 L 915 689 L 918 689 L 926 697 L 931 705 L 929 710 L 911 703 L 909 699 L 905 699 L 902 696 Z" fill="#48defe"/>
<path d="M 268 676 L 258 679 L 255 676 L 255 669 L 254 680 L 247 679 L 245 683 L 233 688 L 232 686 L 235 684 L 169 707 L 159 708 L 154 712 L 141 714 L 151 714 L 157 710 L 165 710 L 173 706 L 184 707 L 182 709 L 174 709 L 169 714 L 163 714 L 158 718 L 149 719 L 148 721 L 222 699 L 227 700 L 229 711 L 220 745 L 219 762 L 227 741 L 228 732 L 231 730 L 233 719 L 235 718 L 238 726 L 235 773 L 251 699 L 246 703 L 247 691 L 255 679 L 263 679 Z" fill="#48defe"/>
<path d="M 117 643 L 112 651 L 110 648 L 107 652 L 110 652 L 110 656 L 107 658 L 106 655 L 102 661 L 105 659 L 106 664 L 101 669 L 99 668 L 101 663 L 93 679 L 67 719 L 63 731 L 77 714 L 85 697 L 96 683 L 100 670 L 107 664 L 115 651 Z" fill="#48defe"/>
<path d="M 790 639 L 806 656 L 818 675 L 830 681 L 851 686 L 871 694 L 884 695 L 885 689 L 910 673 L 916 674 L 909 660 L 914 671 L 912 673 L 908 671 L 908 665 L 887 639 L 883 647 L 878 646 L 871 649 L 853 650 L 849 653 L 839 652 L 830 654 L 827 657 L 820 657 L 815 664 Z" fill="#48defe"/>
<path d="M 113 665 L 116 671 L 162 692 L 206 681 L 225 674 L 215 678 L 208 678 L 207 675 L 209 673 L 218 672 L 219 670 L 217 657 L 209 662 L 202 658 L 196 658 L 191 656 L 187 650 L 181 649 L 177 642 L 169 639 L 150 641 L 134 646 L 131 645 L 138 640 L 132 641 L 120 647 L 117 661 Z" fill="#48defe"/>
<path d="M 566 398 L 565 384 L 561 377 L 553 374 L 537 373 L 525 375 L 527 377 L 516 389 L 515 395 L 519 401 L 517 405 L 492 405 L 487 399 L 486 385 L 483 379 L 494 375 L 469 374 L 469 376 L 475 377 L 481 386 L 482 403 L 489 409 L 551 411 L 557 408 L 562 409 Z" fill="#48defe"/>
<path d="M 501 356 L 503 361 L 523 361 L 526 358 L 524 355 Z" fill="#48defe"/>
<path d="M 600 347 L 612 383 L 598 371 L 615 405 L 619 421 L 619 432 L 621 434 L 624 420 L 621 391 L 612 366 Z" fill="#48defe"/>
<path d="M 433 343 L 418 359 L 406 377 L 405 371 L 414 352 L 413 350 L 397 378 L 401 380 L 401 390 L 394 411 L 391 408 L 391 402 L 391 420 L 394 432 L 397 424 L 396 405 L 402 390 L 406 387 L 407 380 Z" fill="#48defe"/>
<path d="M 772 272 L 671 280 L 661 285 L 650 286 L 645 289 L 632 291 L 631 293 L 675 284 L 771 275 Z" fill="#48defe"/>
<path d="M 239 270 L 242 274 L 343 284 L 377 292 L 382 291 L 354 284 L 358 280 Z" fill="#48defe"/>
<path d="M 808 234 L 811 237 L 811 299 L 807 302 L 812 300 L 832 300 L 837 295 L 844 274 L 850 236 L 848 234 Z" fill="#48defe"/>
<path d="M 161 234 L 161 259 L 171 294 L 175 299 L 181 301 L 206 302 L 199 300 L 200 237 L 202 234 Z" fill="#48defe"/>
<path d="M 840 203 L 842 207 L 949 204 L 926 202 Z" fill="#48defe"/>
<path d="M 673 204 L 731 207 L 783 207 L 785 205 L 784 202 L 785 204 L 782 207 L 730 206 L 719 203 L 727 202 L 685 202 Z" fill="#48defe"/>
<path d="M 221 203 L 224 207 L 339 204 L 318 202 L 254 202 L 272 203 L 270 205 L 223 206 Z" fill="#48defe"/>
<path d="M 61 204 L 114 207 L 166 207 L 168 205 L 166 207 L 138 207 L 109 204 L 113 202 Z" fill="#48defe"/>
<path d="M 1007 806 L 1004 794 L 1004 809 L 998 817 L 984 822 L 959 822 L 952 824 L 712 826 L 549 834 L 411 832 L 314 827 L 195 827 L 33 823 L 39 825 L 77 825 L 114 828 L 324 830 L 361 834 L 486 836 L 539 839 L 700 830 L 886 830 L 918 827 L 975 825 L 961 824 L 992 821 L 989 825 L 981 825 L 997 822 L 994 820 L 1005 809 L 1007 813 L 1001 821 L 999 821 L 1006 816 Z" fill="#3680de"/>
<path d="M 915 678 L 909 676 L 889 688 L 888 693 L 907 691 L 914 685 Z" fill="#3680de"/>
<path d="M 943 665 L 963 715 L 975 736 L 977 749 L 987 767 L 979 739 L 970 725 L 966 712 L 957 696 L 952 679 Z" fill="#3680de"/>
<path d="M 256 674 L 263 676 L 275 671 L 285 670 L 316 661 L 317 657 L 311 652 L 264 636 L 261 639 Z" fill="#3680de"/>
<path d="M 246 626 L 234 623 L 209 611 L 196 610 L 124 634 L 119 639 L 119 644 L 124 644 L 132 639 L 153 634 L 185 622 L 206 621 L 222 629 L 229 630 L 234 634 L 228 672 L 223 678 L 161 694 L 123 677 L 107 667 L 101 671 L 101 675 L 104 678 L 148 696 L 150 700 L 145 704 L 135 704 L 122 696 L 114 695 L 96 686 L 92 689 L 78 716 L 69 724 L 68 729 L 73 730 L 101 723 L 234 683 L 244 647 Z" fill="#3680de"/>
<path d="M 647 658 L 642 651 L 641 644 L 629 638 L 557 612 L 528 604 L 515 610 L 506 611 L 471 624 L 369 655 L 365 659 L 374 665 L 384 667 L 446 692 L 490 707 L 499 714 L 506 716 L 530 709 L 579 688 L 609 678 L 622 671 L 639 666 Z" fill="#3680de"/>
<path d="M 633 627 L 623 584 L 617 575 L 595 580 L 549 596 L 552 602 L 613 621 L 628 628 Z" fill="#3680de"/>
<path d="M 710 554 L 701 554 L 658 568 L 647 574 L 647 581 L 659 620 L 667 630 L 679 638 L 686 638 L 692 634 L 744 616 L 749 612 L 748 606 L 730 582 L 725 571 Z" fill="#3680de"/>
<path d="M 504 596 L 422 563 L 381 551 L 271 584 L 266 594 L 264 621 L 267 625 L 275 626 L 313 643 L 343 651 L 475 609 L 500 603 L 504 600 Z" fill="#3680de"/>
<path d="M 994 807 L 960 743 L 927 691 L 917 669 L 880 609 L 873 601 L 854 565 L 841 548 L 833 549 L 840 548 L 846 554 L 862 578 L 868 590 L 867 595 L 860 594 L 767 629 L 761 633 L 730 643 L 715 650 L 714 655 L 756 670 L 833 693 L 935 729 L 942 729 L 943 724 L 934 717 L 893 704 L 880 696 L 867 695 L 849 687 L 836 685 L 819 678 L 812 671 L 811 666 L 789 640 L 788 634 L 791 631 L 864 603 L 871 597 L 917 669 L 939 712 L 961 745 L 966 758 L 984 786 L 984 793 L 977 790 L 772 791 L 774 786 L 862 728 L 880 731 L 949 756 L 957 755 L 956 750 L 949 745 L 867 717 L 862 717 L 752 790 L 733 791 L 731 788 L 769 764 L 840 714 L 840 710 L 833 705 L 788 691 L 770 683 L 762 682 L 701 660 L 691 659 L 672 666 L 668 670 L 668 674 L 680 698 L 708 776 L 714 787 L 714 790 L 711 792 L 684 792 L 678 787 L 677 777 L 651 700 L 646 680 L 642 678 L 539 718 L 535 722 L 540 728 L 551 729 L 576 741 L 597 747 L 647 768 L 658 769 L 665 780 L 666 787 L 664 789 L 649 781 L 628 775 L 561 749 L 524 732 L 509 731 L 481 744 L 474 745 L 436 762 L 359 791 L 313 793 L 310 790 L 314 787 L 398 759 L 458 736 L 471 729 L 479 728 L 485 723 L 485 720 L 465 713 L 439 701 L 418 695 L 346 665 L 338 665 L 274 686 L 261 688 L 253 693 L 240 762 L 238 787 L 234 791 L 211 792 L 208 789 L 213 775 L 218 742 L 227 711 L 226 703 L 222 702 L 163 721 L 59 750 L 51 755 L 48 762 L 49 765 L 53 765 L 62 760 L 168 729 L 182 727 L 190 732 L 206 737 L 208 740 L 198 783 L 199 787 L 195 791 L 44 791 L 41 787 L 50 772 L 50 769 L 47 768 L 37 784 L 26 796 L 26 800 L 984 800 L 987 795 L 994 804 L 992 808 L 918 808 L 895 810 L 889 808 L 871 808 L 866 810 L 826 810 L 821 808 L 798 810 L 597 809 L 578 812 L 417 809 L 165 809 L 245 808 L 250 810 L 269 810 L 275 808 L 289 810 L 581 812 L 587 810 L 643 811 L 657 809 L 800 810 L 805 808 L 821 808 L 826 810 L 867 810 L 875 808 L 881 810 L 889 808 L 897 810 Z" fill="#3680de"/>
<path d="M 280 563 L 285 565 L 304 558 L 331 552 L 332 549 L 330 547 L 285 547 L 281 552 Z" fill="#3680de"/>
<path d="M 401 544 L 402 548 L 413 553 L 418 553 L 478 576 L 498 581 L 504 585 L 513 586 L 526 593 L 545 589 L 551 585 L 587 575 L 598 569 L 599 565 L 596 563 L 584 562 L 578 558 L 561 553 L 558 550 L 561 547 L 592 551 L 599 549 L 602 551 L 600 557 L 605 566 L 608 567 L 615 563 L 616 560 L 614 549 L 607 541 L 405 542 Z" fill="#3680de"/>
<path d="M 678 541 L 629 542 L 632 556 L 638 558 L 678 544 Z" fill="#3680de"/>
<path d="M 264 542 L 262 540 L 209 540 L 261 540 L 263 542 L 253 603 L 248 615 L 246 616 L 240 612 L 223 607 L 219 603 L 221 599 L 237 597 L 247 590 L 247 585 L 239 585 L 209 597 L 200 598 L 156 581 L 154 575 L 167 576 L 200 589 L 207 589 L 214 585 L 243 579 L 248 576 L 254 553 L 254 549 L 251 546 L 177 547 L 171 544 L 155 568 L 154 573 L 147 580 L 145 587 L 167 597 L 175 598 L 184 605 L 181 608 L 172 609 L 138 621 L 132 620 L 132 617 L 139 611 L 161 606 L 162 604 L 158 601 L 161 603 L 160 606 L 138 611 L 132 617 L 132 621 L 139 621 L 163 612 L 178 609 L 185 604 L 176 598 L 148 590 L 145 585 L 152 576 L 156 581 L 199 598 L 207 598 L 224 590 L 246 585 L 247 590 L 244 593 L 221 599 L 219 604 L 222 607 L 248 616 L 252 608 Z" fill="#3680de"/>
<path d="M 855 577 L 852 583 L 841 585 L 827 593 L 775 612 L 760 620 L 696 643 L 675 648 L 671 641 L 657 637 L 651 630 L 649 612 L 637 575 L 639 567 L 700 545 L 757 545 L 759 553 L 772 558 L 814 567 L 832 574 L 851 575 L 834 574 L 814 567 L 770 557 L 758 551 L 760 548 L 827 549 L 769 549 L 761 546 L 765 543 L 775 542 L 839 543 L 839 538 L 834 536 L 839 540 L 837 543 L 768 542 L 755 545 L 699 545 L 636 569 L 650 619 L 651 631 L 656 637 L 669 640 L 672 648 L 684 647 L 730 630 L 738 629 L 741 626 L 761 620 L 798 603 L 828 593 L 842 585 L 855 581 Z" fill="#3680de"/>
<path d="M 626 510 L 627 518 L 635 527 L 668 531 L 676 529 L 654 518 L 646 517 L 632 510 Z" fill="#3680de"/>
<path d="M 597 522 L 594 510 L 588 507 L 534 522 L 518 524 L 511 528 L 523 530 L 595 530 Z" fill="#3680de"/>
<path d="M 319 504 L 322 508 L 380 529 L 423 527 L 444 522 L 441 518 L 415 513 L 393 505 Z" fill="#3680de"/>
<path d="M 742 504 L 740 502 L 692 503 L 691 506 L 704 518 L 709 519 L 725 511 L 740 507 Z" fill="#3680de"/>
<path d="M 630 502 L 636 507 L 661 513 L 693 527 L 697 532 L 696 535 L 689 537 L 652 536 L 692 537 L 698 533 L 691 526 L 664 514 L 640 507 L 639 503 L 681 505 L 700 526 L 710 528 L 725 519 L 761 505 L 781 503 L 782 506 L 778 509 L 717 531 L 716 535 L 749 537 L 830 536 L 752 537 L 718 536 L 716 534 L 720 530 L 736 526 L 783 506 L 782 502 L 749 509 L 709 528 L 701 526 L 693 516 L 678 504 Z" fill="#3680de"/>
<path d="M 565 503 L 556 502 L 520 508 L 512 507 L 507 513 L 499 515 L 493 514 L 497 507 L 495 504 L 450 505 L 418 503 L 418 505 L 458 518 L 466 518 L 468 520 L 467 523 L 454 526 L 455 530 L 464 531 L 488 527 L 498 522 L 562 507 Z" fill="#3680de"/>
<path d="M 533 433 L 518 433 L 516 431 L 520 429 L 528 429 L 444 433 L 481 433 L 480 436 L 472 436 Z" fill="#3680de"/>
<path d="M 646 393 L 648 403 L 647 424 L 642 434 L 632 444 L 619 450 L 622 453 L 630 451 L 625 450 L 641 436 L 648 425 L 650 431 L 651 409 Z" fill="#3680de"/>
<path d="M 538 385 L 530 390 L 530 394 L 535 399 L 541 401 L 546 399 L 550 392 L 548 388 Z" fill="#3680de"/>
<path d="M 499 355 L 499 361 L 502 364 L 524 363 L 528 359 L 526 353 L 501 353 Z" fill="#3680de"/>
<path d="M 463 334 L 463 339 L 468 343 L 550 343 L 556 337 L 554 331 L 467 331 Z" fill="#3680de"/>
<path d="M 353 310 L 375 312 L 405 320 L 395 314 L 369 309 Z" fill="#3680de"/>
<path d="M 786 308 L 768 299 L 745 298 L 693 307 L 638 312 L 622 321 L 618 334 L 624 344 L 623 333 L 633 320 L 641 316 L 720 307 L 745 302 L 770 302 Z" fill="#3680de"/>
<path d="M 273 292 L 267 290 L 253 293 L 234 310 L 224 315 L 204 318 L 187 317 L 196 321 L 222 321 L 241 312 L 256 299 Z" fill="#3680de"/>
<path d="M 236 270 L 236 274 L 240 276 L 303 281 L 311 284 L 329 285 L 381 295 L 420 307 L 455 327 L 461 325 L 512 324 L 564 325 L 611 302 L 663 290 L 619 299 L 597 307 L 563 325 L 480 324 L 456 327 L 420 307 L 382 295 L 303 281 L 241 276 L 236 271 L 239 268 L 259 268 L 269 271 L 296 272 L 271 271 L 259 267 L 274 266 L 405 272 L 451 277 L 454 279 L 452 282 L 376 278 L 455 283 L 472 305 L 473 312 L 471 310 L 469 313 L 480 314 L 484 318 L 535 317 L 538 315 L 542 317 L 549 313 L 555 314 L 555 307 L 564 300 L 565 285 L 567 283 L 659 278 L 627 278 L 626 275 L 628 273 L 739 266 L 766 267 L 760 271 L 735 272 L 754 272 L 769 268 L 775 272 L 771 277 L 691 285 L 748 280 L 775 275 L 775 271 L 771 267 L 774 261 L 770 257 L 669 258 L 663 256 L 613 256 L 578 267 L 568 268 L 558 273 L 536 274 L 531 277 L 465 278 L 450 269 L 405 256 L 399 258 L 277 258 L 241 256 L 239 258 L 240 263 L 253 264 L 255 267 L 238 268 Z" fill="#3680de"/>
<path d="M 423 249 L 423 252 L 427 255 L 434 255 L 454 262 L 481 267 L 539 266 L 561 262 L 594 252 L 592 247 L 555 237 L 531 234 L 491 234 L 487 236 L 463 237 L 441 242 Z" fill="#3680de"/>
<path d="M 780 233 L 780 259 L 792 291 L 793 299 L 798 303 L 831 303 L 836 301 L 841 294 L 845 281 L 853 238 L 852 234 L 848 232 Z" fill="#3680de"/>
<path d="M 977 210 L 973 207 L 966 217 L 951 221 L 911 222 L 886 226 L 869 232 L 862 239 L 859 248 L 858 290 L 854 300 L 833 315 L 803 317 L 816 321 L 832 320 L 848 314 L 860 304 L 864 296 L 864 251 L 869 239 L 872 237 L 864 247 L 864 263 L 861 272 L 859 266 L 860 250 L 863 239 L 871 232 L 882 227 L 892 227 L 894 229 L 888 231 L 909 228 L 902 228 L 900 226 L 913 222 L 941 222 L 947 224 L 944 226 L 932 226 L 963 223 L 955 223 L 954 221 L 967 217 L 975 210 L 976 216 L 966 222 L 976 216 Z" fill="#3680de"/>
<path d="M 182 184 L 180 188 L 180 210 L 185 213 L 206 212 L 208 210 L 208 188 L 206 184 Z" fill="#3680de"/>
<path d="M 799 183 L 797 186 L 797 210 L 801 213 L 825 213 L 828 208 L 826 184 L 822 182 Z" fill="#3680de"/>
<path d="M 38 821 L 80 824 L 314 826 L 378 830 L 516 833 L 583 832 L 712 825 L 888 825 L 984 821 L 920 822 L 887 825 L 699 825 L 547 832 L 381 830 L 376 828 L 305 825 L 211 826 L 205 824 L 197 826 L 193 824 L 170 823 L 127 824 Z" fill="#1842bc"/>
<path d="M 389 788 L 389 791 L 394 794 L 635 793 L 641 790 L 639 786 L 630 785 L 580 764 L 558 758 L 553 754 L 524 745 L 517 740 L 488 750 L 473 758 L 444 767 L 416 780 Z" fill="#1842bc"/>
<path d="M 216 715 L 208 714 L 204 717 L 193 719 L 190 722 L 191 726 L 210 732 L 213 729 Z" fill="#1842bc"/>
<path d="M 914 678 L 910 677 L 891 688 L 890 692 L 904 691 L 914 683 Z" fill="#1842bc"/>
<path d="M 467 722 L 459 718 L 465 722 L 458 728 L 299 785 L 272 793 L 254 793 L 249 789 L 254 743 L 261 703 L 268 696 L 342 674 L 425 705 L 441 713 L 457 717 L 441 713 L 426 705 L 408 700 L 355 678 L 347 677 L 344 674 L 337 674 L 317 682 L 294 687 L 267 696 L 261 702 L 256 739 L 253 744 L 252 769 L 249 774 L 248 789 L 253 793 L 273 793 L 286 790 L 458 728 Z" fill="#1842bc"/>
<path d="M 983 795 L 978 792 L 772 793 L 770 791 L 776 783 L 861 727 L 879 729 L 949 755 L 956 753 L 950 747 L 926 737 L 865 718 L 838 733 L 753 791 L 733 793 L 730 790 L 732 785 L 770 762 L 839 712 L 832 706 L 729 671 L 775 688 L 795 693 L 812 701 L 832 706 L 838 711 L 826 723 L 816 728 L 768 763 L 765 763 L 730 786 L 731 792 L 749 793 L 756 790 L 861 719 L 871 719 L 875 722 L 948 746 L 955 753 L 953 755 L 947 754 L 880 729 L 860 727 L 773 785 L 769 791 L 771 793 L 978 792 L 983 795 L 983 798 L 30 799 L 28 797 L 29 793 L 34 789 L 42 793 L 112 793 L 118 791 L 133 793 L 196 792 L 200 788 L 209 739 L 181 725 L 103 746 L 82 754 L 60 759 L 55 763 L 52 763 L 50 759 L 54 754 L 139 728 L 152 726 L 221 704 L 225 705 L 226 710 L 217 739 L 207 791 L 209 793 L 233 793 L 240 787 L 240 773 L 243 767 L 244 746 L 248 737 L 249 720 L 253 710 L 253 697 L 253 707 L 239 777 L 239 788 L 233 793 L 210 793 L 207 790 L 212 774 L 218 736 L 226 706 L 220 704 L 151 726 L 138 728 L 103 740 L 94 741 L 90 744 L 68 749 L 54 754 L 50 759 L 50 763 L 55 763 L 61 759 L 180 725 L 209 739 L 200 787 L 195 792 L 143 793 L 138 791 L 134 793 L 130 791 L 116 791 L 108 793 L 102 791 L 98 793 L 43 793 L 36 788 L 29 793 L 28 799 L 982 799 Z" fill="#1842bc"/>
<path d="M 680 676 L 690 705 L 702 730 L 703 737 L 711 751 L 712 759 L 721 781 L 727 781 L 736 773 L 742 771 L 825 715 L 822 709 L 799 704 L 796 701 L 763 691 L 757 687 L 713 673 L 707 673 L 701 669 L 688 670 Z" fill="#1842bc"/>
<path d="M 254 693 L 344 666 L 383 683 L 401 688 L 419 697 L 438 702 L 441 705 L 484 721 L 478 727 L 471 727 L 457 735 L 403 754 L 397 758 L 349 773 L 321 785 L 312 786 L 307 789 L 306 792 L 308 794 L 358 793 L 368 790 L 383 782 L 426 768 L 512 732 L 523 733 L 528 737 L 554 746 L 569 754 L 657 786 L 661 790 L 668 789 L 667 779 L 660 768 L 649 767 L 598 746 L 577 740 L 553 728 L 542 727 L 552 728 L 577 740 L 597 746 L 648 767 L 659 768 L 664 774 L 668 787 L 662 790 L 648 782 L 590 762 L 523 733 L 511 732 L 427 767 L 357 793 L 310 794 L 307 791 L 313 786 L 324 784 L 350 773 L 455 736 L 472 727 L 478 727 L 484 721 L 404 689 L 381 682 L 345 666 Z" fill="#1842bc"/>
<path d="M 236 633 L 231 629 L 224 628 L 208 620 L 194 619 L 207 620 L 223 628 L 230 629 L 236 634 L 228 675 L 223 679 L 162 696 L 113 673 L 109 669 L 103 670 L 102 674 L 105 677 L 152 698 L 151 701 L 146 705 L 135 705 L 122 697 L 114 696 L 96 687 L 93 690 L 94 688 L 99 688 L 111 695 L 121 697 L 134 705 L 146 705 L 147 707 L 143 710 L 132 711 L 96 723 L 71 728 L 70 725 L 80 716 L 90 718 L 122 708 L 118 702 L 94 695 L 92 692 L 93 695 L 102 696 L 119 703 L 122 708 L 85 718 L 81 714 L 70 724 L 70 728 L 143 710 L 163 702 L 176 700 L 233 682 L 238 668 L 242 645 L 238 668 L 233 682 L 153 706 L 149 705 L 152 700 L 151 696 L 105 677 L 102 671 L 108 669 L 112 673 L 161 696 L 224 679 L 228 675 Z" fill="#1842bc"/>
<path d="M 942 726 L 933 718 L 890 704 L 879 697 L 870 697 L 848 688 L 835 686 L 818 679 L 811 673 L 804 677 L 778 669 L 750 657 L 742 657 L 738 653 L 742 647 L 750 646 L 741 647 L 738 650 L 738 654 L 742 657 L 750 657 L 766 665 L 804 677 L 813 675 L 826 683 L 841 688 L 848 688 L 869 697 L 879 697 L 892 705 L 935 719 L 941 726 L 939 728 L 933 727 L 927 723 L 921 723 L 914 719 L 879 709 L 873 705 L 852 700 L 820 687 L 814 687 L 763 669 L 754 668 L 751 665 L 729 660 L 716 654 L 718 650 L 731 644 L 763 634 L 766 631 L 863 595 L 866 598 L 863 602 L 836 611 L 831 615 L 809 623 L 866 600 L 866 597 L 860 595 L 762 634 L 731 644 L 715 652 L 715 654 L 729 660 L 807 683 L 811 686 L 819 687 L 935 728 L 941 728 Z" fill="#1842bc"/>
<path d="M 996 805 L 990 798 L 979 774 L 967 757 L 962 744 L 940 712 L 935 699 L 927 689 L 913 660 L 874 601 L 857 570 L 874 601 L 881 609 L 918 669 L 940 712 L 961 743 L 968 759 L 984 784 L 990 799 L 995 804 L 993 809 L 919 809 L 897 811 L 889 809 L 881 811 L 875 809 L 867 811 L 826 811 L 821 809 L 805 809 L 800 811 L 657 810 L 643 812 L 481 813 L 351 810 L 289 811 L 275 809 L 269 811 L 250 811 L 245 809 L 94 811 L 89 809 L 39 810 L 17 808 L 12 810 L 12 814 L 23 821 L 33 824 L 36 821 L 20 817 L 16 810 L 19 808 L 41 811 L 54 811 L 58 809 L 93 811 L 323 810 L 545 816 L 608 811 L 698 812 L 702 810 L 724 810 L 730 812 L 802 810 L 868 811 L 873 809 L 878 811 L 886 809 L 892 811 L 915 811 L 920 809 L 943 809 L 946 811 L 956 809 L 964 811 L 968 809 L 994 809 Z" fill="#1842bc"/>
<path d="M 409 544 L 434 543 L 437 545 L 431 551 L 436 554 L 432 550 L 437 546 L 494 545 L 499 551 L 497 545 L 499 543 L 506 543 L 508 545 L 506 549 L 506 576 L 513 581 L 517 581 L 511 580 L 506 575 L 506 549 L 510 545 L 538 548 L 553 553 L 558 557 L 577 562 L 579 568 L 569 572 L 576 571 L 581 562 L 587 563 L 580 562 L 577 559 L 577 562 L 570 561 L 570 558 L 574 558 L 565 555 L 565 558 L 558 557 L 557 553 L 562 554 L 556 550 L 558 545 L 572 548 L 601 548 L 604 551 L 601 556 L 605 563 L 610 565 L 614 561 L 614 557 L 614 561 L 607 565 L 601 556 L 604 553 L 604 550 L 601 548 L 572 548 L 565 544 L 608 543 L 612 549 L 608 543 Z" fill="#1842bc"/>
<path d="M 818 492 L 833 506 L 844 525 L 860 542 L 877 571 L 891 586 L 908 616 L 922 630 L 923 635 L 941 664 L 949 688 L 975 742 L 974 736 L 949 686 L 947 676 L 943 671 L 943 664 L 948 669 L 939 651 L 837 504 L 829 496 Z" fill="#1842bc"/>
<path d="M 609 446 L 593 429 L 579 425 L 565 428 L 488 429 L 469 432 L 578 426 L 590 429 L 591 432 L 586 432 L 594 434 Z" fill="#1842bc"/>
<path d="M 521 391 L 521 395 L 532 405 L 536 406 L 550 405 L 559 395 L 556 386 L 548 380 L 535 380 L 527 384 Z" fill="#1842bc"/>
<path d="M 498 363 L 501 365 L 522 365 L 529 360 L 530 355 L 528 352 L 499 352 Z" fill="#1842bc"/>
<path d="M 536 358 L 536 363 L 557 363 L 568 368 L 576 376 L 577 385 L 581 389 L 581 393 L 578 396 L 581 403 L 591 406 L 591 412 L 597 412 L 602 418 L 603 409 L 598 404 L 599 397 L 585 374 L 585 370 L 568 351 L 566 345 L 562 346 L 554 354 L 541 353 Z" fill="#1842bc"/>
<path d="M 490 356 L 487 353 L 463 354 L 452 342 L 453 334 L 450 333 L 451 337 L 447 342 L 447 348 L 434 360 L 434 363 L 430 365 L 429 370 L 425 373 L 425 378 L 421 380 L 422 387 L 420 392 L 430 395 L 432 389 L 436 401 L 438 376 L 445 368 L 456 367 L 458 364 L 463 363 L 491 364 Z" fill="#1842bc"/>
<path d="M 462 334 L 463 341 L 468 344 L 550 344 L 557 337 L 557 332 L 554 329 L 466 330 Z" fill="#1842bc"/>
<path d="M 165 304 L 179 316 L 191 320 L 186 316 L 204 317 L 224 314 L 234 309 L 253 292 L 269 289 L 274 292 L 264 296 L 269 294 L 290 295 L 326 307 L 362 312 L 352 310 L 356 308 L 383 310 L 395 313 L 406 320 L 388 317 L 396 318 L 406 322 L 411 327 L 413 326 L 406 317 L 395 312 L 388 312 L 378 308 L 353 308 L 340 304 L 327 304 L 321 300 L 313 300 L 294 291 L 273 290 L 269 288 L 252 291 L 233 308 L 223 313 L 208 316 L 195 316 L 178 312 Z" fill="#1842bc"/>
<path d="M 765 267 L 711 268 L 750 267 L 753 269 L 733 272 L 689 273 L 691 269 L 709 269 L 628 274 L 627 277 L 660 277 L 710 272 L 760 270 Z" fill="#1842bc"/>
<path d="M 260 267 L 280 271 L 321 272 L 352 276 L 453 280 L 451 278 L 405 273 Z" fill="#1842bc"/>
<path d="M 234 270 L 235 276 L 303 282 L 309 285 L 329 286 L 339 290 L 357 291 L 362 294 L 376 295 L 384 299 L 395 300 L 399 303 L 419 308 L 445 324 L 452 326 L 454 329 L 465 326 L 561 327 L 599 308 L 640 295 L 693 286 L 714 285 L 720 282 L 754 281 L 760 278 L 773 278 L 777 275 L 774 267 L 775 260 L 770 256 L 672 257 L 667 255 L 611 255 L 574 266 L 613 255 L 663 255 L 669 257 L 770 256 L 775 261 L 772 267 L 775 269 L 776 275 L 771 278 L 720 282 L 639 295 L 598 308 L 564 326 L 512 325 L 461 326 L 455 328 L 420 308 L 377 295 L 342 290 L 329 286 L 311 285 L 303 282 L 240 277 L 235 274 L 235 270 L 238 267 L 254 266 L 240 264 L 238 258 L 241 255 L 277 257 L 399 257 L 405 255 L 450 268 L 465 277 L 531 276 L 536 273 L 558 272 L 572 267 L 530 275 L 464 275 L 462 272 L 455 271 L 449 267 L 424 262 L 407 255 L 398 257 L 278 257 L 273 255 L 239 255 L 238 262 L 243 266 L 237 267 Z" fill="#1842bc"/>
<path d="M 630 243 L 662 243 L 667 248 L 670 244 L 685 244 L 689 242 L 687 240 L 662 242 L 659 240 L 646 241 L 638 239 Z" fill="#1842bc"/>
<path d="M 364 242 L 359 239 L 349 241 L 317 241 L 316 243 L 352 243 L 356 248 L 359 248 Z" fill="#1842bc"/>
<path d="M 593 236 L 603 250 L 607 245 L 613 248 L 621 242 L 619 240 L 612 242 L 600 239 L 598 236 Z" fill="#1842bc"/>
<path d="M 439 233 L 421 234 L 418 239 L 374 241 L 373 243 L 419 245 L 424 239 L 430 236 L 437 236 Z" fill="#1842bc"/>
<path d="M 885 226 L 871 230 L 861 238 L 857 252 L 856 287 L 852 292 L 851 298 L 841 308 L 831 313 L 800 313 L 768 296 L 745 296 L 674 308 L 646 309 L 630 313 L 622 318 L 616 328 L 616 335 L 645 397 L 646 422 L 639 436 L 623 448 L 611 447 L 611 449 L 621 453 L 618 451 L 619 449 L 632 443 L 641 434 L 647 421 L 646 392 L 652 409 L 652 424 L 650 399 L 624 339 L 626 330 L 624 333 L 624 345 L 617 334 L 617 329 L 623 319 L 638 311 L 693 306 L 745 297 L 759 297 L 776 301 L 787 309 L 785 310 L 770 303 L 745 303 L 726 306 L 745 303 L 770 304 L 807 321 L 828 322 L 848 315 L 855 309 L 844 317 L 827 322 L 811 321 L 802 316 L 833 314 L 853 300 L 857 290 L 857 254 L 861 239 L 869 231 Z" fill="#1842bc"/>
<path d="M 144 220 L 151 228 L 154 225 L 184 225 L 186 223 L 183 219 Z" fill="#1842bc"/>
<path d="M 789 221 L 787 218 L 780 218 L 770 221 L 745 222 L 747 225 L 747 237 L 743 242 L 750 249 L 754 245 L 761 249 L 769 239 L 770 228 L 776 223 L 788 223 Z" fill="#1842bc"/>
<path d="M 203 221 L 204 224 L 210 224 L 217 218 L 223 223 L 233 223 L 244 233 L 244 245 L 246 246 L 259 245 L 265 242 L 259 236 L 258 226 L 263 221 L 223 218 L 219 215 Z" fill="#1842bc"/>
<path d="M 49 216 L 55 222 L 53 219 L 58 218 L 64 221 L 59 223 L 67 225 L 65 221 L 98 221 L 109 224 L 111 226 L 107 228 L 115 230 L 116 226 L 125 227 L 130 231 L 124 232 L 128 232 L 145 241 L 138 232 L 134 232 L 126 227 L 98 221 L 66 220 L 52 215 Z" fill="#1842bc"/>
<path d="M 977 209 L 969 201 L 963 199 L 948 201 L 963 201 L 967 203 L 955 209 L 841 210 L 836 205 L 839 200 L 946 200 L 838 200 L 836 202 L 837 209 L 839 210 L 957 209 L 967 205 L 971 207 L 971 210 L 965 216 L 955 219 L 907 222 L 951 220 L 966 216 L 973 206 Z" fill="#1842bc"/>
<path d="M 183 182 L 178 189 L 178 209 L 184 214 L 207 213 L 209 210 L 208 185 L 205 182 Z" fill="#1842bc"/>
<path d="M 798 182 L 796 185 L 797 212 L 801 214 L 826 214 L 829 210 L 829 189 L 827 183 L 816 180 Z" fill="#1842bc"/>
<path d="M 19 814 L 22 817 L 31 817 L 37 821 L 194 820 L 197 825 L 201 825 L 204 820 L 208 820 L 211 825 L 328 823 L 310 820 L 305 815 L 295 817 L 248 814 L 97 814 L 70 812 L 38 813 L 21 811 Z" fill="#060f4a"/>
<path d="M 980 797 L 978 795 L 907 797 Z" fill="#060f4a"/>
<path d="M 31 794 L 31 798 L 108 798 L 130 796 L 41 796 L 37 792 Z" fill="#060f4a"/>
<path d="M 1002 795 L 993 783 L 993 778 L 980 766 L 980 758 L 975 753 L 975 743 L 966 730 L 966 725 L 961 721 L 962 717 L 957 713 L 957 708 L 952 703 L 953 696 L 948 691 L 948 684 L 939 672 L 940 664 L 934 659 L 935 654 L 926 646 L 926 640 L 921 637 L 921 630 L 903 615 L 903 610 L 898 605 L 899 601 L 889 592 L 889 587 L 872 572 L 876 581 L 880 584 L 880 588 L 893 602 L 893 607 L 912 640 L 917 641 L 924 649 L 928 661 L 919 663 L 910 649 L 910 642 L 905 640 L 905 636 L 898 629 L 898 632 L 902 635 L 902 640 L 920 665 L 929 688 L 937 697 L 937 702 L 941 705 L 942 711 L 950 719 L 950 724 L 959 733 L 959 738 L 963 742 L 964 748 L 968 751 L 968 756 L 981 773 L 982 779 L 990 791 L 990 796 L 998 804 L 998 808 L 991 812 L 966 813 L 953 811 L 950 813 L 920 812 L 914 814 L 706 816 L 704 817 L 710 819 L 707 821 L 691 822 L 799 824 L 802 820 L 832 820 L 835 824 L 885 824 L 888 820 L 985 820 L 1001 812 Z" fill="#060f4a"/>
<path d="M 12 799 L 12 801 L 24 787 L 37 766 L 38 761 L 55 733 L 55 728 L 59 725 L 59 719 L 68 710 L 68 706 L 73 702 L 77 692 L 81 689 L 81 683 L 89 674 L 94 661 L 99 658 L 108 644 L 108 640 L 112 635 L 112 629 L 117 627 L 121 620 L 121 615 L 125 613 L 125 608 L 123 607 L 122 614 L 118 616 L 118 621 L 116 623 L 113 622 L 113 627 L 108 629 L 111 618 L 123 601 L 127 605 L 131 603 L 135 594 L 144 583 L 143 576 L 154 567 L 162 554 L 162 549 L 167 545 L 167 542 L 174 533 L 175 527 L 181 522 L 188 511 L 189 505 L 201 498 L 206 500 L 261 499 L 268 503 L 282 498 L 287 502 L 296 501 L 312 504 L 316 498 L 332 498 L 336 501 L 388 502 L 410 501 L 414 498 L 434 498 L 438 501 L 464 502 L 492 500 L 534 502 L 565 498 L 572 501 L 599 502 L 605 498 L 613 498 L 618 501 L 627 498 L 653 498 L 685 503 L 691 498 L 697 500 L 743 498 L 748 501 L 753 500 L 757 502 L 768 501 L 774 498 L 792 499 L 797 502 L 812 499 L 821 502 L 823 507 L 826 502 L 822 501 L 822 495 L 827 494 L 838 504 L 852 526 L 873 552 L 893 584 L 900 591 L 910 610 L 940 651 L 972 725 L 980 738 L 989 765 L 1007 795 L 1008 815 L 1003 821 L 991 826 L 894 831 L 720 831 L 523 841 L 483 838 L 345 835 L 320 832 L 85 829 L 36 826 L 23 822 L 14 815 L 12 817 L 32 826 L 80 830 L 237 831 L 394 837 L 417 840 L 490 840 L 532 843 L 717 832 L 953 830 L 994 826 L 1003 822 L 1008 817 L 1010 811 L 1008 795 L 990 765 L 981 738 L 940 649 L 914 614 L 904 595 L 873 550 L 852 524 L 842 507 L 831 495 L 824 491 L 815 490 L 792 493 L 789 491 L 740 491 L 732 488 L 718 488 L 707 492 L 580 491 L 565 493 L 569 496 L 566 498 L 493 497 L 481 499 L 464 497 L 453 491 L 412 492 L 403 486 L 396 489 L 328 488 L 325 484 L 317 482 L 284 483 L 280 485 L 274 482 L 260 484 L 257 489 L 245 488 L 239 490 L 234 487 L 226 487 L 189 504 L 186 511 L 182 509 L 151 542 L 151 546 L 145 551 L 142 561 L 137 565 L 128 583 L 116 596 L 115 600 L 110 603 L 105 616 L 96 628 L 96 634 L 89 648 L 83 653 L 83 658 L 69 682 L 69 687 L 61 702 L 61 708 L 56 714 L 56 719 L 59 723 L 55 727 L 54 733 L 28 780 Z" fill="#060f4a"/>
<path d="M 465 368 L 455 372 L 447 372 L 442 378 L 443 409 L 446 408 L 445 390 L 447 381 L 454 374 L 459 374 Z" fill="#060f4a"/>
<path d="M 326 300 L 327 303 L 331 301 L 351 301 L 354 307 L 386 305 L 364 300 L 357 302 L 349 299 L 328 298 Z" fill="#060f4a"/>
<path d="M 757 291 L 751 289 L 749 292 L 744 292 L 738 288 L 720 294 L 689 297 L 662 303 L 634 304 L 627 307 L 613 306 L 612 309 L 615 311 L 612 314 L 612 325 L 608 328 L 608 332 L 611 338 L 612 327 L 617 323 L 617 317 L 619 315 L 625 316 L 629 311 L 635 311 L 636 307 L 640 305 L 674 307 L 677 302 L 710 302 L 714 297 L 732 298 L 737 292 Z" fill="#060f4a"/>
<path d="M 969 208 L 957 211 L 878 213 L 875 218 L 863 226 L 859 231 L 859 236 L 870 226 L 878 227 L 884 222 L 906 222 L 912 217 L 955 218 L 961 214 L 965 215 Z" fill="#060f4a"/>
<path d="M 980 214 L 980 210 L 971 200 L 962 196 L 954 199 L 953 197 L 956 194 L 954 192 L 946 193 L 941 188 L 934 187 L 929 192 L 925 192 L 923 190 L 897 188 L 884 183 L 874 185 L 864 178 L 856 179 L 852 174 L 843 175 L 840 170 L 835 170 L 834 177 L 842 180 L 845 184 L 856 186 L 859 191 L 863 189 L 866 192 L 881 195 L 955 200 L 962 197 L 975 205 L 979 213 L 975 219 L 964 224 L 939 228 L 905 229 L 883 233 L 872 238 L 868 243 L 865 257 L 865 299 L 851 314 L 828 323 L 807 322 L 776 307 L 756 304 L 639 318 L 634 321 L 627 329 L 625 339 L 651 399 L 653 424 L 650 435 L 639 447 L 632 452 L 619 454 L 611 450 L 610 447 L 623 447 L 627 445 L 641 431 L 640 426 L 645 422 L 645 400 L 639 394 L 640 386 L 631 378 L 632 368 L 625 365 L 625 358 L 622 359 L 622 363 L 626 369 L 626 378 L 631 390 L 636 391 L 639 396 L 639 417 L 637 424 L 631 425 L 629 435 L 620 444 L 614 440 L 610 414 L 607 416 L 611 422 L 608 426 L 604 426 L 593 416 L 577 416 L 573 413 L 564 418 L 528 418 L 514 422 L 471 422 L 467 417 L 452 417 L 447 413 L 443 421 L 434 420 L 430 424 L 424 424 L 415 434 L 412 433 L 406 437 L 403 426 L 408 421 L 407 405 L 401 439 L 398 442 L 392 442 L 384 430 L 383 423 L 378 418 L 377 399 L 388 384 L 388 375 L 392 373 L 398 359 L 411 342 L 410 336 L 412 334 L 414 336 L 420 329 L 419 325 L 417 325 L 415 332 L 406 323 L 393 318 L 330 309 L 309 301 L 284 295 L 263 297 L 241 314 L 224 322 L 200 323 L 190 321 L 171 312 L 159 297 L 159 290 L 154 278 L 154 266 L 150 261 L 150 252 L 146 249 L 145 242 L 128 233 L 106 228 L 70 227 L 55 223 L 48 217 L 50 214 L 54 214 L 59 218 L 97 217 L 103 222 L 121 222 L 127 227 L 131 226 L 134 231 L 141 230 L 143 234 L 147 234 L 148 241 L 150 242 L 152 235 L 138 222 L 140 215 L 150 214 L 48 210 L 47 205 L 52 200 L 155 194 L 159 193 L 158 189 L 173 180 L 194 175 L 210 176 L 222 185 L 226 192 L 234 194 L 298 196 L 341 200 L 351 198 L 360 203 L 349 211 L 301 211 L 266 214 L 273 216 L 295 216 L 299 222 L 303 217 L 325 218 L 330 214 L 335 214 L 340 218 L 346 215 L 348 218 L 362 218 L 365 227 L 375 227 L 379 232 L 385 228 L 389 232 L 411 231 L 415 235 L 422 230 L 441 230 L 447 225 L 456 226 L 463 223 L 490 221 L 524 222 L 528 220 L 538 222 L 555 221 L 559 225 L 581 226 L 585 230 L 590 226 L 595 227 L 598 231 L 605 227 L 608 231 L 612 231 L 616 227 L 635 227 L 643 218 L 656 218 L 662 213 L 671 214 L 673 217 L 678 214 L 687 217 L 690 213 L 654 211 L 651 207 L 659 200 L 726 193 L 765 193 L 769 191 L 767 190 L 782 183 L 792 176 L 808 173 L 826 174 L 827 170 L 798 170 L 795 174 L 788 177 L 779 175 L 775 180 L 767 182 L 759 180 L 754 185 L 737 186 L 731 183 L 723 188 L 706 189 L 701 193 L 694 193 L 689 196 L 684 193 L 680 197 L 655 201 L 649 206 L 648 211 L 651 213 L 648 215 L 639 215 L 636 211 L 633 211 L 632 214 L 635 218 L 614 218 L 610 221 L 605 215 L 600 215 L 593 220 L 583 220 L 574 214 L 566 214 L 561 217 L 539 216 L 529 210 L 516 210 L 513 212 L 495 210 L 488 215 L 460 217 L 445 223 L 436 221 L 424 224 L 418 220 L 410 219 L 406 224 L 383 225 L 369 216 L 361 216 L 355 209 L 361 206 L 364 211 L 370 211 L 372 215 L 380 215 L 381 220 L 390 220 L 393 216 L 381 214 L 378 210 L 372 209 L 369 205 L 352 197 L 344 199 L 326 198 L 312 193 L 307 188 L 301 187 L 293 191 L 289 189 L 261 188 L 255 183 L 245 183 L 240 178 L 232 179 L 227 174 L 217 176 L 203 174 L 180 175 L 174 179 L 166 180 L 159 185 L 151 185 L 148 188 L 129 189 L 124 194 L 111 194 L 109 188 L 103 188 L 97 193 L 84 196 L 53 199 L 46 206 L 46 211 L 98 213 L 100 215 L 59 217 L 54 213 L 47 213 L 47 218 L 56 224 L 70 228 L 107 229 L 126 233 L 138 239 L 144 245 L 149 255 L 149 261 L 154 271 L 154 284 L 163 306 L 178 318 L 189 322 L 210 325 L 226 323 L 239 318 L 259 301 L 275 296 L 290 298 L 328 310 L 382 317 L 404 323 L 409 329 L 410 342 L 378 380 L 378 387 L 375 389 L 374 397 L 369 404 L 369 420 L 378 440 L 397 455 L 407 458 L 421 456 L 437 444 L 449 439 L 569 433 L 590 434 L 610 451 L 618 455 L 631 453 L 647 440 L 654 425 L 654 406 L 651 395 L 629 346 L 627 337 L 630 327 L 635 322 L 644 318 L 753 306 L 774 309 L 802 325 L 814 328 L 827 327 L 849 318 L 866 302 L 868 296 L 865 273 L 868 245 L 873 238 L 884 233 L 909 229 L 955 227 L 970 223 Z" fill="#060f4a"/>
<path d="M 411 804 L 454 806 L 551 804 L 531 802 L 431 802 Z" fill="#aef6ff"/>
<path d="M 639 713 L 634 695 L 601 710 L 608 710 L 613 706 L 632 702 Z" fill="#aef6ff"/>
<path d="M 595 691 L 585 690 L 582 692 L 583 695 L 575 694 L 572 696 L 572 699 L 563 699 L 561 701 L 562 704 L 552 704 L 551 706 L 560 707 L 563 703 L 573 702 L 575 698 L 583 698 Z" fill="#aef6ff"/>
<path d="M 329 683 L 349 684 L 354 688 L 361 688 L 378 696 L 386 697 L 362 686 L 352 685 L 344 680 Z" fill="#aef6ff"/>
<path d="M 685 677 L 696 700 L 695 691 L 692 686 L 694 679 L 708 680 L 715 684 L 722 684 L 729 688 L 739 689 L 742 692 L 763 697 L 750 690 L 741 689 L 737 686 L 728 685 L 698 674 L 689 675 L 693 677 L 689 682 L 686 679 L 687 676 Z" fill="#aef6ff"/>
<path d="M 642 642 L 651 657 L 646 667 L 635 672 L 629 672 L 614 681 L 608 681 L 605 686 L 596 686 L 595 688 L 605 689 L 608 685 L 616 685 L 638 676 L 647 676 L 651 683 L 657 706 L 660 709 L 656 682 L 644 671 L 647 666 L 656 660 L 657 648 L 661 646 L 648 642 L 650 646 L 648 651 L 646 645 Z" fill="#aef6ff"/>
<path d="M 745 651 L 745 653 L 753 654 L 749 654 L 747 651 L 759 649 L 760 653 L 755 655 L 787 667 L 794 667 L 802 672 L 804 671 L 793 661 L 777 640 Z" fill="#aef6ff"/>
<path d="M 499 699 L 497 693 L 497 637 L 497 683 L 495 687 L 493 685 L 491 637 L 473 641 L 466 645 L 459 645 L 452 649 L 443 649 L 437 653 L 427 654 L 422 658 L 414 659 L 414 662 L 420 664 L 422 668 L 406 664 Z" fill="#aef6ff"/>
<path d="M 514 698 L 519 700 L 549 686 L 582 676 L 597 668 L 625 659 L 628 654 L 624 649 L 585 636 L 598 640 L 601 644 L 595 645 L 588 641 L 533 624 L 520 627 L 518 629 L 515 678 L 513 672 L 513 632 Z" fill="#aef6ff"/>
<path d="M 177 629 L 184 630 L 198 626 L 223 635 L 225 637 L 226 657 L 228 643 L 231 639 L 231 635 L 218 631 L 203 623 L 194 623 Z" fill="#aef6ff"/>
<path d="M 236 620 L 247 622 L 250 625 L 246 648 L 249 645 L 249 652 L 246 657 L 245 650 L 241 679 L 249 662 L 252 670 L 254 667 L 258 639 L 263 632 L 314 650 L 319 654 L 330 652 L 296 640 L 281 632 L 274 631 L 269 627 L 263 627 L 261 620 L 259 624 L 256 623 L 253 614 L 249 618 L 244 618 L 251 618 L 251 622 Z" fill="#aef6ff"/>
<path d="M 902 654 L 901 649 L 871 601 L 859 609 L 852 610 L 790 636 L 802 647 L 797 637 L 806 631 L 814 630 L 830 622 L 849 617 L 853 613 L 870 609 Z" fill="#aef6ff"/>
<path d="M 281 601 L 283 613 L 291 614 L 305 622 L 313 623 L 298 594 L 285 597 Z" fill="#aef6ff"/>
<path d="M 509 597 L 505 593 L 508 596 L 508 601 L 491 609 L 386 640 L 366 648 L 356 649 L 344 655 L 334 654 L 341 657 L 356 655 L 358 658 L 357 663 L 354 660 L 335 660 L 329 664 L 315 664 L 311 667 L 299 668 L 296 672 L 286 672 L 283 674 L 295 676 L 300 672 L 311 671 L 318 667 L 327 666 L 330 663 L 345 661 L 425 694 L 443 698 L 482 716 L 495 716 L 495 712 L 439 694 L 434 690 L 427 689 L 399 676 L 369 667 L 362 662 L 362 656 L 372 650 L 381 649 L 385 646 L 394 645 L 476 619 L 457 623 L 449 627 L 443 626 L 445 623 L 453 622 L 458 618 L 509 604 Z" fill="#aef6ff"/>
<path d="M 219 595 L 210 601 L 198 601 L 178 592 L 189 598 L 185 600 L 179 597 L 188 602 L 185 609 L 131 625 L 129 619 L 136 610 L 143 605 L 153 606 L 149 605 L 149 603 L 157 605 L 157 603 L 152 603 L 142 598 L 130 614 L 125 626 L 116 639 L 129 628 L 192 609 L 194 604 L 203 605 L 220 614 L 210 608 L 212 606 L 219 608 L 215 605 L 215 600 Z" fill="#aef6ff"/>
<path d="M 858 577 L 855 586 L 846 587 L 831 596 L 825 597 L 823 600 L 814 601 L 810 605 L 803 605 L 797 609 L 792 609 L 765 622 L 758 623 L 753 627 L 746 628 L 743 631 L 698 645 L 694 649 L 682 650 L 667 658 L 661 658 L 661 661 L 665 663 L 662 667 L 662 679 L 682 719 L 683 716 L 675 694 L 666 677 L 666 667 L 691 655 L 698 655 L 701 658 L 710 659 L 754 676 L 788 685 L 806 693 L 813 693 L 812 691 L 803 690 L 801 687 L 791 686 L 786 682 L 713 658 L 708 653 L 705 655 L 700 654 L 695 649 L 704 647 L 709 649 L 708 647 L 711 645 L 720 645 L 726 641 L 744 636 L 749 632 L 801 614 L 806 610 L 824 605 L 829 601 L 849 596 L 855 592 L 865 592 Z" fill="#aef6ff"/>
<path d="M 322 588 L 326 593 L 326 599 L 334 610 L 334 614 L 332 615 L 326 607 L 346 637 L 351 637 L 344 635 L 343 632 L 345 630 L 356 632 L 353 636 L 375 628 L 408 619 L 402 619 L 401 617 L 404 615 L 413 614 L 411 618 L 420 615 L 415 615 L 414 612 L 427 609 L 431 605 L 441 604 L 444 601 L 454 600 L 459 596 L 427 583 L 406 578 L 401 574 L 383 569 L 346 578 L 340 582 L 330 583 Z" fill="#aef6ff"/>
<path d="M 738 566 L 742 569 L 742 572 L 746 575 L 747 580 L 755 589 L 760 599 L 777 595 L 780 592 L 788 591 L 793 587 L 806 583 L 793 578 L 768 573 L 760 568 L 746 569 L 743 566 Z" fill="#aef6ff"/>
<path d="M 709 565 L 698 565 L 670 574 L 666 578 L 658 579 L 658 583 L 661 586 L 661 600 L 665 604 L 666 615 L 674 627 L 688 628 L 699 623 L 707 624 L 691 632 L 736 615 L 731 615 L 716 623 L 706 623 L 710 619 L 717 619 L 721 615 L 738 609 L 737 604 Z" fill="#aef6ff"/>
<path d="M 812 557 L 812 559 L 826 564 L 843 565 L 838 557 Z" fill="#aef6ff"/>
<path d="M 168 568 L 184 567 L 185 569 L 181 571 L 183 573 L 193 573 L 195 577 L 209 577 L 212 573 L 229 572 L 228 568 L 222 567 L 222 562 L 214 564 L 211 561 L 213 558 L 233 558 L 176 557 L 179 560 L 178 563 L 175 565 L 172 560 Z" fill="#aef6ff"/>
<path d="M 623 537 L 618 534 L 618 531 L 616 535 L 613 531 L 614 536 L 612 538 L 580 539 L 566 537 L 569 538 L 526 539 L 526 537 L 536 537 L 501 537 L 514 538 L 502 539 L 608 538 L 615 546 L 614 541 L 618 537 Z" fill="#aef6ff"/>
<path d="M 675 548 L 685 541 L 691 541 L 696 538 L 702 541 L 685 547 L 700 542 L 717 542 L 714 541 L 715 539 L 752 541 L 749 543 L 731 543 L 751 543 L 766 539 L 832 541 L 827 540 L 827 538 L 713 538 L 711 533 L 720 524 L 708 533 L 701 528 L 704 531 L 703 535 L 695 527 L 701 536 L 690 541 L 683 541 L 680 546 Z" fill="#aef6ff"/>
<path d="M 196 518 L 249 519 L 249 517 L 238 516 L 232 518 L 228 516 L 201 518 L 199 515 Z" fill="#aef6ff"/>
<path d="M 809 191 L 807 202 L 816 204 L 818 202 L 817 192 Z" fill="#aef6ff"/>
<path d="M 206 191 L 203 198 L 196 190 L 190 191 L 187 201 L 188 207 L 184 209 L 193 207 L 205 208 Z" fill="#aef6ff"/>
<path d="M 603 645 L 621 653 L 616 659 L 607 662 L 614 662 L 619 658 L 625 658 L 627 655 L 624 650 Z" fill="#e5fbfe"/>
<path d="M 425 633 L 418 632 L 411 636 L 401 637 L 395 641 L 387 641 L 383 644 L 394 644 L 401 640 L 407 640 L 412 636 Z" fill="#e5fbfe"/>
<path d="M 497 628 L 472 636 L 466 640 L 457 641 L 451 645 L 442 646 L 439 649 L 429 650 L 424 654 L 417 654 L 411 658 L 397 660 L 400 663 L 411 663 L 416 667 L 422 667 L 414 663 L 413 659 L 422 657 L 427 653 L 437 652 L 443 648 L 452 648 L 459 644 L 466 644 L 473 640 L 491 636 L 495 686 Z" fill="#e5fbfe"/>
<path d="M 515 677 L 517 629 L 520 626 L 533 623 L 588 640 L 595 644 L 600 643 L 561 627 L 541 622 L 535 618 L 527 618 L 520 622 L 515 622 L 513 624 Z" fill="#e5fbfe"/>
<path d="M 211 608 L 233 619 L 251 621 L 251 619 L 244 619 L 235 614 L 214 607 Z" fill="#e5fbfe"/>
<path d="M 276 597 L 276 614 L 327 636 L 314 615 L 302 587 L 294 591 L 284 592 Z" fill="#e5fbfe"/>
<path d="M 148 585 L 148 587 L 156 587 L 161 591 L 188 599 L 186 596 L 160 587 L 154 582 Z" fill="#e5fbfe"/>
<path d="M 317 583 L 322 599 L 332 614 L 333 610 L 330 608 L 329 603 L 325 599 L 325 593 L 321 589 L 323 586 L 330 582 L 340 581 L 346 577 L 372 572 L 381 568 L 427 582 L 460 596 L 454 601 L 431 606 L 427 610 L 417 611 L 415 614 L 422 614 L 429 610 L 439 609 L 445 605 L 452 605 L 459 601 L 472 600 L 478 597 L 477 595 L 468 595 L 451 587 L 431 582 L 426 578 L 407 573 L 388 564 L 378 564 L 368 569 L 362 569 L 339 578 Z" fill="#e5fbfe"/>
<path d="M 706 557 L 651 575 L 665 622 L 676 632 L 682 634 L 690 632 L 707 623 L 716 622 L 721 618 L 726 618 L 731 614 L 737 614 L 746 610 L 729 588 L 720 570 Z" fill="#e5fbfe"/>
<path d="M 727 556 L 742 582 L 760 606 L 801 591 L 812 583 L 821 583 L 820 581 L 799 577 L 792 573 L 783 573 L 776 569 L 750 564 L 744 560 L 736 560 Z" fill="#e5fbfe"/>
<path d="M 763 551 L 777 556 L 787 556 L 794 560 L 805 561 L 827 569 L 848 570 L 854 573 L 854 570 L 840 551 L 832 553 Z" fill="#e5fbfe"/>
<path d="M 562 551 L 587 560 L 599 561 L 595 555 L 582 551 Z" fill="#e5fbfe"/>
<path d="M 508 553 L 510 573 L 518 578 L 536 579 L 558 570 L 570 569 L 574 566 L 572 564 L 564 564 L 534 551 L 510 550 Z" fill="#e5fbfe"/>
<path d="M 437 551 L 458 556 L 480 565 L 486 565 L 493 570 L 497 568 L 497 553 L 495 550 Z" fill="#e5fbfe"/>
<path d="M 158 570 L 174 574 L 190 582 L 206 585 L 222 579 L 246 574 L 246 566 L 251 551 L 175 551 L 171 549 Z" fill="#e5fbfe"/>
<path d="M 254 617 L 257 623 L 259 623 L 264 588 L 270 580 L 281 579 L 301 571 L 343 561 L 373 551 L 378 547 L 386 547 L 405 556 L 424 561 L 430 565 L 506 592 L 510 597 L 509 605 L 458 619 L 444 626 L 477 618 L 484 614 L 504 609 L 511 604 L 520 604 L 522 601 L 538 601 L 567 614 L 636 637 L 644 642 L 649 650 L 648 641 L 657 645 L 666 644 L 662 641 L 654 640 L 648 633 L 643 604 L 635 582 L 633 567 L 644 561 L 666 556 L 678 551 L 682 547 L 701 541 L 696 539 L 691 542 L 685 542 L 676 549 L 663 551 L 644 559 L 632 560 L 626 551 L 626 539 L 618 538 L 615 543 L 620 562 L 615 568 L 603 569 L 589 577 L 544 591 L 535 596 L 522 596 L 516 591 L 499 587 L 441 564 L 400 550 L 397 546 L 401 539 L 513 538 L 409 537 L 379 542 L 356 533 L 347 538 L 268 538 L 263 560 L 263 574 L 255 602 Z" fill="#e5fbfe"/>
<path d="M 629 514 L 638 524 L 662 526 L 650 520 L 642 519 L 637 515 Z" fill="#e5fbfe"/>
<path d="M 594 522 L 591 519 L 591 512 L 587 510 L 577 515 L 565 516 L 560 519 L 531 525 L 593 526 Z" fill="#e5fbfe"/>
<path d="M 444 507 L 462 516 L 469 514 L 466 508 Z" fill="#e5fbfe"/>
<path d="M 292 507 L 295 511 L 353 531 L 351 528 L 344 527 L 341 524 Z" fill="#e5fbfe"/>
<path d="M 827 527 L 814 508 L 809 506 L 758 528 L 816 526 L 826 529 Z" fill="#e5fbfe"/>
<path d="M 776 506 L 768 506 L 723 523 L 715 529 Z" fill="#e5fbfe"/>
<path d="M 647 506 L 668 512 L 681 520 L 686 520 L 703 534 L 703 531 L 678 507 Z" fill="#e5fbfe"/>
<path d="M 607 506 L 607 517 L 611 524 L 611 529 L 616 534 L 617 520 L 613 507 Z" fill="#e5fbfe"/>
<path d="M 548 506 L 515 511 L 504 517 Z" fill="#e5fbfe"/>
<path d="M 328 506 L 370 521 L 376 525 L 411 525 L 435 520 L 423 519 L 402 511 L 385 508 Z" fill="#e5fbfe"/>
<path d="M 279 506 L 276 506 L 273 511 L 271 526 L 273 530 L 277 521 Z" fill="#e5fbfe"/>
<path d="M 184 526 L 255 525 L 257 523 L 259 507 L 198 506 Z" fill="#e5fbfe"/>
<path d="M 733 506 L 696 507 L 707 516 L 710 516 L 716 511 Z" fill="#e5fbfe"/>
<path d="M 459 380 L 455 382 L 456 409 L 461 408 L 461 382 Z" fill="#e5fbfe"/>
<path d="M 551 336 L 467 337 L 469 339 L 543 340 L 549 339 Z" fill="#e5fbfe"/>
<path d="M 769 261 L 609 261 L 575 271 L 629 270 L 659 266 L 719 265 Z" fill="#e5fbfe"/>
<path d="M 244 260 L 246 262 L 441 271 L 415 265 L 409 261 Z" fill="#e5fbfe"/>
<path d="M 429 252 L 443 253 L 465 261 L 511 263 L 548 261 L 585 251 L 580 248 L 542 239 L 490 238 L 454 243 L 445 247 L 434 248 Z" fill="#e5fbfe"/>
<path d="M 784 235 L 782 243 L 786 266 L 796 297 L 804 300 L 808 297 L 806 290 L 807 238 L 805 236 Z" fill="#e5fbfe"/>
<path d="M 227 235 L 223 237 L 204 237 L 203 298 L 210 299 L 215 295 L 228 249 L 229 237 Z" fill="#e5fbfe"/>
<path d="M 205 190 L 201 186 L 184 187 L 183 208 L 187 207 L 187 194 L 190 190 L 196 189 L 203 197 Z" fill="#e5fbfe"/>
<path d="M 801 186 L 799 207 L 816 207 L 821 209 L 823 206 L 822 186 Z" fill="#e5fbfe"/>
<path d="M 648 738 L 644 718 L 635 694 L 573 720 L 565 720 L 575 720 L 581 716 L 587 716 L 585 720 L 580 721 L 578 726 L 569 726 L 565 723 L 568 726 L 590 730 L 600 735 L 602 734 L 601 731 L 593 731 L 591 729 L 592 725 L 587 724 L 593 722 L 596 717 L 606 718 L 616 714 L 629 716 L 633 713 L 639 721 L 640 727 L 645 732 L 646 739 Z" fill="#9adbfb"/>
<path d="M 266 702 L 267 712 L 274 703 L 285 702 L 291 698 L 303 698 L 306 694 L 316 694 L 321 697 L 327 696 L 333 701 L 340 700 L 344 705 L 353 702 L 357 707 L 363 706 L 365 709 L 374 708 L 378 711 L 392 709 L 398 716 L 409 716 L 418 719 L 427 728 L 420 733 L 422 735 L 444 727 L 454 726 L 458 723 L 458 720 L 447 720 L 421 707 L 341 678 L 314 685 Z" fill="#9adbfb"/>
<path d="M 684 677 L 689 674 L 698 673 L 728 684 L 750 689 L 764 696 L 760 698 L 752 694 L 742 693 L 739 690 L 729 689 L 722 685 L 715 685 L 708 681 L 694 680 L 693 686 L 696 691 L 696 701 L 692 697 L 685 680 L 701 719 L 707 728 L 705 720 L 707 710 L 718 707 L 726 708 L 728 706 L 755 704 L 758 702 L 771 703 L 807 714 L 809 717 L 801 724 L 802 726 L 819 716 L 818 713 L 819 716 L 814 718 L 809 713 L 816 712 L 807 711 L 775 698 L 767 697 L 751 689 L 714 679 L 707 675 L 694 673 Z" fill="#9adbfb"/>
<path d="M 744 651 L 746 655 L 756 656 L 772 664 L 805 673 L 777 639 Z" fill="#9adbfb"/>
<path d="M 233 636 L 227 631 L 198 621 L 179 626 L 160 635 L 152 636 L 147 640 L 136 641 L 132 645 L 150 640 L 169 638 L 177 641 L 181 648 L 187 649 L 191 655 L 196 657 L 202 657 L 209 661 L 217 656 L 220 661 L 220 670 L 218 673 L 208 675 L 208 677 L 215 677 L 225 673 L 225 663 Z" fill="#9adbfb"/>
<path d="M 513 698 L 516 701 L 520 701 L 551 687 L 583 677 L 598 669 L 625 660 L 629 653 L 624 648 L 606 643 L 565 626 L 557 625 L 534 616 L 523 617 L 513 621 L 511 627 Z" fill="#9adbfb"/>
<path d="M 913 671 L 902 648 L 871 599 L 860 607 L 807 626 L 789 635 L 814 663 L 820 656 L 827 656 L 830 653 L 839 651 L 849 652 L 853 649 L 871 648 L 878 645 L 883 646 L 887 638 L 909 665 L 909 671 Z" fill="#9adbfb"/>
<path d="M 635 629 L 628 595 L 623 579 L 619 574 L 594 579 L 572 588 L 550 593 L 546 597 L 549 602 L 622 626 L 627 630 Z" fill="#9adbfb"/>
<path d="M 435 551 L 477 566 L 486 567 L 494 572 L 498 569 L 498 552 L 496 549 L 437 549 Z" fill="#9adbfb"/>
<path d="M 281 561 L 290 562 L 297 558 L 323 553 L 326 550 L 285 549 Z" fill="#9adbfb"/>
<path d="M 507 553 L 508 574 L 519 580 L 539 580 L 561 571 L 572 570 L 576 567 L 576 564 L 565 562 L 537 550 L 512 548 Z" fill="#9adbfb"/>
<path d="M 156 572 L 205 588 L 212 584 L 247 575 L 252 557 L 252 549 L 176 549 L 170 547 Z" fill="#9adbfb"/>
<path d="M 174 537 L 176 540 L 254 540 L 258 538 L 255 536 Z" fill="#9adbfb"/>
<path d="M 628 512 L 628 517 L 637 526 L 671 529 L 663 523 Z" fill="#9adbfb"/>
<path d="M 596 523 L 591 509 L 586 509 L 541 522 L 529 523 L 526 527 L 594 528 Z" fill="#9adbfb"/>
<path d="M 828 526 L 813 505 L 805 505 L 771 522 L 754 527 L 753 530 L 827 530 Z" fill="#9adbfb"/>
<path d="M 182 528 L 255 527 L 260 519 L 261 506 L 197 505 L 182 524 Z" fill="#9adbfb"/>
<path d="M 736 505 L 695 505 L 694 508 L 705 517 L 711 517 L 723 510 L 734 508 Z" fill="#9adbfb"/>
<path d="M 867 591 L 863 587 L 854 567 L 839 549 L 770 550 L 840 550 L 856 571 L 856 575 L 824 570 L 802 562 L 775 557 L 761 551 L 763 549 L 768 549 L 763 549 L 762 553 L 774 557 L 800 562 L 823 570 L 854 575 L 856 582 L 821 599 L 791 608 L 742 630 L 722 635 L 716 639 L 711 639 L 691 648 L 682 649 L 664 656 L 659 652 L 659 649 L 669 644 L 663 639 L 655 638 L 649 630 L 649 620 L 636 578 L 635 569 L 638 566 L 667 557 L 696 544 L 753 544 L 773 540 L 836 542 L 837 538 L 833 536 L 717 538 L 713 535 L 715 531 L 757 516 L 770 509 L 778 508 L 779 504 L 766 505 L 719 523 L 707 532 L 678 505 L 644 504 L 642 506 L 665 513 L 679 521 L 686 522 L 693 526 L 700 534 L 692 539 L 683 539 L 674 548 L 634 559 L 627 547 L 629 540 L 666 540 L 674 538 L 622 536 L 619 533 L 618 516 L 615 509 L 618 518 L 618 530 L 621 536 L 665 538 L 664 540 L 629 539 L 627 541 L 627 548 L 634 559 L 674 548 L 680 545 L 683 540 L 690 540 L 700 536 L 699 532 L 687 522 L 680 521 L 666 513 L 646 508 L 644 506 L 646 504 L 678 505 L 706 532 L 728 519 L 766 505 L 777 504 L 779 506 L 777 508 L 714 531 L 712 536 L 717 538 L 832 536 L 837 540 L 835 542 L 766 540 L 751 544 L 700 543 L 684 548 L 667 557 L 636 566 L 636 579 L 644 601 L 649 631 L 654 638 L 665 640 L 669 644 L 658 648 L 657 660 L 648 667 L 646 665 L 650 657 L 641 642 L 533 602 L 526 602 L 508 610 L 446 628 L 424 637 L 385 647 L 381 650 L 372 651 L 363 656 L 363 662 L 369 666 L 399 675 L 417 684 L 434 689 L 439 693 L 495 711 L 497 713 L 495 717 L 482 717 L 443 699 L 425 695 L 345 662 L 329 663 L 335 659 L 354 659 L 357 662 L 356 656 L 341 658 L 335 657 L 333 654 L 344 654 L 356 648 L 366 647 L 399 635 L 435 626 L 507 601 L 507 596 L 495 589 L 387 549 L 379 549 L 344 562 L 273 581 L 266 587 L 261 618 L 262 625 L 269 626 L 274 630 L 281 631 L 309 644 L 328 649 L 331 652 L 329 654 L 319 655 L 314 651 L 263 633 L 259 639 L 255 667 L 252 671 L 249 663 L 241 680 L 240 669 L 249 630 L 247 623 L 228 619 L 203 606 L 194 605 L 192 610 L 142 626 L 181 615 L 193 610 L 197 606 L 204 607 L 230 620 L 247 624 L 249 629 L 240 665 L 240 675 L 233 686 L 245 682 L 247 678 L 255 680 L 253 686 L 248 691 L 248 693 L 251 692 L 251 697 L 249 699 L 247 695 L 247 703 L 251 698 L 252 691 L 258 686 L 280 682 L 287 678 L 296 677 L 334 664 L 345 663 L 387 681 L 395 682 L 423 695 L 444 700 L 458 708 L 489 719 L 497 717 L 496 711 L 441 693 L 389 671 L 381 670 L 369 665 L 363 658 L 373 651 L 426 637 L 444 629 L 466 624 L 473 620 L 532 602 L 564 615 L 572 616 L 633 638 L 643 645 L 649 657 L 646 664 L 636 670 L 629 671 L 602 684 L 595 685 L 590 689 L 584 689 L 558 702 L 551 703 L 545 707 L 539 707 L 534 711 L 529 711 L 515 718 L 528 719 L 530 726 L 521 727 L 523 730 L 544 739 L 563 744 L 566 747 L 573 747 L 576 744 L 570 743 L 566 739 L 533 729 L 531 727 L 531 720 L 534 717 L 552 712 L 555 709 L 584 699 L 599 691 L 644 677 L 650 684 L 661 721 L 667 730 L 664 713 L 669 703 L 675 708 L 681 722 L 684 723 L 684 715 L 667 676 L 667 668 L 692 656 L 709 660 L 730 669 L 806 694 L 836 701 L 826 695 L 818 694 L 815 691 L 787 682 L 791 685 L 801 686 L 806 690 L 812 690 L 814 693 L 806 694 L 788 686 L 754 677 L 710 660 L 701 659 L 698 656 L 691 656 L 667 667 L 667 677 L 684 716 L 682 720 L 661 679 L 661 667 L 664 663 L 660 661 L 660 658 L 667 657 L 682 649 L 694 648 L 698 644 L 743 630 L 746 627 L 753 626 L 758 622 L 765 621 L 792 608 L 797 608 L 803 604 L 810 604 L 814 600 L 823 599 L 825 596 L 831 595 L 846 586 L 855 585 L 858 576 L 866 590 L 865 593 L 855 593 L 849 597 L 829 602 L 824 606 L 819 606 L 801 615 L 749 633 L 744 637 L 726 642 L 720 646 L 696 649 L 700 653 L 705 654 L 708 652 L 713 657 L 718 658 L 711 655 L 711 651 L 715 647 L 745 637 L 761 629 L 769 628 L 808 611 L 828 605 L 831 602 L 850 597 L 856 593 L 866 593 Z" fill="#9adbfb"/>
<path d="M 614 506 L 612 504 L 605 505 L 606 520 L 613 533 L 612 536 L 372 537 L 365 536 L 354 528 L 290 505 L 290 509 L 296 513 L 349 531 L 351 534 L 349 536 L 273 535 L 266 537 L 252 614 L 244 617 L 216 604 L 219 598 L 239 594 L 244 591 L 216 600 L 216 605 L 243 617 L 252 615 L 261 574 L 263 551 L 266 546 L 265 539 L 267 537 L 275 535 L 350 536 L 352 534 L 350 531 L 330 526 L 311 517 L 294 512 L 289 507 L 291 505 L 352 527 L 364 536 L 380 538 L 402 536 L 612 537 L 613 532 L 606 519 L 605 506 L 608 504 Z" fill="#9adbfb"/>
<path d="M 555 505 L 535 505 L 515 509 L 499 517 L 473 521 L 468 526 L 460 526 L 457 529 L 462 530 L 485 526 L 522 514 L 552 508 Z" fill="#9adbfb"/>
<path d="M 324 506 L 325 508 L 333 509 L 379 527 L 421 526 L 439 521 L 436 518 L 424 517 L 390 506 L 332 504 Z" fill="#9adbfb"/>
<path d="M 279 504 L 273 507 L 271 513 L 270 529 L 273 532 L 276 529 L 279 510 L 282 506 Z" fill="#9adbfb"/>
<path d="M 415 454 L 421 453 L 435 442 L 446 437 L 481 434 L 443 434 L 430 441 Z" fill="#9adbfb"/>
<path d="M 648 426 L 642 436 L 626 450 L 633 449 L 644 440 L 649 432 Z" fill="#9adbfb"/>
<path d="M 241 260 L 244 263 L 451 274 L 444 269 L 420 264 L 409 259 L 262 259 L 407 259 L 418 264 L 440 268 L 445 272 L 388 271 L 351 267 L 244 263 Z" fill="#9adbfb"/>
<path d="M 427 250 L 429 254 L 438 254 L 461 262 L 491 265 L 547 263 L 589 252 L 586 248 L 550 238 L 516 236 L 469 238 L 431 247 Z" fill="#9adbfb"/>
<path d="M 783 233 L 780 237 L 781 254 L 789 282 L 793 289 L 794 297 L 799 302 L 806 302 L 810 299 L 810 237 L 804 233 Z" fill="#9adbfb"/>
<path d="M 892 228 L 879 229 L 864 239 L 860 260 L 861 271 L 863 247 L 868 239 L 879 232 L 891 230 Z" fill="#9adbfb"/>
<path d="M 901 226 L 914 227 L 946 224 L 913 223 Z" fill="#9adbfb"/>
<path d="M 183 185 L 181 190 L 181 208 L 183 210 L 206 209 L 206 188 L 202 184 Z" fill="#9adbfb"/>
<path d="M 97 813 L 202 812 L 295 816 L 305 814 L 310 819 L 329 822 L 328 824 L 306 825 L 375 824 L 381 829 L 494 827 L 342 820 L 338 815 L 315 813 Z" fill="#000073"/>
<path d="M 914 813 L 892 813 L 888 811 L 882 813 L 873 811 L 868 813 L 692 813 L 665 816 L 671 817 L 672 820 L 552 827 L 630 828 L 633 824 L 737 824 L 692 824 L 690 822 L 709 819 L 703 817 L 706 815 Z" fill="#000073"/>
<path d="M 644 796 L 917 798 L 906 797 L 916 795 L 978 794 L 981 797 L 978 794 L 771 796 L 765 792 L 766 788 L 751 796 L 731 796 L 726 790 L 724 792 L 721 787 L 716 796 L 682 796 L 673 791 L 673 780 L 671 778 L 671 793 L 657 793 Z" fill="#000073"/>
<path d="M 703 743 L 702 747 L 706 751 L 706 759 L 710 763 L 711 774 L 714 777 L 715 783 L 717 783 L 718 780 L 714 773 L 714 766 L 710 763 L 710 755 Z" fill="#000073"/>
<path d="M 791 742 L 786 743 L 724 786 L 727 787 L 753 767 L 769 760 L 780 749 L 786 748 Z" fill="#000073"/>
<path d="M 822 749 L 850 733 L 856 727 L 865 724 L 881 726 L 885 730 L 894 731 L 898 735 L 897 733 L 900 732 L 904 734 L 901 736 L 912 740 L 920 740 L 925 744 L 925 741 L 930 742 L 923 738 L 902 733 L 896 729 L 889 729 L 863 720 L 839 735 L 832 742 L 827 743 Z" fill="#000073"/>
<path d="M 304 794 L 301 790 L 299 795 L 291 791 L 280 792 L 273 796 L 254 796 L 246 791 L 244 775 L 242 775 L 243 786 L 238 793 L 234 795 L 208 795 L 204 790 L 204 786 L 209 774 L 211 750 L 215 744 L 215 734 L 218 729 L 219 720 L 214 731 L 209 735 L 212 743 L 203 788 L 194 795 L 132 795 L 118 793 L 113 795 L 41 795 L 37 791 L 33 791 L 30 797 L 33 791 L 37 791 L 41 795 L 128 794 L 131 796 L 129 798 L 109 798 L 286 797 Z" fill="#000073"/>
<path d="M 216 710 L 211 709 L 180 720 L 170 721 L 167 724 L 157 725 L 152 729 L 128 733 L 122 737 L 113 738 L 108 742 L 98 742 L 91 746 L 70 750 L 76 751 L 81 749 L 80 753 L 85 749 L 92 749 L 99 744 L 110 744 L 115 740 L 124 740 L 129 736 L 141 735 L 147 731 L 154 731 L 161 726 L 174 725 L 177 722 L 188 726 L 187 721 L 189 718 Z" fill="#000073"/>
<path d="M 95 690 L 96 693 L 113 700 L 118 700 L 124 705 L 123 710 L 116 712 L 118 714 L 125 713 L 129 709 L 143 708 L 142 706 L 133 706 L 119 698 L 110 697 L 98 689 Z" fill="#000073"/>
<path d="M 822 685 L 841 694 L 849 695 L 854 699 L 876 704 L 881 708 L 888 708 L 894 712 L 900 712 L 921 721 L 930 722 L 937 727 L 939 726 L 933 720 L 901 711 L 879 700 L 867 698 L 848 690 Z" fill="#000073"/>
<path d="M 181 619 L 203 617 L 218 622 L 217 619 L 210 615 L 194 613 L 189 617 Z" fill="#000073"/>
<path d="M 144 584 L 132 603 L 127 606 L 123 602 L 112 618 L 108 628 L 112 627 L 113 621 L 117 621 L 119 614 L 122 615 L 122 620 L 118 627 L 113 629 L 113 635 L 109 643 L 114 630 L 126 614 L 127 608 L 135 600 L 136 595 L 143 590 Z" fill="#000073"/>
<path d="M 643 500 L 652 499 L 658 502 L 683 503 L 689 508 L 690 500 L 701 502 L 718 499 L 742 499 L 747 507 L 758 503 L 767 503 L 774 499 L 779 500 L 772 499 L 768 502 L 757 503 L 753 501 L 748 502 L 743 499 L 703 501 L 691 499 L 687 504 L 653 499 Z" fill="#000073"/>
<path d="M 565 499 L 571 502 L 569 507 L 582 507 L 588 503 L 598 507 L 603 501 L 612 499 L 620 505 L 621 510 L 627 506 L 626 501 L 628 499 L 633 499 L 621 500 L 619 502 L 613 499 L 605 499 L 599 503 L 572 502 Z" fill="#000073"/>
<path d="M 195 503 L 199 500 L 206 502 L 260 501 L 267 509 L 278 499 L 287 503 L 301 503 L 310 507 L 314 507 L 314 502 L 317 499 L 335 502 L 398 503 L 403 506 L 411 506 L 414 499 L 419 499 L 401 503 L 336 502 L 332 499 L 316 499 L 312 505 L 296 502 L 287 503 L 282 499 L 275 500 L 271 504 L 261 500 L 206 501 L 203 499 Z" fill="#000073"/>
<path d="M 782 500 L 786 502 L 786 507 L 777 511 L 777 513 L 783 512 L 799 503 L 810 501 L 821 506 L 830 524 L 834 527 L 833 533 L 843 536 L 843 546 L 848 551 L 860 572 L 861 569 L 865 570 L 866 574 L 861 574 L 865 578 L 865 582 L 870 587 L 875 600 L 892 622 L 892 626 L 907 650 L 914 658 L 929 690 L 936 699 L 928 688 L 919 665 L 915 662 L 916 657 L 919 662 L 927 661 L 927 657 L 918 643 L 912 641 L 905 631 L 901 620 L 892 607 L 892 602 L 879 588 L 879 584 L 871 574 L 872 571 L 890 587 L 890 592 L 899 600 L 891 592 L 890 586 L 873 570 L 872 564 L 868 561 L 868 556 L 859 548 L 859 542 L 841 525 L 841 520 L 831 511 L 832 507 L 823 496 L 823 501 L 827 502 L 823 508 L 821 503 L 812 500 L 803 503 Z" fill="#000073"/>
<path d="M 568 327 L 559 331 L 558 339 L 550 346 L 464 345 L 461 342 L 461 331 L 457 331 L 455 334 L 456 342 L 464 351 L 490 350 L 496 362 L 494 367 L 498 367 L 496 364 L 496 352 L 498 350 L 532 350 L 532 358 L 527 366 L 530 367 L 537 350 L 553 351 L 563 342 L 563 333 Z" fill="#000073"/>
<path d="M 849 295 L 846 292 L 845 297 L 838 304 L 825 307 L 796 306 L 789 299 L 781 298 L 781 301 L 787 300 L 792 306 L 796 306 L 800 312 L 829 312 L 835 307 L 839 307 Z" fill="#000073"/>
<path d="M 779 295 L 767 292 L 759 283 L 750 284 L 750 288 L 747 291 L 742 288 L 742 285 L 728 285 L 663 294 L 657 297 L 623 302 L 618 305 L 612 305 L 607 309 L 600 309 L 600 312 L 608 312 L 611 315 L 611 323 L 602 338 L 611 350 L 622 372 L 630 405 L 633 392 L 637 395 L 638 401 L 637 421 L 633 423 L 630 416 L 628 433 L 622 442 L 615 440 L 612 413 L 594 376 L 592 379 L 602 395 L 602 404 L 606 408 L 606 417 L 609 420 L 607 425 L 603 424 L 594 415 L 582 415 L 575 412 L 572 397 L 577 390 L 573 386 L 573 378 L 567 372 L 565 373 L 571 381 L 572 404 L 571 410 L 566 416 L 487 417 L 484 421 L 472 421 L 470 414 L 478 411 L 478 397 L 472 382 L 468 383 L 471 413 L 464 416 L 454 416 L 447 405 L 447 387 L 449 381 L 455 375 L 448 381 L 446 390 L 447 408 L 445 410 L 441 408 L 441 378 L 447 371 L 455 371 L 461 367 L 466 368 L 460 374 L 466 369 L 486 368 L 462 366 L 454 371 L 446 371 L 441 377 L 440 408 L 445 413 L 445 417 L 443 419 L 431 419 L 428 423 L 423 421 L 415 432 L 407 434 L 406 426 L 409 422 L 410 404 L 414 401 L 414 386 L 418 383 L 418 376 L 426 369 L 426 363 L 415 377 L 414 385 L 410 390 L 410 396 L 412 391 L 414 400 L 411 402 L 409 399 L 406 404 L 409 406 L 409 421 L 404 426 L 405 434 L 408 436 L 412 432 L 415 433 L 424 423 L 430 423 L 434 419 L 443 420 L 447 412 L 452 416 L 467 416 L 471 421 L 514 421 L 528 417 L 554 418 L 568 416 L 573 412 L 577 415 L 593 415 L 604 425 L 609 424 L 610 420 L 606 415 L 610 413 L 615 440 L 620 443 L 628 435 L 630 425 L 637 422 L 638 396 L 636 392 L 630 390 L 621 359 L 625 357 L 627 359 L 626 365 L 631 367 L 627 364 L 627 358 L 623 355 L 622 349 L 618 347 L 618 341 L 613 336 L 613 329 L 618 324 L 618 319 L 624 317 L 618 317 L 618 323 L 613 327 L 611 339 L 607 332 L 607 328 L 611 325 L 611 314 L 614 311 L 611 307 L 613 305 L 627 306 L 634 303 L 662 302 L 689 296 L 720 293 L 738 287 L 744 291 L 749 291 L 751 288 L 758 291 L 747 294 L 737 293 L 733 298 L 738 294 L 769 293 L 773 297 Z" fill="#000073"/>
<path d="M 174 305 L 179 311 L 181 308 L 182 311 L 191 311 L 196 315 L 197 311 L 204 310 L 208 312 L 206 315 L 210 312 L 223 312 L 228 307 L 233 307 L 250 289 L 263 289 L 270 285 L 273 289 L 295 289 L 300 294 L 307 293 L 313 299 L 322 298 L 325 302 L 328 297 L 349 298 L 353 301 L 364 299 L 383 302 L 387 305 L 380 307 L 358 307 L 384 307 L 388 311 L 387 307 L 389 305 L 398 306 L 399 310 L 392 311 L 398 311 L 402 315 L 407 315 L 414 321 L 415 327 L 412 329 L 409 326 L 413 330 L 416 330 L 417 324 L 421 326 L 421 329 L 414 337 L 411 336 L 412 342 L 399 359 L 393 373 L 389 375 L 389 384 L 378 399 L 379 418 L 384 423 L 385 430 L 390 436 L 384 419 L 384 400 L 399 361 L 428 319 L 442 328 L 446 337 L 446 332 L 450 329 L 444 329 L 442 324 L 439 324 L 428 315 L 423 315 L 419 311 L 410 310 L 405 306 L 396 305 L 392 302 L 381 301 L 372 297 L 335 293 L 318 288 L 251 281 L 248 287 L 242 288 L 232 297 L 227 295 L 226 287 L 216 306 L 193 308 Z" fill="#000073"/>
<path d="M 353 248 L 306 246 L 262 247 L 252 250 L 271 252 L 353 250 Z" fill="#000073"/>
<path d="M 746 248 L 736 246 L 734 241 L 728 247 L 722 241 L 719 247 L 671 247 L 670 250 L 744 252 Z" fill="#000073"/>
<path d="M 624 242 L 624 247 L 629 251 L 661 251 L 660 247 L 629 248 L 627 242 Z" fill="#000073"/>
<path d="M 773 240 L 779 229 L 820 227 L 806 226 L 797 228 L 777 226 L 772 231 Z" fill="#000073"/>
<path d="M 834 224 L 840 229 L 855 231 L 857 234 L 856 244 L 858 244 L 860 237 L 870 228 L 875 228 L 870 227 L 859 237 L 858 231 L 868 220 L 875 217 L 878 212 L 920 211 L 840 212 L 838 214 L 841 216 L 851 216 L 853 223 L 851 225 L 840 225 L 839 221 Z" fill="#000073"/>
<path d="M 216 211 L 213 207 L 211 212 L 205 216 L 185 216 L 177 212 L 75 211 L 150 213 L 149 216 L 140 216 L 139 222 L 153 235 L 151 242 L 147 241 L 147 235 L 145 236 L 141 231 L 137 231 L 147 238 L 146 247 L 147 245 L 150 246 L 147 249 L 151 252 L 150 258 L 150 254 L 153 252 L 153 233 L 140 222 L 141 218 L 170 215 L 186 218 L 189 221 L 188 227 L 191 227 L 193 220 L 208 217 Z" fill="#000073"/>
<path d="M 788 214 L 784 212 L 674 211 L 656 209 L 654 205 L 652 207 L 654 210 L 680 210 L 691 213 L 687 218 L 681 215 L 673 218 L 671 215 L 662 214 L 656 219 L 643 219 L 635 228 L 616 228 L 612 232 L 608 232 L 605 228 L 598 232 L 595 228 L 590 227 L 585 231 L 581 227 L 559 226 L 555 222 L 538 223 L 528 221 L 524 223 L 490 222 L 463 224 L 456 227 L 447 226 L 441 231 L 422 231 L 415 236 L 411 232 L 389 233 L 385 229 L 379 233 L 375 228 L 365 228 L 362 219 L 348 219 L 346 216 L 340 219 L 335 215 L 330 215 L 325 219 L 303 218 L 299 223 L 295 217 L 273 217 L 265 214 L 301 210 L 342 210 L 222 213 L 225 216 L 294 218 L 297 225 L 287 227 L 294 235 L 302 231 L 296 226 L 300 225 L 305 218 L 309 220 L 326 220 L 331 215 L 334 215 L 338 220 L 344 217 L 348 221 L 361 220 L 366 236 L 369 236 L 373 229 L 377 233 L 409 232 L 417 236 L 420 232 L 438 230 L 443 232 L 444 228 L 448 226 L 454 227 L 456 232 L 460 228 L 466 227 L 470 231 L 478 228 L 537 229 L 554 233 L 554 230 L 543 230 L 541 228 L 544 222 L 554 222 L 558 226 L 580 227 L 584 231 L 592 227 L 599 232 L 603 228 L 611 233 L 618 228 L 625 230 L 634 229 L 643 220 L 658 219 L 661 215 L 669 215 L 674 219 L 679 215 L 687 219 L 692 214 L 702 214 L 709 224 L 715 224 L 719 217 L 723 224 L 738 224 L 741 218 L 772 217 Z" fill="#000073"/>
<path d="M 314 199 L 234 195 L 226 193 L 223 187 L 210 177 L 194 176 L 173 181 L 160 188 L 159 194 L 150 196 L 70 199 L 150 198 L 156 195 L 167 197 L 165 191 L 168 187 L 175 187 L 181 181 L 190 178 L 210 180 L 213 191 L 215 185 L 221 186 L 223 192 L 217 195 L 218 197 Z" fill="#000073"/>
<path d="M 937 199 L 881 196 L 866 193 L 863 190 L 859 192 L 856 187 L 845 185 L 842 181 L 834 178 L 834 171 L 830 173 L 829 170 L 826 175 L 808 174 L 792 177 L 782 184 L 769 189 L 770 191 L 765 194 L 726 194 L 720 196 L 701 196 L 691 199 L 675 199 L 782 196 L 780 189 L 791 179 L 802 176 L 817 176 L 840 181 L 845 186 L 853 186 L 857 190 L 854 194 L 841 196 Z" fill="#000073"/>
<path d="M 242 833 L 388 838 L 417 842 L 494 842 L 512 846 L 538 846 L 558 842 L 693 836 L 718 833 L 786 833 L 717 833 L 532 844 Z" fill="#050201"/>
<path d="M 98 815 L 111 816 L 110 818 L 101 818 L 195 817 L 177 815 Z" fill="#050201"/>
<path d="M 963 726 L 960 737 L 965 740 L 965 747 L 969 749 L 969 755 L 974 759 L 979 770 L 986 774 L 986 778 L 983 778 L 987 781 L 991 795 L 995 800 L 991 795 L 993 787 L 996 790 L 996 795 L 1000 798 L 991 784 L 990 788 L 987 786 L 987 781 L 990 780 L 991 782 L 991 780 L 987 778 L 986 774 L 978 766 L 978 758 L 973 756 L 973 744 L 971 743 L 970 747 L 968 736 L 966 739 L 964 738 Z" fill="#050201"/>
<path d="M 52 729 L 54 731 L 54 727 L 58 723 L 55 719 L 55 714 L 60 708 L 60 702 L 64 697 L 68 682 L 82 658 L 82 653 L 88 648 L 95 634 L 96 626 L 104 616 L 109 603 L 114 600 L 115 596 L 127 583 L 136 565 L 141 561 L 144 551 L 150 546 L 150 542 L 182 508 L 186 510 L 189 503 L 222 487 L 234 486 L 239 489 L 245 487 L 257 488 L 260 483 L 274 481 L 279 484 L 284 482 L 317 481 L 325 483 L 328 487 L 396 488 L 403 485 L 412 491 L 453 490 L 464 496 L 481 498 L 493 496 L 566 497 L 568 496 L 564 494 L 565 492 L 580 490 L 707 491 L 718 487 L 732 487 L 740 490 L 789 490 L 792 492 L 819 489 L 752 490 L 728 486 L 706 490 L 600 489 L 567 491 L 559 493 L 560 495 L 557 497 L 552 497 L 548 495 L 471 495 L 454 490 L 417 490 L 403 485 L 389 487 L 342 486 L 318 481 L 266 481 L 251 486 L 224 486 L 211 491 L 205 491 L 198 495 L 194 501 L 191 500 L 154 535 L 126 582 L 109 603 L 96 625 L 95 631 L 87 643 L 86 649 L 82 653 L 76 668 L 73 670 L 68 686 L 56 711 Z" fill="#050201"/>
<path d="M 469 428 L 438 427 L 434 431 L 428 431 L 419 440 L 410 444 L 404 440 L 401 444 L 393 444 L 398 444 L 403 449 L 410 449 L 436 430 Z" fill="#050201"/>
<path d="M 179 319 L 188 323 L 205 326 L 231 324 L 248 316 L 261 302 L 271 298 L 282 298 L 321 310 L 387 319 L 403 324 L 408 329 L 407 342 L 381 373 L 368 403 L 368 421 L 371 427 L 368 420 L 368 404 L 373 397 L 374 389 L 377 387 L 377 380 L 409 342 L 408 329 L 404 324 L 382 318 L 328 311 L 285 298 L 275 297 L 263 300 L 239 319 L 221 325 L 201 325 Z" fill="#050201"/>
<path d="M 871 289 L 868 285 L 867 277 L 869 296 L 865 305 L 849 319 L 823 329 L 802 326 L 774 310 L 743 307 L 682 314 L 732 309 L 769 311 L 784 317 L 785 320 L 802 329 L 814 333 L 824 333 L 850 321 L 858 315 L 868 304 L 871 298 Z" fill="#050201"/>
<path d="M 965 211 L 911 215 L 955 216 Z" fill="#050201"/>
<path d="M 656 200 L 639 211 L 634 209 L 624 215 L 603 213 L 592 217 L 584 217 L 575 213 L 543 214 L 530 209 L 494 209 L 481 214 L 462 214 L 451 219 L 440 218 L 433 221 L 423 221 L 416 218 L 399 219 L 390 213 L 383 213 L 377 209 L 381 213 L 389 213 L 394 216 L 390 221 L 381 221 L 380 216 L 372 216 L 370 212 L 364 212 L 361 207 L 357 208 L 356 211 L 361 215 L 369 215 L 383 224 L 406 223 L 410 218 L 418 219 L 424 223 L 436 220 L 445 222 L 460 216 L 488 214 L 495 209 L 500 211 L 529 209 L 539 215 L 561 216 L 566 213 L 574 213 L 583 219 L 593 219 L 600 214 L 605 214 L 610 220 L 614 217 L 635 217 L 631 214 L 633 210 L 636 210 L 639 214 L 650 213 L 647 211 L 648 206 Z" fill="#050201"/>
<path d="M 358 199 L 352 195 L 343 197 L 342 194 L 335 192 L 315 191 L 303 186 L 265 187 L 255 182 L 245 181 L 240 177 L 233 177 L 228 173 L 203 172 L 181 173 L 175 177 L 167 178 L 158 183 L 154 182 L 144 187 L 107 186 L 93 191 L 72 192 L 67 194 L 67 196 L 55 197 L 46 203 L 44 213 L 50 221 L 46 218 L 47 212 L 54 212 L 59 216 L 99 215 L 46 212 L 45 206 L 53 198 L 84 195 L 97 192 L 103 187 L 109 187 L 112 190 L 111 193 L 124 193 L 129 188 L 148 187 L 151 184 L 159 184 L 166 179 L 174 178 L 180 174 L 202 173 L 217 175 L 227 173 L 232 178 L 240 177 L 245 182 L 255 182 L 261 187 L 289 188 L 293 190 L 301 186 L 307 187 L 312 192 L 318 193 L 321 196 L 341 198 L 352 196 Z" fill="#050201"/>
<path d="M 841 170 L 843 174 L 852 173 L 856 178 L 864 177 L 874 184 L 884 182 L 897 187 L 923 189 L 925 191 L 929 191 L 932 187 L 937 186 L 943 188 L 946 192 L 954 191 L 957 194 L 954 198 L 962 195 L 970 199 L 965 195 L 960 195 L 938 186 L 924 188 L 872 182 L 864 177 L 858 177 L 853 173 Z" fill="#050201"/>
<path d="M 797 170 L 789 175 L 781 173 L 771 179 L 760 178 L 752 183 L 738 184 L 730 182 L 719 187 L 707 187 L 701 191 L 686 191 L 677 196 L 666 196 L 663 198 L 680 196 L 684 192 L 689 195 L 694 192 L 701 192 L 706 188 L 723 187 L 731 182 L 737 185 L 754 184 L 759 179 L 764 181 L 772 180 L 779 174 L 788 176 Z" fill="#050201"/>
<path d="M 34 815 L 38 818 L 110 817 L 97 815 Z" fill="#000000"/>
<path d="M 989 814 L 901 816 L 914 818 L 983 818 Z" fill="#000000"/>
</svg>