<svg xmlns="http://www.w3.org/2000/svg" viewBox="0 0 1024 1024">
<path d="M 46 854 L 46 885 L 56 914 L 63 924 L 78 938 L 97 948 L 108 951 L 569 952 L 558 934 L 552 914 L 551 854 Z" fill="#fefefe"/>
<path d="M 645 237 L 641 246 L 641 799 L 644 807 L 654 813 L 965 813 L 970 811 L 976 805 L 978 799 L 978 247 L 976 240 L 964 232 L 654 232 Z" fill="#fefefe"/>
<path d="M 90 76 L 81 85 L 77 97 L 77 822 L 573 822 L 579 825 L 584 833 L 584 907 L 588 921 L 598 936 L 608 944 L 628 952 L 650 951 L 672 940 L 685 925 L 692 907 L 693 846 L 649 846 L 631 839 L 615 823 L 608 802 L 608 243 L 615 223 L 633 205 L 651 199 L 693 199 L 693 71 L 104 71 Z" fill="#fefefe"/>
<path d="M 725 51 L 725 199 L 894 199 L 880 199 L 879 196 L 873 194 L 877 190 L 872 190 L 874 191 L 871 192 L 858 189 L 849 184 L 826 184 L 817 181 L 799 182 L 781 175 L 771 162 L 772 145 L 764 130 L 762 107 L 766 100 L 763 96 L 759 95 L 758 90 L 750 84 L 750 81 L 743 72 L 736 67 L 727 67 L 725 65 Z" fill="#fefefe"/>
<path d="M 626 955 L 632 961 L 632 964 L 628 966 L 628 970 L 633 973 L 630 974 L 631 977 L 642 980 L 644 975 L 646 977 L 649 976 L 645 970 L 648 968 L 648 964 L 656 962 L 654 957 L 644 958 L 644 955 L 648 955 Z" fill="#0c73e1"/>
<path d="M 611 977 L 609 976 L 611 974 L 606 973 L 599 963 L 601 962 L 600 955 L 602 950 L 607 949 L 609 946 L 607 947 L 601 940 L 599 941 L 595 934 L 592 933 L 595 938 L 591 942 L 588 941 L 586 947 L 589 948 L 583 953 L 577 953 L 577 951 L 572 956 L 120 956 L 137 956 L 139 958 L 147 958 L 148 956 L 176 956 L 179 959 L 185 957 L 192 958 L 195 964 L 190 975 L 192 980 L 212 980 L 221 977 L 262 979 L 269 975 L 274 975 L 276 978 L 295 980 L 358 980 L 382 977 L 398 980 L 456 980 L 463 976 L 477 975 L 464 969 L 466 965 L 474 963 L 487 963 L 489 965 L 487 967 L 481 967 L 477 971 L 479 975 L 480 973 L 482 974 L 479 977 L 490 979 L 511 978 L 541 982 L 541 980 L 555 978 L 604 980 Z" fill="#0c73e1"/>
<path d="M 59 928 L 64 938 L 74 947 L 80 947 L 82 951 L 91 949 L 86 944 L 82 944 L 81 941 L 77 941 L 63 927 Z" fill="#0c73e1"/>
<path d="M 570 925 L 569 930 L 565 931 L 564 938 L 568 937 L 570 940 L 576 940 L 575 931 L 577 926 Z" fill="#0c73e1"/>
<path d="M 48 904 L 48 907 L 45 909 L 46 914 L 42 918 L 42 921 L 45 923 L 41 924 L 38 931 L 36 930 L 37 928 L 34 928 L 36 930 L 32 934 L 38 932 L 40 934 L 37 935 L 41 937 L 40 939 L 42 938 L 41 933 L 50 927 L 46 924 L 47 919 L 52 920 L 56 916 L 53 916 L 54 912 L 51 911 L 52 909 L 50 909 L 51 907 Z" fill="#0c73e1"/>
<path d="M 18 893 L 21 896 L 19 902 L 23 902 L 24 908 L 29 907 L 32 898 L 30 899 L 21 892 L 20 894 Z" fill="#0c73e1"/>
<path d="M 22 826 L 23 828 L 20 828 L 17 832 L 19 833 L 16 834 L 17 867 L 20 870 L 24 862 L 21 857 L 25 832 Z" fill="#0c73e1"/>
<path d="M 57 851 L 182 851 L 152 850 L 174 849 L 181 844 L 194 845 L 196 847 L 201 845 L 209 846 L 208 841 L 223 836 L 217 834 L 217 831 L 220 829 L 240 833 L 232 835 L 238 841 L 232 846 L 240 849 L 252 849 L 266 844 L 266 840 L 261 834 L 264 830 L 263 828 L 266 827 L 260 827 L 260 825 L 300 825 L 301 827 L 314 830 L 317 833 L 310 837 L 313 841 L 312 844 L 319 848 L 340 848 L 356 845 L 352 838 L 353 836 L 349 834 L 350 832 L 379 835 L 381 825 L 422 825 L 422 827 L 400 827 L 421 827 L 421 830 L 427 835 L 424 839 L 422 836 L 410 835 L 405 840 L 381 839 L 367 843 L 388 850 L 373 851 L 552 851 L 393 850 L 407 846 L 422 847 L 428 843 L 443 843 L 444 846 L 450 849 L 478 847 L 481 845 L 542 849 L 565 843 L 580 834 L 581 907 L 582 832 L 580 832 L 578 826 L 77 825 L 105 826 L 95 827 L 97 829 L 91 835 L 67 836 L 63 843 L 66 847 L 93 849 L 118 847 L 147 850 Z" fill="#0c73e1"/>
<path d="M 986 831 L 984 830 L 979 833 L 973 831 L 960 818 L 970 814 L 966 816 L 722 816 L 736 818 L 732 819 L 734 822 L 731 824 L 741 830 L 742 833 L 735 836 L 737 838 L 773 838 L 788 842 L 733 843 L 962 843 L 953 842 L 972 840 L 970 842 L 974 843 L 974 841 L 981 839 L 978 835 L 985 834 Z" fill="#0c73e1"/>
<path d="M 649 814 L 656 817 L 672 817 L 672 819 L 660 819 L 672 819 L 675 825 L 667 831 L 659 830 L 658 826 L 654 833 L 645 834 L 642 832 L 641 834 L 639 833 L 637 839 L 632 838 L 644 841 L 641 840 L 645 839 L 643 834 L 647 833 L 660 842 L 651 843 L 694 843 L 696 845 L 696 903 L 692 917 L 696 904 L 696 845 L 698 845 L 700 865 L 703 864 L 710 870 L 712 868 L 713 871 L 716 870 L 716 863 L 714 862 L 716 846 L 718 844 L 716 835 L 701 831 L 695 823 L 697 821 L 693 818 L 711 816 L 652 816 Z" fill="#0c73e1"/>
<path d="M 699 784 L 735 784 L 723 783 L 740 782 L 742 780 L 763 783 L 745 784 L 783 784 L 778 783 L 781 782 L 780 780 L 786 775 L 784 773 L 786 772 L 765 770 L 762 771 L 763 775 L 760 777 L 750 776 L 749 773 L 751 771 L 747 769 L 754 760 L 744 758 L 746 756 L 765 756 L 705 756 L 721 757 L 718 766 L 702 778 L 703 784 Z" fill="#0c73e1"/>
<path d="M 142 765 L 143 777 L 152 784 L 155 779 L 156 781 L 160 779 L 168 779 L 170 781 L 184 779 L 201 781 L 213 778 L 204 776 L 205 770 L 199 768 L 206 767 L 211 763 L 225 763 L 228 767 L 234 767 L 243 760 L 236 758 L 236 756 L 259 757 L 253 760 L 254 763 L 251 765 L 254 768 L 251 770 L 253 774 L 251 779 L 255 782 L 252 783 L 293 783 L 289 782 L 298 777 L 297 770 L 293 768 L 295 766 L 293 765 L 294 763 L 303 763 L 308 768 L 304 770 L 306 775 L 300 777 L 303 781 L 308 782 L 304 783 L 316 783 L 314 782 L 326 779 L 333 779 L 335 781 L 348 780 L 352 782 L 322 783 L 366 783 L 364 782 L 374 780 L 408 781 L 423 778 L 439 781 L 457 778 L 495 779 L 498 783 L 542 784 L 542 782 L 544 783 L 544 781 L 548 780 L 550 772 L 549 767 L 547 770 L 540 770 L 531 776 L 520 775 L 521 771 L 518 768 L 518 764 L 523 758 L 521 759 L 520 757 L 538 756 L 541 758 L 539 763 L 547 761 L 539 756 L 152 755 L 154 756 L 148 757 L 144 761 L 144 765 Z" fill="#0c73e1"/>
<path d="M 629 722 L 627 727 L 624 724 L 622 728 L 619 725 L 617 729 L 615 725 L 615 737 L 612 748 L 611 720 L 611 802 L 611 781 L 613 780 L 616 784 L 617 782 L 619 786 L 622 781 L 624 787 L 627 778 L 629 781 Z" fill="#0c73e1"/>
<path d="M 824 704 L 824 773 L 827 776 L 824 771 L 824 764 L 826 763 L 829 772 L 831 770 L 833 772 L 830 776 L 829 774 L 830 778 L 835 779 L 836 777 L 840 782 L 844 783 L 834 785 L 846 782 L 852 784 L 893 784 L 886 783 L 903 778 L 912 783 L 903 784 L 929 784 L 921 783 L 927 780 L 934 780 L 935 777 L 938 778 L 938 770 L 932 771 L 924 767 L 920 762 L 922 757 L 918 755 L 854 756 L 882 757 L 872 762 L 870 769 L 862 774 L 844 776 L 839 769 L 837 752 L 834 751 L 835 748 L 837 749 L 838 738 L 831 738 L 829 740 L 827 738 L 826 744 L 824 744 L 824 712 L 827 715 L 827 722 L 829 716 L 832 722 L 832 714 L 829 710 L 831 706 L 829 705 L 831 700 L 833 702 L 836 701 L 836 697 L 832 697 L 829 703 Z" fill="#0c73e1"/>
<path d="M 864 697 L 870 704 L 870 708 L 866 711 L 869 715 L 877 719 L 892 720 L 902 719 L 905 716 L 915 716 L 916 718 L 913 719 L 918 720 L 918 725 L 916 716 L 919 714 L 915 705 L 924 700 L 922 698 L 928 697 L 909 697 L 905 695 L 908 693 L 880 692 L 876 693 L 877 696 Z" fill="#0c73e1"/>
<path d="M 773 696 L 764 692 L 724 692 L 722 695 L 717 696 L 723 700 L 719 704 L 711 708 L 702 708 L 695 713 L 693 720 L 681 734 L 681 737 L 679 737 L 675 753 L 676 761 L 689 768 L 684 771 L 686 774 L 683 778 L 694 778 L 687 774 L 691 772 L 690 768 L 692 766 L 701 766 L 704 763 L 700 760 L 703 756 L 700 739 L 702 741 L 703 721 L 704 751 L 705 719 L 717 720 L 726 715 L 738 719 L 759 719 L 761 716 L 767 718 L 766 722 L 768 721 L 768 748 L 772 747 L 775 741 L 776 724 L 772 720 L 770 710 L 768 710 L 769 708 L 765 703 Z" fill="#0c73e1"/>
<path d="M 155 703 L 541 704 L 541 702 L 547 701 L 547 699 L 543 702 L 541 701 L 548 697 L 550 687 L 548 679 L 539 676 L 546 679 L 543 680 L 544 687 L 531 697 L 537 703 L 449 703 L 449 701 L 457 700 L 489 701 L 510 696 L 519 698 L 499 694 L 496 688 L 503 681 L 508 681 L 497 680 L 497 676 L 514 676 L 245 675 L 259 677 L 258 680 L 244 680 L 260 687 L 258 689 L 250 689 L 255 693 L 265 693 L 272 697 L 277 696 L 279 698 L 277 699 L 300 702 Z" fill="#0c73e1"/>
<path d="M 203 680 L 210 687 L 201 688 L 204 693 L 201 697 L 205 700 L 226 701 L 246 698 L 242 698 L 240 695 L 243 692 L 242 688 L 234 688 L 223 684 L 225 681 L 232 680 L 217 679 L 218 676 L 234 676 L 209 675 L 214 676 L 215 679 Z" fill="#0c73e1"/>
<path d="M 143 692 L 144 687 L 146 690 L 155 689 L 153 687 L 159 681 L 164 680 L 155 680 L 157 676 L 177 676 L 154 674 L 154 676 L 149 677 L 145 681 Z" fill="#0c73e1"/>
<path d="M 684 638 L 697 639 L 701 637 L 699 634 L 704 633 L 685 630 Z" fill="#0c73e1"/>
<path d="M 528 598 L 448 598 L 448 596 L 504 596 L 393 595 L 148 596 L 144 602 L 143 612 L 147 621 L 156 622 L 154 620 L 157 618 L 182 620 L 177 622 L 527 622 L 496 621 L 498 618 L 522 619 L 526 617 L 524 615 L 526 614 L 525 607 L 522 605 Z" fill="#0c73e1"/>
<path d="M 681 600 L 681 603 L 686 602 L 690 606 L 693 602 L 695 603 L 696 601 L 697 603 L 699 598 L 700 610 L 700 604 L 702 605 L 700 593 L 699 596 L 698 593 L 696 596 L 695 593 L 694 596 L 692 593 L 686 594 L 684 599 Z" fill="#0c73e1"/>
<path d="M 782 590 L 773 589 L 770 591 L 768 589 L 768 607 L 771 610 L 769 615 L 705 615 L 717 615 L 719 621 L 717 623 L 724 632 L 739 641 L 747 642 L 712 643 L 784 643 L 781 642 L 789 637 L 790 628 L 789 623 L 781 618 L 781 606 L 785 608 L 784 602 L 786 601 L 781 593 Z" fill="#0c73e1"/>
<path d="M 824 571 L 824 632 L 827 641 L 832 644 L 911 643 L 887 642 L 891 641 L 890 637 L 892 635 L 912 630 L 916 624 L 919 624 L 920 618 L 918 615 L 854 615 L 874 616 L 868 621 L 863 630 L 853 630 L 852 628 L 848 630 L 850 626 L 858 628 L 863 626 L 856 626 L 855 622 L 853 626 L 850 625 L 852 623 L 849 622 L 852 620 L 844 620 L 843 623 L 841 615 L 840 623 L 837 614 L 834 616 L 831 613 L 831 607 L 829 614 L 828 609 L 825 622 Z" fill="#0c73e1"/>
<path d="M 685 551 L 725 552 L 701 553 L 701 556 L 714 559 L 706 561 L 698 568 L 703 578 L 764 578 L 768 573 L 783 571 L 783 565 L 786 559 L 788 559 L 787 554 L 791 554 L 786 551 Z" fill="#0c73e1"/>
<path d="M 938 552 L 937 550 L 834 551 L 840 552 L 838 553 L 841 557 L 839 558 L 839 571 L 842 578 L 840 581 L 827 583 L 827 599 L 837 605 L 836 611 L 838 607 L 842 612 L 842 609 L 845 608 L 845 600 L 847 599 L 845 590 L 849 592 L 850 599 L 849 590 L 847 590 L 848 576 L 852 579 L 915 578 L 920 574 L 919 570 L 922 561 L 932 553 Z" fill="#0c73e1"/>
<path d="M 143 539 L 149 545 L 152 544 L 152 546 L 539 545 L 501 544 L 511 543 L 508 541 L 512 539 L 512 534 L 525 530 L 532 522 L 537 522 L 539 519 L 546 521 L 544 518 L 152 517 L 152 519 L 148 519 L 144 526 L 146 523 L 152 524 L 155 518 L 174 518 L 174 520 L 163 521 L 168 523 L 166 526 L 169 531 L 166 534 L 177 539 L 190 536 L 194 526 L 190 525 L 194 521 L 200 520 L 185 520 L 185 518 L 326 518 L 326 520 L 311 520 L 307 523 L 303 523 L 301 520 L 270 521 L 275 523 L 267 526 L 267 531 L 272 533 L 263 537 L 274 536 L 285 543 L 308 543 L 303 542 L 306 540 L 323 539 L 321 538 L 328 536 L 329 539 L 338 544 L 257 545 L 257 543 L 273 543 L 270 541 L 272 539 L 261 539 L 259 534 L 261 532 L 259 533 L 251 529 L 250 526 L 240 529 L 239 526 L 232 523 L 232 520 L 227 520 L 229 523 L 219 525 L 219 528 L 223 531 L 239 532 L 241 534 L 241 538 L 238 541 L 240 545 L 160 545 L 163 536 L 160 535 L 151 540 L 153 541 L 151 544 L 145 540 L 144 536 Z" fill="#0c73e1"/>
<path d="M 611 474 L 611 651 L 612 645 L 624 651 L 623 663 L 616 666 L 615 672 L 611 671 L 611 664 L 611 713 L 611 699 L 614 700 L 615 697 L 617 700 L 620 698 L 624 703 L 628 701 L 629 713 L 630 707 L 633 707 L 634 733 L 635 724 L 638 729 L 637 782 L 638 802 L 641 807 L 638 801 L 638 626 L 638 640 L 635 643 L 634 637 L 633 646 L 631 647 L 624 620 L 626 602 L 629 603 L 630 598 L 633 597 L 635 603 L 634 598 L 636 597 L 638 601 L 638 622 L 638 481 L 637 506 L 634 506 L 634 501 L 632 508 L 629 502 L 627 503 L 625 500 L 621 506 L 619 502 L 619 506 L 615 508 L 613 518 L 611 510 Z" fill="#0c73e1"/>
<path d="M 244 416 L 253 424 L 250 427 L 246 427 L 246 431 L 247 428 L 250 431 L 248 435 L 263 445 L 261 443 L 265 441 L 265 438 L 270 437 Z" fill="#0c73e1"/>
<path d="M 829 410 L 824 420 L 825 497 L 834 501 L 834 503 L 936 503 L 934 502 L 944 497 L 945 485 L 944 490 L 942 486 L 935 486 L 922 491 L 899 494 L 898 497 L 893 491 L 882 491 L 879 485 L 887 482 L 887 476 L 882 476 L 882 474 L 913 474 L 914 478 L 916 478 L 917 474 L 918 478 L 922 477 L 921 474 L 923 472 L 924 474 L 930 469 L 931 465 L 939 455 L 942 455 L 944 450 L 945 456 L 945 439 L 944 444 L 942 439 L 938 441 L 934 438 L 929 438 L 924 443 L 918 441 L 917 474 L 854 474 L 855 476 L 848 476 L 847 469 L 844 466 L 844 457 L 848 453 L 851 456 L 851 446 L 848 448 L 847 443 L 838 442 L 838 434 L 841 434 L 848 424 L 855 422 L 858 418 L 857 415 L 863 409 L 873 410 L 871 413 L 873 420 L 870 425 L 858 428 L 854 433 L 855 437 L 912 437 L 871 436 L 875 434 L 898 435 L 900 432 L 898 430 L 901 429 L 899 428 L 912 425 L 923 433 L 927 431 L 926 426 L 928 423 L 925 419 L 919 417 L 920 412 L 913 411 L 929 409 Z" fill="#0c73e1"/>
<path d="M 679 410 L 677 414 L 681 411 L 685 414 L 687 411 L 691 411 L 691 414 L 697 414 L 705 421 L 709 427 L 709 432 L 705 433 L 702 437 L 765 437 L 766 472 L 767 434 L 769 473 L 767 475 L 703 474 L 698 470 L 699 464 L 700 468 L 701 453 L 702 459 L 702 444 L 699 448 L 697 442 L 696 446 L 695 443 L 694 445 L 690 444 L 686 450 L 679 452 L 674 457 L 674 467 L 675 463 L 679 477 L 681 477 L 680 498 L 676 495 L 675 497 L 679 501 L 684 501 L 684 503 L 785 503 L 787 501 L 782 501 L 786 496 L 786 492 L 781 489 L 782 482 L 780 481 L 784 478 L 778 476 L 780 454 L 782 451 L 784 453 L 782 451 L 784 441 L 791 433 L 794 433 L 796 428 L 793 412 L 788 409 Z" fill="#0c73e1"/>
<path d="M 212 377 L 212 381 L 209 385 L 206 384 L 214 398 L 217 399 L 217 402 L 219 394 L 222 392 L 225 395 Z" fill="#0c73e1"/>
<path d="M 611 311 L 611 468 L 611 445 L 614 448 L 629 451 L 631 446 L 634 448 L 635 443 L 634 429 L 631 432 L 629 426 L 626 426 L 625 420 L 627 398 L 629 405 L 629 381 L 627 386 L 624 383 L 623 386 L 618 386 L 615 392 L 611 391 L 612 341 L 615 342 L 616 357 L 617 355 L 619 360 L 622 357 L 624 365 L 626 357 L 628 357 L 628 360 L 629 345 L 625 343 L 624 319 L 623 327 L 617 328 L 613 332 L 611 330 Z" fill="#0c73e1"/>
<path d="M 676 313 L 678 340 L 681 346 L 679 347 L 679 353 L 675 355 L 683 361 L 937 361 L 937 359 L 939 360 L 945 354 L 945 336 L 944 347 L 942 341 L 939 343 L 936 341 L 930 345 L 926 344 L 923 340 L 924 329 L 932 325 L 937 326 L 938 323 L 940 324 L 940 310 L 938 313 L 937 308 L 932 310 L 931 307 L 922 307 L 918 301 L 918 330 L 916 333 L 703 332 L 700 307 L 699 309 L 694 298 L 684 295 L 679 297 Z" fill="#0c73e1"/>
<path d="M 677 278 L 679 283 L 690 282 L 705 273 L 715 274 L 716 279 L 710 282 L 712 286 L 705 290 L 914 290 L 873 289 L 881 286 L 891 287 L 906 284 L 909 280 L 905 279 L 911 278 L 923 266 L 922 262 L 937 263 L 684 261 L 684 263 L 679 263 L 677 267 L 680 266 Z" fill="#0c73e1"/>
<path d="M 981 245 L 980 803 L 985 797 L 985 794 L 984 797 L 982 796 L 981 786 L 983 786 L 984 792 L 983 786 L 987 776 L 987 772 L 981 768 L 981 701 L 984 703 L 987 698 L 985 671 L 983 679 L 981 668 L 981 633 L 987 628 L 988 613 L 987 600 L 984 600 L 983 603 L 981 602 L 981 541 L 985 536 L 987 537 L 987 518 L 984 515 L 981 518 L 981 507 L 983 508 L 987 504 L 985 487 L 990 480 L 988 473 L 992 471 L 987 467 L 987 458 L 985 463 L 984 459 L 984 466 L 981 465 L 981 374 L 983 374 L 984 380 L 986 377 L 984 369 L 984 372 L 981 372 Z" fill="#0c73e1"/>
<path d="M 918 207 L 908 208 L 910 211 L 904 211 L 905 213 L 898 216 L 897 219 L 881 216 L 879 219 L 883 221 L 879 223 L 880 227 L 877 228 L 890 228 L 894 224 L 888 222 L 894 219 L 903 219 L 907 222 L 897 224 L 906 224 L 908 221 L 912 221 L 912 218 L 915 216 L 912 214 L 914 212 L 912 210 Z" fill="#0c73e1"/>
<path d="M 727 228 L 797 228 L 800 226 L 812 228 L 814 225 L 821 225 L 824 228 L 843 228 L 849 223 L 856 223 L 858 225 L 855 220 L 866 220 L 869 217 L 866 214 L 869 207 L 837 207 L 836 210 L 828 214 L 821 214 L 820 211 L 816 211 L 815 214 L 809 214 L 807 209 L 810 207 L 766 206 L 760 214 L 742 215 L 734 221 L 737 222 L 734 224 L 737 225 L 737 228 Z" fill="#0c73e1"/>
<path d="M 700 155 L 699 169 L 702 173 L 702 181 L 699 184 L 699 201 L 694 203 L 668 203 L 688 203 L 690 205 L 688 207 L 692 208 L 688 215 L 672 214 L 673 217 L 670 219 L 672 220 L 668 223 L 653 222 L 649 219 L 651 216 L 656 215 L 654 213 L 659 208 L 658 205 L 652 205 L 651 207 L 645 207 L 643 205 L 645 204 L 637 205 L 637 207 L 633 207 L 632 210 L 630 209 L 620 218 L 620 221 L 624 216 L 625 221 L 619 223 L 618 225 L 620 226 L 615 231 L 617 233 L 613 236 L 614 238 L 615 236 L 617 237 L 615 240 L 617 247 L 624 254 L 638 259 L 638 375 L 636 379 L 634 378 L 634 396 L 635 384 L 638 390 L 638 478 L 638 244 L 640 245 L 639 241 L 643 236 L 642 233 L 645 227 L 648 229 L 680 228 L 677 227 L 684 219 L 697 218 L 699 213 L 697 208 L 703 201 L 706 205 L 710 204 L 710 191 L 713 187 L 715 175 L 711 170 L 709 162 L 701 160 Z" fill="#0c73e1"/>
<path d="M 720 123 L 714 127 L 710 123 L 705 125 L 701 132 L 700 128 L 700 145 L 700 136 L 702 136 L 702 142 L 703 138 L 705 145 L 706 143 L 707 145 L 716 131 L 720 130 Z" fill="#0c73e1"/>
<path d="M 48 94 L 48 822 L 49 820 L 53 821 L 66 816 L 66 813 L 57 809 L 53 794 L 51 796 L 48 791 L 48 621 L 50 623 L 53 622 L 53 614 L 48 614 L 48 583 L 53 585 L 55 575 L 53 557 L 50 556 L 50 566 L 48 566 Z" fill="#0c73e1"/>
<path d="M 708 64 L 696 70 L 696 200 L 696 73 L 700 76 L 699 97 L 702 92 L 707 93 L 711 90 L 717 75 L 716 67 Z" fill="#0c73e1"/>
<path d="M 91 52 L 87 48 L 79 53 L 73 52 L 70 57 L 73 61 L 79 61 L 87 57 Z" fill="#0c73e1"/>
<path d="M 114 41 L 117 43 L 115 44 L 122 45 L 127 49 L 122 51 L 125 57 L 124 60 L 129 66 L 135 64 L 137 61 L 135 53 L 141 49 L 161 49 L 168 54 L 178 49 L 180 53 L 178 55 L 179 59 L 173 59 L 172 61 L 182 61 L 184 59 L 184 54 L 188 52 L 180 51 L 180 49 L 199 48 L 211 50 L 207 56 L 200 57 L 205 64 L 210 65 L 221 60 L 217 55 L 217 50 L 234 46 L 244 48 L 257 46 L 264 51 L 265 56 L 260 62 L 261 65 L 265 66 L 291 64 L 296 59 L 295 53 L 303 46 L 312 46 L 313 48 L 325 51 L 327 59 L 320 59 L 320 61 L 330 61 L 331 53 L 360 49 L 367 53 L 368 56 L 364 57 L 364 61 L 371 66 L 380 62 L 376 58 L 371 57 L 373 55 L 371 53 L 380 50 L 386 50 L 386 52 L 390 53 L 388 57 L 390 59 L 385 59 L 383 62 L 413 60 L 419 64 L 428 60 L 421 61 L 416 56 L 426 53 L 432 56 L 442 56 L 444 58 L 443 61 L 451 63 L 456 61 L 454 58 L 457 51 L 469 52 L 473 60 L 479 60 L 481 65 L 489 65 L 497 59 L 514 55 L 516 49 L 525 50 L 524 52 L 527 55 L 533 51 L 543 54 L 547 52 L 546 49 L 558 47 L 563 43 L 568 44 L 572 48 L 591 53 L 599 49 L 610 48 L 614 43 L 621 43 L 635 48 L 647 46 L 659 53 L 682 53 L 688 57 L 691 57 L 696 50 L 702 50 L 708 55 L 714 53 L 715 55 L 720 55 L 721 53 L 722 55 L 723 48 L 716 41 L 700 40 Z" fill="#0c73e1"/>
<path d="M 20 878 L 22 877 L 24 880 L 25 878 L 36 891 L 39 900 L 41 899 L 46 902 L 47 897 L 44 886 L 45 852 L 552 852 L 554 854 L 554 868 L 555 857 L 556 862 L 557 859 L 558 862 L 561 859 L 563 863 L 564 861 L 567 864 L 565 868 L 568 871 L 571 869 L 572 872 L 577 872 L 578 877 L 580 865 L 579 867 L 578 858 L 574 854 L 576 846 L 560 845 L 545 850 L 529 850 L 524 848 L 504 850 L 497 846 L 449 850 L 443 844 L 428 844 L 422 848 L 407 847 L 403 850 L 397 850 L 552 850 L 552 852 L 373 852 L 373 850 L 383 850 L 366 844 L 343 849 L 319 849 L 311 844 L 312 841 L 308 836 L 294 834 L 291 832 L 293 830 L 285 830 L 290 833 L 286 834 L 282 841 L 290 842 L 290 846 L 276 845 L 274 842 L 277 841 L 273 837 L 267 845 L 252 850 L 240 850 L 232 847 L 237 842 L 235 838 L 224 836 L 208 842 L 209 847 L 201 846 L 196 848 L 194 846 L 181 845 L 174 850 L 153 850 L 182 850 L 182 852 L 57 852 L 57 850 L 146 850 L 67 850 L 62 844 L 65 836 L 64 831 L 59 829 L 47 835 L 39 842 L 29 840 L 25 843 L 24 854 L 31 864 L 29 869 L 24 870 L 23 874 L 20 875 Z" fill="#0a70de"/>
<path d="M 579 828 L 582 833 L 582 908 L 580 908 L 580 898 L 578 896 L 577 898 L 572 897 L 563 889 L 562 898 L 557 901 L 555 900 L 553 882 L 555 920 L 560 934 L 558 927 L 561 926 L 562 930 L 565 925 L 570 923 L 574 926 L 577 925 L 583 930 L 589 932 L 591 930 L 603 943 L 610 947 L 594 934 L 584 916 L 582 907 L 582 833 Z" fill="#0a70de"/>
<path d="M 153 784 L 539 784 L 466 783 L 498 782 L 480 779 L 457 779 L 440 782 L 426 779 L 408 782 L 365 782 L 421 782 L 421 784 L 300 784 L 300 782 L 307 782 L 303 782 L 299 778 L 300 776 L 290 782 L 295 782 L 295 784 L 234 783 L 254 782 L 246 779 L 246 776 L 248 776 L 245 776 L 242 780 L 228 779 L 226 782 L 221 782 L 214 778 L 201 782 L 185 780 L 180 782 L 158 781 Z" fill="#0a70de"/>
<path d="M 705 721 L 765 721 L 766 718 L 738 720 L 726 716 L 717 721 Z" fill="#0a70de"/>
<path d="M 848 710 L 849 713 L 847 714 L 850 719 L 847 720 L 848 726 L 845 735 L 848 741 L 845 742 L 845 744 L 848 744 L 848 751 L 853 753 L 854 721 L 915 721 L 916 738 L 917 723 L 915 720 L 919 718 L 917 716 L 916 719 L 915 717 L 905 717 L 894 721 L 877 720 L 860 708 L 855 708 L 854 706 Z" fill="#0a70de"/>
<path d="M 946 704 L 945 708 L 944 705 L 935 707 L 924 716 L 924 719 L 935 724 L 935 727 L 942 732 L 944 737 L 944 729 L 946 729 L 946 768 L 944 768 L 944 743 L 941 774 L 945 776 L 941 782 L 946 774 Z" fill="#0a70de"/>
<path d="M 796 701 L 793 704 L 784 705 L 774 713 L 774 719 L 778 720 L 781 726 L 788 730 L 788 742 L 785 742 L 785 749 L 780 756 L 782 761 L 780 764 L 788 767 L 788 775 L 784 776 L 781 780 L 782 782 L 779 783 L 784 783 L 784 785 L 694 785 L 698 781 L 694 781 L 691 778 L 683 779 L 682 777 L 683 781 L 681 783 L 676 779 L 686 785 L 784 785 L 790 783 L 796 775 L 794 778 L 789 774 L 791 771 L 789 770 L 793 769 L 794 766 L 795 770 L 796 766 L 797 773 Z" fill="#0a70de"/>
<path d="M 615 698 L 613 704 L 612 701 L 612 720 L 620 722 L 627 717 L 628 704 L 624 704 L 620 699 L 617 701 Z" fill="#0a70de"/>
<path d="M 534 702 L 527 696 L 522 696 L 519 699 L 510 697 L 489 702 L 449 702 Z" fill="#0a70de"/>
<path d="M 825 697 L 823 701 L 823 775 L 829 783 L 835 785 L 934 785 L 835 785 L 835 783 L 842 783 L 833 775 L 832 778 L 828 776 L 832 772 L 828 772 L 826 764 L 825 771 L 828 776 L 825 777 L 825 773 L 823 773 L 823 703 L 827 695 L 832 692 Z" fill="#0a70de"/>
<path d="M 143 696 L 152 704 L 540 704 L 548 700 L 551 694 L 548 695 L 549 697 L 547 697 L 548 699 L 545 702 L 543 700 L 544 702 L 540 704 L 154 703 L 299 702 L 277 700 L 277 697 L 272 698 L 265 694 L 255 694 L 249 689 L 245 689 L 241 695 L 247 698 L 244 700 L 226 702 L 205 701 L 200 697 L 203 695 L 202 689 L 190 683 L 178 689 L 175 694 L 164 694 L 163 690 L 161 693 L 146 696 L 149 698 L 146 700 Z" fill="#0a70de"/>
<path d="M 613 648 L 612 669 L 613 666 L 615 671 L 619 653 Z" fill="#0a70de"/>
<path d="M 677 640 L 683 644 L 749 644 L 711 644 L 711 642 L 721 642 L 710 638 L 687 639 L 683 642 Z" fill="#0a70de"/>
<path d="M 552 609 L 549 600 L 544 596 L 526 594 L 539 594 L 544 597 L 535 601 L 538 602 L 528 608 L 527 614 L 525 614 L 526 618 L 520 621 L 508 621 L 505 619 L 498 619 L 497 621 L 527 621 L 527 623 L 177 623 L 177 621 L 181 621 L 176 620 L 155 621 L 157 622 L 153 623 L 149 622 L 142 613 L 143 602 L 147 597 L 142 604 L 143 616 L 152 623 L 542 623 L 549 618 Z" fill="#0a70de"/>
<path d="M 792 553 L 784 565 L 785 570 L 783 573 L 765 574 L 765 578 L 761 580 L 732 580 L 766 580 L 767 593 L 768 582 L 770 583 L 774 578 L 775 580 L 778 575 L 785 582 L 785 588 L 788 590 L 790 600 L 790 617 L 793 616 L 793 620 L 790 619 L 790 635 L 792 634 L 793 636 L 789 638 L 791 639 L 789 643 L 786 640 L 786 644 L 760 644 L 787 644 L 796 635 L 797 561 Z" fill="#0a70de"/>
<path d="M 939 551 L 942 554 L 938 557 L 933 557 L 928 563 L 928 569 L 932 577 L 930 585 L 917 578 L 915 580 L 870 580 L 915 580 L 916 612 L 917 597 L 921 610 L 927 608 L 931 610 L 930 628 L 926 636 L 916 634 L 907 641 L 912 642 L 912 644 L 882 644 L 937 644 L 944 638 L 946 634 L 947 563 L 945 557 Z" fill="#0a70de"/>
<path d="M 919 549 L 836 549 L 827 553 L 823 559 L 823 634 L 829 642 L 825 637 L 828 632 L 825 636 L 825 630 L 823 632 L 823 567 L 825 567 L 825 575 L 825 571 L 831 569 L 832 572 L 833 570 L 834 572 L 836 569 L 838 570 L 837 558 L 834 556 L 837 555 L 837 552 L 834 552 L 834 550 Z" fill="#0a70de"/>
<path d="M 736 549 L 687 549 L 675 556 L 673 560 L 673 633 L 676 638 L 675 636 L 682 629 L 682 623 L 676 611 L 675 622 L 673 622 L 673 589 L 675 589 L 676 598 L 684 588 L 691 588 L 694 583 L 687 581 L 687 577 L 679 563 L 679 558 L 675 556 L 683 550 Z" fill="#0a70de"/>
<path d="M 259 526 L 263 530 L 260 534 L 261 538 L 272 538 L 272 541 L 266 542 L 272 541 L 274 543 L 257 544 L 286 544 L 274 537 L 263 538 L 263 535 L 271 533 L 266 531 L 267 529 L 264 525 Z" fill="#0a70de"/>
<path d="M 240 538 L 239 533 L 223 532 L 218 526 L 208 521 L 195 526 L 190 537 L 180 540 L 171 538 L 165 533 L 163 535 L 161 533 L 163 528 L 157 526 L 157 529 L 164 536 L 163 544 L 237 544 Z" fill="#0a70de"/>
<path d="M 153 517 L 541 517 L 547 521 L 534 525 L 523 532 L 513 534 L 513 539 L 509 541 L 512 543 L 505 544 L 539 544 L 539 546 L 155 546 L 541 546 L 551 536 L 549 523 L 541 517 Z" fill="#0a70de"/>
<path d="M 269 450 L 296 465 L 312 471 L 348 479 L 342 476 L 344 475 L 341 478 L 332 475 L 335 471 L 331 467 L 339 467 L 332 466 L 332 464 L 328 465 L 328 463 L 324 464 L 324 462 L 311 460 L 309 457 L 306 458 L 304 455 L 301 456 L 299 453 L 293 452 L 293 450 L 284 454 L 288 452 L 286 455 L 290 457 L 285 459 Z" fill="#0a70de"/>
<path d="M 637 431 L 635 434 L 635 448 L 632 455 L 628 451 L 612 450 L 612 475 L 617 475 L 622 481 L 617 489 L 616 485 L 613 485 L 612 507 L 613 504 L 616 506 L 616 492 L 619 495 L 624 492 L 625 487 L 622 481 L 624 481 L 624 477 L 631 467 L 633 468 L 632 471 L 635 472 L 633 474 L 635 476 L 634 490 L 637 490 Z" fill="#0a70de"/>
<path d="M 797 421 L 797 435 L 791 443 L 791 472 L 784 479 L 782 489 L 787 491 L 789 498 L 783 501 L 785 499 L 787 502 L 686 503 L 784 503 L 790 501 L 795 496 L 797 490 Z" fill="#0a70de"/>
<path d="M 680 410 L 673 418 L 673 491 L 673 483 L 676 482 L 676 475 L 675 478 L 673 476 L 673 440 L 675 440 L 677 448 L 683 433 L 691 433 L 692 431 L 694 435 L 694 429 L 700 427 L 699 423 L 694 420 L 688 424 L 688 422 L 676 417 L 675 415 Z" fill="#0a70de"/>
<path d="M 836 408 L 937 409 L 938 426 L 944 443 L 944 429 L 946 429 L 946 476 L 944 476 L 944 457 L 942 469 L 936 474 L 930 475 L 923 487 L 926 489 L 930 486 L 942 485 L 944 489 L 945 484 L 946 492 L 947 422 L 941 411 L 934 408 Z" fill="#0a70de"/>
<path d="M 546 378 L 544 378 L 545 376 L 542 378 L 543 380 L 541 380 L 537 389 L 528 398 L 529 400 L 521 406 L 515 415 L 479 443 L 482 445 L 480 447 L 476 447 L 476 445 L 471 446 L 469 449 L 465 449 L 465 451 L 463 450 L 456 455 L 454 454 L 454 456 L 449 456 L 450 459 L 444 468 L 440 469 L 438 465 L 435 465 L 437 462 L 434 461 L 434 463 L 426 463 L 423 466 L 417 465 L 417 467 L 405 467 L 405 469 L 397 468 L 397 470 L 349 469 L 368 471 L 371 474 L 371 479 L 374 480 L 357 481 L 385 482 L 430 475 L 467 461 L 497 443 L 526 417 L 547 389 L 541 397 L 539 393 L 541 389 L 544 389 Z" fill="#0a70de"/>
<path d="M 616 362 L 615 367 L 612 367 L 612 391 L 613 387 L 615 391 L 616 380 L 622 375 L 620 368 L 616 369 Z" fill="#0a70de"/>
<path d="M 186 303 L 186 314 L 183 322 L 182 318 L 184 330 L 185 326 L 191 332 L 190 340 L 194 342 L 194 355 L 198 354 L 200 358 L 197 351 L 198 348 L 196 348 L 196 343 L 194 343 L 195 340 L 193 340 L 194 336 L 193 338 L 191 334 Z" fill="#0a70de"/>
<path d="M 862 289 L 860 287 L 848 287 L 841 283 L 844 282 L 841 281 L 843 280 L 832 280 L 829 276 L 821 278 L 809 277 L 799 287 L 753 289 Z" fill="#0a70de"/>
<path d="M 686 261 L 937 262 L 937 264 L 930 264 L 931 267 L 921 273 L 919 278 L 921 284 L 917 285 L 917 287 L 881 287 L 878 289 L 915 289 L 915 291 L 704 291 L 703 329 L 704 291 L 915 291 L 916 309 L 917 295 L 919 296 L 920 294 L 924 300 L 930 297 L 937 299 L 942 314 L 939 326 L 942 325 L 942 330 L 940 332 L 942 332 L 944 338 L 944 304 L 946 304 L 946 348 L 947 280 L 945 268 L 938 262 Z" fill="#0a70de"/>
<path d="M 652 231 L 645 231 L 646 233 L 642 236 L 639 244 L 640 804 L 637 802 L 637 786 L 635 788 L 635 802 L 638 803 L 637 805 L 640 808 L 638 808 L 638 811 L 635 808 L 635 817 L 632 824 L 628 823 L 625 827 L 621 827 L 618 824 L 619 822 L 616 821 L 620 818 L 619 814 L 616 813 L 616 809 L 612 812 L 610 802 L 610 311 L 612 311 L 612 317 L 614 317 L 612 319 L 612 328 L 622 327 L 623 315 L 625 315 L 625 322 L 626 313 L 627 322 L 628 311 L 627 307 L 627 311 L 625 311 L 625 303 L 627 303 L 627 305 L 625 289 L 627 290 L 631 285 L 633 286 L 632 288 L 635 289 L 637 287 L 637 259 L 624 255 L 616 247 L 614 240 L 616 237 L 614 239 L 612 237 L 612 234 L 614 235 L 615 233 L 614 229 L 610 243 L 610 803 L 616 821 L 627 834 L 637 838 L 639 832 L 645 833 L 645 840 L 637 840 L 649 844 L 695 845 L 695 900 L 691 917 L 686 926 L 689 922 L 694 928 L 705 928 L 709 931 L 708 942 L 705 941 L 704 943 L 701 941 L 700 947 L 702 951 L 695 954 L 696 956 L 697 954 L 700 955 L 697 958 L 694 958 L 692 955 L 691 959 L 687 957 L 687 961 L 684 960 L 686 962 L 684 966 L 679 965 L 678 967 L 676 965 L 675 967 L 664 966 L 655 968 L 653 973 L 646 978 L 644 976 L 645 979 L 642 981 L 629 976 L 632 973 L 627 970 L 626 957 L 622 954 L 629 954 L 613 948 L 610 950 L 613 951 L 609 952 L 603 959 L 603 968 L 606 972 L 612 974 L 610 976 L 612 977 L 607 981 L 555 979 L 537 983 L 536 981 L 515 981 L 511 979 L 490 980 L 479 978 L 481 974 L 479 976 L 477 972 L 474 972 L 478 974 L 477 976 L 463 977 L 458 981 L 391 981 L 385 978 L 370 981 L 283 981 L 276 979 L 274 976 L 269 976 L 264 980 L 221 978 L 212 981 L 192 981 L 189 977 L 190 968 L 169 967 L 159 964 L 141 967 L 129 966 L 123 961 L 128 957 L 124 959 L 119 957 L 118 959 L 103 956 L 95 960 L 86 960 L 65 955 L 58 959 L 55 958 L 55 949 L 53 951 L 47 947 L 48 942 L 51 942 L 59 927 L 64 927 L 71 934 L 57 918 L 58 923 L 59 921 L 61 924 L 56 924 L 57 926 L 54 927 L 53 931 L 45 932 L 42 935 L 43 938 L 39 940 L 37 937 L 40 937 L 36 935 L 39 934 L 33 934 L 31 931 L 33 928 L 31 928 L 31 919 L 38 914 L 38 910 L 32 909 L 25 913 L 22 909 L 24 918 L 27 921 L 26 923 L 34 937 L 35 935 L 38 938 L 36 939 L 51 956 L 81 975 L 111 983 L 647 983 L 669 977 L 684 969 L 700 955 L 700 952 L 702 953 L 712 940 L 720 922 L 723 908 L 723 846 L 725 844 L 967 844 L 980 841 L 992 833 L 986 832 L 988 833 L 985 835 L 979 835 L 978 838 L 981 836 L 982 839 L 973 843 L 969 842 L 972 841 L 954 842 L 962 842 L 962 844 L 733 844 L 733 842 L 779 842 L 743 842 L 734 837 L 741 833 L 738 828 L 730 824 L 733 822 L 729 817 L 727 819 L 710 817 L 700 822 L 699 820 L 699 826 L 709 833 L 716 834 L 719 838 L 715 862 L 717 863 L 717 870 L 714 869 L 713 872 L 712 869 L 710 871 L 703 865 L 699 865 L 697 845 L 698 905 L 696 905 L 694 913 L 695 845 L 650 843 L 659 842 L 654 838 L 652 839 L 651 835 L 645 833 L 654 832 L 657 828 L 656 823 L 658 819 L 652 817 L 652 815 L 970 815 L 979 803 L 979 801 L 976 808 L 966 815 L 653 815 L 642 807 L 639 800 L 639 244 L 642 238 Z" fill="#0a70de"/>
<path d="M 192 218 L 181 257 L 179 297 L 179 280 L 181 277 L 185 279 L 187 253 L 189 254 L 188 247 L 190 242 L 191 244 L 190 239 L 192 239 L 192 234 L 193 236 L 194 225 L 196 225 L 195 222 L 193 225 L 191 223 Z" fill="#0a70de"/>
<path d="M 556 212 L 559 224 L 562 225 L 561 231 L 562 229 L 567 253 L 569 303 L 567 305 L 566 322 L 564 323 L 561 335 L 562 342 L 556 349 L 554 359 L 552 359 L 553 361 L 551 361 L 552 363 L 550 363 L 551 365 L 549 365 L 550 367 L 548 367 L 549 369 L 545 373 L 548 371 L 552 372 L 554 369 L 556 371 L 554 377 L 567 347 L 576 304 L 576 274 L 571 243 L 564 220 L 561 220 Z" fill="#0a70de"/>
<path d="M 654 230 L 964 230 L 971 233 L 978 240 L 980 246 L 980 799 L 980 244 L 982 244 L 982 292 L 983 276 L 985 277 L 985 286 L 987 287 L 987 304 L 984 309 L 982 304 L 982 333 L 983 320 L 984 324 L 987 324 L 988 342 L 987 347 L 985 347 L 988 358 L 987 365 L 989 362 L 994 375 L 994 383 L 991 386 L 987 385 L 987 388 L 983 391 L 982 383 L 982 434 L 983 420 L 985 422 L 987 444 L 989 441 L 993 448 L 990 453 L 993 459 L 995 476 L 993 487 L 995 504 L 990 510 L 990 514 L 994 518 L 992 528 L 993 540 L 990 546 L 993 562 L 991 566 L 987 566 L 987 573 L 989 572 L 993 576 L 990 587 L 994 593 L 995 620 L 992 628 L 989 631 L 987 630 L 987 634 L 982 638 L 982 663 L 985 656 L 985 648 L 987 650 L 988 648 L 992 649 L 998 654 L 997 662 L 994 664 L 992 677 L 997 687 L 992 702 L 987 706 L 987 721 L 983 722 L 982 719 L 982 749 L 983 747 L 987 748 L 988 766 L 989 753 L 991 757 L 991 774 L 988 787 L 989 784 L 993 794 L 993 801 L 989 807 L 987 806 L 988 808 L 985 811 L 987 816 L 983 820 L 987 825 L 985 826 L 986 830 L 990 831 L 991 828 L 994 831 L 1005 817 L 1009 803 L 1009 242 L 1004 227 L 999 219 L 988 209 L 971 203 L 986 208 L 988 210 L 986 214 L 991 212 L 998 218 L 997 221 L 999 222 L 996 224 L 994 222 L 995 219 L 991 223 L 988 219 L 980 221 L 968 214 L 963 214 L 962 212 L 957 214 L 955 212 L 954 214 L 947 214 L 939 218 L 938 221 L 934 221 L 938 221 L 937 224 L 926 226 L 929 227 L 928 229 L 923 229 L 924 227 L 917 226 L 915 229 L 873 229 L 871 225 L 863 226 L 863 229 L 859 229 L 856 224 L 849 224 L 843 229 L 830 230 L 822 229 L 821 226 L 817 226 L 815 229 L 729 230 L 723 229 L 722 226 L 710 226 L 708 223 L 687 224 L 683 229 Z" fill="#0a70de"/>
<path d="M 226 162 L 219 170 L 221 168 L 222 172 L 218 175 L 216 181 L 210 183 L 197 207 L 199 203 L 200 205 L 205 203 L 214 184 L 225 168 L 227 168 Z" fill="#0a70de"/>
<path d="M 270 127 L 265 127 L 243 144 L 231 156 L 234 156 L 232 160 L 259 134 Z" fill="#0a70de"/>
<path d="M 723 49 L 722 94 L 721 54 L 720 59 L 717 60 L 718 75 L 714 88 L 707 94 L 702 93 L 699 98 L 699 76 L 697 76 L 697 73 L 697 199 L 698 184 L 701 181 L 701 173 L 698 169 L 700 154 L 701 159 L 707 159 L 710 162 L 712 170 L 716 175 L 714 187 L 711 191 L 712 200 L 720 197 L 721 199 L 721 164 L 723 164 L 722 202 L 723 200 L 726 202 L 731 201 L 723 199 Z" fill="#0a70de"/>
<path d="M 698 66 L 668 66 L 652 60 L 649 53 L 616 52 L 602 56 L 602 58 L 606 59 L 605 61 L 592 62 L 585 61 L 576 52 L 563 50 L 540 57 L 513 56 L 497 60 L 489 66 L 481 66 L 479 61 L 464 62 L 456 66 L 446 67 L 417 66 L 413 61 L 384 63 L 377 67 L 366 67 L 358 59 L 357 55 L 351 55 L 337 65 L 313 64 L 309 61 L 302 61 L 292 66 L 265 67 L 259 65 L 260 56 L 258 54 L 229 53 L 224 55 L 221 61 L 210 66 L 205 65 L 196 57 L 186 59 L 181 65 L 175 62 L 167 62 L 166 64 L 162 60 L 161 64 L 155 58 L 156 56 L 145 54 L 139 57 L 145 58 L 142 64 L 129 67 L 123 60 L 122 52 L 114 49 L 112 46 L 105 46 L 104 49 L 99 50 L 94 58 L 82 59 L 76 66 L 64 67 L 62 64 L 66 57 L 62 63 L 61 61 L 52 76 L 53 80 L 50 81 L 52 83 L 51 86 L 54 81 L 56 83 L 55 90 L 52 90 L 50 94 L 48 87 L 49 566 L 50 549 L 55 555 L 56 569 L 61 577 L 55 597 L 51 599 L 52 605 L 54 603 L 58 611 L 57 620 L 55 623 L 50 624 L 49 621 L 49 779 L 50 757 L 55 760 L 63 771 L 63 774 L 58 779 L 58 784 L 61 789 L 59 803 L 64 811 L 66 809 L 73 817 L 74 749 L 75 820 L 76 92 L 81 82 L 93 72 L 104 69 L 696 69 Z" fill="#0a70de"/>
<path d="M 124 960 L 126 964 L 135 966 L 159 963 L 169 966 L 190 967 L 190 970 L 194 965 L 191 961 L 192 959 L 185 958 L 179 960 L 176 957 L 170 957 L 170 959 L 166 957 L 162 959 L 156 958 L 160 957 L 148 957 L 147 959 L 129 957 Z" fill="#0a72e1"/>
<path d="M 55 932 L 55 937 L 53 938 L 57 945 L 58 954 L 61 955 L 60 957 L 65 954 L 71 954 L 86 959 L 95 959 L 103 955 L 119 958 L 118 955 L 113 956 L 112 953 L 109 955 L 105 952 L 99 954 L 98 951 L 86 947 L 89 950 L 82 952 L 79 950 L 80 948 L 74 948 L 67 942 L 59 930 Z" fill="#0a72e1"/>
<path d="M 707 930 L 694 929 L 690 924 L 689 926 L 694 930 L 694 934 L 689 939 L 687 936 L 683 938 L 681 936 L 683 934 L 680 934 L 674 940 L 676 939 L 679 942 L 674 946 L 670 944 L 665 956 L 660 954 L 661 950 L 646 954 L 649 955 L 644 957 L 654 956 L 657 962 L 653 965 L 648 965 L 649 968 L 646 970 L 649 972 L 649 975 L 655 967 L 664 965 L 675 966 L 676 964 L 678 966 L 679 964 L 684 965 L 687 956 L 692 960 L 690 957 L 692 954 L 694 957 L 697 957 L 697 955 L 696 957 L 694 955 L 697 952 L 693 954 L 691 952 L 695 949 L 701 951 L 699 946 L 703 945 L 699 944 L 703 940 L 707 942 Z" fill="#0a72e1"/>
<path d="M 556 920 L 561 935 L 563 935 L 563 939 L 570 947 L 570 950 L 574 946 L 577 947 L 580 943 L 586 946 L 588 940 L 593 940 L 594 936 L 590 933 L 592 932 L 589 933 L 577 927 L 576 941 L 570 941 L 568 938 L 564 939 L 564 931 L 568 930 L 570 924 L 565 926 L 562 931 Z" fill="#0a72e1"/>
<path d="M 25 879 L 19 883 L 17 891 L 22 891 L 25 895 L 33 898 L 30 907 L 24 909 L 21 905 L 21 910 L 22 908 L 25 912 L 32 908 L 39 910 L 39 914 L 32 919 L 33 932 L 35 930 L 33 927 L 37 927 L 38 930 L 40 924 L 44 923 L 41 921 L 45 914 L 44 909 L 46 907 L 48 909 L 48 903 L 50 906 L 46 899 L 46 903 L 41 900 L 39 905 L 34 902 L 38 897 Z" fill="#0a72e1"/>
<path d="M 557 860 L 554 869 L 555 899 L 561 898 L 563 888 L 572 896 L 577 897 L 578 895 L 580 897 L 579 868 L 578 878 L 577 873 L 572 873 L 571 870 L 568 872 L 564 868 L 566 864 L 564 862 L 563 864 L 561 860 L 558 863 Z" fill="#0a72e1"/>
<path d="M 580 835 L 561 845 L 571 844 L 577 846 L 575 854 L 579 858 L 579 866 Z" fill="#0a72e1"/>
<path d="M 350 833 L 354 836 L 353 838 L 357 845 L 381 838 L 405 839 L 410 834 L 422 835 L 424 838 L 426 835 L 420 830 L 421 828 L 399 827 L 422 826 L 381 826 L 382 829 L 379 836 Z" fill="#0a72e1"/>
<path d="M 260 826 L 267 827 L 264 828 L 265 830 L 262 833 L 267 840 L 267 844 L 268 840 L 273 836 L 276 839 L 283 838 L 286 833 L 289 833 L 286 833 L 285 829 L 293 829 L 295 831 L 292 832 L 309 836 L 316 833 L 300 826 Z" fill="#0a72e1"/>
<path d="M 657 818 L 659 819 L 657 823 L 659 829 L 667 830 L 674 825 L 672 820 L 663 821 L 659 819 L 672 818 Z" fill="#0a72e1"/>
<path d="M 50 758 L 50 794 L 54 794 L 58 809 L 66 812 L 67 817 L 49 822 L 47 827 L 41 828 L 43 830 L 41 833 L 30 833 L 27 829 L 31 826 L 26 826 L 24 828 L 26 832 L 24 844 L 29 839 L 39 841 L 47 834 L 59 828 L 65 831 L 65 837 L 69 834 L 91 834 L 96 829 L 95 826 L 104 826 L 77 826 L 75 821 L 73 822 L 71 815 L 66 810 L 65 812 L 58 803 L 60 789 L 57 784 L 57 779 L 62 774 L 62 771 L 54 760 Z" fill="#0a72e1"/>
<path d="M 521 757 L 524 758 L 519 764 L 519 768 L 522 771 L 521 775 L 531 775 L 540 769 L 547 769 L 549 766 L 550 776 L 551 767 L 548 761 L 545 764 L 539 764 L 540 758 L 537 757 L 536 762 L 530 764 L 526 757 Z" fill="#0a72e1"/>
<path d="M 258 757 L 236 757 L 244 760 L 234 768 L 228 768 L 225 764 L 211 764 L 210 766 L 205 765 L 207 766 L 206 768 L 200 768 L 206 770 L 204 775 L 207 777 L 215 777 L 220 774 L 218 772 L 219 769 L 230 769 L 227 775 L 241 779 L 248 775 L 246 778 L 250 778 L 252 775 L 250 770 L 253 768 L 250 765 L 253 763 L 252 760 Z" fill="#0a72e1"/>
<path d="M 720 757 L 705 758 L 703 754 L 704 756 L 701 760 L 705 763 L 701 767 L 692 767 L 692 772 L 688 774 L 692 775 L 695 778 L 694 780 L 699 781 L 698 784 L 694 784 L 703 783 L 701 778 L 717 766 Z" fill="#0a72e1"/>
<path d="M 986 748 L 982 750 L 982 768 L 988 772 L 983 790 L 982 786 L 983 796 L 985 793 L 986 797 L 981 802 L 980 800 L 980 805 L 970 816 L 961 818 L 973 830 L 979 832 L 987 828 L 984 828 L 985 825 L 987 826 L 983 823 L 982 819 L 986 816 L 984 812 L 987 808 L 986 806 L 989 806 L 992 801 L 989 785 L 987 787 L 990 774 L 989 754 L 988 767 L 986 765 Z" fill="#0a72e1"/>
<path d="M 632 707 L 624 721 L 620 723 L 612 721 L 612 747 L 614 725 L 616 724 L 617 728 L 619 724 L 622 727 L 624 723 L 627 726 L 627 723 L 630 722 L 630 781 L 627 779 L 624 788 L 622 782 L 619 787 L 617 783 L 617 788 L 620 788 L 620 796 L 617 797 L 617 801 L 619 798 L 625 801 L 625 805 L 620 810 L 621 818 L 617 821 L 620 822 L 619 824 L 624 827 L 625 831 L 626 819 L 634 817 L 634 808 L 638 810 L 639 808 L 636 805 L 637 803 L 634 802 L 634 788 L 637 783 L 635 783 L 634 787 L 633 746 L 636 745 L 637 751 L 635 754 L 636 752 L 637 754 L 637 729 L 635 728 L 636 736 L 634 737 Z" fill="#0a72e1"/>
<path d="M 50 698 L 50 747 L 55 736 L 55 723 L 50 714 Z" fill="#0a72e1"/>
<path d="M 825 699 L 825 704 L 831 701 L 830 705 L 832 706 L 830 707 L 832 709 L 829 712 L 831 710 L 833 714 L 833 722 L 830 722 L 829 717 L 829 722 L 827 723 L 825 712 L 825 744 L 827 737 L 829 739 L 831 737 L 839 738 L 838 749 L 835 749 L 835 751 L 839 755 L 840 769 L 844 775 L 862 773 L 869 769 L 871 762 L 881 757 L 857 758 L 847 751 L 847 744 L 844 744 L 847 741 L 844 735 L 846 733 L 846 720 L 849 719 L 846 714 L 848 713 L 848 708 L 854 705 L 855 707 L 860 707 L 865 712 L 869 708 L 869 704 L 863 697 L 877 695 L 875 693 L 880 691 L 905 691 L 909 693 L 906 695 L 928 696 L 928 698 L 922 699 L 925 700 L 922 703 L 916 705 L 918 706 L 920 718 L 919 725 L 917 724 L 917 753 L 915 755 L 918 754 L 923 757 L 921 762 L 924 766 L 932 770 L 939 770 L 939 778 L 937 780 L 935 778 L 937 782 L 934 784 L 938 784 L 944 776 L 939 772 L 944 742 L 945 754 L 945 729 L 944 738 L 941 732 L 934 727 L 934 724 L 932 725 L 924 720 L 923 716 L 935 706 L 944 704 L 945 707 L 946 702 L 943 701 L 944 699 L 940 700 L 936 694 L 942 695 L 935 691 L 834 691 Z" fill="#0a72e1"/>
<path d="M 678 695 L 676 699 L 679 709 L 676 714 L 674 703 L 674 776 L 680 782 L 682 781 L 681 777 L 685 774 L 683 771 L 688 768 L 679 765 L 675 761 L 674 753 L 678 737 L 680 737 L 680 734 L 692 720 L 692 715 L 702 707 L 711 707 L 722 700 L 716 696 L 724 691 L 764 691 L 774 696 L 766 703 L 770 708 L 769 710 L 771 710 L 773 720 L 777 724 L 776 741 L 772 748 L 770 744 L 769 751 L 765 757 L 745 758 L 755 760 L 748 769 L 752 771 L 750 775 L 760 776 L 762 775 L 761 771 L 765 769 L 783 769 L 787 772 L 785 773 L 787 775 L 787 767 L 779 764 L 781 762 L 779 756 L 784 749 L 784 742 L 787 742 L 787 730 L 783 729 L 780 723 L 773 719 L 773 713 L 784 704 L 795 702 L 796 700 L 794 701 L 790 694 L 785 691 L 684 691 Z" fill="#0a72e1"/>
<path d="M 497 688 L 498 692 L 504 695 L 531 696 L 543 687 L 542 680 L 547 679 L 539 677 L 538 674 L 518 674 L 527 674 L 528 677 L 516 677 L 515 675 L 514 677 L 497 677 L 497 679 L 509 681 L 503 682 Z" fill="#0a72e1"/>
<path d="M 259 687 L 243 680 L 258 679 L 258 677 L 244 677 L 244 675 L 207 674 L 199 675 L 203 676 L 195 677 L 194 679 L 170 675 L 178 676 L 157 677 L 155 679 L 165 680 L 159 682 L 154 687 L 155 690 L 146 691 L 144 688 L 142 693 L 145 696 L 153 695 L 153 693 L 161 692 L 163 689 L 164 693 L 170 693 L 169 688 L 171 686 L 179 688 L 190 682 L 200 687 L 209 687 L 202 680 L 214 679 L 214 677 L 208 677 L 209 674 L 234 675 L 234 677 L 218 677 L 218 679 L 232 679 L 232 681 L 225 682 L 224 684 L 230 684 L 234 687 L 242 687 L 244 689 Z" fill="#0a72e1"/>
<path d="M 989 649 L 988 651 L 985 649 L 986 656 L 982 664 L 983 678 L 983 671 L 985 670 L 985 677 L 988 683 L 988 698 L 984 704 L 982 701 L 983 721 L 986 721 L 986 706 L 991 702 L 996 687 L 991 677 L 993 664 L 996 662 L 997 654 Z" fill="#0a72e1"/>
<path d="M 55 631 L 56 637 L 53 640 L 50 639 L 50 688 L 55 686 L 61 676 L 58 669 L 61 657 L 56 653 L 54 644 L 51 644 L 51 641 L 54 641 L 56 637 Z" fill="#0a72e1"/>
<path d="M 445 606 L 445 610 L 448 613 L 454 613 L 457 610 L 463 614 L 472 614 L 476 612 L 477 608 L 452 601 Z" fill="#0a72e1"/>
<path d="M 930 610 L 921 611 L 917 598 L 917 612 L 915 614 L 918 614 L 921 618 L 920 624 L 916 625 L 912 631 L 892 636 L 892 641 L 888 642 L 908 642 L 906 641 L 916 633 L 926 635 L 930 622 Z" fill="#0a72e1"/>
<path d="M 633 598 L 631 598 L 629 604 L 627 602 L 625 614 L 631 646 L 634 636 L 637 640 L 637 631 L 636 633 L 634 632 L 633 614 L 636 610 L 636 620 L 637 605 L 635 604 L 637 601 L 636 599 L 634 604 Z" fill="#0a72e1"/>
<path d="M 151 596 L 504 595 L 504 597 L 448 597 L 528 597 L 528 601 L 523 605 L 526 607 L 526 610 L 533 603 L 537 602 L 535 600 L 540 599 L 540 597 L 544 598 L 539 595 L 168 594 Z" fill="#0a72e1"/>
<path d="M 778 576 L 775 581 L 773 578 L 770 584 L 769 582 L 768 588 L 770 590 L 773 588 L 783 590 L 782 593 L 787 601 L 785 602 L 786 608 L 782 606 L 782 618 L 790 623 L 789 619 L 791 618 L 792 620 L 792 616 L 791 618 L 789 617 L 790 608 L 787 590 L 784 588 L 784 582 Z" fill="#0a72e1"/>
<path d="M 826 571 L 825 621 L 827 609 L 829 609 L 829 613 L 832 606 L 832 613 L 834 615 L 838 614 L 840 622 L 841 614 L 843 622 L 844 619 L 852 619 L 853 621 L 850 622 L 853 623 L 850 624 L 853 625 L 855 621 L 856 625 L 864 626 L 858 629 L 853 627 L 848 629 L 852 627 L 853 629 L 863 629 L 867 621 L 873 616 L 854 616 L 852 612 L 851 593 L 851 599 L 849 600 L 849 595 L 846 591 L 848 596 L 845 603 L 846 608 L 843 609 L 842 613 L 838 608 L 836 612 L 836 605 L 834 603 L 831 604 L 826 599 L 825 588 L 828 581 L 840 580 L 839 572 L 837 570 L 835 573 L 833 571 L 832 573 L 831 570 Z" fill="#0a72e1"/>
<path d="M 56 570 L 54 585 L 52 586 L 49 583 L 50 614 L 54 614 L 54 622 L 57 611 L 54 604 L 51 605 L 50 599 L 54 597 L 60 581 Z" fill="#0a72e1"/>
<path d="M 938 551 L 938 553 L 932 554 L 923 561 L 920 570 L 921 574 L 918 579 L 930 584 L 931 577 L 927 569 L 927 563 L 933 556 L 942 555 Z" fill="#0a72e1"/>
<path d="M 679 553 L 676 557 L 680 558 L 680 563 L 688 577 L 688 581 L 694 582 L 695 585 L 691 589 L 684 589 L 676 599 L 674 597 L 674 589 L 674 622 L 676 610 L 683 623 L 683 629 L 679 632 L 676 639 L 678 638 L 683 641 L 683 631 L 691 629 L 693 631 L 703 631 L 705 633 L 699 635 L 702 637 L 700 638 L 710 637 L 722 642 L 746 642 L 739 642 L 724 633 L 716 623 L 718 621 L 716 619 L 717 616 L 708 616 L 703 619 L 704 614 L 701 610 L 701 604 L 700 611 L 698 607 L 699 599 L 697 604 L 696 602 L 695 604 L 693 603 L 690 607 L 688 606 L 689 604 L 681 604 L 680 600 L 683 599 L 686 593 L 692 592 L 694 595 L 695 592 L 696 595 L 698 592 L 699 595 L 698 586 L 705 579 L 761 579 L 703 579 L 697 568 L 706 560 L 713 559 L 701 557 L 700 553 L 724 552 L 683 551 Z" fill="#0a72e1"/>
<path d="M 233 520 L 233 523 L 236 525 L 244 525 L 245 527 L 250 525 L 251 528 L 259 532 L 262 531 L 258 526 L 260 524 L 264 524 L 266 528 L 267 525 L 274 523 L 261 521 L 262 524 L 252 524 L 251 521 L 243 521 L 244 524 L 239 524 L 240 521 Z" fill="#0a72e1"/>
<path d="M 174 519 L 155 519 L 152 525 L 145 525 L 144 523 L 145 526 L 142 528 L 145 541 L 151 543 L 156 535 L 161 535 L 160 531 L 156 529 L 157 525 L 161 525 L 164 528 L 162 533 L 165 532 L 165 525 L 167 523 L 163 522 L 163 519 Z" fill="#0a72e1"/>
<path d="M 726 475 L 730 478 L 728 480 L 730 483 L 745 482 L 747 480 L 745 478 L 749 475 Z" fill="#0a72e1"/>
<path d="M 632 468 L 626 475 L 625 481 L 623 481 L 626 487 L 625 492 L 619 496 L 617 492 L 617 507 L 618 502 L 621 505 L 624 499 L 630 502 L 631 507 L 634 500 L 636 506 L 637 491 L 633 490 L 634 476 L 632 474 L 634 472 L 631 471 Z" fill="#0a72e1"/>
<path d="M 332 467 L 336 471 L 332 474 L 341 477 L 338 476 L 342 475 L 349 479 L 355 478 L 350 475 L 355 473 L 351 473 L 351 471 L 355 471 L 348 469 L 343 471 L 341 467 Z" fill="#0a72e1"/>
<path d="M 944 451 L 943 455 L 939 456 L 931 469 L 926 474 L 922 474 L 922 478 L 918 479 L 917 475 L 917 478 L 914 479 L 913 475 L 903 475 L 902 478 L 898 477 L 896 484 L 892 484 L 889 477 L 892 475 L 882 475 L 888 476 L 888 482 L 880 485 L 881 489 L 893 490 L 898 496 L 899 493 L 922 490 L 922 485 L 927 481 L 927 477 L 941 469 L 944 456 L 945 476 Z" fill="#0a72e1"/>
<path d="M 262 443 L 268 449 L 274 450 L 281 455 L 278 452 L 283 449 L 286 453 L 285 457 L 289 458 L 285 456 L 288 453 L 286 451 L 293 451 L 287 447 L 279 446 L 277 442 L 269 437 Z" fill="#0a72e1"/>
<path d="M 796 429 L 795 433 L 791 434 L 785 441 L 785 448 L 780 457 L 779 476 L 787 477 L 790 472 L 790 443 L 794 440 Z" fill="#0a72e1"/>
<path d="M 983 421 L 982 440 L 984 446 L 982 465 L 983 459 L 985 459 L 985 462 L 987 457 L 988 467 L 993 471 L 989 473 L 991 480 L 986 487 L 988 504 L 983 509 L 982 507 L 982 518 L 984 514 L 988 518 L 988 537 L 985 537 L 982 541 L 984 597 L 982 602 L 984 599 L 987 599 L 989 606 L 988 628 L 986 629 L 985 627 L 986 630 L 982 633 L 982 637 L 986 634 L 986 630 L 991 628 L 994 620 L 993 593 L 989 587 L 992 576 L 986 573 L 986 566 L 991 565 L 992 562 L 989 546 L 992 540 L 991 528 L 993 518 L 989 514 L 989 510 L 994 504 L 992 493 L 994 476 L 992 459 L 989 453 L 992 448 L 989 442 L 988 445 L 986 444 Z" fill="#0a72e1"/>
<path d="M 691 412 L 687 412 L 686 415 L 682 413 L 683 411 L 678 412 L 675 418 L 677 415 L 688 421 L 688 423 L 694 419 L 700 423 L 701 427 L 698 430 L 695 429 L 694 436 L 692 432 L 691 434 L 683 434 L 677 449 L 675 448 L 674 440 L 675 457 L 679 451 L 686 449 L 690 443 L 694 444 L 695 442 L 696 445 L 697 441 L 699 447 L 704 438 L 701 437 L 705 432 L 708 432 L 708 427 L 704 421 L 697 415 L 691 415 Z" fill="#0a72e1"/>
<path d="M 872 410 L 861 411 L 862 413 L 858 415 L 859 418 L 856 422 L 848 425 L 842 434 L 839 434 L 839 442 L 846 442 L 847 437 L 851 434 L 854 435 L 853 433 L 858 427 L 870 424 L 872 420 L 870 413 Z" fill="#0a72e1"/>
<path d="M 724 410 L 727 412 L 725 415 L 730 423 L 740 420 L 744 413 L 743 410 Z" fill="#0a72e1"/>
<path d="M 943 442 L 936 421 L 938 415 L 932 409 L 930 411 L 914 411 L 920 411 L 920 417 L 925 418 L 929 423 L 927 426 L 928 431 L 923 434 L 912 426 L 900 428 L 902 429 L 899 430 L 901 432 L 898 436 L 872 436 L 912 436 L 918 440 L 917 445 L 918 440 L 924 442 L 929 437 L 934 437 L 938 440 L 942 438 Z" fill="#0a72e1"/>
<path d="M 613 396 L 612 417 L 613 419 L 615 414 L 618 418 L 620 413 L 621 423 L 622 417 L 623 420 L 623 407 L 621 405 L 619 408 L 617 405 L 616 407 L 614 406 Z" fill="#0a72e1"/>
<path d="M 219 389 L 222 393 L 217 401 L 213 396 L 227 411 L 225 412 L 234 419 L 235 423 L 237 422 L 238 425 L 242 425 L 245 429 L 244 431 L 250 436 L 247 433 L 249 432 L 248 429 L 245 431 L 245 427 L 250 426 L 250 424 L 242 414 L 236 411 Z" fill="#0a72e1"/>
<path d="M 196 355 L 194 360 L 196 360 L 201 377 L 206 382 L 206 385 L 209 384 L 212 379 L 201 358 Z" fill="#0a72e1"/>
<path d="M 555 353 L 540 382 L 544 376 L 547 378 L 546 381 L 544 380 L 546 381 L 545 389 L 541 390 L 539 398 L 555 373 L 554 370 L 552 373 L 547 371 Z" fill="#0a72e1"/>
<path d="M 695 343 L 700 344 L 706 349 L 709 341 L 716 343 L 719 337 L 748 337 L 752 333 L 763 333 L 707 333 L 708 337 L 706 339 L 702 337 Z" fill="#0a72e1"/>
<path d="M 924 330 L 924 340 L 926 343 L 930 344 L 936 340 L 938 342 L 942 340 L 944 346 L 944 339 L 941 332 L 939 332 L 941 325 L 939 327 L 938 324 L 937 327 L 932 326 Z" fill="#0a72e1"/>
<path d="M 983 321 L 982 372 L 984 368 L 987 372 L 985 381 L 982 379 L 982 374 L 983 390 L 987 384 L 991 385 L 993 383 L 992 369 L 989 363 L 988 366 L 986 365 L 987 358 L 986 351 L 984 351 L 987 342 L 986 324 L 984 325 Z" fill="#0a72e1"/>
<path d="M 917 296 L 917 307 L 918 300 L 922 306 L 931 306 L 932 309 L 937 307 L 939 312 L 940 308 L 937 306 L 936 299 L 930 298 L 924 301 L 920 298 L 920 295 L 919 297 Z" fill="#0a72e1"/>
<path d="M 631 286 L 627 291 L 626 289 L 626 298 L 628 299 L 626 311 L 627 306 L 629 311 L 627 323 L 626 314 L 626 343 L 628 342 L 630 345 L 630 357 L 628 361 L 627 357 L 624 366 L 622 358 L 619 361 L 617 356 L 615 360 L 613 341 L 612 366 L 614 367 L 616 359 L 617 369 L 620 367 L 623 372 L 621 378 L 617 380 L 617 386 L 623 385 L 624 382 L 627 385 L 627 382 L 630 381 L 630 405 L 627 404 L 627 399 L 626 420 L 627 426 L 630 426 L 631 431 L 634 428 L 635 431 L 637 430 L 634 423 L 636 421 L 636 413 L 635 415 L 631 401 L 634 399 L 633 377 L 636 378 L 635 376 L 637 375 L 637 341 L 636 344 L 634 343 L 635 327 L 637 326 L 634 303 L 637 302 L 637 288 L 635 290 Z" fill="#0a72e1"/>
<path d="M 181 278 L 180 299 L 181 281 L 181 316 L 183 321 L 186 297 L 185 280 Z" fill="#0a72e1"/>
<path d="M 679 266 L 674 274 L 677 282 L 674 288 L 674 351 L 679 358 L 676 355 L 680 344 L 678 344 L 675 325 L 678 297 L 684 294 L 691 295 L 696 299 L 699 308 L 701 307 L 702 324 L 702 292 L 707 285 L 708 289 L 711 286 L 709 282 L 715 279 L 715 275 L 705 274 L 690 283 L 679 284 L 676 278 Z" fill="#0a72e1"/>
<path d="M 934 263 L 922 263 L 924 266 L 911 279 L 906 279 L 909 279 L 910 282 L 899 286 L 917 286 L 917 284 L 920 284 L 918 280 L 920 273 L 928 269 L 930 263 Z" fill="#0a72e1"/>
<path d="M 830 271 L 833 273 L 831 275 L 832 279 L 843 279 L 842 281 L 845 282 L 842 283 L 848 286 L 860 286 L 849 285 L 846 282 L 850 279 L 851 275 L 844 267 L 847 263 L 863 265 L 864 272 L 869 272 L 868 274 L 873 278 L 882 277 L 879 269 L 874 270 L 871 268 L 872 266 L 878 266 L 880 263 L 874 266 L 867 264 L 874 263 L 835 263 L 839 264 L 839 268 Z" fill="#0a72e1"/>
<path d="M 698 201 L 666 201 L 663 203 L 651 202 L 660 202 L 660 204 L 643 204 L 645 206 L 658 204 L 660 208 L 655 214 L 663 215 L 664 219 L 660 222 L 664 223 L 671 220 L 669 219 L 672 217 L 672 213 L 688 214 L 688 211 L 691 209 L 687 207 L 688 204 L 668 204 L 668 202 L 694 202 L 694 204 L 691 204 L 697 205 L 694 202 Z" fill="#0a72e1"/>
<path d="M 678 227 L 683 228 L 687 223 L 708 222 L 710 225 L 722 225 L 723 228 L 737 227 L 733 224 L 736 222 L 733 221 L 735 218 L 742 214 L 760 213 L 766 205 L 806 205 L 811 207 L 808 209 L 809 213 L 815 213 L 816 210 L 820 210 L 821 213 L 828 213 L 836 209 L 837 206 L 869 206 L 867 214 L 870 217 L 866 221 L 855 221 L 860 224 L 859 228 L 863 228 L 862 226 L 866 224 L 871 224 L 873 228 L 879 227 L 878 223 L 882 221 L 878 219 L 881 215 L 897 218 L 898 215 L 904 213 L 904 210 L 909 211 L 908 207 L 915 205 L 919 207 L 913 210 L 915 211 L 913 214 L 916 216 L 912 222 L 907 223 L 903 220 L 894 220 L 889 222 L 895 224 L 891 228 L 915 228 L 917 225 L 928 228 L 925 226 L 930 223 L 937 223 L 933 221 L 955 211 L 957 213 L 962 211 L 963 213 L 968 213 L 980 220 L 988 218 L 991 222 L 995 218 L 996 221 L 994 223 L 999 221 L 997 222 L 997 218 L 988 213 L 989 210 L 987 214 L 986 210 L 980 206 L 976 207 L 975 205 L 977 204 L 971 207 L 969 202 L 942 202 L 962 202 L 962 207 L 961 204 L 913 205 L 897 201 L 896 203 L 874 201 L 839 203 L 732 201 L 725 204 L 723 201 L 721 202 L 720 198 L 716 201 L 713 200 L 708 206 L 703 202 L 698 208 L 700 209 L 698 218 L 696 220 L 684 220 Z" fill="#0a72e1"/>
<path d="M 51 180 L 50 215 L 55 215 L 61 200 L 55 188 L 54 180 Z" fill="#0a72e1"/>
<path d="M 472 58 L 469 53 L 457 52 L 455 58 L 457 61 L 449 64 L 448 62 L 443 62 L 442 57 L 432 57 L 425 54 L 424 56 L 417 56 L 417 58 L 419 56 L 421 60 L 425 58 L 429 61 L 419 65 L 416 64 L 456 65 L 457 63 L 470 61 Z" fill="#0a72e1"/>
<path d="M 389 53 L 386 53 L 386 51 L 372 53 L 374 55 L 371 56 L 381 61 L 374 65 L 380 65 L 384 62 L 382 61 L 385 58 L 389 59 L 387 57 Z" fill="#0a72e1"/>
<path d="M 131 66 L 142 63 L 144 58 L 138 57 L 145 53 L 156 55 L 156 58 L 161 63 L 161 60 L 163 62 L 166 58 L 170 62 L 172 62 L 173 58 L 178 59 L 177 55 L 179 53 L 177 52 L 178 50 L 168 55 L 161 50 L 141 50 L 136 53 L 138 61 L 135 65 Z" fill="#0a72e1"/>
<path d="M 176 62 L 181 64 L 186 58 L 193 58 L 195 56 L 201 58 L 199 57 L 205 56 L 211 51 L 199 49 L 180 50 L 189 52 L 185 54 L 186 57 L 182 62 Z" fill="#0a72e1"/>
<path d="M 285 65 L 292 65 L 302 60 L 309 60 L 313 63 L 337 64 L 351 54 L 357 54 L 366 66 L 370 66 L 364 63 L 363 57 L 367 56 L 365 52 L 360 50 L 331 54 L 332 60 L 330 62 L 320 62 L 320 58 L 326 59 L 324 57 L 326 53 L 312 47 L 303 47 L 296 53 L 296 61 L 291 65 Z" fill="#0a72e1"/>
<path d="M 217 51 L 221 59 L 224 54 L 229 52 L 258 53 L 261 59 L 264 56 L 263 51 L 257 47 L 251 49 L 234 47 Z" fill="#0a72e1"/>
<path d="M 528 54 L 528 56 L 540 56 L 556 50 L 569 49 L 576 51 L 585 60 L 600 61 L 605 60 L 601 58 L 602 55 L 616 51 L 649 52 L 652 59 L 668 65 L 698 65 L 699 67 L 706 63 L 716 66 L 716 60 L 720 56 L 715 56 L 714 54 L 708 56 L 702 51 L 696 51 L 691 58 L 688 58 L 682 54 L 659 54 L 647 47 L 635 49 L 621 44 L 614 44 L 610 49 L 599 50 L 592 54 L 572 49 L 566 44 L 555 49 L 546 50 L 548 52 L 543 55 L 538 52 Z" fill="#0a72e1"/>
<path d="M 126 49 L 115 45 L 116 43 L 113 41 L 104 41 L 100 44 L 98 42 L 92 43 L 88 46 L 92 52 L 87 58 L 94 57 L 98 50 L 104 48 L 105 45 L 112 45 L 120 50 Z" fill="#0a72e1"/>
<path d="M 287 351 L 289 355 L 286 355 L 286 360 L 294 366 L 299 374 L 310 377 L 316 383 L 318 390 L 325 387 L 337 395 L 348 394 L 346 377 L 316 368 Z" fill="#fef03d"/>
<path d="M 309 288 L 299 289 L 290 283 L 279 281 L 271 282 L 255 290 L 255 294 L 259 292 L 266 305 L 260 304 L 259 306 L 269 311 L 267 314 L 262 313 L 265 316 L 268 315 L 270 320 L 280 328 L 299 297 Z" fill="#fef03d"/>
<path d="M 227 251 L 227 259 L 236 267 L 229 266 L 244 279 L 248 287 L 251 280 L 247 277 L 247 270 L 240 268 L 248 254 L 240 261 L 233 262 L 228 257 Z" fill="#fef03d"/>
<path d="M 305 157 L 296 161 L 285 175 L 276 175 L 274 173 L 275 169 L 266 176 L 266 178 L 271 178 L 268 181 L 270 184 L 287 191 L 281 200 L 262 217 L 264 218 L 264 223 L 257 229 L 261 231 L 260 239 L 263 245 L 263 230 L 266 223 L 278 211 L 288 206 L 313 186 L 314 177 L 320 169 L 313 166 Z" fill="#fef03d"/>
<path d="M 351 157 L 341 157 L 333 154 L 328 160 L 327 165 L 329 162 L 333 164 L 320 180 L 351 167 Z" fill="#fef03d"/>
<path d="M 366 148 L 363 155 L 365 171 L 345 177 L 331 184 L 317 195 L 305 214 L 302 227 L 305 250 L 314 264 L 328 275 L 361 291 L 361 305 L 365 321 L 358 321 L 340 315 L 312 298 L 293 333 L 307 345 L 322 354 L 343 363 L 360 364 L 362 386 L 399 387 L 401 365 L 414 363 L 436 354 L 458 335 L 465 320 L 466 299 L 461 284 L 449 267 L 463 295 L 464 316 L 454 335 L 442 346 L 427 353 L 413 356 L 414 353 L 437 345 L 453 330 L 459 318 L 460 302 L 454 283 L 444 272 L 429 262 L 405 255 L 394 248 L 396 246 L 422 256 L 431 256 L 399 245 L 399 208 L 416 212 L 434 220 L 447 191 L 427 180 L 400 173 L 398 171 L 398 149 Z" fill="#fef03d"/>
<path d="M 440 132 L 434 137 L 437 146 L 450 146 L 460 158 L 459 164 L 451 172 L 433 157 L 426 155 L 425 159 L 434 168 L 444 169 L 451 173 L 453 186 L 459 190 L 457 199 L 470 201 L 472 196 L 480 197 L 482 194 L 497 198 L 507 193 L 485 172 L 470 162 L 467 157 L 484 165 L 507 185 L 506 180 L 510 180 L 523 194 L 519 198 L 516 195 L 510 197 L 512 203 L 506 205 L 508 212 L 500 211 L 491 203 L 484 201 L 473 202 L 481 206 L 485 204 L 495 213 L 497 212 L 518 223 L 519 228 L 515 236 L 496 233 L 495 240 L 483 225 L 483 222 L 479 222 L 477 226 L 471 224 L 462 226 L 459 223 L 453 228 L 444 244 L 438 249 L 458 265 L 471 281 L 478 303 L 478 317 L 485 320 L 492 318 L 493 313 L 496 312 L 494 321 L 497 325 L 491 338 L 496 348 L 494 354 L 495 365 L 485 375 L 484 378 L 490 375 L 484 385 L 484 391 L 497 384 L 496 380 L 502 370 L 504 359 L 510 349 L 514 348 L 518 342 L 518 336 L 511 332 L 516 328 L 524 328 L 527 324 L 531 323 L 530 289 L 538 287 L 525 253 L 517 244 L 519 249 L 517 255 L 512 248 L 511 241 L 515 241 L 513 238 L 516 237 L 526 246 L 537 264 L 537 268 L 536 265 L 540 262 L 541 264 L 543 253 L 541 258 L 539 251 L 541 250 L 535 245 L 535 235 L 537 233 L 532 223 L 532 216 L 541 222 L 540 217 L 547 226 L 535 197 L 524 180 L 497 150 L 469 130 L 467 137 L 455 133 Z" fill="#fef03d"/>
<path d="M 377 118 L 363 117 L 332 123 L 342 132 L 340 139 L 335 142 L 340 140 L 348 141 L 352 136 L 359 133 L 355 133 L 355 129 L 374 125 L 377 123 Z" fill="#fef03d"/>
<path d="M 219 199 L 211 216 L 202 245 L 205 258 L 203 262 L 200 258 L 198 275 L 200 311 L 208 338 L 225 370 L 245 396 L 276 423 L 300 437 L 338 450 L 373 454 L 374 451 L 377 453 L 404 452 L 437 444 L 472 428 L 503 405 L 519 388 L 517 388 L 517 385 L 523 373 L 528 367 L 531 371 L 543 349 L 552 322 L 548 331 L 547 329 L 546 332 L 544 328 L 545 331 L 539 343 L 540 346 L 538 346 L 539 348 L 535 352 L 536 362 L 533 368 L 531 368 L 530 362 L 534 354 L 530 359 L 531 361 L 529 361 L 530 363 L 528 363 L 529 365 L 527 365 L 528 367 L 524 370 L 514 387 L 512 385 L 501 395 L 481 406 L 472 408 L 472 410 L 479 411 L 465 421 L 436 433 L 410 440 L 362 441 L 382 447 L 386 451 L 369 449 L 369 451 L 363 451 L 356 447 L 362 447 L 338 436 L 321 421 L 324 426 L 322 428 L 304 426 L 277 408 L 284 402 L 261 388 L 244 371 L 231 353 L 224 336 L 220 334 L 222 333 L 216 320 L 212 299 L 211 270 L 217 232 L 216 219 L 234 178 Z" fill="#1c77c9"/>
<path d="M 543 337 L 515 393 L 536 365 L 547 342 L 534 367 L 534 356 Z" fill="#134379"/>
<path d="M 259 307 L 256 313 L 257 320 L 254 322 L 257 327 L 253 329 L 270 355 L 280 364 L 281 362 L 283 366 L 297 377 L 297 389 L 299 394 L 303 396 L 302 402 L 308 407 L 310 406 L 311 409 L 313 408 L 320 415 L 323 423 L 338 435 L 366 448 L 386 450 L 356 439 L 356 441 L 351 441 L 348 429 L 353 425 L 360 426 L 362 422 L 385 412 L 385 408 L 391 401 L 350 401 L 348 395 L 347 400 L 346 395 L 336 396 L 325 388 L 318 391 L 315 383 L 310 378 L 297 375 L 292 365 L 277 355 L 276 347 L 280 347 L 281 350 L 285 348 L 275 340 L 285 323 L 279 332 L 277 326 L 266 317 L 263 317 L 260 312 L 261 310 L 265 313 L 268 311 L 264 311 Z" fill="#134379"/>
<path d="M 539 234 L 546 249 L 544 250 L 542 262 L 544 267 L 544 295 L 541 294 L 539 289 L 532 289 L 532 323 L 524 329 L 514 332 L 519 336 L 519 342 L 512 355 L 510 355 L 510 352 L 498 379 L 498 384 L 491 390 L 484 392 L 483 384 L 488 376 L 484 380 L 483 376 L 480 382 L 481 388 L 478 398 L 471 408 L 481 405 L 501 394 L 518 379 L 532 354 L 531 350 L 533 351 L 532 348 L 534 348 L 539 338 L 540 331 L 545 326 L 546 331 L 544 335 L 547 328 L 548 330 L 552 311 L 555 304 L 556 308 L 555 295 L 551 292 L 547 256 L 551 257 L 547 242 Z" fill="#134379"/>
<path d="M 369 110 L 353 109 L 326 114 L 326 112 L 328 112 L 323 113 L 326 114 L 313 120 L 308 119 L 304 123 L 301 122 L 303 123 L 295 128 L 294 132 L 292 131 L 270 143 L 269 141 L 243 165 L 231 180 L 233 180 L 233 183 L 217 219 L 217 250 L 221 263 L 223 262 L 222 265 L 228 267 L 230 271 L 234 271 L 232 272 L 235 271 L 242 278 L 241 280 L 251 293 L 254 293 L 255 289 L 252 287 L 252 284 L 249 288 L 246 287 L 243 280 L 246 276 L 243 274 L 243 279 L 228 266 L 229 264 L 234 266 L 228 262 L 225 253 L 227 250 L 230 257 L 230 249 L 236 236 L 243 231 L 247 231 L 243 230 L 251 225 L 255 226 L 251 231 L 259 227 L 255 227 L 260 223 L 261 216 L 283 196 L 285 191 L 278 190 L 270 185 L 267 181 L 271 177 L 266 179 L 266 174 L 276 167 L 278 168 L 276 170 L 279 172 L 277 174 L 284 174 L 296 160 L 304 156 L 298 153 L 301 148 L 298 148 L 298 151 L 294 153 L 287 145 L 297 141 L 311 143 L 317 139 L 319 140 L 317 138 L 302 140 L 320 132 L 319 130 L 315 133 L 311 132 L 318 128 L 321 129 L 315 125 L 317 122 L 330 121 L 326 120 L 329 118 L 334 118 L 332 120 L 335 121 L 361 117 L 339 117 L 343 114 L 370 112 L 371 114 L 366 116 L 369 117 L 372 114 Z" fill="#134379"/>
<path d="M 47 89 L 46 498 Z" fill="#134379"/>
<path d="M 724 47 L 727 61 L 737 57 L 746 63 L 753 63 L 759 67 L 777 71 L 778 74 L 791 80 L 809 83 L 837 98 L 865 108 L 880 119 L 897 144 L 896 146 L 903 158 L 899 168 L 906 177 L 907 184 L 911 190 L 899 192 L 899 197 L 912 198 L 908 197 L 913 196 L 915 191 L 926 190 L 916 180 L 919 176 L 918 172 L 910 165 L 909 154 L 902 140 L 886 119 L 868 105 L 844 96 L 831 87 L 814 81 L 793 69 L 761 63 L 753 58 L 749 60 L 738 54 L 727 57 Z" fill="#134379"/>
<path d="M 478 411 L 472 411 L 469 407 L 461 414 L 470 409 L 472 412 L 469 416 L 457 419 L 453 424 L 439 430 L 437 429 L 437 431 L 435 426 L 439 423 L 393 433 L 352 431 L 372 434 L 392 433 L 393 435 L 389 437 L 372 438 L 351 435 L 361 440 L 410 439 L 455 425 Z" fill="#bcdba6"/>
<path d="M 216 312 L 222 331 L 221 334 L 225 336 L 232 353 L 245 371 L 261 387 L 285 402 L 278 408 L 304 425 L 322 427 L 317 413 L 319 417 L 313 418 L 295 410 L 290 405 L 302 403 L 305 406 L 301 402 L 302 396 L 299 395 L 301 397 L 300 401 L 282 394 L 268 386 L 253 373 L 252 378 L 245 371 L 244 368 L 246 367 L 244 368 L 240 364 L 236 354 L 230 349 L 218 322 Z" fill="#bcdba6"/>
<path d="M 204 266 L 201 275 L 202 293 L 210 323 L 218 337 L 207 302 Z" fill="#bcdba6"/>
<path d="M 533 216 L 533 223 L 538 233 L 536 235 L 541 234 L 544 240 L 548 242 L 551 256 L 548 256 L 551 290 L 557 296 L 555 283 L 557 267 L 548 225 L 547 227 L 539 217 L 541 223 Z" fill="#bcdba6"/>
<path d="M 366 105 L 369 107 L 367 109 L 373 113 L 372 116 L 378 117 L 375 115 L 380 113 L 409 115 L 433 121 L 452 130 L 443 131 L 467 136 L 467 128 L 429 112 L 392 105 Z" fill="#bcdba6"/>
<path d="M 726 58 L 727 64 L 735 62 L 749 70 L 758 80 L 776 85 L 778 95 L 789 100 L 811 101 L 815 106 L 814 110 L 808 114 L 809 117 L 804 123 L 806 126 L 817 133 L 828 131 L 848 141 L 850 156 L 840 168 L 865 179 L 889 186 L 893 189 L 886 194 L 889 198 L 904 198 L 899 198 L 898 192 L 910 190 L 906 184 L 905 177 L 898 168 L 902 158 L 895 146 L 896 144 L 879 119 L 858 105 L 837 99 L 809 84 L 791 81 L 778 75 L 777 72 L 759 68 L 753 64 L 746 64 L 737 58 L 727 62 Z" fill="#bcdba6"/>
<path d="M 476 302 L 476 307 L 473 307 L 472 310 L 470 302 L 473 290 L 466 276 L 456 265 L 437 252 L 447 262 L 451 262 L 454 271 L 463 278 L 461 282 L 468 302 L 467 319 L 459 336 L 439 354 L 420 363 L 402 366 L 402 387 L 400 389 L 361 388 L 359 386 L 359 366 L 343 365 L 320 355 L 291 333 L 302 314 L 301 306 L 299 305 L 300 301 L 304 300 L 306 305 L 309 298 L 307 299 L 309 290 L 299 300 L 276 340 L 285 342 L 285 346 L 312 364 L 325 366 L 331 369 L 329 370 L 348 375 L 350 378 L 350 400 L 384 399 L 387 397 L 409 398 L 409 382 L 411 378 L 418 378 L 421 375 L 425 376 L 427 373 L 429 374 L 434 372 L 434 370 L 441 369 L 457 358 L 471 340 L 473 329 L 475 328 L 474 325 L 476 324 L 474 322 L 477 317 Z" fill="#010103"/>
<path d="M 457 191 L 451 187 L 452 190 L 448 193 L 434 222 L 400 209 L 401 244 L 405 243 L 404 245 L 407 244 L 417 249 L 413 247 L 415 245 L 420 245 L 421 247 L 428 246 L 413 240 L 408 234 L 408 227 L 410 225 L 415 225 L 436 239 L 442 222 L 454 202 Z" fill="#010103"/>
<path d="M 327 178 L 312 188 L 296 205 L 287 227 L 287 246 L 295 265 L 301 273 L 314 284 L 319 285 L 320 288 L 330 293 L 336 293 L 346 299 L 349 298 L 350 300 L 351 298 L 352 307 L 349 311 L 344 307 L 339 307 L 344 312 L 358 315 L 360 314 L 360 292 L 340 283 L 339 285 L 315 267 L 303 252 L 300 236 L 303 214 L 313 197 L 325 186 L 337 179 L 327 184 L 325 180 Z" fill="#010103"/>
<path d="M 512 164 L 525 178 L 524 174 L 526 176 L 528 174 L 531 177 L 533 175 L 529 174 L 531 172 L 526 166 L 523 166 L 524 163 L 522 161 L 516 168 Z" fill="#010103"/>
<path d="M 357 143 L 354 144 L 355 147 L 353 149 L 353 167 L 331 176 L 336 177 L 342 173 L 350 173 L 339 178 L 360 171 L 361 154 L 357 150 L 359 145 Z" fill="#010103"/>
<path d="M 362 143 L 371 147 L 399 147 L 401 149 L 400 171 L 403 171 L 402 169 L 404 168 L 409 173 L 416 174 L 413 173 L 414 171 L 426 174 L 433 179 L 435 178 L 426 173 L 413 170 L 408 166 L 408 147 L 410 143 Z" fill="#010103"/>
<path d="M 273 128 L 254 141 L 230 166 L 231 168 L 235 163 L 234 161 L 242 157 L 251 148 L 252 143 L 256 144 L 260 136 L 266 137 L 266 140 L 264 142 L 263 140 L 260 144 L 264 143 L 267 138 L 270 140 L 276 134 L 270 134 L 270 129 Z" fill="#010103"/>
<path d="M 338 101 L 316 105 L 317 107 L 313 106 L 315 107 L 312 109 L 308 108 L 306 109 L 307 111 L 301 111 L 303 112 L 299 112 L 297 115 L 295 114 L 295 116 L 293 115 L 293 117 L 291 116 L 291 118 L 289 117 L 289 119 L 287 118 L 287 120 L 285 119 L 285 121 L 280 122 L 285 122 L 287 129 L 290 127 L 290 124 L 292 126 L 301 120 L 303 121 L 303 119 L 305 120 L 305 118 L 301 118 L 292 124 L 290 122 L 292 118 L 295 119 L 296 116 L 300 116 L 314 108 L 318 110 L 316 112 L 319 114 L 321 111 L 318 111 L 320 106 L 325 108 L 323 110 L 325 112 L 326 108 L 324 107 L 327 104 Z" fill="#010103"/>
<path d="M 728 51 L 727 56 L 738 53 L 749 59 L 753 57 L 761 62 L 793 68 L 814 80 L 831 86 L 844 95 L 868 104 L 887 119 L 903 140 L 910 154 L 911 165 L 919 172 L 920 176 L 917 180 L 919 184 L 924 185 L 927 189 L 926 191 L 915 192 L 913 197 L 909 197 L 931 197 L 940 190 L 940 186 L 934 180 L 935 178 L 931 170 L 925 166 L 923 158 L 911 137 L 875 103 L 856 93 L 849 86 L 835 81 L 825 72 L 805 64 L 770 60 L 753 51 L 735 47 Z" fill="#010103"/>
<path d="M 411 461 L 412 464 L 423 462 L 425 459 L 431 458 L 431 460 L 434 455 L 437 458 L 435 458 L 447 453 L 437 451 L 432 455 L 427 454 L 426 451 L 417 451 L 411 454 L 416 454 Z" fill="#030100"/>
<path d="M 408 296 L 401 297 L 401 320 L 404 321 L 412 318 L 416 312 L 416 305 Z" fill="#030100"/>
<path d="M 308 293 L 308 299 L 313 297 L 325 306 L 335 311 L 337 310 L 339 313 L 339 311 L 342 312 L 341 314 L 355 319 L 358 317 L 362 319 L 359 320 L 363 320 L 361 309 L 361 314 L 358 313 L 358 316 L 344 313 L 340 310 L 343 307 L 317 291 L 310 290 Z" fill="#030100"/>
<path d="M 194 282 L 192 306 L 195 321 L 194 327 L 197 328 L 195 331 L 197 334 L 197 329 L 201 327 L 203 330 L 199 312 L 197 312 L 198 305 L 194 300 L 197 300 Z" fill="#030100"/>
<path d="M 413 248 L 421 249 L 421 251 L 442 260 L 453 270 L 450 265 L 452 264 L 445 261 L 446 258 L 438 255 L 438 252 L 426 246 L 422 248 L 415 246 Z" fill="#030100"/>
<path d="M 363 209 L 354 215 L 356 215 L 355 229 L 357 231 L 357 229 L 362 230 L 365 226 L 366 211 Z" fill="#030100"/>
<path d="M 530 172 L 531 178 L 528 175 L 523 177 L 518 172 L 530 184 L 529 186 L 535 192 L 534 194 L 537 195 L 535 196 L 538 197 L 537 199 L 543 211 L 545 210 L 544 213 L 546 218 L 548 218 L 548 223 L 554 231 L 555 249 L 556 243 L 559 248 L 560 296 L 551 332 L 552 336 L 537 369 L 535 369 L 528 381 L 512 399 L 517 395 L 520 400 L 518 405 L 514 408 L 510 401 L 504 408 L 505 417 L 495 427 L 490 425 L 493 429 L 484 427 L 483 424 L 482 428 L 480 426 L 476 427 L 473 432 L 472 430 L 476 439 L 469 443 L 482 437 L 500 424 L 512 413 L 513 409 L 520 405 L 529 391 L 531 391 L 530 389 L 536 384 L 537 378 L 541 376 L 556 344 L 564 315 L 563 309 L 566 300 L 565 255 L 565 264 L 563 265 L 563 255 L 561 254 L 561 246 L 559 244 L 562 242 L 547 199 Z" fill="#030100"/>
<path d="M 414 172 L 417 174 L 414 175 L 428 179 L 448 192 L 451 190 L 451 186 L 433 176 L 436 178 L 433 180 L 423 174 L 425 173 L 418 174 Z" fill="#030100"/>
<path d="M 285 123 L 279 123 L 271 129 L 271 134 L 276 135 L 266 141 L 265 137 L 262 136 L 256 145 L 252 144 L 252 148 L 248 148 L 244 152 L 244 156 L 242 158 L 240 156 L 234 162 L 236 162 L 235 165 L 230 167 L 209 199 L 210 205 L 206 205 L 202 214 L 203 217 L 201 217 L 202 221 L 199 223 L 195 234 L 193 256 L 195 262 L 197 262 L 196 264 L 207 220 L 220 194 L 237 170 L 256 149 L 288 127 Z" fill="#030100"/>
<path d="M 319 105 L 327 105 L 324 108 L 320 107 L 319 111 L 321 109 L 321 113 L 323 109 L 327 111 L 336 107 L 346 107 L 345 105 L 353 106 L 349 106 L 349 103 L 356 105 L 361 103 L 371 104 L 381 100 L 391 102 L 392 104 L 401 103 L 401 105 L 408 104 L 408 106 L 413 105 L 418 108 L 426 108 L 426 110 L 429 109 L 457 120 L 457 122 L 479 134 L 494 145 L 517 170 L 515 168 L 520 164 L 521 160 L 489 130 L 478 123 L 471 123 L 471 119 L 475 121 L 456 111 L 434 103 L 405 97 L 379 95 L 347 98 Z" fill="#030100"/>
<path d="M 726 64 L 727 66 L 736 66 L 748 76 L 751 84 L 759 90 L 760 95 L 763 95 L 767 100 L 763 107 L 765 130 L 773 145 L 772 162 L 781 174 L 799 181 L 849 183 L 858 188 L 873 191 L 872 189 L 877 189 L 876 191 L 878 192 L 874 194 L 879 195 L 880 198 L 888 198 L 885 194 L 892 190 L 889 187 L 865 180 L 839 168 L 849 156 L 847 141 L 843 141 L 841 137 L 834 136 L 828 132 L 817 134 L 805 126 L 803 123 L 808 117 L 807 114 L 813 110 L 814 106 L 811 102 L 784 99 L 777 95 L 776 86 L 758 81 L 749 71 L 735 63 L 731 65 Z" fill="#fefee0"/>
<path d="M 473 431 L 467 432 L 469 433 L 468 436 L 447 442 L 441 448 L 437 446 L 422 450 L 432 454 L 437 450 L 440 452 L 459 450 L 467 446 L 466 444 L 469 445 L 468 443 L 475 439 L 472 434 Z" fill="#000000"/>
<path d="M 519 391 L 489 419 L 493 415 L 495 416 L 489 423 L 487 420 L 480 425 L 485 422 L 484 426 L 493 428 L 493 430 L 495 428 L 492 427 L 504 417 L 503 413 L 505 410 L 501 409 L 511 399 L 514 407 L 517 405 L 519 400 L 515 395 Z" fill="#000000"/>
<path d="M 198 328 L 198 337 L 196 337 L 196 335 L 199 345 L 200 343 L 203 348 L 203 356 L 204 354 L 209 368 L 214 373 L 213 375 L 216 376 L 215 378 L 219 381 L 221 387 L 251 420 L 275 438 L 279 438 L 282 442 L 286 442 L 287 445 L 293 446 L 293 448 L 299 451 L 305 451 L 304 453 L 314 454 L 317 458 L 323 460 L 334 460 L 332 462 L 347 465 L 352 463 L 354 466 L 388 467 L 406 465 L 407 462 L 411 462 L 413 455 L 409 454 L 412 453 L 394 455 L 402 456 L 392 458 L 390 456 L 359 456 L 387 457 L 358 458 L 344 455 L 349 454 L 340 454 L 339 456 L 331 450 L 313 446 L 308 442 L 299 440 L 295 436 L 294 438 L 286 433 L 289 433 L 286 431 L 286 433 L 283 432 L 274 423 L 268 422 L 264 418 L 266 417 L 269 420 L 262 414 L 261 416 L 254 407 L 259 412 L 257 413 L 245 401 L 246 399 L 233 388 L 234 386 L 236 388 L 228 380 L 230 379 L 228 377 L 227 379 L 224 376 L 221 381 L 218 379 L 217 370 L 219 367 L 214 358 L 216 357 L 213 356 L 214 354 L 212 354 L 210 346 L 207 348 L 202 347 L 201 333 L 204 332 L 201 328 L 199 330 Z" fill="#000000"/>
</svg>