<svg xmlns="http://www.w3.org/2000/svg" viewBox="0 0 1024 1024">
<path d="M 255 710 L 247 704 L 249 702 L 238 712 L 220 719 L 202 719 L 211 720 L 207 722 L 197 721 L 202 722 L 208 727 L 231 725 Z" fill="#419be6"/>
<path d="M 173 670 L 174 672 L 179 671 L 182 659 L 196 657 L 197 655 L 198 657 L 205 657 L 208 654 L 212 654 L 212 652 L 214 653 L 222 646 L 224 648 L 230 642 L 245 663 L 244 651 L 241 658 L 233 644 L 222 636 L 205 635 L 194 642 L 195 649 L 191 654 L 184 653 L 181 655 L 179 666 L 177 668 L 176 666 Z" fill="#419be6"/>
<path d="M 746 563 L 758 580 L 765 584 L 774 595 L 789 596 L 795 591 L 800 591 L 800 588 L 797 587 L 803 584 L 790 588 L 773 586 L 758 573 L 752 563 Z" fill="#419be6"/>
<path d="M 887 449 L 817 573 L 821 566 L 824 566 L 822 564 L 825 559 L 830 559 L 837 551 L 840 538 L 848 529 L 853 516 L 862 507 L 861 505 L 873 490 L 874 485 L 889 467 Z" fill="#419be6"/>
<path d="M 503 286 L 504 446 L 511 451 L 513 457 L 510 468 L 504 473 L 506 804 L 508 806 L 508 803 L 512 804 L 513 806 L 511 807 L 513 808 L 513 806 L 520 808 L 512 804 L 517 798 L 521 797 L 527 801 L 525 796 L 529 795 L 529 802 L 531 800 L 533 802 L 531 804 L 533 799 L 536 798 L 531 799 L 530 796 L 536 794 L 541 799 L 542 797 L 549 799 L 547 803 L 544 802 L 546 805 L 550 803 L 545 809 L 548 810 L 547 812 L 552 810 L 551 814 L 554 819 L 557 816 L 559 818 L 557 820 L 562 820 L 559 822 L 565 820 L 566 823 L 567 820 L 570 822 L 567 825 L 574 820 L 572 826 L 581 817 L 583 818 L 582 820 L 590 817 L 588 816 L 591 815 L 589 813 L 591 811 L 594 812 L 596 807 L 601 806 L 599 802 L 607 797 L 606 794 L 611 794 L 613 796 L 611 798 L 615 795 L 615 798 L 618 799 L 613 801 L 617 803 L 621 801 L 619 805 L 622 806 L 620 805 L 625 803 L 621 799 L 617 803 L 616 801 L 619 798 L 613 794 L 613 791 L 617 792 L 617 787 L 620 788 L 618 790 L 623 789 L 622 787 L 626 786 L 628 791 L 625 793 L 630 790 L 632 791 L 629 795 L 625 795 L 632 801 L 630 806 L 633 809 L 632 811 L 635 809 L 635 812 L 639 812 L 641 809 L 643 815 L 639 814 L 637 817 L 639 820 L 630 830 L 627 825 L 628 831 L 626 833 L 623 828 L 623 824 L 626 823 L 624 822 L 619 826 L 616 822 L 617 820 L 619 821 L 616 819 L 614 822 L 616 827 L 614 828 L 613 825 L 610 825 L 609 834 L 607 835 L 606 833 L 604 835 L 609 834 L 610 837 L 615 831 L 615 837 L 619 835 L 623 838 L 626 835 L 628 837 L 626 839 L 631 837 L 632 840 L 630 835 L 634 831 L 636 834 L 639 834 L 637 833 L 638 831 L 644 834 L 645 831 L 648 835 L 650 833 L 646 832 L 645 827 L 647 826 L 649 831 L 658 831 L 657 829 L 655 831 L 651 825 L 653 823 L 657 827 L 657 824 L 661 822 L 664 824 L 660 825 L 661 831 L 667 831 L 661 827 L 664 824 L 666 826 L 670 823 L 673 826 L 676 823 L 674 828 L 669 828 L 673 831 L 673 828 L 676 829 L 674 828 L 681 824 L 683 827 L 678 831 L 681 833 L 684 831 L 682 830 L 683 827 L 688 829 L 688 831 L 692 828 L 691 823 L 696 826 L 695 828 L 699 828 L 696 827 L 700 820 L 702 827 L 698 833 L 701 831 L 701 834 L 707 835 L 705 837 L 709 834 L 711 837 L 708 840 L 712 837 L 714 839 L 712 841 L 714 839 L 717 842 L 715 844 L 717 842 L 719 844 L 722 842 L 731 841 L 732 844 L 735 842 L 736 844 L 734 845 L 736 844 L 739 847 L 739 853 L 744 858 L 742 861 L 748 862 L 746 866 L 747 864 L 750 870 L 747 872 L 749 874 L 747 878 L 752 877 L 754 879 L 752 882 L 753 886 L 753 876 L 756 876 L 760 921 L 726 560 L 719 559 L 714 555 L 709 547 L 714 534 L 721 532 L 715 533 L 717 531 L 711 525 L 705 508 L 688 479 L 688 475 L 683 469 L 677 452 L 668 440 L 665 430 L 658 423 L 658 419 L 653 416 L 654 413 L 650 406 L 647 405 L 640 378 L 636 375 L 629 362 L 627 349 L 629 351 L 629 345 L 631 348 L 629 345 L 626 347 L 625 340 L 627 340 L 623 332 Z" fill="#419be6"/>
<path d="M 918 164 L 924 195 L 924 224 L 931 226 L 933 222 L 934 228 L 936 214 L 934 178 L 935 195 L 933 195 L 932 183 L 931 194 L 927 193 L 925 196 Z" fill="#419be6"/>
<path d="M 788 55 L 758 57 L 735 64 L 719 72 L 722 72 L 721 79 L 708 82 L 710 78 L 690 94 L 676 110 L 659 139 L 650 165 L 646 192 L 646 217 L 650 244 L 662 282 L 673 306 L 669 314 L 660 308 L 662 312 L 663 310 L 666 316 L 663 315 L 703 391 L 749 468 L 750 466 L 754 468 L 757 461 L 692 344 L 662 281 L 649 239 L 646 205 L 648 205 L 649 218 L 651 214 L 653 216 L 652 219 L 653 217 L 655 219 L 658 216 L 660 218 L 661 214 L 663 215 L 662 217 L 672 209 L 678 212 L 680 210 L 675 210 L 674 208 L 686 205 L 687 207 L 691 199 L 693 201 L 694 227 L 701 250 L 715 273 L 726 285 L 742 297 L 761 305 L 776 308 L 800 307 L 828 296 L 851 276 L 866 250 L 871 234 L 874 213 L 870 226 L 855 255 L 838 272 L 833 270 L 840 263 L 821 280 L 795 290 L 779 291 L 758 286 L 742 277 L 722 258 L 723 256 L 720 256 L 711 242 L 709 229 L 708 231 L 695 218 L 693 203 L 697 179 L 705 160 L 715 145 L 730 130 L 752 117 L 768 112 L 789 111 L 811 115 L 826 122 L 839 131 L 861 156 L 856 148 L 861 141 L 857 137 L 859 133 L 868 125 L 867 120 L 870 119 L 870 122 L 877 115 L 878 117 L 881 115 L 883 117 L 886 111 L 894 116 L 903 129 L 917 162 L 902 127 L 885 104 L 868 87 L 832 65 L 809 58 Z" fill="#419be6"/>
<path d="M 390 701 L 383 693 L 375 692 L 352 705 L 338 709 L 335 713 L 336 723 L 343 729 L 358 726 L 386 712 L 390 707 Z" fill="#fefefe"/>
<path d="M 262 695 L 258 705 L 258 712 L 299 730 L 305 729 L 310 725 L 312 715 L 308 709 L 289 703 L 268 692 Z" fill="#fefefe"/>
<path d="M 403 625 L 390 638 L 397 653 L 397 663 L 393 674 L 399 682 L 408 685 L 414 681 L 418 673 L 420 649 L 412 629 L 407 625 Z" fill="#fefefe"/>
<path d="M 334 586 L 332 590 L 334 597 L 356 615 L 370 623 L 376 622 L 384 616 L 384 605 L 362 592 L 350 580 L 342 581 Z" fill="#fefefe"/>
<path d="M 716 536 L 712 543 L 713 551 L 720 556 L 736 559 L 730 556 L 730 552 L 723 544 L 721 537 L 717 536 L 721 535 Z" fill="#fefefe"/>
<path d="M 356 510 L 347 512 L 327 542 L 324 556 L 331 563 L 338 564 L 346 559 L 350 546 L 367 524 L 365 517 Z" fill="#fefefe"/>
<path d="M 616 494 L 614 502 L 618 506 L 672 534 L 686 537 L 693 529 L 691 518 L 624 486 Z" fill="#fefefe"/>
<path d="M 432 477 L 427 469 L 421 466 L 378 487 L 376 489 L 376 497 L 381 503 L 391 505 L 429 487 L 432 483 Z" fill="#fefefe"/>
<path d="M 534 459 L 534 469 L 538 474 L 582 491 L 592 490 L 597 484 L 596 474 L 589 468 L 576 462 L 548 453 L 539 453 Z" fill="#fefefe"/>
<path d="M 510 456 L 506 449 L 497 447 L 457 453 L 452 457 L 450 464 L 457 475 L 463 476 L 485 471 L 505 470 L 509 465 Z" fill="#fefefe"/>
<path d="M 777 135 L 758 141 L 737 155 L 729 157 L 721 169 L 714 186 L 711 214 L 717 241 L 724 255 L 740 273 L 750 280 L 765 286 L 791 288 L 802 286 L 822 277 L 842 258 L 855 228 L 856 197 L 853 183 L 845 166 L 838 156 L 825 144 L 826 146 L 824 147 L 792 135 Z" fill="#fefefe"/>
<path d="M 911 350 L 869 431 L 800 550 L 791 561 L 785 562 L 781 560 L 749 510 L 690 409 L 643 319 L 622 269 L 613 230 L 611 191 L 615 160 L 621 137 L 628 121 L 620 134 L 609 161 L 601 195 L 600 242 L 602 261 L 612 297 L 611 302 L 638 359 L 671 421 L 740 541 L 760 572 L 768 580 L 780 585 L 792 585 L 804 581 L 814 573 L 885 447 L 901 422 L 909 417 L 911 419 L 912 442 L 907 464 L 903 470 L 904 474 L 900 478 L 901 485 L 898 496 L 896 487 L 946 812 L 951 848 L 950 856 L 760 924 L 509 808 L 503 808 L 255 923 L 68 855 L 117 571 L 168 299 L 171 298 L 314 354 L 499 284 L 515 287 L 595 318 L 596 307 L 594 301 L 591 303 L 590 301 L 593 298 L 592 295 L 598 296 L 528 268 L 512 263 L 499 262 L 477 268 L 319 329 L 311 329 L 166 272 L 151 270 L 84 611 L 35 875 L 253 956 L 269 952 L 505 841 L 758 956 L 768 955 L 984 875 L 914 450 L 909 398 Z" fill="#fefefe"/>
<path d="M 276 725 L 267 812 L 262 808 L 258 813 L 261 813 L 258 816 L 263 815 L 260 819 L 258 818 L 261 821 L 259 823 L 262 820 L 263 822 L 264 816 L 261 810 L 263 809 L 266 813 L 264 837 L 262 838 L 257 831 L 260 830 L 262 833 L 261 829 L 255 824 L 256 818 L 253 821 L 250 820 L 251 818 L 251 823 L 249 824 L 252 823 L 254 827 L 251 827 L 248 830 L 250 831 L 244 836 L 247 840 L 245 841 L 241 838 L 236 844 L 239 844 L 238 848 L 241 850 L 238 854 L 243 857 L 241 859 L 240 857 L 236 858 L 234 852 L 237 851 L 236 848 L 235 850 L 233 848 L 233 853 L 230 854 L 231 857 L 226 858 L 226 854 L 220 860 L 222 861 L 221 863 L 216 863 L 216 866 L 211 868 L 213 873 L 209 872 L 211 875 L 208 875 L 208 878 L 202 884 L 204 887 L 198 894 L 201 898 L 197 899 L 255 920 Z" fill="#80c7fb"/>
<path d="M 730 584 L 748 769 L 749 754 L 755 758 L 754 762 L 757 757 L 760 757 L 760 754 L 763 756 L 760 761 L 765 757 L 765 754 L 769 753 L 767 754 L 764 751 L 766 749 L 771 751 L 768 747 L 769 745 L 764 749 L 762 747 L 766 742 L 774 743 L 772 744 L 765 740 L 770 734 L 768 730 L 770 729 L 772 732 L 776 729 L 773 727 L 773 724 L 780 728 L 777 732 L 780 729 L 784 729 L 785 732 L 789 726 L 794 731 L 789 737 L 791 735 L 796 737 L 793 733 L 797 731 L 801 735 L 806 733 L 809 736 L 808 738 L 806 737 L 811 742 L 809 745 L 812 743 L 812 737 L 815 738 L 816 742 L 810 748 L 813 746 L 816 747 L 814 748 L 819 748 L 819 751 L 813 751 L 817 754 L 816 752 L 819 752 L 821 748 L 823 751 L 820 755 L 822 754 L 823 758 L 828 755 L 828 759 L 830 758 L 834 762 L 830 762 L 832 763 L 831 765 L 838 764 L 835 767 L 838 769 L 836 772 L 838 770 L 841 773 L 838 776 L 842 774 L 842 777 L 840 777 L 842 781 L 842 777 L 845 777 L 846 789 L 849 787 L 851 790 L 854 789 L 858 793 L 857 796 L 861 793 L 866 798 L 868 795 L 871 795 L 871 798 L 875 795 L 876 798 L 873 793 L 874 791 L 880 796 L 885 791 L 887 793 L 883 797 L 885 799 L 883 802 L 887 801 L 885 800 L 886 798 L 890 800 L 885 807 L 888 804 L 892 805 L 894 803 L 896 805 L 894 806 L 899 805 L 906 809 L 910 805 L 912 808 L 908 812 L 913 807 L 914 809 L 911 812 L 914 813 L 915 820 L 919 819 L 922 823 L 925 823 L 924 819 L 928 820 L 927 828 L 929 829 L 928 831 L 932 828 L 928 824 L 931 823 L 922 815 L 923 813 L 928 815 L 928 813 L 922 810 L 921 807 L 928 803 L 925 802 L 925 799 L 928 799 L 929 795 L 932 798 L 931 802 L 931 799 L 934 798 L 935 795 L 932 798 L 931 795 L 937 790 L 937 787 L 935 789 L 934 785 L 936 784 L 932 783 L 935 778 L 936 780 L 937 771 L 936 773 L 934 772 L 936 764 L 935 758 L 935 763 L 933 763 L 934 752 L 933 755 L 928 717 L 926 717 L 927 710 L 925 711 L 926 702 L 923 703 L 923 697 L 925 697 L 924 690 L 922 692 L 923 682 L 922 685 L 898 531 L 896 537 L 895 535 L 886 544 L 882 545 L 880 550 L 882 548 L 885 550 L 878 552 L 879 554 L 876 558 L 874 557 L 874 561 L 861 573 L 863 577 L 858 576 L 860 578 L 858 582 L 861 584 L 857 585 L 854 583 L 857 587 L 850 590 L 849 595 L 847 593 L 844 596 L 846 600 L 843 603 L 841 599 L 837 605 L 840 606 L 837 608 L 834 606 L 833 608 L 835 609 L 828 612 L 829 616 L 824 621 L 823 619 L 826 616 L 820 618 L 818 623 L 816 620 L 811 621 L 812 617 L 810 620 L 804 621 L 805 623 L 802 626 L 800 624 L 796 625 L 796 622 L 791 625 L 790 623 L 786 624 L 785 622 L 787 621 L 774 620 L 773 618 L 775 617 L 772 620 L 766 615 L 760 618 L 758 616 L 760 614 L 758 616 L 757 611 L 752 611 L 742 606 L 744 608 L 740 610 L 737 605 L 738 603 L 735 601 L 737 599 L 732 595 Z" fill="#80c7fb"/>
<path d="M 499 287 L 499 289 L 495 288 L 315 357 L 279 693 L 282 695 L 285 681 L 295 673 L 306 671 L 317 675 L 329 684 L 333 700 L 327 708 L 313 710 L 314 715 L 316 715 L 317 719 L 321 716 L 324 718 L 330 714 L 331 718 L 333 710 L 338 706 L 347 704 L 343 703 L 348 702 L 345 701 L 349 698 L 356 700 L 356 698 L 359 699 L 365 696 L 364 694 L 369 694 L 364 692 L 371 686 L 375 690 L 378 689 L 376 687 L 381 688 L 378 686 L 380 682 L 378 681 L 377 683 L 376 680 L 379 678 L 384 679 L 385 676 L 387 678 L 386 675 L 388 673 L 389 675 L 390 670 L 391 674 L 390 668 L 392 668 L 394 663 L 394 651 L 392 651 L 392 646 L 387 641 L 388 634 L 401 622 L 408 623 L 417 631 L 421 639 L 422 648 L 424 647 L 423 673 L 411 688 L 406 689 L 409 689 L 410 692 L 408 693 L 411 694 L 407 699 L 414 695 L 414 700 L 408 703 L 409 706 L 410 702 L 416 705 L 413 711 L 411 709 L 412 711 L 408 712 L 415 712 L 411 717 L 413 720 L 411 724 L 413 722 L 414 725 L 410 729 L 414 734 L 414 729 L 417 729 L 419 732 L 422 730 L 426 732 L 429 727 L 431 729 L 435 727 L 436 729 L 438 726 L 440 729 L 436 732 L 433 731 L 434 734 L 430 731 L 432 735 L 439 730 L 440 732 L 443 730 L 446 732 L 449 729 L 450 733 L 447 737 L 449 736 L 450 738 L 447 743 L 454 735 L 456 736 L 452 741 L 454 745 L 452 747 L 449 745 L 451 747 L 449 749 L 450 756 L 451 754 L 454 756 L 452 759 L 454 764 L 451 765 L 456 763 L 455 768 L 457 765 L 460 765 L 458 768 L 467 773 L 465 770 L 467 768 L 469 773 L 473 774 L 471 777 L 468 776 L 474 776 L 473 779 L 479 776 L 481 777 L 480 779 L 482 777 L 483 779 L 483 776 L 487 779 L 490 777 L 492 779 L 499 773 L 501 774 L 500 776 L 501 768 L 505 772 L 503 474 L 484 474 L 459 479 L 449 470 L 448 460 L 460 446 L 457 445 L 460 430 L 470 423 L 479 424 L 480 422 L 485 424 L 498 437 L 496 441 L 498 443 L 494 445 L 503 446 L 501 438 L 501 288 Z" fill="#80c7fb"/>
<path d="M 639 153 L 633 188 L 634 229 L 637 244 L 637 233 L 640 243 L 644 243 L 646 238 L 649 245 L 644 210 L 645 187 L 645 195 L 643 195 L 643 191 L 641 195 L 639 194 L 638 208 L 635 208 L 634 183 Z" fill="#80c7fb"/>
<path d="M 850 72 L 869 86 L 887 104 L 891 101 L 891 105 L 895 107 L 896 105 L 893 101 L 895 99 L 897 102 L 897 98 L 908 113 L 896 95 L 879 77 L 877 78 L 867 70 L 871 73 L 870 75 L 864 76 Z" fill="#80c7fb"/>
<path d="M 204 611 L 183 618 L 168 631 L 159 649 L 157 674 L 165 695 L 177 708 L 187 714 L 200 718 L 218 718 L 239 710 L 253 696 L 262 676 L 262 656 L 254 635 L 240 620 L 228 614 Z" fill="#203d6f"/>
<path d="M 910 80 L 887 58 L 861 40 L 840 30 L 812 22 L 775 19 L 752 22 L 713 34 L 687 50 L 670 64 L 640 97 L 644 92 L 645 95 L 626 130 L 617 161 L 614 182 L 614 220 L 623 265 L 642 312 L 671 370 L 714 447 L 783 559 L 791 559 L 801 545 L 871 423 L 910 348 L 913 348 L 911 397 L 917 455 L 987 875 L 984 878 L 765 958 L 753 957 L 507 843 L 260 958 L 246 956 L 35 878 L 33 876 L 34 864 L 149 269 L 164 269 L 313 327 L 321 326 L 496 260 L 514 261 L 610 299 L 604 274 L 602 293 L 597 289 L 592 275 L 572 266 L 518 247 L 489 247 L 315 311 L 172 255 L 153 251 L 140 256 L 131 269 L 125 309 L 121 319 L 78 544 L 60 625 L 33 777 L 27 799 L 23 830 L 13 876 L 14 893 L 14 883 L 19 894 L 28 901 L 241 980 L 262 982 L 274 979 L 507 870 L 744 980 L 767 982 L 989 902 L 1001 894 L 1007 880 L 1008 891 L 1009 884 L 936 454 L 920 345 L 938 304 L 954 255 L 958 227 L 956 179 L 949 149 L 941 128 L 926 101 Z" fill="#203d6f"/>
<path d="M 286 681 L 285 693 L 289 701 L 291 700 L 294 703 L 308 707 L 312 712 L 312 709 L 327 707 L 331 703 L 332 697 L 328 684 L 315 675 L 306 672 L 298 673 Z" fill="#a0d9fc"/>
<path d="M 546 478 L 549 480 L 548 482 L 562 491 L 570 494 L 581 494 L 577 490 Z" fill="#a0d9fc"/>
<path d="M 502 446 L 493 445 L 497 443 L 495 441 L 498 436 L 494 436 L 494 433 L 485 425 L 480 423 L 479 425 L 470 424 L 461 430 L 461 435 L 458 438 L 458 445 L 461 446 L 451 456 L 458 451 Z" fill="#a0d9fc"/>
<path d="M 287 346 L 284 346 L 287 347 L 285 349 L 281 349 L 280 345 L 275 348 L 280 347 L 278 349 L 280 354 L 276 359 L 273 358 L 273 362 L 267 366 L 273 366 L 274 370 L 271 372 L 268 369 L 267 373 L 269 376 L 261 382 L 257 389 L 254 388 L 252 392 L 249 387 L 250 384 L 240 393 L 236 391 L 234 394 L 233 392 L 236 387 L 230 393 L 236 394 L 237 398 L 231 399 L 231 396 L 227 399 L 233 400 L 231 404 L 227 404 L 223 400 L 219 404 L 221 403 L 222 406 L 217 410 L 219 414 L 215 419 L 213 417 L 215 409 L 213 409 L 214 415 L 212 416 L 211 412 L 211 416 L 216 424 L 213 427 L 207 423 L 210 420 L 212 421 L 209 419 L 209 421 L 205 422 L 205 424 L 208 424 L 206 427 L 210 426 L 214 429 L 213 432 L 205 432 L 202 435 L 207 435 L 207 439 L 202 440 L 200 438 L 197 440 L 197 442 L 202 441 L 200 445 L 195 449 L 193 448 L 194 446 L 191 450 L 189 449 L 176 463 L 167 454 L 173 452 L 172 450 L 176 447 L 166 454 L 164 460 L 166 459 L 167 461 L 165 463 L 168 461 L 171 464 L 159 476 L 155 476 L 157 478 L 154 480 L 160 475 L 161 477 L 165 475 L 166 478 L 161 483 L 163 482 L 163 485 L 167 479 L 169 486 L 166 490 L 164 487 L 161 490 L 164 493 L 159 496 L 155 492 L 156 488 L 153 492 L 158 496 L 164 497 L 153 507 L 152 505 L 159 498 L 156 497 L 150 504 L 153 507 L 152 510 L 149 510 L 149 506 L 145 509 L 143 508 L 149 502 L 147 499 L 140 501 L 140 498 L 137 497 L 139 502 L 141 501 L 142 503 L 137 506 L 133 504 L 70 848 L 70 854 L 182 895 L 191 896 L 191 898 L 199 901 L 201 900 L 196 899 L 200 898 L 197 894 L 199 892 L 201 894 L 199 890 L 202 887 L 205 889 L 203 886 L 207 882 L 204 882 L 207 878 L 206 876 L 212 873 L 211 869 L 213 871 L 210 868 L 214 867 L 216 862 L 220 865 L 217 862 L 221 862 L 219 860 L 225 855 L 226 857 L 232 857 L 226 861 L 231 861 L 231 864 L 233 856 L 242 857 L 237 854 L 240 851 L 237 848 L 237 843 L 241 837 L 246 840 L 248 836 L 246 836 L 246 839 L 243 836 L 249 831 L 247 830 L 250 827 L 251 829 L 253 827 L 250 821 L 253 820 L 254 823 L 255 817 L 258 821 L 256 824 L 262 831 L 256 832 L 254 830 L 256 833 L 250 839 L 253 837 L 263 840 L 261 838 L 264 833 L 274 726 L 276 723 L 280 724 L 259 714 L 263 717 L 251 727 L 234 734 L 211 735 L 185 726 L 163 705 L 155 675 L 156 648 L 161 640 L 160 638 L 162 638 L 170 626 L 189 613 L 203 609 L 216 609 L 231 613 L 242 619 L 259 639 L 264 653 L 265 664 L 268 664 L 271 674 L 270 690 L 268 691 L 278 696 L 314 357 L 316 355 L 313 356 L 303 352 L 300 354 L 299 351 L 296 352 L 297 350 L 289 349 Z" fill="#a0d9fc"/>
<path d="M 890 89 L 869 69 L 851 57 L 835 49 L 823 47 L 823 45 L 819 46 L 820 44 L 817 43 L 814 45 L 812 42 L 761 42 L 760 45 L 742 50 L 732 56 L 722 58 L 705 66 L 705 64 L 712 60 L 709 61 L 709 59 L 708 63 L 699 68 L 702 67 L 702 71 L 686 82 L 690 75 L 685 79 L 687 75 L 676 86 L 677 88 L 670 93 L 652 121 L 646 140 L 644 140 L 643 148 L 641 148 L 642 151 L 640 152 L 635 183 L 636 208 L 638 194 L 641 194 L 643 190 L 644 195 L 648 164 L 655 142 L 668 118 L 680 102 L 697 85 L 727 65 L 762 54 L 800 54 L 837 64 L 849 72 L 851 71 L 851 73 L 874 74 Z" fill="#a0d9fc"/>
<path d="M 689 800 L 683 799 L 686 801 L 684 807 L 679 802 L 678 805 L 679 803 L 681 805 L 679 808 L 686 807 L 684 811 L 682 810 L 682 814 L 677 812 L 679 810 L 677 808 L 671 814 L 664 810 L 671 814 L 668 817 L 665 815 L 668 817 L 666 820 L 664 818 L 664 822 L 665 820 L 667 822 L 667 819 L 670 821 L 673 817 L 676 822 L 679 819 L 684 819 L 686 816 L 689 819 L 690 817 L 686 813 L 685 816 L 682 815 L 687 809 L 689 811 L 692 808 L 686 807 L 689 805 Z" fill="#2070db"/>
<path d="M 508 804 L 747 915 L 746 913 L 754 910 L 752 913 L 754 913 L 756 906 L 758 917 L 750 916 L 759 920 L 755 876 L 754 886 L 751 882 L 753 879 L 746 878 L 748 874 L 746 872 L 751 866 L 748 870 L 747 862 L 745 864 L 744 861 L 741 861 L 743 858 L 738 853 L 739 846 L 736 846 L 738 843 L 736 845 L 735 843 L 731 844 L 731 839 L 735 840 L 736 838 L 729 838 L 729 843 L 719 845 L 710 837 L 712 834 L 714 835 L 714 832 L 710 836 L 708 835 L 707 838 L 704 837 L 706 835 L 700 834 L 700 821 L 697 827 L 700 828 L 697 830 L 692 825 L 695 822 L 691 824 L 693 828 L 689 831 L 681 825 L 676 827 L 675 824 L 672 827 L 672 822 L 671 825 L 668 824 L 666 827 L 661 823 L 658 824 L 657 828 L 653 824 L 653 828 L 655 830 L 657 828 L 658 832 L 651 832 L 646 827 L 647 832 L 650 834 L 648 836 L 645 832 L 644 835 L 639 832 L 639 835 L 636 835 L 635 832 L 631 835 L 630 828 L 635 823 L 637 824 L 635 822 L 638 820 L 636 817 L 639 813 L 642 814 L 639 817 L 642 819 L 641 810 L 639 813 L 635 813 L 635 810 L 631 811 L 635 806 L 632 809 L 629 806 L 634 799 L 631 801 L 627 798 L 627 795 L 629 794 L 631 797 L 632 793 L 630 795 L 630 791 L 625 794 L 623 792 L 627 791 L 624 785 L 625 787 L 622 788 L 624 789 L 618 791 L 619 788 L 616 787 L 620 782 L 614 788 L 617 788 L 614 794 L 618 795 L 617 797 L 620 798 L 618 800 L 614 798 L 615 796 L 611 799 L 611 795 L 606 795 L 603 798 L 605 799 L 600 802 L 602 803 L 601 807 L 596 808 L 594 813 L 591 812 L 591 816 L 587 813 L 590 818 L 587 818 L 586 821 L 585 819 L 582 821 L 581 818 L 575 825 L 573 824 L 573 819 L 572 824 L 569 823 L 570 821 L 567 821 L 566 824 L 565 821 L 559 823 L 563 818 L 559 820 L 557 817 L 554 820 L 550 814 L 551 810 L 548 813 L 546 812 L 549 808 L 549 803 L 547 806 L 543 803 L 544 801 L 547 802 L 546 800 L 548 799 L 544 800 L 541 796 L 538 798 L 536 795 L 540 793 L 537 791 L 537 794 L 534 796 L 530 795 L 527 798 L 526 796 L 525 800 L 519 796 L 520 798 L 514 804 L 513 802 L 511 802 L 512 805 Z" fill="#2070db"/>
<path d="M 245 652 L 245 664 L 230 643 L 224 649 L 222 647 L 214 654 L 212 653 L 212 655 L 208 655 L 205 658 L 198 658 L 197 656 L 196 658 L 182 660 L 180 671 L 178 673 L 173 671 L 176 683 L 187 696 L 196 701 L 214 703 L 225 700 L 234 694 L 243 682 L 247 665 Z" fill="#2070db"/>
<path d="M 621 332 L 626 340 L 627 347 L 629 346 L 628 355 L 630 356 L 632 367 L 641 378 L 648 405 L 651 406 L 655 413 L 654 416 L 659 419 L 659 423 L 666 430 L 669 440 L 678 452 L 684 469 L 702 500 L 712 525 L 718 531 L 715 534 L 722 531 L 723 515 L 718 505 L 715 504 L 716 502 L 714 502 L 713 497 L 671 427 Z" fill="#2070db"/>
<path d="M 886 112 L 884 116 L 882 114 L 878 118 L 877 116 L 875 118 L 874 114 L 871 116 L 874 119 L 867 121 L 860 128 L 863 130 L 858 137 L 862 141 L 857 145 L 860 145 L 857 151 L 834 128 L 814 117 L 789 112 L 768 113 L 757 116 L 734 128 L 716 145 L 706 160 L 699 176 L 694 203 L 696 218 L 708 230 L 710 229 L 712 242 L 723 258 L 711 231 L 709 198 L 712 184 L 719 168 L 738 144 L 759 131 L 787 127 L 804 130 L 818 136 L 838 153 L 847 165 L 856 185 L 859 201 L 859 219 L 857 231 L 848 253 L 830 274 L 836 269 L 838 271 L 850 261 L 849 259 L 854 255 L 869 226 L 873 211 L 875 213 L 874 224 L 867 250 L 852 276 L 834 293 L 811 305 L 793 309 L 776 309 L 761 306 L 742 298 L 726 286 L 714 273 L 701 252 L 693 227 L 691 200 L 688 207 L 681 207 L 679 209 L 677 207 L 681 202 L 678 203 L 674 210 L 671 208 L 672 210 L 663 217 L 661 215 L 660 219 L 658 217 L 655 220 L 651 215 L 648 218 L 647 205 L 650 239 L 665 286 L 693 344 L 758 461 L 754 469 L 751 469 L 749 465 L 750 468 L 747 467 L 711 406 L 786 532 L 833 453 L 886 357 L 920 285 L 932 249 L 935 225 L 934 229 L 933 223 L 931 227 L 923 224 L 922 187 L 914 154 L 902 129 L 893 116 Z" fill="#2070db"/>
<path d="M 749 755 L 747 776 L 761 920 L 948 854 L 937 776 L 937 780 L 935 779 L 933 783 L 937 784 L 935 788 L 937 786 L 938 790 L 933 795 L 929 792 L 932 797 L 927 795 L 930 798 L 926 799 L 926 806 L 921 806 L 921 812 L 918 813 L 921 816 L 922 809 L 927 810 L 928 812 L 926 813 L 929 813 L 928 816 L 923 814 L 929 820 L 924 820 L 926 823 L 922 824 L 921 821 L 914 820 L 913 813 L 910 812 L 913 808 L 909 804 L 909 808 L 905 805 L 907 807 L 906 810 L 894 804 L 892 806 L 887 804 L 889 801 L 894 801 L 892 798 L 895 795 L 898 801 L 902 803 L 901 805 L 902 803 L 899 799 L 902 799 L 902 796 L 899 799 L 897 797 L 899 794 L 897 797 L 894 795 L 889 800 L 885 798 L 889 796 L 888 794 L 885 797 L 885 792 L 880 797 L 877 795 L 880 791 L 872 794 L 870 792 L 872 791 L 871 789 L 868 794 L 870 792 L 871 794 L 875 793 L 876 795 L 873 799 L 870 798 L 871 796 L 868 796 L 866 799 L 862 795 L 864 792 L 861 791 L 862 793 L 857 797 L 855 795 L 857 793 L 854 792 L 855 789 L 851 791 L 845 784 L 844 777 L 844 780 L 841 781 L 840 773 L 843 770 L 839 769 L 837 764 L 831 766 L 832 760 L 828 760 L 828 756 L 824 758 L 820 754 L 822 751 L 820 748 L 824 746 L 819 747 L 819 749 L 813 747 L 812 745 L 816 740 L 814 741 L 813 737 L 813 743 L 811 744 L 806 739 L 808 737 L 806 734 L 801 736 L 800 733 L 794 733 L 789 727 L 785 726 L 788 729 L 785 733 L 783 732 L 784 730 L 780 730 L 777 733 L 776 731 L 779 728 L 774 724 L 774 727 L 777 729 L 772 733 L 767 729 L 769 732 L 766 733 L 769 732 L 771 734 L 769 737 L 767 735 L 769 738 L 766 738 L 766 745 L 763 747 L 769 744 L 769 750 L 771 748 L 772 751 L 767 752 L 766 750 L 763 752 L 761 750 L 759 753 L 761 751 L 764 753 L 765 751 L 769 754 L 765 755 L 765 758 L 760 755 L 761 757 L 757 758 L 754 763 L 753 759 L 755 756 L 751 758 Z" fill="#75c0fc"/>
<path d="M 505 773 L 501 769 L 502 775 L 499 774 L 492 780 L 487 775 L 486 778 L 483 777 L 480 780 L 479 777 L 476 780 L 476 777 L 472 777 L 472 774 L 468 773 L 467 769 L 469 768 L 467 766 L 467 772 L 465 773 L 460 770 L 461 768 L 463 769 L 463 765 L 461 767 L 453 764 L 455 758 L 448 751 L 450 747 L 448 745 L 450 743 L 452 746 L 454 743 L 460 743 L 460 741 L 458 744 L 455 742 L 452 744 L 451 741 L 455 738 L 454 736 L 447 744 L 446 741 L 449 737 L 447 738 L 446 736 L 449 730 L 446 733 L 444 731 L 442 733 L 439 732 L 441 727 L 439 729 L 437 727 L 436 730 L 435 728 L 432 730 L 429 728 L 426 733 L 421 730 L 419 733 L 417 730 L 414 730 L 415 727 L 412 726 L 411 719 L 413 718 L 411 715 L 414 712 L 411 714 L 407 712 L 411 711 L 411 708 L 413 710 L 413 706 L 416 704 L 420 706 L 421 704 L 420 706 L 417 704 L 421 700 L 416 703 L 412 698 L 413 695 L 412 697 L 409 696 L 411 693 L 407 693 L 411 689 L 408 691 L 405 689 L 411 686 L 405 688 L 393 680 L 390 674 L 391 668 L 390 671 L 387 669 L 390 671 L 387 679 L 384 676 L 385 672 L 382 675 L 382 678 L 384 676 L 385 679 L 377 680 L 377 682 L 378 680 L 381 682 L 379 688 L 373 689 L 371 687 L 367 690 L 366 688 L 365 693 L 367 694 L 361 693 L 359 695 L 366 695 L 378 688 L 390 696 L 393 701 L 393 707 L 387 716 L 381 718 L 381 722 L 379 719 L 350 732 L 344 732 L 334 724 L 332 713 L 331 719 L 329 715 L 324 719 L 321 717 L 317 720 L 315 715 L 313 725 L 306 732 L 302 733 L 277 724 L 256 920 L 474 820 L 486 812 L 494 810 L 494 807 L 506 805 Z" fill="#75c0fc"/>
<path d="M 216 634 L 203 634 L 190 641 L 182 650 L 173 667 L 178 666 L 181 654 L 192 652 L 194 649 L 193 642 L 197 638 L 205 634 Z" fill="#75c0fc"/>
<path d="M 519 452 L 518 462 L 520 471 L 541 493 L 549 497 L 578 505 L 604 498 L 609 493 L 608 477 L 604 467 L 593 455 L 571 446 L 545 447 L 530 443 L 524 444 Z" fill="#75c0fc"/>
<path d="M 637 234 L 637 239 L 635 239 L 635 236 L 636 243 L 636 240 L 638 240 L 637 247 L 639 248 L 641 261 L 665 316 L 664 312 L 669 313 L 671 308 L 673 308 L 657 271 L 648 235 L 649 244 L 647 244 L 646 239 L 645 243 L 641 245 Z" fill="#75c0fc"/>
<path d="M 869 87 L 886 104 L 903 127 L 918 160 L 925 195 L 927 192 L 930 194 L 932 182 L 934 195 L 929 157 L 925 144 L 909 112 L 906 111 L 907 109 L 900 102 L 903 103 L 896 98 L 897 100 L 894 101 L 897 106 L 895 108 L 892 107 L 894 104 L 892 105 L 891 102 L 887 105 Z" fill="#75c0fc"/>
<path d="M 14 886 L 19 900 L 34 912 L 239 999 L 252 1002 L 273 998 L 506 913 L 753 1001 L 773 1001 L 991 910 L 1001 903 L 1007 890 L 1007 883 L 1006 891 L 1005 889 L 993 902 L 781 980 L 772 983 L 752 984 L 505 872 L 269 983 L 252 984 L 242 982 L 29 903 L 19 896 Z" fill="#89c1ed"/>
<path d="M 262 650 L 264 658 L 263 679 L 256 694 L 248 704 L 256 711 L 231 726 L 208 728 L 196 721 L 210 720 L 193 718 L 177 710 L 166 699 L 158 682 L 164 705 L 182 723 L 205 733 L 226 734 L 244 730 L 262 717 L 256 712 L 256 702 L 262 692 L 269 690 L 270 674 L 267 664 L 266 666 L 264 664 Z" fill="#89c1ed"/>
<path d="M 889 451 L 890 467 L 875 485 L 874 490 L 862 505 L 863 507 L 854 516 L 849 529 L 841 538 L 838 551 L 830 560 L 827 561 L 826 559 L 823 564 L 825 565 L 824 567 L 821 565 L 836 539 L 837 541 L 836 538 L 839 534 L 840 536 L 840 531 L 819 568 L 822 566 L 821 570 L 818 570 L 802 586 L 798 587 L 801 588 L 800 592 L 795 592 L 789 597 L 774 596 L 765 585 L 757 580 L 747 567 L 748 565 L 745 564 L 746 562 L 752 562 L 758 571 L 753 562 L 725 559 L 728 561 L 732 592 L 738 599 L 736 601 L 739 603 L 740 609 L 746 606 L 752 610 L 757 610 L 760 617 L 766 614 L 773 620 L 776 618 L 791 624 L 796 621 L 796 624 L 800 626 L 809 619 L 811 620 L 809 623 L 815 619 L 817 620 L 814 623 L 818 622 L 820 617 L 826 615 L 824 620 L 828 616 L 827 612 L 829 610 L 832 612 L 834 605 L 839 606 L 837 604 L 841 598 L 843 602 L 845 600 L 843 596 L 847 592 L 849 593 L 848 595 L 848 591 L 856 587 L 853 583 L 860 584 L 858 581 L 858 577 L 862 577 L 860 573 L 873 561 L 873 557 L 876 557 L 878 551 L 884 550 L 881 548 L 881 545 L 886 543 L 890 537 L 892 541 L 894 538 L 891 537 L 895 534 L 897 535 L 897 529 L 900 537 Z" fill="#89c1ed"/>
<path d="M 526 456 L 526 460 L 530 461 L 530 466 L 532 467 L 531 472 L 539 486 L 563 498 L 577 500 L 585 498 L 594 492 L 601 483 L 599 467 L 588 456 L 572 450 L 550 452 L 556 454 L 574 453 L 582 456 L 593 466 L 592 468 L 599 475 L 599 484 L 592 492 L 582 493 L 577 496 L 567 494 L 533 472 L 531 461 L 538 452 Z" fill="#89c1ed"/>
<path d="M 292 686 L 293 696 L 302 703 L 319 704 L 324 700 L 325 693 L 322 687 L 312 680 L 301 679 Z" fill="#d6f2fc"/>
<path d="M 221 630 L 203 628 L 190 633 L 179 644 L 175 656 L 185 643 L 194 636 L 206 631 Z" fill="#d6f2fc"/>
<path d="M 717 535 L 717 537 L 722 537 L 724 544 L 731 552 L 731 556 L 737 559 L 734 560 L 751 560 L 754 562 L 735 532 L 735 536 L 725 533 Z" fill="#d6f2fc"/>
<path d="M 909 418 L 902 422 L 886 447 L 888 445 L 890 448 L 898 513 L 895 487 L 898 489 L 898 495 L 899 478 L 902 477 L 900 475 L 903 474 L 902 470 L 906 464 L 911 442 L 912 449 Z" fill="#d6f2fc"/>
<path d="M 169 299 L 118 571 L 77 808 L 109 623 L 129 524 L 130 532 L 129 518 L 132 504 L 135 503 L 137 505 L 141 503 L 138 502 L 138 497 L 141 498 L 140 500 L 147 498 L 150 502 L 144 508 L 149 505 L 151 507 L 145 514 L 154 505 L 156 506 L 153 511 L 155 514 L 155 508 L 158 508 L 155 505 L 156 503 L 161 507 L 164 506 L 157 502 L 163 497 L 165 499 L 157 495 L 163 493 L 160 490 L 164 486 L 165 489 L 168 486 L 167 480 L 164 484 L 160 483 L 168 472 L 172 470 L 167 466 L 170 464 L 171 467 L 174 464 L 175 467 L 177 465 L 174 463 L 182 457 L 183 464 L 179 468 L 183 464 L 188 464 L 188 460 L 191 457 L 184 463 L 182 460 L 188 454 L 184 458 L 182 454 L 190 449 L 193 451 L 201 442 L 196 442 L 200 437 L 202 439 L 207 438 L 207 436 L 201 435 L 205 431 L 210 436 L 213 435 L 210 434 L 213 429 L 210 427 L 206 428 L 205 426 L 208 423 L 213 426 L 214 423 L 216 431 L 218 428 L 214 422 L 221 418 L 216 417 L 218 412 L 224 413 L 224 416 L 227 417 L 224 413 L 227 412 L 226 410 L 223 413 L 221 412 L 224 408 L 220 403 L 223 399 L 225 400 L 223 403 L 225 401 L 231 403 L 232 405 L 229 405 L 229 409 L 233 403 L 235 404 L 237 400 L 232 404 L 230 399 L 236 398 L 236 395 L 233 395 L 231 392 L 233 388 L 235 389 L 234 393 L 236 390 L 240 392 L 250 383 L 251 393 L 254 387 L 260 390 L 257 386 L 268 376 L 266 373 L 267 369 L 273 370 L 273 367 L 266 366 L 271 362 L 274 365 L 271 361 L 274 358 L 277 359 L 277 363 L 281 362 L 276 361 L 279 359 L 276 358 L 279 354 L 277 349 L 279 347 L 274 348 L 278 344 L 281 345 L 281 348 L 285 348 L 283 346 L 287 345 L 289 348 L 297 349 L 296 351 L 300 353 L 301 351 L 313 355 L 319 353 L 314 355 Z" fill="#d6f2fc"/>
<path d="M 594 294 L 596 295 L 592 296 L 594 298 L 591 302 L 595 301 L 597 318 L 592 318 L 619 327 L 624 331 L 610 302 L 611 300 L 600 298 L 600 296 L 596 297 L 597 295 Z" fill="#d6f2fc"/>
<path d="M 729 156 L 737 154 L 758 140 L 777 134 L 792 134 L 829 147 L 819 139 L 801 132 L 765 132 L 745 141 Z" fill="#d6f2fc"/>
<path d="M 810 42 L 771 39 L 734 47 L 696 68 L 672 92 L 685 78 L 687 81 L 702 70 L 703 67 L 699 67 L 703 64 L 707 65 L 742 49 L 755 46 L 758 43 L 760 44 L 761 41 L 793 40 Z" fill="#d6f2fc"/>
<path d="M 59 627 L 39 730 L 38 746 L 34 758 L 32 776 L 30 777 L 28 795 L 24 805 L 24 816 L 16 850 L 14 870 L 12 871 L 12 893 L 12 876 L 38 746 Z" fill="#010102"/>
<path d="M 953 544 L 988 757 L 988 742 L 985 736 L 985 727 L 983 726 L 983 716 L 980 708 L 979 687 L 976 684 L 976 670 L 973 668 L 971 642 L 968 637 L 968 625 L 966 625 L 966 622 L 968 622 L 965 619 L 962 602 L 963 593 L 962 595 L 960 576 L 958 578 L 958 562 L 955 560 L 956 550 Z" fill="#010102"/>
<path d="M 102 412 L 60 624 Z" fill="#010102"/>
<path d="M 273 294 L 168 252 L 149 250 L 140 254 L 132 263 L 128 273 L 124 307 L 118 325 L 103 409 L 120 319 L 124 309 L 130 269 L 140 255 L 153 250 L 166 252 Z" fill="#010102"/>
<path d="M 603 273 L 602 281 L 599 283 L 593 273 L 521 246 L 497 245 L 487 246 L 449 259 L 323 308 L 310 308 L 275 295 L 318 310 L 489 246 L 518 246 L 572 265 L 592 274 L 598 289 L 602 292 Z" fill="#010102"/>
<path d="M 755 21 L 775 18 L 807 20 L 829 25 L 861 39 L 887 57 L 917 87 L 935 114 L 947 141 L 957 179 L 959 200 L 958 238 L 955 255 L 942 296 L 921 345 L 952 542 L 953 533 L 950 530 L 950 518 L 945 498 L 946 492 L 944 493 L 945 486 L 943 486 L 942 470 L 940 470 L 939 455 L 937 453 L 935 426 L 932 419 L 933 409 L 932 406 L 930 407 L 930 391 L 928 391 L 928 380 L 926 380 L 927 373 L 925 375 L 923 359 L 925 352 L 924 355 L 922 354 L 922 343 L 925 343 L 925 336 L 927 336 L 928 329 L 930 329 L 929 326 L 932 324 L 933 317 L 942 300 L 943 292 L 946 289 L 945 285 L 948 284 L 947 279 L 950 276 L 950 270 L 952 270 L 953 261 L 955 260 L 959 228 L 960 232 L 959 211 L 961 212 L 960 193 L 960 199 L 958 199 L 958 174 L 955 173 L 956 166 L 953 163 L 953 155 L 950 152 L 948 139 L 945 138 L 945 132 L 943 132 L 935 112 L 909 76 L 869 43 L 836 27 L 810 20 L 768 18 Z" fill="#010102"/>
</svg>