<svg xmlns="http://www.w3.org/2000/svg" width="54" height="54" viewBox="0 0 54 54">
<path fill="#03153a" d="M 42 35 L 42 45 L 43 45 L 43 35 Z M 11 12 L 11 45 L 13 45 L 12 43 L 12 33 L 13 32 L 43 32 L 43 20 L 44 18 L 43 16 L 38 16 L 36 14 L 36 12 L 29 12 L 29 13 L 31 13 L 34 17 L 34 20 L 32 24 L 38 26 L 40 28 L 40 30 L 39 31 L 15 31 L 14 30 L 14 28 L 16 26 L 22 24 L 21 22 L 21 15 L 23 13 L 26 13 L 26 12 Z"/>
<path fill="#167fd7" d="M 31 47 L 31 48 L 33 48 L 33 47 Z M 47 24 L 47 36 L 48 36 L 48 24 Z M 8 10 L 8 11 L 10 10 L 37 10 L 38 11 L 38 14 L 44 14 L 45 15 L 45 21 L 46 21 L 46 10 L 37 10 L 36 9 L 33 9 L 31 7 L 23 7 L 18 9 L 9 9 Z"/>
<path fill="#082d6a" d="M 14 41 L 14 42 L 41 42 L 41 41 Z"/>
<path fill="#22a3ea" d="M 30 27 L 31 29 L 36 29 L 36 28 Z M 24 27 L 23 26 L 21 26 L 20 27 L 18 27 L 17 29 L 24 29 Z M 47 16 L 47 20 L 48 20 L 48 16 Z M 24 16 L 24 20 L 26 23 L 30 23 L 31 19 L 30 18 L 28 18 L 27 16 Z"/>
<path fill="#0e55c7" d="M 40 47 L 40 48 L 42 48 L 42 47 Z M 15 47 L 15 48 L 17 48 L 17 47 Z M 8 42 L 6 42 L 6 45 L 8 44 Z M 46 37 L 46 41 L 45 43 L 48 44 L 48 37 Z"/>
<path fill="#eceef2" d="M 20 50 L 20 52 L 24 52 L 25 53 L 31 53 L 32 52 L 37 52 L 38 51 L 38 50 L 36 50 L 35 51 L 22 51 Z"/>
</svg>