<svg xmlns="http://www.w3.org/2000/svg" viewBox="0 0 1024 1024">
<path d="M 692 665 L 692 671 L 689 674 L 692 677 L 689 680 L 692 685 L 688 689 L 684 689 L 687 690 L 682 695 L 677 694 L 676 697 L 675 688 L 679 684 L 680 687 L 681 685 L 679 683 L 671 689 L 668 686 L 669 683 L 666 687 L 669 687 L 670 692 L 668 694 L 670 692 L 673 693 L 671 697 L 674 700 L 668 702 L 669 710 L 665 711 L 666 714 L 660 718 L 669 713 L 694 687 Z" fill="#fede35"/>
<path d="M 774 686 L 770 680 L 753 671 L 746 663 L 741 663 L 666 737 L 656 735 L 627 710 L 612 719 L 601 728 L 601 731 L 633 758 L 640 769 L 656 786 L 667 789 L 704 751 L 771 691 Z" fill="#fede35"/>
<path d="M 332 433 L 327 439 L 324 456 L 323 636 L 321 671 L 322 775 L 321 788 L 318 789 L 317 779 L 317 787 L 315 789 L 313 951 L 315 964 L 329 962 L 333 964 L 347 964 L 349 962 L 357 964 L 361 962 L 362 964 L 394 965 L 454 962 L 455 964 L 484 965 L 516 963 L 599 964 L 600 962 L 601 964 L 691 965 L 693 962 L 692 901 L 688 903 L 691 906 L 686 908 L 663 907 L 639 902 L 608 890 L 606 891 L 575 870 L 564 859 L 564 856 L 567 855 L 486 856 L 478 848 L 481 839 L 485 835 L 481 832 L 479 824 L 487 816 L 530 816 L 527 814 L 516 793 L 511 763 L 507 754 L 510 710 L 487 710 L 481 707 L 479 697 L 485 690 L 479 684 L 479 677 L 484 671 L 490 669 L 501 672 L 517 671 L 531 640 L 544 620 L 559 603 L 591 577 L 610 566 L 656 551 L 682 549 L 681 461 L 678 438 L 671 433 L 625 433 L 619 438 L 614 438 L 614 435 L 610 440 L 494 443 L 404 441 L 398 439 L 389 431 L 386 434 Z" fill="#fede35"/>
<path d="M 347 42 L 363 56 L 376 78 L 383 100 L 384 127 L 377 134 L 368 137 L 331 136 L 323 134 L 319 127 L 316 130 L 326 136 L 350 163 L 359 185 L 364 207 L 376 228 L 410 263 L 440 285 L 443 281 L 432 267 L 421 241 L 415 203 L 417 185 L 422 179 L 432 174 L 478 176 L 480 172 L 461 152 L 445 130 L 436 106 L 432 73 L 425 64 L 394 56 L 377 54 L 368 56 Z" fill="#fede35"/>
<path d="M 802 880 L 802 885 L 807 884 L 809 890 L 915 990 L 921 993 L 937 991 L 943 983 L 952 979 L 960 970 L 963 964 L 962 953 L 849 846 L 840 845 L 808 878 Z" fill="#d90509"/>
<path d="M 661 568 L 622 579 L 603 589 L 580 605 L 552 635 L 537 659 L 528 683 L 525 699 L 525 729 L 528 747 L 542 789 L 561 820 L 580 841 L 604 859 L 623 869 L 659 879 L 703 881 L 723 878 L 745 870 L 742 869 L 745 865 L 743 866 L 739 862 L 740 860 L 734 853 L 752 845 L 755 849 L 754 851 L 759 851 L 764 856 L 761 860 L 766 857 L 767 859 L 764 861 L 790 845 L 814 821 L 830 795 L 831 788 L 836 782 L 843 762 L 843 753 L 846 750 L 845 746 L 850 728 L 848 694 L 838 663 L 826 642 L 810 621 L 783 597 L 759 583 L 726 571 L 702 567 Z" fill="#d90509"/>
<path d="M 789 398 L 789 418 L 791 424 L 789 427 L 789 565 L 808 578 L 811 569 L 813 569 L 810 557 L 810 544 L 812 543 L 813 545 L 813 530 L 813 541 L 810 539 L 811 521 L 813 521 L 810 509 L 810 498 L 812 496 L 813 498 L 813 484 L 811 486 L 813 465 L 811 464 L 811 432 L 809 431 L 811 419 Z" fill="#d90509"/>
<path d="M 164 397 L 140 420 L 140 451 L 142 453 L 140 506 L 142 530 L 142 848 L 147 853 L 144 854 L 148 855 L 146 857 L 152 861 L 155 859 L 156 862 L 196 862 L 199 860 L 207 862 L 263 862 L 263 839 L 266 836 L 264 838 L 176 838 L 171 830 L 168 830 L 168 833 L 174 838 L 171 839 L 172 842 L 165 845 L 164 841 L 161 845 L 158 841 L 164 834 Z" fill="#d90509"/>
<path d="M 620 391 L 620 408 L 687 409 L 692 410 L 702 419 L 704 424 L 702 440 L 704 551 L 714 550 L 714 552 L 719 552 L 720 550 L 721 553 L 726 547 L 727 410 L 724 409 L 722 404 L 713 395 L 702 390 Z" fill="#d90509"/>
<path d="M 291 397 L 279 415 L 280 711 L 282 746 L 280 752 L 282 816 L 280 962 L 286 977 L 298 989 L 308 993 L 309 990 L 310 994 L 313 992 L 337 995 L 381 995 L 387 993 L 411 995 L 413 993 L 429 993 L 433 995 L 512 994 L 565 996 L 576 994 L 589 996 L 643 994 L 660 996 L 678 993 L 681 995 L 688 993 L 694 995 L 691 994 L 694 991 L 699 993 L 695 989 L 696 987 L 703 992 L 704 989 L 709 990 L 718 981 L 727 965 L 727 905 L 703 910 L 703 961 L 697 972 L 693 969 L 697 963 L 696 961 L 695 966 L 689 971 L 318 971 L 310 965 L 309 962 L 311 960 L 309 959 L 308 963 L 313 969 L 311 970 L 307 966 L 304 956 L 303 931 L 304 589 L 306 579 L 304 545 L 306 455 L 304 424 L 305 418 L 314 409 L 383 410 L 382 400 L 384 391 L 383 389 L 306 390 Z" fill="#d90509"/>
<path d="M 396 388 L 399 419 L 401 422 L 409 424 L 601 424 L 606 421 L 609 403 L 609 387 L 602 382 L 550 382 L 545 377 L 544 380 L 542 378 L 542 370 L 544 364 L 547 364 L 547 350 L 531 329 L 509 319 L 487 321 L 474 329 L 466 337 L 465 343 L 463 345 L 462 343 L 458 350 L 458 357 L 460 356 L 463 360 L 465 372 L 462 378 L 459 375 L 460 379 L 457 382 L 409 381 L 400 383 Z" fill="#d90509"/>
<path d="M 348 199 L 63 422 L 57 429 L 59 439 L 70 447 L 76 447 L 93 432 L 109 422 L 112 416 L 117 415 L 126 406 L 159 382 L 218 333 L 227 323 L 242 314 L 351 229 L 353 225 L 345 208 Z" fill="#d90509"/>
<path d="M 610 126 L 611 139 L 614 140 L 615 147 L 612 158 L 614 167 L 613 187 L 724 270 L 721 266 L 720 234 L 722 203 L 724 208 L 724 159 L 722 157 L 722 147 L 724 147 L 724 131 L 726 127 L 721 122 L 715 120 L 617 120 Z" fill="#d90509"/>
<path d="M 460 116 L 473 136 L 500 152 L 626 248 L 645 265 L 690 297 L 788 375 L 799 386 L 825 406 L 831 408 L 835 414 L 841 415 L 841 418 L 864 438 L 870 440 L 871 443 L 878 447 L 883 447 L 894 439 L 895 434 L 893 433 L 896 429 L 892 424 L 501 122 L 483 112 L 465 112 Z" fill="#d90509"/>
<path d="M 738 619 L 736 620 L 735 650 L 747 650 L 771 667 L 782 682 L 782 696 L 738 741 L 736 749 L 737 782 L 734 830 L 740 830 L 746 826 L 740 826 L 737 822 L 759 805 L 772 791 L 788 763 L 796 723 L 794 699 L 787 682 L 788 675 L 792 678 L 797 688 L 803 716 L 803 734 L 798 765 L 805 740 L 804 703 L 792 669 L 783 655 L 766 637 Z" fill="#2193e2"/>
<path d="M 499 351 L 492 356 L 490 365 L 495 371 L 503 373 L 512 366 L 513 358 L 507 352 Z" fill="#2193e2"/>
<path d="M 675 312 L 496 175 L 490 173 L 487 181 L 478 188 L 482 189 L 478 192 L 437 191 L 433 194 L 431 193 L 429 196 L 428 213 L 436 248 L 452 278 L 451 290 L 446 295 L 447 297 L 444 301 L 432 300 L 418 291 L 415 286 L 394 270 L 371 240 L 226 352 L 184 387 L 184 821 L 188 823 L 263 823 L 264 831 L 268 831 L 269 413 L 274 399 L 285 386 L 297 379 L 308 376 L 386 377 L 402 369 L 448 369 L 448 349 L 456 330 L 473 314 L 495 306 L 516 307 L 528 312 L 541 321 L 550 331 L 556 343 L 559 369 L 605 369 L 618 377 L 701 377 L 708 379 L 728 393 L 735 404 L 738 414 L 738 558 L 767 570 L 769 418 L 768 388 Z" fill="#2193e2"/>
<path d="M 565 849 L 555 840 L 550 840 L 554 840 L 554 842 L 485 841 L 483 844 L 483 848 L 487 851 L 550 851 L 551 849 Z" fill="#235754"/>
<path d="M 842 828 L 856 831 L 938 910 L 972 947 L 971 950 L 974 958 L 973 947 L 970 941 L 939 907 L 861 834 L 851 828 Z" fill="#235754"/>
<path d="M 484 826 L 486 830 L 546 829 L 544 826 L 540 826 L 540 823 L 530 822 L 487 823 Z" fill="#235754"/>
<path d="M 457 789 L 454 786 L 449 786 L 441 791 L 360 792 L 358 796 L 357 872 L 361 876 L 365 874 L 391 875 L 385 876 L 398 876 L 398 874 L 409 876 L 440 875 L 443 872 L 443 867 L 444 870 L 445 811 L 456 797 Z" fill="#235754"/>
<path d="M 483 699 L 487 705 L 512 705 L 514 695 L 486 695 Z" fill="#235754"/>
<path d="M 483 679 L 487 685 L 512 685 L 517 683 L 518 677 L 516 676 L 518 675 L 486 675 Z" fill="#235754"/>
<path d="M 457 642 L 450 639 L 442 644 L 379 644 L 386 645 L 361 646 L 358 650 L 359 706 L 357 726 L 360 727 L 358 728 L 362 731 L 439 731 L 444 725 L 445 665 L 458 648 Z" fill="#235754"/>
<path d="M 733 615 L 731 618 L 732 654 L 669 718 L 662 723 L 658 723 L 635 703 L 621 701 L 600 716 L 593 727 L 595 736 L 662 804 L 665 804 L 730 744 L 732 748 L 734 820 L 735 749 L 737 741 L 781 696 L 781 682 L 771 668 L 747 651 L 734 650 L 735 620 L 737 618 L 760 631 L 784 655 L 796 675 L 805 703 L 806 740 L 800 765 L 787 791 L 759 820 L 743 831 L 731 835 L 743 831 L 762 818 L 786 793 L 800 766 L 807 736 L 805 700 L 799 681 L 788 660 L 761 631 Z" fill="#235754"/>
<path d="M 825 609 L 824 612 L 838 631 L 854 664 L 859 682 L 858 690 L 862 708 L 861 692 L 854 658 L 845 639 Z" fill="#235754"/>
<path d="M 483 554 L 488 559 L 615 559 L 559 558 L 618 558 L 622 551 L 621 549 L 488 548 L 484 550 Z" fill="#235754"/>
<path d="M 483 533 L 483 536 L 487 539 L 621 538 L 623 535 L 617 529 L 487 529 Z" fill="#235754"/>
<path d="M 457 496 L 450 494 L 442 500 L 438 498 L 362 498 L 359 504 L 358 581 L 361 584 L 440 584 L 443 581 L 442 579 L 444 579 L 445 520 L 457 505 Z" fill="#235754"/>
<path d="M 727 393 L 716 384 L 701 378 L 618 378 L 605 370 L 559 370 L 557 368 L 558 356 L 556 346 L 546 327 L 528 313 L 509 307 L 495 307 L 483 310 L 470 317 L 460 326 L 450 345 L 448 370 L 402 370 L 386 378 L 308 377 L 297 380 L 285 387 L 275 399 L 270 413 L 270 813 L 268 832 L 270 832 L 271 798 L 270 416 L 275 401 L 284 389 L 292 383 L 306 378 L 386 379 L 401 371 L 450 371 L 449 351 L 456 333 L 471 317 L 491 308 L 513 308 L 536 319 L 546 329 L 554 342 L 557 352 L 557 370 L 606 371 L 619 379 L 695 378 L 707 380 L 726 393 L 735 408 L 737 416 L 736 559 L 758 567 L 776 577 L 761 568 L 736 559 L 738 556 L 737 414 L 734 404 Z" fill="#235754"/>
<path d="M 737 286 L 754 297 L 793 329 L 802 333 L 832 360 L 874 390 L 902 415 L 903 419 L 895 412 L 905 422 L 907 429 L 908 425 L 905 415 L 890 399 L 854 373 L 811 337 L 751 293 Z" fill="#235754"/>
<path d="M 338 191 L 335 190 L 317 201 L 67 397 L 52 412 L 47 423 L 56 411 L 61 410 L 83 390 L 82 393 L 89 384 L 94 381 L 92 385 L 115 366 L 108 372 L 106 371 L 122 357 L 161 328 L 154 336 L 169 324 L 165 325 L 182 310 L 189 306 L 186 311 L 194 305 L 198 298 L 207 292 L 204 297 L 211 291 L 207 292 L 242 263 L 249 258 L 251 259 L 248 262 L 261 252 L 256 256 L 254 255 L 332 193 Z" fill="#235754"/>
<path d="M 338 110 L 319 108 L 311 111 L 303 121 L 302 127 L 306 134 L 306 126 L 309 122 L 305 127 L 305 123 L 315 112 L 324 109 Z" fill="#235754"/>
<path d="M 599 117 L 600 139 L 599 123 L 609 113 L 602 121 L 601 118 L 614 106 L 640 106 L 647 104 L 718 106 L 733 116 L 737 124 L 736 140 L 737 124 L 732 111 L 723 104 L 713 101 L 658 100 L 615 104 L 608 106 Z" fill="#235754"/>
<path d="M 459 101 L 469 100 L 464 99 L 468 96 L 476 95 L 495 98 L 521 120 L 586 168 L 595 179 L 586 167 L 553 139 L 497 98 L 477 93 L 467 95 Z" fill="#235754"/>
<path d="M 450 59 L 446 82 L 446 98 L 449 113 L 455 128 L 457 127 L 456 130 L 459 131 L 457 132 L 476 157 L 483 172 L 478 178 L 432 176 L 421 185 L 418 204 L 422 231 L 433 260 L 445 278 L 442 286 L 435 285 L 421 275 L 382 238 L 363 209 L 356 182 L 347 161 L 331 143 L 314 130 L 314 127 L 313 132 L 316 137 L 321 137 L 345 165 L 353 181 L 354 193 L 360 212 L 367 224 L 368 232 L 374 237 L 371 241 L 395 270 L 415 285 L 418 290 L 438 301 L 445 299 L 445 295 L 451 287 L 451 278 L 433 242 L 427 213 L 428 196 L 431 192 L 433 193 L 437 190 L 478 191 L 481 189 L 477 188 L 486 181 L 489 175 L 485 159 L 478 148 L 473 147 L 459 124 L 456 117 L 459 109 L 449 112 L 447 105 L 447 76 Z" fill="#235754"/>
<path d="M 345 41 L 345 45 L 363 64 L 372 79 L 380 102 L 381 116 L 377 121 L 381 116 L 381 106 L 375 85 L 363 59 L 351 47 L 349 49 L 345 45 Z" fill="#235754"/>
<path d="M 337 29 L 337 40 L 345 29 L 338 37 L 337 34 L 344 26 L 353 21 L 365 19 L 398 19 L 413 23 L 414 25 L 428 27 L 444 34 L 456 45 L 460 54 L 459 59 L 454 48 L 445 39 L 435 35 L 446 40 L 454 48 L 458 57 L 458 67 L 460 65 L 461 53 L 455 39 L 450 34 L 431 26 L 420 25 L 399 17 L 365 15 L 346 21 Z" fill="#235754"/>
<path d="M 800 884 L 802 891 L 833 921 L 838 921 L 842 925 L 840 928 L 911 999 L 918 1002 L 930 1002 L 939 997 L 940 993 L 943 994 L 949 990 L 950 986 L 954 985 L 960 977 L 965 964 L 964 957 L 964 964 L 959 973 L 952 980 L 943 984 L 940 990 L 934 993 L 927 991 L 929 994 L 921 994 L 915 991 L 809 891 L 807 885 L 802 886 Z" fill="#ca0207"/>
<path d="M 525 693 L 527 686 L 523 704 L 523 739 L 527 764 L 537 793 L 556 823 L 581 849 L 603 865 L 628 877 L 655 885 L 699 887 L 720 884 L 745 877 L 775 862 L 790 851 L 819 821 L 836 793 L 847 762 L 851 735 L 849 697 L 851 728 L 841 772 L 832 788 L 831 795 L 815 821 L 790 846 L 766 862 L 763 861 L 766 858 L 761 856 L 759 852 L 754 852 L 752 846 L 734 854 L 739 859 L 737 862 L 740 859 L 740 862 L 743 863 L 741 867 L 746 870 L 723 879 L 703 882 L 676 882 L 648 878 L 623 870 L 604 860 L 580 842 L 560 820 L 543 793 L 532 766 L 524 729 Z" fill="#ca0207"/>
<path d="M 563 661 L 555 685 L 552 707 L 552 721 L 555 722 L 554 733 L 557 751 L 555 712 L 563 677 L 581 645 L 602 624 L 636 603 L 669 594 L 710 595 L 739 604 L 762 616 L 792 644 L 809 673 L 816 692 L 819 712 L 819 734 L 812 768 L 814 765 L 824 724 L 821 692 L 815 672 L 792 634 L 793 631 L 764 607 L 744 595 L 719 587 L 695 584 L 657 588 L 662 589 L 617 605 L 607 611 L 584 631 L 570 648 Z" fill="#ca0207"/>
<path d="M 279 568 L 279 967 L 283 978 L 294 991 L 314 999 L 685 1000 L 707 995 L 723 982 L 729 963 L 728 896 L 697 901 L 701 906 L 696 909 L 696 960 L 698 963 L 688 973 L 691 972 L 692 974 L 699 969 L 702 961 L 702 910 L 721 904 L 728 905 L 728 965 L 719 981 L 709 991 L 704 990 L 703 993 L 696 988 L 699 994 L 694 992 L 686 996 L 678 994 L 660 997 L 643 995 L 589 997 L 576 995 L 565 997 L 512 995 L 433 996 L 429 994 L 413 994 L 411 996 L 392 994 L 381 996 L 337 996 L 313 993 L 310 995 L 309 991 L 307 994 L 298 990 L 285 977 L 279 962 L 281 862 Z" fill="#ca0207"/>
<path d="M 619 393 L 619 417 L 687 416 L 695 422 L 696 551 L 727 556 L 728 418 L 727 547 L 721 554 L 720 551 L 719 553 L 714 553 L 714 551 L 704 552 L 702 549 L 701 440 L 703 424 L 701 419 L 692 411 L 622 410 L 619 408 Z" fill="#ca0207"/>
<path d="M 385 389 L 383 411 L 314 410 L 306 418 L 305 424 L 307 455 L 305 491 L 307 579 L 305 589 L 304 931 L 306 962 L 315 971 L 317 971 L 313 970 L 307 963 L 307 959 L 310 959 L 310 425 L 317 417 L 386 417 Z" fill="#ca0207"/>
<path d="M 785 387 L 782 398 L 784 579 L 814 604 L 814 409 L 811 407 L 812 412 L 810 413 L 801 405 L 803 402 L 809 406 Z" fill="#ca0207"/>
<path d="M 610 387 L 607 421 L 601 425 L 409 425 L 401 423 L 398 419 L 395 390 L 396 425 L 602 426 L 610 421 Z" fill="#ca0207"/>
<path d="M 168 386 L 139 411 L 138 417 L 139 851 L 143 859 L 153 866 L 263 867 L 268 865 L 268 838 L 266 837 L 264 839 L 263 863 L 207 863 L 205 861 L 196 863 L 156 863 L 155 860 L 153 862 L 145 857 L 147 855 L 143 854 L 146 853 L 144 849 L 141 848 L 141 530 L 139 515 L 141 453 L 139 451 L 139 420 L 164 396 L 165 834 L 159 841 L 162 844 L 164 840 L 165 844 L 168 844 L 169 841 L 171 842 L 171 838 L 174 839 L 167 833 L 167 830 L 170 829 L 170 387 Z" fill="#ca0207"/>
<path d="M 492 334 L 483 339 L 477 347 L 476 360 L 478 367 L 489 379 L 486 376 L 482 357 L 485 349 L 484 346 L 489 341 L 499 338 L 516 343 L 521 349 L 523 361 L 521 370 L 514 378 L 516 377 L 517 380 L 512 385 L 522 377 L 528 367 L 530 360 L 528 348 L 520 338 L 512 334 L 503 332 Z" fill="#ca0207"/>
<path d="M 352 198 L 347 201 L 346 205 L 347 212 L 354 225 L 351 230 L 242 315 L 227 324 L 218 334 L 159 383 L 126 407 L 117 416 L 112 417 L 109 423 L 93 433 L 76 448 L 64 445 L 58 439 L 56 430 L 59 442 L 72 450 L 86 445 L 161 383 L 169 381 L 194 362 L 231 330 L 355 235 L 362 228 L 355 215 Z" fill="#ca0207"/>
<path d="M 610 127 L 611 201 L 638 223 L 629 215 L 640 210 L 719 271 L 722 274 L 720 279 L 716 280 L 710 277 L 713 280 L 711 278 L 713 277 L 717 283 L 722 284 L 723 288 L 725 287 L 726 128 L 725 144 L 723 147 L 723 157 L 725 159 L 725 208 L 722 207 L 722 204 L 721 234 L 722 266 L 724 269 L 721 270 L 612 187 L 613 167 L 611 158 L 614 147 L 613 140 L 610 139 Z" fill="#ca0207"/>
<path d="M 461 120 L 474 142 L 484 147 L 565 212 L 713 324 L 769 370 L 808 396 L 869 447 L 882 450 L 894 442 L 897 436 L 896 430 L 894 433 L 896 434 L 895 439 L 883 448 L 878 448 L 871 444 L 870 441 L 864 439 L 840 418 L 841 416 L 835 415 L 831 409 L 825 407 L 799 387 L 788 376 L 690 298 L 600 231 L 599 227 L 594 226 L 500 153 L 473 137 Z" fill="#ca0207"/>
<path d="M 636 604 L 607 621 L 585 641 L 572 660 L 558 697 L 556 712 L 558 751 L 564 770 L 559 753 L 557 733 L 559 699 L 563 684 L 581 650 L 592 637 L 598 637 L 605 627 L 609 627 L 622 618 L 625 619 L 623 621 L 630 617 L 633 618 L 628 616 L 639 608 L 658 601 L 661 603 L 674 603 L 674 601 L 686 600 L 692 602 L 677 603 L 696 603 L 715 607 L 704 603 L 712 602 L 718 605 L 722 604 L 736 611 L 733 612 L 737 610 L 746 611 L 749 614 L 746 618 L 765 631 L 791 657 L 795 667 L 801 666 L 810 681 L 814 695 L 815 706 L 813 707 L 807 694 L 810 715 L 813 718 L 810 726 L 809 746 L 811 738 L 814 740 L 814 749 L 812 749 L 811 756 L 809 757 L 807 753 L 797 779 L 797 784 L 795 783 L 797 792 L 795 797 L 788 803 L 790 804 L 777 813 L 769 822 L 771 823 L 767 824 L 764 829 L 761 828 L 750 833 L 749 830 L 752 830 L 756 824 L 751 829 L 737 836 L 737 840 L 733 843 L 734 845 L 729 844 L 729 847 L 719 848 L 719 850 L 709 847 L 712 845 L 698 844 L 703 845 L 700 847 L 680 847 L 680 845 L 689 845 L 664 845 L 653 842 L 662 846 L 659 848 L 648 846 L 630 838 L 629 834 L 634 837 L 634 835 L 620 828 L 624 830 L 623 832 L 607 824 L 605 825 L 604 822 L 602 823 L 592 813 L 592 810 L 586 807 L 611 830 L 628 840 L 625 838 L 628 837 L 632 840 L 630 841 L 637 842 L 636 844 L 671 853 L 716 851 L 742 842 L 764 829 L 786 809 L 798 793 L 808 774 L 816 748 L 818 712 L 815 692 L 808 673 L 791 644 L 762 617 L 739 605 L 710 596 L 669 595 Z" fill="#670a09"/>
<path d="M 618 382 L 625 384 L 618 385 L 703 385 L 715 391 L 724 400 L 729 411 L 729 555 L 724 557 L 696 552 L 693 554 L 694 556 L 661 555 L 663 556 L 649 557 L 653 558 L 637 563 L 645 561 L 644 563 L 649 564 L 645 566 L 669 561 L 717 562 L 727 566 L 734 565 L 732 567 L 737 568 L 735 566 L 738 566 L 739 569 L 747 572 L 749 570 L 757 574 L 751 570 L 752 568 L 736 562 L 733 559 L 734 557 L 730 558 L 730 422 L 732 410 L 728 398 L 716 387 L 706 382 Z" fill="#670a09"/>
<path d="M 777 376 L 782 380 L 782 396 L 785 386 L 809 405 L 807 406 L 803 403 L 802 405 L 810 412 L 811 406 L 815 409 L 816 603 L 813 605 L 783 579 L 782 565 L 782 579 L 780 582 L 777 578 L 769 576 L 778 583 L 775 584 L 779 589 L 786 592 L 792 599 L 794 598 L 816 622 L 819 611 L 817 609 L 817 414 L 821 410 L 863 445 L 877 452 L 888 450 L 896 444 L 899 438 L 899 427 L 898 436 L 889 448 L 882 451 L 872 450 L 808 397 Z" fill="#670a09"/>
<path d="M 51 427 L 50 433 L 60 447 L 70 452 L 76 452 L 90 445 L 132 410 L 135 409 L 137 414 L 135 425 L 137 480 L 137 795 L 135 843 L 138 856 L 144 864 L 152 869 L 171 870 L 267 869 L 271 867 L 272 856 L 276 864 L 274 868 L 277 879 L 274 901 L 275 914 L 277 915 L 275 959 L 279 976 L 292 993 L 311 1001 L 341 1002 L 697 1001 L 718 991 L 728 977 L 731 965 L 731 895 L 736 889 L 740 893 L 798 893 L 903 997 L 911 1002 L 920 1005 L 935 1003 L 945 998 L 958 987 L 965 974 L 967 965 L 969 964 L 970 966 L 971 958 L 968 959 L 963 948 L 954 943 L 954 940 L 927 913 L 926 915 L 924 913 L 924 910 L 903 890 L 902 884 L 899 884 L 896 878 L 893 876 L 893 879 L 890 876 L 891 871 L 886 873 L 882 869 L 883 867 L 885 868 L 877 860 L 873 860 L 872 856 L 868 856 L 853 841 L 841 838 L 841 833 L 834 832 L 838 837 L 829 840 L 827 845 L 807 863 L 811 862 L 805 869 L 796 863 L 795 860 L 794 862 L 791 855 L 804 843 L 808 843 L 797 856 L 819 834 L 823 832 L 824 834 L 823 830 L 829 833 L 829 831 L 827 832 L 824 829 L 824 823 L 826 822 L 824 819 L 842 785 L 851 754 L 855 710 L 849 689 L 851 682 L 849 686 L 849 679 L 848 681 L 846 679 L 847 674 L 845 676 L 846 669 L 845 673 L 843 670 L 846 666 L 849 668 L 848 663 L 850 663 L 849 661 L 847 662 L 848 659 L 840 655 L 837 649 L 838 653 L 836 653 L 835 647 L 833 648 L 834 644 L 833 646 L 831 644 L 832 641 L 831 643 L 828 639 L 828 634 L 829 637 L 826 636 L 842 665 L 850 695 L 852 735 L 848 762 L 837 793 L 820 821 L 781 859 L 745 878 L 725 884 L 699 888 L 661 887 L 628 878 L 608 869 L 581 850 L 558 827 L 537 795 L 526 764 L 522 739 L 522 704 L 525 687 L 535 657 L 555 625 L 585 595 L 599 585 L 618 576 L 614 575 L 596 585 L 593 584 L 594 582 L 588 586 L 589 583 L 578 594 L 580 596 L 573 603 L 562 606 L 554 614 L 557 611 L 558 613 L 548 621 L 551 618 L 554 623 L 537 648 L 535 648 L 536 645 L 531 653 L 531 658 L 526 665 L 526 677 L 523 680 L 522 677 L 519 686 L 519 692 L 523 688 L 520 714 L 520 743 L 526 767 L 525 772 L 532 786 L 533 797 L 542 806 L 542 810 L 539 811 L 541 816 L 538 815 L 541 818 L 540 820 L 548 825 L 552 833 L 549 832 L 555 839 L 556 837 L 567 849 L 576 850 L 577 854 L 579 854 L 578 856 L 575 855 L 580 859 L 578 860 L 581 863 L 579 861 L 583 861 L 594 872 L 596 870 L 597 874 L 606 879 L 608 878 L 610 881 L 611 879 L 614 883 L 617 884 L 618 882 L 621 884 L 619 885 L 626 888 L 623 886 L 627 882 L 632 885 L 632 888 L 629 889 L 634 891 L 651 889 L 657 892 L 655 894 L 669 895 L 666 895 L 666 892 L 687 891 L 686 893 L 691 891 L 698 896 L 693 899 L 677 899 L 695 899 L 696 908 L 700 906 L 696 901 L 698 899 L 729 896 L 730 963 L 724 982 L 707 996 L 685 1001 L 314 1000 L 297 994 L 286 984 L 278 967 L 277 415 L 279 407 L 286 396 L 295 389 L 308 384 L 385 385 L 374 384 L 385 383 L 372 381 L 307 381 L 302 385 L 298 384 L 301 387 L 296 389 L 295 387 L 297 386 L 290 388 L 276 405 L 273 413 L 272 829 L 268 840 L 269 865 L 263 868 L 153 867 L 142 859 L 138 851 L 137 417 L 138 411 L 168 385 L 170 386 L 170 381 L 174 377 L 169 382 L 161 384 L 151 394 L 79 450 L 68 450 L 58 442 L 55 436 L 56 424 L 123 370 L 124 367 L 124 369 L 122 368 L 117 371 L 111 379 L 102 383 L 101 381 L 95 392 L 84 394 L 86 390 L 78 397 L 83 393 L 82 398 L 77 400 L 74 406 Z" fill="#670a09"/>
<path d="M 386 389 L 387 417 L 391 418 L 391 426 L 394 431 L 402 435 L 603 435 L 614 429 L 618 416 L 618 390 L 613 388 L 612 378 L 603 373 L 557 373 L 554 370 L 554 349 L 547 336 L 542 331 L 539 331 L 542 326 L 540 328 L 540 324 L 536 320 L 514 311 L 486 312 L 469 321 L 463 327 L 455 340 L 452 351 L 451 363 L 453 374 L 401 373 L 391 380 L 394 382 L 393 389 L 389 385 L 387 385 L 390 386 L 390 389 Z" fill="#670a09"/>
<path d="M 732 294 L 878 408 L 875 405 L 877 404 L 852 384 L 854 383 L 851 384 L 851 381 L 848 382 L 844 378 L 842 380 L 834 371 L 832 372 L 832 370 L 809 354 L 811 353 L 807 353 L 799 341 L 797 343 L 797 341 L 793 342 L 793 340 L 789 339 L 790 337 L 788 338 L 778 327 L 780 326 L 776 325 L 778 324 L 768 319 L 770 318 L 767 313 L 766 315 L 763 310 L 762 312 L 758 309 L 750 308 Z" fill="#670a09"/>
<path d="M 630 215 L 714 280 L 714 277 L 716 279 L 721 277 L 721 274 L 699 255 L 682 244 L 652 219 L 640 211 L 637 214 Z" fill="#670a09"/>
<path d="M 353 192 L 347 193 L 337 201 L 331 201 L 332 203 L 323 213 L 316 214 L 307 223 L 308 225 L 304 223 L 299 225 L 300 222 L 291 230 L 292 234 L 275 248 L 269 249 L 261 261 L 251 266 L 251 263 L 244 269 L 244 272 L 240 272 L 241 274 L 237 280 L 234 280 L 235 282 L 219 291 L 215 289 L 218 286 L 213 293 L 214 295 L 204 300 L 205 302 L 202 302 L 203 304 L 192 313 L 193 315 L 172 326 L 168 334 L 167 332 L 152 344 L 146 345 L 148 341 L 142 348 L 143 345 L 140 356 L 131 361 L 129 365 L 127 364 L 129 365 L 127 367 L 343 198 L 353 193 L 352 197 L 356 215 L 363 228 L 319 264 L 366 227 Z" fill="#670a09"/>
<path d="M 538 145 L 568 169 L 558 152 L 559 155 L 549 151 L 548 149 L 550 149 L 547 146 Z" fill="#670a09"/>
<path d="M 612 117 L 608 121 L 609 124 L 607 124 L 607 134 L 604 135 L 604 143 L 606 135 L 608 143 L 606 195 L 610 200 L 609 123 L 614 117 L 716 116 L 726 123 L 727 218 L 725 281 L 726 289 L 730 293 L 727 290 L 729 281 L 731 282 L 730 285 L 732 287 L 734 285 L 740 292 L 735 287 L 736 285 L 729 281 L 727 277 L 728 140 L 731 140 L 731 137 L 729 138 L 728 136 L 730 132 L 732 135 L 733 132 L 731 124 L 729 123 L 728 126 L 723 119 L 716 116 Z" fill="#670a09"/>
<path d="M 350 15 L 337 25 L 333 38 L 338 46 L 360 66 L 369 79 L 378 100 L 378 116 L 372 117 L 361 111 L 340 110 L 333 107 L 315 107 L 308 110 L 299 123 L 299 132 L 318 148 L 324 149 L 328 153 L 342 180 L 341 185 L 317 198 L 312 204 L 155 324 L 60 400 L 45 419 L 46 435 L 53 447 L 65 454 L 77 455 L 95 444 L 130 414 L 135 417 L 131 444 L 134 488 L 133 851 L 135 857 L 144 868 L 160 873 L 202 874 L 271 871 L 273 873 L 272 934 L 275 973 L 280 983 L 290 995 L 298 1000 L 312 1004 L 696 1004 L 714 997 L 730 980 L 733 970 L 733 912 L 735 902 L 743 898 L 777 897 L 789 894 L 802 899 L 906 1004 L 918 1008 L 931 1008 L 949 999 L 962 987 L 976 966 L 976 947 L 952 917 L 877 845 L 859 830 L 836 824 L 832 816 L 832 811 L 841 795 L 853 762 L 856 738 L 860 736 L 863 718 L 863 690 L 860 686 L 860 675 L 853 650 L 841 628 L 827 610 L 822 588 L 822 437 L 820 434 L 819 416 L 821 414 L 865 451 L 877 455 L 887 454 L 904 442 L 908 437 L 911 421 L 907 412 L 886 393 L 856 372 L 793 321 L 786 318 L 751 290 L 737 282 L 732 275 L 730 257 L 731 162 L 735 155 L 738 135 L 737 115 L 726 103 L 702 97 L 654 97 L 607 104 L 597 116 L 598 142 L 601 148 L 605 171 L 604 177 L 597 177 L 587 165 L 562 146 L 555 138 L 496 95 L 487 92 L 470 92 L 462 95 L 452 94 L 454 97 L 454 104 L 452 105 L 449 102 L 449 83 L 460 71 L 463 62 L 461 44 L 452 33 L 437 25 L 413 19 L 406 15 L 387 12 L 358 12 Z" fill="#030304"/>
<path d="M 479 845 L 481 852 L 486 855 L 565 854 L 488 854 L 480 848 L 481 841 L 485 837 L 499 837 L 487 835 L 483 832 L 486 835 Z" fill="#fce24e"/>
<path d="M 447 817 L 447 870 L 441 877 L 430 879 L 360 878 L 355 873 L 354 862 L 354 874 L 358 879 L 364 881 L 432 881 L 441 879 L 447 871 Z" fill="#fce24e"/>
<path d="M 679 807 L 677 809 L 676 806 L 663 814 L 653 811 L 651 815 L 653 818 L 649 817 L 647 821 L 658 823 L 661 820 L 661 824 L 664 826 L 668 823 L 672 824 L 669 819 L 676 814 L 675 812 L 678 811 Z" fill="#fce24e"/>
<path d="M 688 797 L 681 805 L 688 809 L 688 812 L 693 813 L 693 822 L 693 797 L 692 800 L 690 799 L 691 797 Z" fill="#fce24e"/>
<path d="M 449 794 L 438 800 L 414 822 L 421 821 Z" fill="#fce24e"/>
<path d="M 770 679 L 756 666 L 743 658 L 702 694 L 665 731 L 657 730 L 634 709 L 628 706 L 624 706 L 615 712 L 600 727 L 627 709 L 656 734 L 666 736 L 741 662 L 746 662 L 753 670 Z" fill="#fce24e"/>
<path d="M 354 652 L 354 728 L 358 734 L 365 736 L 438 735 L 445 730 L 447 726 L 447 671 L 447 725 L 441 732 L 359 732 L 354 725 Z" fill="#fce24e"/>
<path d="M 450 646 L 435 656 L 408 682 L 421 670 L 429 667 Z" fill="#fce24e"/>
<path d="M 663 614 L 625 630 L 607 644 L 594 659 L 579 688 L 583 684 L 590 687 L 591 695 L 596 694 L 595 700 L 587 710 L 588 707 L 586 708 L 579 699 L 576 700 L 578 690 L 576 693 L 574 692 L 574 704 L 572 710 L 570 710 L 570 740 L 574 759 L 582 778 L 583 776 L 590 789 L 610 814 L 627 824 L 630 828 L 656 839 L 695 842 L 694 831 L 674 832 L 652 826 L 634 817 L 614 801 L 600 783 L 602 782 L 608 789 L 616 785 L 617 782 L 620 782 L 618 782 L 609 764 L 593 751 L 586 740 L 593 719 L 612 702 L 600 711 L 599 709 L 606 701 L 613 698 L 615 700 L 620 697 L 632 698 L 648 709 L 659 720 L 662 720 L 687 695 L 669 714 L 660 719 L 665 714 L 664 711 L 668 710 L 667 702 L 673 700 L 670 697 L 672 693 L 668 691 L 668 687 L 673 688 L 674 685 L 677 686 L 676 696 L 677 693 L 682 694 L 686 691 L 683 689 L 691 685 L 688 682 L 691 678 L 688 674 L 691 671 L 692 664 L 694 666 L 695 685 L 694 630 L 692 633 L 690 632 L 690 635 L 685 634 L 685 638 L 680 638 L 679 633 L 673 631 L 678 625 L 676 618 L 671 614 Z" fill="#fce24e"/>
<path d="M 625 551 L 622 558 L 618 561 L 487 561 L 480 554 L 480 556 L 488 563 L 616 562 L 624 556 Z" fill="#fce24e"/>
<path d="M 447 526 L 447 579 L 441 586 L 362 587 L 356 582 L 354 575 L 355 585 L 361 589 L 436 589 L 442 587 L 447 580 Z" fill="#fce24e"/>
<path d="M 451 502 L 435 511 L 402 543 L 392 536 L 399 544 L 402 544 L 414 532 L 428 524 Z" fill="#fce24e"/>
<path d="M 619 419 L 619 431 L 613 438 L 632 431 L 671 432 L 679 438 L 682 461 L 681 490 L 684 541 L 682 550 L 669 551 L 693 551 L 692 422 L 688 419 Z" fill="#fce24e"/>
<path d="M 318 419 L 313 424 L 314 890 L 314 789 L 317 778 L 319 779 L 320 788 L 321 775 L 320 671 L 324 446 L 327 437 L 332 432 L 386 433 L 384 427 L 385 420 Z" fill="#fce24e"/>
<path d="M 383 115 L 379 122 L 370 126 L 323 122 L 316 129 L 319 126 L 323 133 L 331 135 L 368 136 L 381 130 L 384 124 Z" fill="#fce24e"/>
<path d="M 350 35 L 347 41 L 368 55 L 377 53 L 406 57 L 425 63 L 431 69 L 441 120 L 457 146 L 481 172 L 480 167 L 455 133 L 449 118 L 450 124 L 448 124 L 443 111 L 441 82 L 447 57 L 446 52 L 440 46 L 431 42 L 404 36 L 379 33 L 355 33 Z" fill="#fce24e"/>
<path d="M 527 853 L 567 853 L 568 855 L 565 856 L 565 859 L 575 869 L 606 889 L 647 903 L 674 907 L 690 906 L 687 903 L 689 901 L 665 900 L 643 896 L 611 884 L 586 869 L 568 853 Z" fill="#f5cc4f"/>
<path d="M 805 878 L 816 870 L 840 844 L 847 844 L 959 950 L 844 840 L 841 840 L 826 859 Z" fill="#f5cc4f"/>
<path d="M 820 836 L 805 854 L 812 857 L 822 847 L 823 843 Z" fill="#f5cc4f"/>
<path d="M 173 831 L 177 837 L 264 837 L 265 835 L 179 835 Z" fill="#f5cc4f"/>
<path d="M 563 772 L 569 787 L 580 805 L 607 834 L 624 845 L 663 858 L 707 858 L 725 854 L 748 845 L 771 830 L 782 819 L 794 802 L 764 831 L 746 842 L 720 851 L 722 852 L 719 854 L 690 858 L 668 857 L 649 852 L 652 851 L 629 842 L 626 843 L 625 840 L 603 826 L 580 802 Z" fill="#f5cc4f"/>
<path d="M 511 709 L 508 754 L 512 763 L 517 793 L 533 818 L 484 820 L 481 824 L 481 829 L 487 834 L 529 836 L 522 838 L 485 838 L 480 846 L 484 851 L 480 846 L 485 839 L 552 838 L 547 832 L 485 833 L 481 829 L 481 824 L 486 819 L 538 819 L 524 794 L 516 766 L 514 768 L 515 762 L 510 732 Z" fill="#f5cc4f"/>
<path d="M 674 608 L 640 617 L 609 636 L 586 662 L 578 677 L 573 693 L 574 697 L 573 692 L 576 692 L 577 689 L 579 690 L 577 700 L 579 698 L 586 705 L 584 710 L 588 714 L 585 708 L 587 706 L 589 707 L 587 709 L 589 708 L 595 694 L 592 697 L 590 695 L 590 688 L 584 685 L 580 687 L 579 684 L 600 650 L 616 635 L 630 626 L 659 614 L 671 613 L 679 622 L 679 625 L 674 630 L 681 635 L 677 639 L 685 637 L 683 635 L 685 633 L 690 634 L 690 631 L 695 630 L 696 685 L 665 719 L 659 721 L 648 710 L 632 699 L 617 699 L 615 697 L 617 699 L 615 701 L 613 699 L 606 702 L 604 706 L 602 703 L 603 707 L 600 709 L 602 711 L 592 722 L 587 736 L 589 745 L 600 757 L 610 764 L 609 766 L 612 767 L 612 770 L 619 779 L 617 785 L 608 790 L 607 788 L 609 787 L 606 788 L 600 781 L 614 800 L 634 816 L 652 825 L 674 831 L 694 830 L 695 843 L 681 843 L 708 841 L 720 837 L 730 830 L 730 769 L 728 757 L 714 767 L 698 786 L 696 782 L 674 802 L 666 807 L 661 807 L 638 791 L 598 750 L 590 739 L 592 737 L 590 731 L 593 721 L 605 709 L 622 698 L 634 700 L 657 720 L 664 720 L 707 674 L 729 654 L 729 627 L 720 622 L 703 620 L 702 648 L 700 648 L 700 626 L 697 626 L 695 610 L 716 612 L 724 615 L 728 620 L 728 615 L 703 609 Z" fill="#f5cc4f"/>
<path d="M 608 570 L 606 569 L 605 572 L 603 571 L 582 584 L 554 609 L 532 640 L 518 673 L 485 673 L 480 681 L 483 686 L 492 689 L 482 696 L 481 702 L 484 705 L 481 702 L 481 698 L 485 693 L 513 693 L 514 687 L 488 688 L 481 683 L 481 678 L 486 673 L 518 673 L 532 642 L 549 617 L 575 591 Z" fill="#f5cc4f"/>
<path d="M 538 656 L 557 627 L 580 604 L 606 586 L 624 577 L 650 569 L 669 566 L 704 566 L 726 570 L 750 578 L 783 596 L 811 621 L 829 645 L 838 662 L 828 641 L 811 618 L 777 589 L 764 582 L 761 583 L 758 579 L 753 579 L 749 575 L 745 575 L 745 573 L 741 574 L 710 566 L 668 564 L 668 566 L 643 571 L 638 570 L 638 572 L 630 574 L 630 572 L 632 572 L 628 573 L 629 575 L 623 577 L 625 574 L 622 578 L 605 586 L 606 583 L 586 596 L 562 619 Z" fill="#f5cc4f"/>
<path d="M 625 533 L 622 529 L 616 528 L 622 529 L 625 533 L 625 536 L 620 541 L 493 542 L 519 543 L 506 544 L 572 545 L 485 546 L 481 551 L 481 555 L 485 559 L 481 555 L 481 551 L 487 546 L 621 547 L 624 550 L 623 555 L 618 560 L 614 560 L 619 561 L 624 553 L 621 547 L 597 545 L 606 544 L 602 544 L 602 542 L 620 541 L 625 536 Z" fill="#f5cc4f"/>
<path d="M 316 419 L 383 418 L 386 420 L 386 430 L 404 440 L 519 442 L 610 439 L 618 431 L 619 418 L 688 418 L 694 424 L 694 551 L 662 553 L 694 552 L 694 423 L 688 418 L 619 418 L 615 431 L 603 437 L 402 437 L 391 430 L 389 419 L 318 418 L 313 422 L 313 962 L 310 962 L 311 965 L 318 970 L 689 970 L 695 964 L 693 900 L 694 962 L 691 966 L 601 965 L 600 963 L 599 965 L 516 964 L 484 966 L 455 965 L 454 963 L 394 966 L 362 965 L 361 963 L 357 965 L 352 963 L 347 965 L 333 965 L 331 963 L 314 964 L 312 959 L 312 424 Z" fill="#f5cc4f"/>
<path d="M 619 388 L 697 388 L 713 394 L 726 409 L 722 400 L 715 393 L 706 388 L 701 389 L 702 387 Z" fill="#f5cc4f"/>
<path d="M 281 411 L 291 396 L 308 388 L 388 388 L 306 387 L 292 393 L 283 403 Z" fill="#f5cc4f"/>
<path d="M 461 342 L 470 331 L 487 320 L 510 318 L 530 327 L 542 340 L 546 349 L 542 337 L 533 329 L 535 328 L 532 326 L 534 328 L 532 329 L 526 322 L 525 324 L 524 321 L 519 321 L 520 319 L 517 320 L 517 318 L 485 318 L 471 327 Z" fill="#f5cc4f"/>
<path d="M 350 196 L 293 238 L 64 418 L 57 428 L 108 385 Z" fill="#f5cc4f"/>
<path d="M 611 122 L 612 124 L 617 119 L 715 119 L 724 124 L 717 118 L 616 118 Z" fill="#f5cc4f"/>
<path d="M 459 113 L 459 115 L 465 111 L 483 111 L 501 121 L 716 288 L 759 319 L 897 428 L 890 419 L 876 408 L 874 409 L 865 399 L 620 211 L 607 199 L 568 172 L 498 116 L 493 115 L 492 112 L 489 113 L 482 110 L 467 109 Z" fill="#f5cc4f"/>
<path d="M 835 827 L 847 830 L 860 839 L 967 943 L 861 838 L 848 829 Z" fill="#84c28c"/>
<path d="M 789 676 L 788 682 L 795 699 L 797 723 L 792 754 L 784 774 L 766 799 L 738 822 L 740 825 L 746 824 L 747 826 L 740 831 L 734 831 L 735 820 L 731 819 L 732 776 L 730 750 L 698 782 L 698 785 L 701 779 L 714 766 L 726 757 L 730 758 L 731 830 L 720 838 L 709 841 L 739 832 L 759 819 L 781 797 L 795 775 L 799 765 L 796 763 L 801 743 L 802 716 L 799 697 L 794 683 Z" fill="#84c28c"/>
<path d="M 775 685 L 758 666 L 747 658 L 741 657 L 664 729 L 657 728 L 636 708 L 628 704 L 619 707 L 598 726 L 600 732 L 657 789 L 664 791 L 668 790 L 714 743 L 667 790 L 656 787 L 639 769 L 635 761 L 600 731 L 599 725 L 607 717 L 622 706 L 628 705 L 634 708 L 657 729 L 665 730 L 702 693 L 743 657 L 761 669 L 774 683 L 774 689 L 767 695 L 774 689 Z" fill="#84c28c"/>
<path d="M 730 615 L 728 621 L 727 618 L 716 613 L 715 615 L 708 615 L 710 617 L 708 619 L 703 618 L 701 620 L 702 630 L 703 619 L 720 621 L 729 625 L 730 654 L 685 699 L 731 654 Z" fill="#84c28c"/>
<path d="M 501 343 L 494 345 L 488 350 L 485 363 L 493 375 L 503 378 L 510 376 L 518 369 L 519 356 L 514 348 Z" fill="#84c28c"/>
<path d="M 738 288 L 834 363 Z" fill="#84c28c"/>
<path d="M 366 229 L 172 381 L 172 829 L 179 834 L 268 834 L 263 831 L 263 824 L 188 824 L 182 819 L 182 390 L 185 384 L 372 239 L 373 237 Z" fill="#84c28c"/>
<path d="M 479 149 L 488 163 L 490 172 L 503 179 L 675 311 L 769 388 L 770 418 L 769 569 L 767 571 L 780 578 L 780 380 L 482 149 Z" fill="#84c28c"/>
<path d="M 604 116 L 608 112 L 620 108 L 718 109 L 726 113 L 734 121 L 736 127 L 735 122 L 727 112 L 715 107 L 618 107 L 610 110 Z" fill="#84c28c"/>
<path d="M 466 99 L 481 98 L 499 105 L 591 175 L 500 104 L 486 98 L 473 97 Z" fill="#84c28c"/>
<path d="M 340 31 L 353 24 L 381 24 L 418 29 L 445 38 L 455 48 L 459 58 L 455 46 L 446 37 L 422 28 L 385 22 L 354 22 Z" fill="#84c28c"/>
<path d="M 520 778 L 525 794 L 539 819 L 486 820 L 482 824 L 482 829 L 485 832 L 547 831 L 554 838 L 548 840 L 485 840 L 481 846 L 484 850 L 482 844 L 485 840 L 554 839 L 547 830 L 483 830 L 482 824 L 486 820 L 540 819 L 525 793 Z" fill="#8d4425"/>
<path d="M 592 726 L 593 737 L 591 739 L 599 750 L 645 796 L 662 806 L 674 801 L 698 781 L 730 749 L 731 751 L 729 745 L 665 805 L 662 805 L 594 736 L 592 732 L 593 724 L 606 710 L 595 720 Z" fill="#8d4425"/>
</svg>