<svg xmlns="http://www.w3.org/2000/svg" viewBox="0 0 1024 1024">
<path d="M 474 621 L 474 686 L 476 672 Z" fill="#fca628"/>
<path d="M 457 612 L 457 687 L 460 641 Z" fill="#fca628"/>
<path d="M 648 392 L 659 400 L 666 410 L 667 481 L 672 538 L 677 514 L 681 520 L 681 530 L 684 531 L 687 508 L 692 488 L 693 432 L 695 430 L 698 431 L 706 442 L 700 432 L 692 427 L 689 428 L 689 436 L 686 439 L 678 434 L 673 439 L 669 432 L 665 405 Z" fill="#fca628"/>
<path d="M 394 375 L 377 386 L 373 391 L 371 401 L 371 443 L 394 467 L 403 468 L 399 376 Z" fill="#fca628"/>
<path d="M 865 366 L 893 395 L 922 437 L 919 447 L 906 429 L 898 422 L 873 418 L 860 419 L 851 414 L 861 442 L 859 448 L 853 445 L 847 448 L 806 446 L 785 449 L 776 448 L 770 452 L 765 452 L 748 438 L 766 466 L 786 507 L 795 535 L 799 561 L 796 599 L 793 599 L 791 590 L 790 599 L 784 609 L 776 640 L 769 653 L 781 645 L 795 622 L 805 594 L 810 547 L 813 546 L 819 558 L 822 556 L 821 525 L 812 509 L 814 502 L 833 501 L 851 505 L 880 520 L 911 551 L 932 584 L 935 597 L 938 596 L 941 600 L 950 599 L 956 602 L 962 614 L 964 605 L 969 602 L 971 604 L 971 613 L 975 585 L 974 550 L 965 509 L 964 515 L 960 511 L 960 502 L 963 502 L 945 460 L 944 465 L 912 417 L 892 393 Z" fill="#fca628"/>
<path d="M 611 365 L 614 501 L 617 508 L 624 506 L 634 507 L 638 502 L 641 393 L 643 390 L 646 391 L 640 390 L 638 418 L 635 428 L 632 429 L 627 422 L 620 427 L 616 419 Z" fill="#fca628"/>
<path d="M 557 325 L 559 328 L 560 508 L 565 514 L 568 510 L 582 510 L 585 504 L 586 361 L 588 349 L 586 354 L 583 418 L 580 423 L 577 416 L 572 417 L 571 415 L 565 426 L 561 410 L 559 328 Z" fill="#fca628"/>
<path d="M 481 320 L 479 331 L 478 413 L 475 434 L 472 430 L 469 414 L 459 424 L 456 418 L 453 343 L 449 341 L 453 343 L 453 519 L 450 523 L 426 492 L 426 358 L 430 352 L 442 346 L 430 352 L 426 358 L 425 423 L 423 449 L 420 457 L 422 468 L 418 473 L 415 473 L 414 452 L 412 448 L 411 469 L 408 470 L 412 478 L 422 484 L 428 497 L 448 524 L 452 534 L 452 547 L 449 556 L 451 560 L 423 594 L 408 608 L 391 632 L 377 661 L 369 696 L 358 709 L 348 712 L 330 712 L 301 704 L 279 690 L 263 675 L 298 705 L 342 715 L 362 715 L 368 720 L 371 715 L 372 690 L 376 668 L 391 635 L 399 630 L 401 632 L 398 654 L 401 727 L 403 729 L 422 727 L 424 707 L 425 597 L 429 589 L 447 570 L 453 569 L 456 572 L 457 579 L 459 565 L 470 556 L 475 556 L 481 542 L 479 348 Z" fill="#fca628"/>
<path d="M 468 309 L 406 343 L 325 396 L 282 427 L 280 425 L 284 420 L 282 423 L 280 421 L 268 428 L 228 431 L 225 434 L 217 434 L 190 445 L 181 447 L 180 444 L 177 444 L 175 447 L 165 448 L 160 452 L 140 454 L 139 457 L 131 459 L 130 462 L 120 460 L 114 467 L 105 468 L 103 473 L 93 472 L 87 478 L 80 478 L 72 486 L 70 484 L 72 475 L 92 436 L 125 392 L 145 370 L 145 368 L 125 387 L 124 392 L 103 417 L 101 414 L 103 412 L 81 441 L 54 492 L 44 525 L 39 559 L 39 588 L 42 612 L 44 606 L 47 609 L 48 618 L 46 623 L 43 615 L 53 647 L 57 649 L 76 679 L 101 701 L 134 720 L 171 736 L 199 743 L 244 751 L 289 752 L 314 749 L 303 746 L 326 739 L 282 736 L 239 721 L 204 699 L 176 673 L 156 642 L 153 624 L 161 627 L 171 622 L 174 623 L 177 618 L 184 615 L 187 611 L 192 612 L 195 602 L 204 613 L 223 651 L 243 675 L 266 696 L 296 713 L 327 724 L 332 730 L 336 730 L 339 727 L 348 727 L 355 723 L 359 724 L 358 722 L 323 720 L 288 704 L 252 676 L 235 657 L 219 630 L 209 589 L 210 561 L 217 529 L 229 499 L 240 480 L 264 450 L 289 427 L 337 390 L 407 344 L 441 324 L 447 324 L 430 339 L 383 367 L 331 403 L 285 443 L 252 480 L 233 517 L 223 559 L 223 597 L 233 629 L 248 656 L 241 645 L 230 616 L 225 587 L 225 564 L 234 522 L 253 483 L 277 453 L 316 416 L 377 372 L 439 333 L 461 317 Z" fill="#fca628"/>
<path d="M 504 303 L 506 316 L 507 468 L 505 528 L 508 532 L 511 532 L 521 526 L 527 526 L 533 518 L 535 306 L 533 309 L 533 354 L 529 415 L 525 419 L 522 416 L 521 408 L 518 408 L 518 415 L 513 424 L 509 405 L 507 315 Z" fill="#fca628"/>
<path d="M 86 690 L 95 701 L 113 715 L 155 737 L 203 752 L 228 757 L 271 761 L 354 759 L 421 748 L 489 726 L 513 716 L 535 703 L 529 703 L 504 717 L 496 718 L 462 732 L 451 733 L 445 737 L 431 739 L 426 742 L 406 744 L 401 747 L 379 748 L 360 753 L 253 753 L 210 747 L 171 737 L 134 721 L 101 702 Z" fill="#fde46d"/>
<path d="M 399 631 L 392 635 L 387 644 L 377 671 L 377 689 L 382 687 L 385 678 L 391 693 L 395 679 Z" fill="#fde46d"/>
<path d="M 813 504 L 813 509 L 822 525 L 824 538 L 823 556 L 819 559 L 811 547 L 806 594 L 796 622 L 787 636 L 787 643 L 790 642 L 806 621 L 857 620 L 888 623 L 931 618 L 932 599 L 934 597 L 931 584 L 907 547 L 886 526 L 867 513 L 851 506 L 833 502 Z" fill="#fde46d"/>
<path d="M 393 377 L 377 387 L 373 395 L 373 441 L 376 448 L 394 465 L 397 465 L 397 378 Z" fill="#fde46d"/>
<path d="M 451 342 L 430 353 L 427 360 L 427 491 L 449 522 L 452 519 Z" fill="#fde46d"/>
<path d="M 446 324 L 407 345 L 337 391 L 296 422 L 265 450 L 234 491 L 223 514 L 213 550 L 210 589 L 214 610 L 220 630 L 236 657 L 252 675 L 288 703 L 316 717 L 332 721 L 358 721 L 361 724 L 332 731 L 327 725 L 296 714 L 266 697 L 242 675 L 222 651 L 203 613 L 195 603 L 195 610 L 192 613 L 187 612 L 184 616 L 177 619 L 174 624 L 171 623 L 161 628 L 154 624 L 157 642 L 177 673 L 204 698 L 235 718 L 282 735 L 327 738 L 324 741 L 304 746 L 309 748 L 355 748 L 364 746 L 372 740 L 374 741 L 371 739 L 375 714 L 373 709 L 368 721 L 362 716 L 338 716 L 312 711 L 296 705 L 281 695 L 261 677 L 241 650 L 227 616 L 222 597 L 222 559 L 227 532 L 237 506 L 251 480 L 272 455 L 302 426 L 331 402 L 383 366 L 430 338 Z" fill="#fde46d"/>
<path d="M 809 314 L 850 350 L 893 393 L 916 421 L 944 464 L 941 455 L 926 430 L 906 404 L 865 362 Z" fill="#fde46d"/>
<path d="M 537 307 L 535 307 L 534 518 L 527 527 L 521 527 L 511 533 L 508 533 L 504 528 L 506 468 L 504 305 L 500 304 L 484 317 L 481 322 L 482 542 L 474 558 L 470 557 L 460 565 L 457 580 L 455 572 L 449 570 L 427 594 L 425 633 L 429 677 L 433 684 L 434 681 L 442 681 L 448 687 L 451 673 L 452 638 L 457 611 L 461 622 L 469 622 L 473 617 L 476 618 L 486 669 L 492 666 L 493 663 L 498 668 L 502 666 L 505 632 L 511 612 L 516 612 L 517 616 L 530 615 L 533 621 L 538 648 L 540 650 L 548 648 L 551 652 L 554 652 L 560 608 L 565 599 L 566 602 L 581 600 L 584 603 L 589 618 L 593 622 L 600 621 L 605 625 L 609 619 L 611 602 L 615 593 L 638 593 L 644 602 L 645 611 L 636 626 L 666 590 L 685 553 L 696 519 L 703 473 L 701 437 L 696 431 L 694 432 L 693 488 L 688 508 L 686 529 L 684 532 L 680 530 L 680 520 L 677 515 L 675 534 L 672 539 L 667 501 L 665 410 L 660 402 L 644 391 L 642 393 L 639 502 L 634 508 L 624 507 L 617 509 L 615 507 L 612 479 L 611 370 L 607 362 L 590 350 L 588 350 L 586 504 L 582 511 L 568 511 L 565 515 L 561 512 L 559 508 L 558 328 Z" fill="#fde46d"/>
<path d="M 533 87 L 536 90 L 534 93 L 517 87 L 501 85 L 503 82 L 484 86 L 465 96 L 399 147 L 305 226 L 420 131 L 454 106 L 458 106 L 284 256 L 227 302 L 186 338 L 154 371 L 157 372 L 182 355 L 195 353 L 196 351 L 206 351 L 211 348 L 220 348 L 232 341 L 252 338 L 253 335 L 258 333 L 262 335 L 263 330 L 268 330 L 274 325 L 274 320 L 277 319 L 278 315 L 288 313 L 295 305 L 304 304 L 310 297 L 314 297 L 315 294 L 319 295 L 320 292 L 330 289 L 336 283 L 345 282 L 346 279 L 353 277 L 354 274 L 365 272 L 366 269 L 376 264 L 391 263 L 396 259 L 405 259 L 428 248 L 438 249 L 448 244 L 502 245 L 505 248 L 513 247 L 520 252 L 530 252 L 532 254 L 528 263 L 514 279 L 475 312 L 357 390 L 311 425 L 288 449 L 302 437 L 304 438 L 270 475 L 248 510 L 231 551 L 229 567 L 231 605 L 237 628 L 232 604 L 231 571 L 233 554 L 247 515 L 273 474 L 317 430 L 331 419 L 335 419 L 331 414 L 337 410 L 343 411 L 346 415 L 347 423 L 345 425 L 337 420 L 346 431 L 423 502 L 437 521 L 443 535 L 443 547 L 432 564 L 403 593 L 372 633 L 363 655 L 356 692 L 350 707 L 356 703 L 360 688 L 362 686 L 365 687 L 367 684 L 367 675 L 363 671 L 363 663 L 371 636 L 407 589 L 445 551 L 447 546 L 444 524 L 422 492 L 394 471 L 370 448 L 366 439 L 369 391 L 375 383 L 394 371 L 401 371 L 406 381 L 407 373 L 411 368 L 420 368 L 426 351 L 448 338 L 454 338 L 457 341 L 457 348 L 459 348 L 459 345 L 469 332 L 474 353 L 477 321 L 482 314 L 501 299 L 506 299 L 509 303 L 513 334 L 517 315 L 519 313 L 522 315 L 523 324 L 527 327 L 530 305 L 538 303 L 562 327 L 565 365 L 569 354 L 573 356 L 576 354 L 581 363 L 583 349 L 586 345 L 589 345 L 613 363 L 619 379 L 626 378 L 636 385 L 644 386 L 661 398 L 668 405 L 672 414 L 676 414 L 697 426 L 709 441 L 712 441 L 731 460 L 761 499 L 776 531 L 781 550 L 784 587 L 783 601 L 786 563 L 791 558 L 791 540 L 784 513 L 760 464 L 724 413 L 701 385 L 698 377 L 750 374 L 751 372 L 769 372 L 770 370 L 780 372 L 782 369 L 789 368 L 796 370 L 793 363 L 770 336 L 769 331 L 777 327 L 791 328 L 800 335 L 813 339 L 817 343 L 830 347 L 846 356 L 783 298 L 691 220 L 694 219 L 787 290 L 791 294 L 683 207 L 591 137 L 556 103 Z" fill="#f94831"/>
<path d="M 332 414 L 342 423 L 346 423 L 343 412 L 337 411 Z" fill="#fc7a32"/>
<path d="M 362 403 L 359 422 L 356 426 L 361 438 L 364 436 Z" fill="#fc7a32"/>
<path d="M 697 427 L 676 415 L 672 415 L 667 405 L 644 387 L 636 386 L 626 379 L 619 380 L 612 363 L 589 346 L 586 346 L 584 349 L 584 358 L 581 364 L 576 355 L 574 357 L 569 355 L 565 366 L 562 356 L 561 327 L 538 304 L 531 305 L 529 326 L 527 328 L 522 324 L 521 315 L 518 315 L 515 334 L 513 335 L 508 303 L 506 300 L 501 300 L 480 317 L 474 354 L 469 333 L 459 349 L 456 348 L 456 341 L 454 339 L 448 339 L 427 351 L 421 368 L 419 370 L 411 369 L 406 382 L 401 372 L 394 372 L 375 384 L 370 391 L 368 400 L 367 439 L 369 444 L 394 470 L 423 492 L 445 524 L 448 546 L 446 551 L 408 589 L 372 636 L 364 663 L 364 671 L 368 675 L 368 684 L 365 688 L 361 688 L 357 703 L 344 711 L 324 710 L 348 711 L 358 708 L 366 700 L 376 661 L 390 632 L 407 608 L 422 594 L 450 560 L 448 556 L 451 547 L 451 534 L 447 524 L 427 497 L 421 484 L 412 479 L 407 472 L 410 469 L 409 463 L 412 447 L 415 452 L 416 473 L 421 468 L 419 457 L 422 449 L 424 423 L 424 367 L 426 355 L 430 351 L 440 347 L 449 340 L 454 343 L 457 418 L 459 423 L 469 413 L 475 433 L 479 321 L 500 302 L 504 302 L 508 315 L 511 417 L 513 423 L 517 415 L 517 408 L 521 407 L 523 416 L 526 418 L 530 400 L 532 309 L 534 305 L 538 305 L 560 328 L 562 410 L 565 425 L 567 418 L 571 414 L 572 416 L 577 415 L 580 422 L 582 418 L 586 349 L 590 348 L 609 361 L 613 367 L 616 412 L 620 426 L 627 421 L 634 428 L 637 418 L 639 390 L 642 388 L 666 405 L 670 432 L 673 438 L 678 433 L 686 438 L 688 436 L 688 428 L 692 426 L 697 428 L 705 437 L 707 448 L 708 440 Z" fill="#fc7a32"/>
<path d="M 692 220 L 783 297 L 847 356 L 844 357 L 830 348 L 800 336 L 791 329 L 777 328 L 774 331 L 770 331 L 771 336 L 797 367 L 796 371 L 789 369 L 782 370 L 780 373 L 770 371 L 769 373 L 751 373 L 750 375 L 729 377 L 699 377 L 702 385 L 725 413 L 761 464 L 776 492 L 789 525 L 792 540 L 792 558 L 787 563 L 785 597 L 779 625 L 772 645 L 791 589 L 795 599 L 795 586 L 798 577 L 797 552 L 785 507 L 765 466 L 747 438 L 751 438 L 765 451 L 770 451 L 776 447 L 785 448 L 806 445 L 847 447 L 853 444 L 859 447 L 860 442 L 850 418 L 851 413 L 860 418 L 873 417 L 898 421 L 907 429 L 919 446 L 921 437 L 892 395 L 851 352 L 808 315 L 809 313 L 840 337 L 881 375 L 910 406 L 934 438 L 945 457 L 965 505 L 974 543 L 976 581 L 974 540 L 963 497 L 943 452 L 913 407 L 871 363 L 819 317 L 706 228 Z" fill="#fc7a32"/>
<path d="M 457 106 L 420 132 L 223 293 L 152 356 L 100 411 L 69 456 L 48 504 L 38 556 L 38 591 L 41 611 L 38 588 L 38 559 L 43 525 L 53 492 L 69 459 L 84 435 L 116 395 L 145 367 L 146 370 L 126 392 L 93 436 L 73 475 L 72 485 L 80 477 L 87 477 L 93 471 L 103 472 L 105 467 L 114 466 L 120 459 L 130 461 L 131 458 L 139 456 L 140 453 L 160 451 L 165 447 L 175 446 L 177 443 L 180 443 L 181 446 L 190 444 L 217 433 L 225 433 L 228 430 L 268 427 L 280 420 L 284 421 L 282 426 L 325 395 L 406 342 L 468 308 L 469 311 L 446 329 L 377 373 L 316 417 L 278 453 L 254 483 L 235 522 L 226 564 L 226 587 L 231 616 L 242 645 L 252 660 L 243 646 L 232 615 L 228 589 L 228 567 L 230 551 L 242 520 L 269 475 L 303 438 L 292 446 L 293 442 L 318 418 L 357 389 L 475 311 L 513 279 L 527 263 L 531 254 L 520 253 L 513 248 L 505 249 L 502 246 L 448 245 L 438 250 L 428 249 L 405 260 L 396 260 L 391 264 L 376 265 L 366 270 L 365 273 L 354 275 L 353 278 L 346 280 L 345 283 L 336 284 L 330 290 L 320 293 L 319 296 L 315 295 L 314 298 L 310 298 L 304 305 L 295 306 L 288 314 L 278 316 L 278 319 L 275 320 L 275 325 L 268 331 L 263 331 L 262 336 L 258 334 L 253 336 L 252 339 L 232 342 L 220 349 L 211 349 L 206 352 L 196 352 L 195 354 L 182 356 L 157 373 L 153 371 L 186 337 L 227 301 L 284 255 Z" fill="#fc7a32"/>
<path d="M 501 84 L 517 86 L 531 92 L 535 90 L 514 82 L 504 82 Z" fill="#fc7a32"/>
<path d="M 68 678 L 84 708 L 114 745 L 159 788 L 219 830 L 287 862 L 348 882 L 406 894 L 453 900 L 480 901 L 550 900 L 608 894 L 681 878 L 728 862 L 763 847 L 826 811 L 872 775 L 919 724 L 934 703 L 946 679 L 910 713 L 890 727 L 886 724 L 847 728 L 846 726 L 761 725 L 755 728 L 735 728 L 734 726 L 714 725 L 681 735 L 658 739 L 649 739 L 647 737 L 689 724 L 711 712 L 724 702 L 688 723 L 669 729 L 637 731 L 624 727 L 613 717 L 605 690 L 601 688 L 591 704 L 550 739 L 519 760 L 470 785 L 428 801 L 393 811 L 262 839 L 196 804 L 159 776 L 126 745 L 100 714 L 103 713 L 128 728 L 94 704 Z" fill="#49c6b1"/>
<path d="M 972 675 L 963 685 L 943 721 L 913 762 L 895 779 L 844 819 L 798 850 L 778 861 L 742 876 L 655 902 L 585 912 L 488 916 L 445 909 L 367 905 L 378 909 L 439 912 L 469 918 L 528 919 L 580 917 L 658 907 L 768 872 L 802 856 L 841 831 L 912 774 L 948 726 L 959 707 Z" fill="#49c6b1"/>
<path d="M 987 493 L 987 500 L 990 505 L 991 536 L 995 551 L 996 574 L 990 621 L 984 635 L 984 647 L 990 638 L 994 626 L 996 602 L 1000 586 L 1000 565 L 995 542 L 994 511 L 989 503 Z" fill="#49c6b1"/>
<path d="M 915 715 L 882 740 L 844 761 L 785 786 L 721 807 L 660 822 L 603 833 L 487 848 L 432 851 L 422 853 L 422 855 L 481 855 L 499 858 L 626 862 L 662 860 L 676 864 L 699 859 L 754 840 L 820 805 L 849 785 L 873 764 L 908 726 Z" fill="#125965"/>
<path d="M 963 668 L 962 663 L 960 663 L 920 724 L 872 776 L 826 812 L 775 842 L 712 869 L 662 884 L 608 895 L 567 900 L 525 902 L 453 901 L 376 890 L 314 873 L 253 848 L 209 825 L 153 784 L 103 734 L 83 708 L 67 680 L 58 672 L 92 727 L 115 756 L 148 790 L 171 809 L 184 816 L 188 821 L 210 835 L 215 836 L 218 841 L 233 847 L 236 851 L 243 852 L 249 857 L 264 862 L 290 877 L 319 883 L 348 898 L 365 904 L 445 908 L 488 915 L 519 915 L 585 911 L 655 901 L 725 881 L 769 864 L 791 853 L 837 823 L 904 769 L 940 720 L 949 704 L 950 698 L 956 690 Z" fill="#125965"/>
<path d="M 746 673 L 743 670 L 742 662 L 735 669 L 734 674 L 726 680 L 725 684 L 714 690 L 691 694 L 679 706 L 662 704 L 649 706 L 651 704 L 634 698 L 633 692 L 656 686 L 656 683 L 648 683 L 647 679 L 652 678 L 652 667 L 657 668 L 657 659 L 662 653 L 667 651 L 661 643 L 656 641 L 644 654 L 636 656 L 631 660 L 624 658 L 622 655 L 557 700 L 497 730 L 452 746 L 415 756 L 349 766 L 269 767 L 212 760 L 173 750 L 145 739 L 101 714 L 111 728 L 145 763 L 180 792 L 241 828 L 262 838 L 269 838 L 288 831 L 303 830 L 326 823 L 408 806 L 448 793 L 481 779 L 519 759 L 550 738 L 587 707 L 596 697 L 601 687 L 606 688 L 612 713 L 621 724 L 631 729 L 655 730 L 687 721 L 708 710 L 737 687 Z" fill="#125965"/>
<path d="M 269 874 L 285 884 L 300 890 L 332 898 L 342 907 L 366 916 L 420 917 L 489 928 L 542 927 L 584 922 L 535 927 L 482 927 L 423 917 L 368 916 L 344 907 L 331 897 L 313 894 L 290 886 Z" fill="#5d1a22"/>
<path d="M 981 521 L 979 524 L 981 565 L 979 586 L 980 612 L 987 577 L 986 547 L 983 545 Z" fill="#5d1a22"/>
<path d="M 733 464 L 744 490 L 733 496 L 735 504 L 734 519 L 731 519 L 729 533 L 723 536 L 723 540 L 712 548 L 705 557 L 704 570 L 698 577 L 699 582 L 694 586 L 693 590 L 695 600 L 690 603 L 690 607 L 687 610 L 686 608 L 682 609 L 678 613 L 674 623 L 659 639 L 659 642 L 682 614 L 689 615 L 692 612 L 689 611 L 695 609 L 695 606 L 700 601 L 695 591 L 707 579 L 709 572 L 721 558 L 723 559 L 724 552 L 742 548 L 745 556 L 747 589 L 756 600 L 756 632 L 758 636 L 754 643 L 745 648 L 743 662 L 746 649 L 761 640 L 765 643 L 767 641 L 767 637 L 763 632 L 763 622 L 768 617 L 769 606 L 772 604 L 775 608 L 779 601 L 780 591 L 779 581 L 777 580 L 780 550 L 775 531 L 763 504 Z" fill="#5d1a22"/>
<path d="M 334 424 L 321 429 L 276 472 L 250 514 L 240 537 L 237 552 L 234 554 L 234 557 L 235 554 L 239 559 L 238 569 L 242 594 L 248 600 L 251 620 L 256 629 L 256 641 L 253 646 L 244 636 L 243 627 L 241 629 L 242 636 L 250 653 L 260 662 L 259 655 L 255 654 L 254 648 L 256 645 L 259 651 L 264 653 L 272 649 L 281 653 L 282 656 L 303 658 L 304 663 L 313 658 L 314 651 L 317 650 L 321 663 L 320 676 L 322 684 L 318 688 L 310 687 L 309 685 L 308 692 L 309 688 L 310 691 L 316 691 L 319 695 L 303 697 L 301 692 L 293 693 L 305 700 L 321 705 L 329 705 L 318 700 L 321 694 L 334 689 L 345 691 L 347 689 L 353 690 L 356 687 L 355 668 L 362 643 L 360 641 L 359 648 L 356 648 L 353 638 L 367 621 L 372 626 L 378 621 L 415 576 L 406 580 L 403 584 L 399 584 L 399 581 L 405 574 L 406 567 L 408 568 L 411 564 L 412 557 L 427 551 L 432 553 L 442 547 L 442 538 L 437 534 L 436 521 L 426 508 L 421 505 L 421 501 L 366 452 L 344 429 Z" fill="#5d1a22"/>
<path d="M 588 143 L 592 178 L 581 216 L 551 257 L 522 285 L 522 288 L 563 322 L 591 341 L 587 336 L 587 331 L 604 321 L 607 310 L 610 308 L 609 300 L 613 297 L 615 290 L 623 282 L 626 282 L 628 273 L 631 274 L 634 271 L 637 279 L 638 252 L 642 236 L 651 219 L 664 207 L 592 144 Z" fill="#5d1a22"/>
<path d="M 551 95 L 578 123 L 679 201 L 693 214 L 706 222 L 824 317 L 855 344 L 907 395 L 937 434 L 952 460 L 977 524 L 977 485 L 972 479 L 962 453 L 956 447 L 956 443 L 932 415 L 930 408 L 910 381 L 846 327 L 808 291 L 760 255 L 741 236 L 717 220 L 680 189 L 603 132 L 576 108 L 557 96 Z" fill="#5d1a22"/>
<path d="M 553 88 L 515 78 L 501 78 L 479 84 L 463 94 L 395 146 L 313 215 L 230 280 L 180 325 L 151 346 L 120 376 L 101 401 L 79 424 L 68 440 L 32 510 L 27 525 L 23 551 L 23 587 L 27 632 L 32 647 L 44 663 L 57 691 L 87 727 L 101 749 L 118 767 L 102 750 L 87 727 L 56 689 L 44 662 L 32 646 L 28 635 L 24 589 L 24 551 L 27 530 L 31 515 L 40 500 L 42 505 L 35 524 L 33 551 L 40 515 L 45 504 L 42 495 L 44 490 L 49 488 L 49 479 L 54 477 L 54 471 L 59 468 L 59 459 L 65 456 L 64 449 L 69 447 L 69 440 L 73 438 L 73 434 L 76 431 L 80 432 L 80 425 L 89 417 L 91 412 L 94 412 L 112 390 L 121 382 L 122 377 L 127 377 L 149 354 L 220 291 L 392 150 L 472 88 L 503 78 L 514 78 L 542 85 L 546 92 L 548 89 Z" fill="#5d1a22"/>
<path d="M 603 696 L 599 703 L 606 720 L 616 730 L 628 734 L 615 725 L 605 711 Z" fill="#d9da69"/>
<path d="M 970 604 L 967 614 L 964 613 L 964 609 L 962 615 L 956 603 L 950 600 L 941 601 L 934 598 L 933 615 L 930 620 L 888 624 L 857 621 L 806 622 L 789 644 L 785 642 L 786 638 L 777 650 L 778 654 L 754 683 L 750 684 L 772 656 L 773 652 L 766 657 L 737 693 L 711 713 L 676 730 L 648 737 L 658 738 L 667 735 L 677 735 L 714 724 L 734 725 L 735 727 L 755 727 L 761 724 L 846 725 L 847 727 L 886 723 L 890 726 L 910 712 L 935 690 L 948 675 L 964 641 L 969 624 Z" fill="#d9da69"/>
<path d="M 706 444 L 698 432 L 702 437 L 704 449 L 703 484 L 697 519 L 686 553 L 667 590 L 637 626 L 636 624 L 644 611 L 643 602 L 638 594 L 615 594 L 610 619 L 605 626 L 600 622 L 593 623 L 588 618 L 581 601 L 566 603 L 565 600 L 560 613 L 555 652 L 551 653 L 548 649 L 540 651 L 537 648 L 530 616 L 517 617 L 516 613 L 511 613 L 506 632 L 503 666 L 501 669 L 498 669 L 493 664 L 492 667 L 486 670 L 483 666 L 481 642 L 475 618 L 469 623 L 461 623 L 459 621 L 461 637 L 460 679 L 457 688 L 455 672 L 456 618 L 453 638 L 452 673 L 448 688 L 442 682 L 434 682 L 433 685 L 430 682 L 427 668 L 425 634 L 425 707 L 422 728 L 403 730 L 400 727 L 397 659 L 395 686 L 391 694 L 388 687 L 386 687 L 385 679 L 383 687 L 376 689 L 376 672 L 372 710 L 373 708 L 376 714 L 372 730 L 374 742 L 372 741 L 364 747 L 355 749 L 315 749 L 303 752 L 290 752 L 360 752 L 379 747 L 401 746 L 406 743 L 426 741 L 431 738 L 445 736 L 451 732 L 462 731 L 477 726 L 482 722 L 504 716 L 529 702 L 536 703 L 534 706 L 513 717 L 459 738 L 397 754 L 325 762 L 271 762 L 228 758 L 203 753 L 155 738 L 113 716 L 95 702 L 85 689 L 70 676 L 54 647 L 54 653 L 70 680 L 113 718 L 150 738 L 198 754 L 251 763 L 331 764 L 392 757 L 448 744 L 506 723 L 556 697 L 604 663 L 646 622 L 671 588 L 692 544 L 704 495 L 707 470 Z" fill="#d9da69"/>
<path d="M 503 79 L 472 89 L 407 139 L 220 292 L 149 355 L 127 378 L 122 378 L 122 382 L 113 390 L 102 405 L 94 413 L 91 413 L 90 417 L 81 425 L 81 432 L 74 434 L 74 438 L 69 443 L 70 447 L 65 449 L 66 456 L 60 459 L 60 468 L 55 471 L 55 477 L 50 479 L 50 488 L 45 490 L 43 495 L 46 504 L 41 515 L 36 546 L 33 552 L 32 535 L 36 517 L 40 510 L 40 501 L 32 515 L 25 551 L 25 589 L 30 639 L 45 662 L 57 689 L 110 758 L 160 807 L 210 842 L 237 858 L 277 876 L 290 885 L 313 893 L 331 896 L 344 906 L 364 914 L 423 916 L 482 926 L 535 926 L 613 918 L 663 910 L 686 904 L 787 869 L 811 856 L 845 833 L 909 782 L 931 758 L 952 727 L 988 656 L 997 626 L 1002 595 L 1003 562 L 997 529 L 996 505 L 986 475 L 964 434 L 947 414 L 934 393 L 913 370 L 810 280 L 783 262 L 738 223 L 706 201 L 685 182 L 659 165 L 577 100 L 555 89 L 550 89 L 546 93 L 543 91 L 542 86 L 514 79 Z" fill="#5c4a43"/>
<path d="M 504 76 L 492 78 L 468 88 L 439 112 L 400 139 L 308 216 L 235 272 L 202 303 L 162 333 L 124 367 L 97 401 L 77 422 L 66 438 L 38 494 L 24 516 L 19 539 L 19 586 L 24 640 L 36 658 L 52 692 L 95 748 L 135 784 L 152 804 L 177 823 L 224 854 L 231 856 L 244 865 L 252 867 L 264 876 L 270 877 L 278 886 L 291 892 L 318 899 L 332 909 L 357 919 L 370 922 L 432 925 L 433 927 L 458 929 L 482 934 L 540 937 L 545 934 L 565 932 L 566 930 L 587 927 L 595 923 L 621 922 L 631 917 L 676 913 L 684 908 L 697 907 L 701 903 L 712 903 L 720 898 L 729 897 L 733 893 L 741 892 L 745 888 L 786 877 L 822 856 L 851 835 L 853 831 L 857 830 L 859 826 L 890 800 L 908 789 L 928 771 L 959 723 L 992 652 L 1003 604 L 1005 564 L 999 531 L 998 506 L 989 475 L 966 433 L 947 411 L 931 386 L 916 370 L 893 352 L 851 312 L 809 277 L 777 255 L 739 221 L 714 205 L 687 181 L 654 159 L 578 98 L 545 83 L 533 82 L 520 77 Z" fill="#020405"/>
</svg>