<?xml version="1.0" encoding="UTF-8"?>
<svg xmlns="http://www.w3.org/2000/svg" width="1024" height="1024" viewBox="0 0 1024 1024" shape-rendering="crispEdges">
  <!-- Background sky/ocean -->
  <path fill="#1b7ec4" d="M0 0 L1024 0 L1024 1024 L0 1024 Z"/>
  <!-- Globe outline / dark base -->
  <path fill="#15345c" d="M512 64 C265 64 64 265 64 512 C64 759 265 960 512 960 C759 960 960 759 960 512 C960 265 759 64 512 64 Z"/>
  <!-- Ocean fill -->
  <path fill="#145892" d="M512 96 C282 96 96 282 96 512 C96 742 282 928 512 928 C742 928 928 742 928 512 C928 282 742 96 512 96 Z"/>
  <!-- Land masses - main continent (green) -->
  <path fill="#589866" d="M200 320 L280 290 L360 310 L420 280 L440 320 L480 310 L500 350 L460 390 L420 410 L380 400 L340 430 L290 420 L250 390 L210 360 Z"/>
  <path fill="#9ad562" d="M210 330 L275 302 L350 320 L410 292 L428 328 L464 318 L480 352 L444 388 L408 406 L372 396 L336 424 L288 414 L252 385 L218 356 Z"/>
  <!-- Land masses - eastern continent -->
  <path fill="#589866" d="M560 240 L640 230 L720 260 L780 240 L820 280 L840 340 L820 400 L780 430 L740 420 L700 440 L660 430 L620 400 L580 370 L560 320 Z"/>
  <path fill="#9ad562" d="M572 252 L644 242 L718 272 L772 252 L808 288 L826 344 L808 400 L772 428 L736 418 L698 437 L660 427 L622 398 L584 370 L572 322 Z"/>
  <!-- Southern land -->
  <path fill="#589866" d="M320 560 L400 540 L480 560 L520 600 L500 660 L460 700 L400 720 L340 700 L300 660 L290 600 Z"/>
  <path fill="#9ad562" d="M330 572 L404 552 L476 572 L514 608 L494 664 L456 700 L400 718 L344 700 L306 662 L296 604 Z"/>
  <!-- Highlight / light land patches -->
  <path fill="#c0eb73" d="M240 340 L290 316 L340 332 L380 308 L394 332 L418 326 L430 348 L406 368 L380 378 L350 370 L318 392 L278 382 L248 360 Z"/>
  <path fill="#c0eb73" d="M586 258 L648 250 L710 272 L754 258 L780 282 L794 326 L776 372 L748 392 L718 384 L682 402 L648 393 L618 372 L590 350 Z"/>
  <!-- Sun / bright highlight -->
  <path fill="#fdfe43" d="M780 120 C800 100 830 100 850 120 C870 140 870 170 850 190 C830 210 800 210 780 190 C760 170 760 140 780 120 Z"/>
  <!-- Sun rays -->
  <path fill="#fdfe43" d="M815 80 L818 100 L821 80 Z M870 115 L854 130 L875 125 Z M880 175 L860 172 L878 188 Z M855 215 L840 200 L840 222 Z M795 228 L800 208 L785 220 Z M745 195 L762 185 L744 172 Z M738 135 L756 145 L742 128 Z M762 92 L768 110 L778 94 Z"/>
  <!-- Light reflection on water -->
  <path fill="#e5fb9b" d="M150 520 L200 510 L240 525 L200 540 Z"/>
  <path fill="#e5fb9b" d="M700 620 L750 610 L790 628 L750 644 Z"/>
  <path fill="#e5fb9b" d="M400 720 L460 710 L500 726 L460 742 Z"/>
</svg>
