<svg xmlns="http://www.w3.org/2000/svg" viewBox="0 0 1024 1024">
  <!-- Dark background -->
  <path fill="#241a38" d="M0 0 L1024 0 L1024 1024 L0 1024 Z"/>
  <!-- Megaphone / bullhorn body -->
  <path fill="#e22121" d="M200 380 L200 644 L400 644 L680 800 L680 224 L400 380 Z"/>
  <!-- Megaphone bell / mouth -->
  <path fill="#a2142d" d="M680 224 L680 800 L860 720 L860 304 Z"/>
  <!-- Megaphone mouth opening -->
  <path fill="#5c1a2b" d="M840 320 L860 320 L860 704 L840 704 Z"/>
  <!-- Handle / grip -->
  <path fill="#a2142d" d="M180 380 L204 380 L204 644 L180 644 Z"/>
  <!-- Sound waves radiating from bell -->
  <path fill="#f61321" d="M880 380 C920 400 940 450 940 512 C940 574 920 624 880 644 L870 626 C906 608 924 562 924 512 C924 462 906 416 870 398 Z"/>
  <path fill="#e22121" d="M900 340 C960 368 990 436 990 512 C990 588 960 656 900 684 L890 665 C946 640 972 576 972 512 C972 448 946 384 890 359 Z"/>
  <path fill="#f61321" d="M916 300 C990 334 1020 420 1020 512 C1020 604 990 690 916 724 L906 705 C976 674 1004 592 1004 512 C1004 432 976 350 906 319 Z"/>
  <!-- Broadcast/signal arc decorations -->
  <path fill="#c9e190" d="M100 200 C80 240 70 280 70 320 C70 360 80 398 100 435 L84 444 C62 404 50 363 50 320 C50 277 62 236 84 196 Z"/>
  <path fill="#c9e190" d="M140 160 C110 210 94 264 94 320 C94 376 110 430 140 480 L124 490 C92 437 76 380 76 320 C76 260 92 203 124 150 Z"/>
  <!-- Speaker grille lines -->
  <path fill="#5c1a2b" d="M220 420 L380 350 L380 370 L220 440 Z"/>
  <path fill="#5c1a2b" d="M220 460 L380 400 L380 420 L220 480 Z"/>
  <path fill="#5c1a2b" d="M220 500 L380 450 L380 470 L220 520 Z"/>
  <path fill="#5c1a2b" d="M220 540 L380 500 L380 520 L220 560 Z"/>
  <path fill="#5c1a2b" d="M220 580 L380 550 L380 570 L220 600 Z"/>
  <!-- Base / stand -->
  <path fill="#a2142d" d="M160 644 L240 644 L280 900 L120 900 Z"/>
  <path fill="#5c1a2b" d="M100 900 L320 900 L320 930 L100 930 Z"/>
  <!-- Decorative dots -->
  <path fill="#c9e190" d="M720 480 C720 464 733 450 750 450 C767 450 780 464 780 480 C780 496 767 510 750 510 C733 510 720 496 720 480 Z"/>
  <path fill="#f61321" d="M500 180 C500 164 513 150 530 150 C547 150 560 164 560 180 C560 196 547 210 530 210 C513 210 500 196 500 180 Z"/>
</svg>
