<?xml version="1.0" encoding="UTF-8"?>
<svg xmlns="http://www.w3.org/2000/svg" width="48" height="48" viewBox="0 0 1024 1024">
  <!-- Background -->
  <rect width="1024" height="1024" rx="180" fill="#15345c"/>
  <!-- Map terrain background -->
  <ellipse cx="512" cy="580" rx="430" ry="310" fill="#145892"/>
  <!-- Map grid lines -->
  <g stroke="#1b7ec4" stroke-width="18" opacity="0.45">
    <line x1="82" y1="430" x2="942" y2="430"/>
    <line x1="82" y1="580" x2="942" y2="580"/>
    <line x1="82" y1="730" x2="942" y2="730"/>
    <line x1="250" y1="270" x2="250" y2="890"/>
    <line x1="440" y1="270" x2="440" y2="890"/>
    <line x1="620" y1="270" x2="620" y2="890"/>
    <line x1="800" y1="270" x2="800" y2="890"/>
  </g>
  <!-- Main location pin shape -->
  <path d="M512,180 C380,180 270,290 270,430 C270,610 512,860 512,860 C512,860 754,610 754,430 C754,290 644,180 512,180 Z" fill="#1b7ec4"/>
  <!-- Inner circle of pin -->
  <circle cx="512" cy="415" r="155" fill="#145892"/>
  <!-- Green dollar coin background -->
  <circle cx="512" cy="415" r="120" fill="#589866"/>
  <circle cx="512" cy="415" r="100" fill="#9ad562"/>
  <!-- Dollar sign - vertical bar -->
  <rect x="496" y="335" width="36" height="165" rx="18" fill="#15345c"/>
  <!-- Dollar sign - upper curve (top of S) -->
  <path d="M 456 370 Q 456 338 492 338 L 530 338 Q 562 338 562 370 Q 562 398 530 405 L 490 412 Q 456 419 456 452 Q 456 484 490 484 L 530 484 Q 562 484 562 453" stroke="#15345c" stroke-width="30" fill="none" stroke-linecap="round"/>
  <!-- Green highlight on pin -->
  <ellipse cx="440" cy="310" rx="55" ry="38" fill="#c0eb73" opacity="0.5"/>
  <!-- Hail circles scattered around -->
  <circle cx="210" cy="260" r="46" fill="#fdfe43"/>
  <circle cx="155" cy="410" r="34" fill="#fdfe43"/>
  <circle cx="185" cy="560" r="40" fill="#fdfe43"/>
  <circle cx="815" cy="250" r="42" fill="#fdfe43"/>
  <circle cx="875" cy="400" r="32" fill="#fdfe43"/>
  <circle cx="845" cy="550" r="38" fill="#fdfe43"/>
  <circle cx="360" cy="175" r="28" fill="#fdfe43"/>
  <circle cx="680" cy="160" r="30" fill="#fdfe43"/>
  <!-- Pin tip shadow -->
  <ellipse cx="512" cy="855" rx="55" ry="18" fill="#0d2240" opacity="0.6"/>
</svg>
